<?xml version="1.0" encoding="UTF-8" standalone="no"?>
<!-- Created with Inkscape (http://www.inkscape.org/) -->

<svg
   xmlns:dc="http://purl.org/dc/elements/1.1/"
   xmlns:cc="http://creativecommons.org/ns#"
   xmlns:rdf="http://www.w3.org/1999/02/22-rdf-syntax-ns#"
   xmlns:svg="http://www.w3.org/2000/svg"
   xmlns="http://www.w3.org/2000/svg"
   xmlns:xlink="http://www.w3.org/1999/xlink"
   xmlns:sodipodi="http://sodipodi.sourceforge.net/DTD/sodipodi-0.dtd"
   xmlns:inkscape="http://www.inkscape.org/namespaces/inkscape"
   width="2125.9841"
   height="1417.3228"
   id="svg2"
   version="1.1"
   inkscape:version="0.48.4 r9939"
   sodipodi:docname="ZSHA-PITO-04.dxf">
  <defs
     id="defs4">
    <clipPath
       clipPathUnits="userSpaceOnUse"
       id="clipPath3028">
      <path
         inkscape:connector-curvature="0"
         d="m 0,841.89 595.28,0 L 595.28,0 0,0 0,841.89 z"
         id="path3030" />
    </clipPath>
  </defs>
  <sodipodi:namedview
     id="base"
     pagecolor="#ffffff"
     bordercolor="#666666"
     borderopacity="1.0"
     inkscape:pageopacity="0.0"
     inkscape:pageshadow="2"
     inkscape:zoom="0.70710678"
     inkscape:cx="783.54903"
     inkscape:cy="597.92157"
     inkscape:document-units="mm"
     inkscape:current-layer="layer1"
     showgrid="false"
     units="mm"
     inkscape:window-width="1151"
     inkscape:window-height="794"
     inkscape:window-x="1407"
     inkscape:window-y="34"
     inkscape:window-maximized="0" />
  <metadata
     id="metadata7">
    <rdf:RDF>
      <cc:Work
         rdf:about="">
        <dc:format>image/svg+xml</dc:format>
        <dc:type
           rdf:resource="http://purl.org/dc/dcmitype/StillImage" />
        <dc:title></dc:title>
      </cc:Work>
    </rdf:RDF>
  </metadata>
  <g
     inkscape:label="Layer 1"
     inkscape:groupmode="layer"
     id="layer1"
     transform="translate(0,364.96061)">
    <g
       style="fill:none"
       id="g3850"
       transform="translate(-18.358512,-401.69591)">
      <path
         transform="translate(0,-364.96061)"
         style="stroke:#f20000;stroke-width:0.17716534;stroke-miterlimit:4;stroke-opacity:1"
         d="m 691.42859,1040.1799 290.55118,0 0,187.7953 -290.55118,0 z"
         id="rect3066"
         inkscape:connector-curvature="0" />
      <path
         transform="matrix(0.57521112,0,0,0.57521112,422.33188,93.692578)"
         style="stroke:#f20000;stroke-width:0.17716534;stroke-miterlimit:4;stroke-opacity:1"
         d="m 560.00002,1016.9656 c 0,3.3531 -2.71827,6.0714 -6.07143,6.0714 -3.35316,0 -6.07143,-2.7183 -6.07143,-6.0714 0,-3.3532 2.71827,-6.0715 6.07143,-6.0715 3.35316,0 6.07143,2.7183 6.07143,6.0715 z"
         id="path3068"
         inkscape:connector-curvature="0" />
      <path
         transform="matrix(0.57521112,0,0,0.57521112,613.82471,93.692578)"
         style="stroke:#f20000;stroke-width:0.17716534;stroke-miterlimit:4;stroke-opacity:1"
         d="m 560.00002,1016.9656 c 0,3.3531 -2.71827,6.0714 -6.07143,6.0714 -3.35316,0 -6.07143,-2.7183 -6.07143,-6.0714 0,-3.3532 2.71827,-6.0715 6.07143,-6.0715 3.35316,0 6.07143,2.7183 6.07143,6.0715 z"
         id="path3070"
         inkscape:connector-curvature="0" />
      <path
         transform="matrix(0.57521112,0,0,0.57521112,376.24587,106.09415)"
         style="stroke:#f20000;stroke-width:0.17716534;stroke-miterlimit:4;stroke-opacity:1"
         d="m 560.00002,1016.9656 c 0,3.3531 -2.71827,6.0714 -6.07143,6.0714 -3.35316,0 -6.07143,-2.7183 -6.07143,-6.0714 0,-3.3532 2.71827,-6.0715 6.07143,-6.0715 3.35316,0 6.07143,2.7183 6.07143,6.0715 z"
         id="path3072"
         inkscape:connector-curvature="0" />
      <path
         transform="matrix(0.57521112,0,0,0.57521112,376.24587,262.17685)"
         style="stroke:#f20000;stroke-width:0.17716534;stroke-miterlimit:4;stroke-opacity:1"
         d="m 560.00002,1016.9656 c 0,3.3531 -2.71827,6.0714 -6.07143,6.0714 -3.35316,0 -6.07143,-2.7183 -6.07143,-6.0714 0,-3.3532 2.71827,-6.0715 6.07143,-6.0715 3.35316,0 6.07143,2.7183 6.07143,6.0715 z"
         id="path3074"
         inkscape:connector-curvature="0" />
      <path
         transform="matrix(0.57521112,0,0,0.57521112,376.24587,184.14705)"
         style="stroke:#f20000;stroke-width:0.17716534;stroke-miterlimit:4;stroke-opacity:1"
         d="m 560.00002,1016.9656 c 0,3.3531 -2.71827,6.0714 -6.07143,6.0714 -3.35316,0 -6.07143,-2.7183 -6.07143,-6.0714 0,-3.3532 2.71827,-6.0715 6.07143,-6.0715 3.35316,0 6.07143,2.7183 6.07143,6.0715 z"
         id="path3076"
         inkscape:connector-curvature="0" />
      <g
         style="font-size:12px;font-style:normal;font-variant:normal;font-weight:normal;font-stretch:normal;text-align:start;line-height:125%;letter-spacing:0px;word-spacing:0px;writing-mode:lr-tb;text-anchor:start;stroke:#ff0000;stroke-width:0.99921262;stroke-miterlimit:4;stroke-opacity:1;font-family:Eng_HelvLine;-inkscape-font-specification:Eng_HelvLine"
         id="text3078">
        <path
           d="m 798.05819,764.73699 0,8.688 0,-8.688 m 2.544,2.496 c 1.404,0 2.544,0.684 2.544,3.096 0,2.4 -1.14,3.096 -2.544,3.096 -1.404,0 -2.544,-0.696 -2.544,-3.096 0,-2.412 1.14,-3.096 2.544,-3.096 m 0,0 c 1.404,0 2.544,0.684 2.544,3.096 0,2.4 -1.14,3.096 -2.544,3.096 -1.404,0 -2.544,-0.696 -2.544,-3.096 0,-2.412 1.14,-3.096 2.544,-3.096"
           id="path4076"
           inkscape:connector-curvature="0" />
        <path
           d="m 807.37544,770.28099 c -0.036,-1.38 1.236,-3.024 2.352,-3.012 -1.116,-0.012 -2.388,1.632 -2.352,3.012 m 0,3.144 0,-6.156 0,6.156"
           id="path4078"
           inkscape:connector-curvature="0" />
        <path
           d="m 812.50075,770.13699 5.364,0 c 0,-1.332 -0.528,-3.036 -2.436,-3.036 -1.896,0 -2.94,1.296 -2.94,3.276 0,1.992 1.344,3.048 2.94,3 1.608,-0.048 2.304,-1.296 2.388,-1.74 -0.084,0.444 -0.78,1.692 -2.388,1.74 -1.596,0.048 -2.94,-1.008 -2.94,-3 0,-1.98 1.044,-3.276 2.94,-3.276 1.908,0 2.436,1.704 2.436,3.036 l -5.364,0"
           id="path4080"
           inkscape:connector-curvature="0" />
        <path
           d="m 825.2005,771.85299 c -0.36,0.516 -1.596,1.68 -2.58,1.644 -0.996,-0.036 -1.788,-0.348 -1.788,-1.452 0,-1.116 0.672,-1.584 1.944,-1.704 1.26,-0.12 1.824,-0.312 2.424,-0.48 -0.6,0.168 -1.164,0.36 -2.424,0.48 -1.272,0.12 -1.944,0.588 -1.944,1.704 0,1.104 0.792,1.416 1.788,1.452 0.984,0.036 2.22,-1.128 2.58,-1.644 m 0.852,1.572 c 0,0 -0.852,-0.06 -0.852,-0.78 l 0,-3.948 c 0,-0.504 -0.252,-1.464 -1.872,-1.464 -1.62,0 -2.22,0.732 -2.22,1.488 0,-0.756 0.6,-1.488 2.22,-1.488 1.62,0 1.872,0.96 1.872,1.464 l 0,3.948 c 0,0.72 0.852,0.78 0.852,0.78"
           id="path4082"
           inkscape:connector-curvature="0" />
        <path
           d="m 831.427,767.23299 c 1.392,0 2.544,0.696 2.544,3.096 0,2.4 -1.152,3.096 -2.544,3.096 -1.392,0 -2.532,-0.696 -2.532,-3.096 0,-2.4 1.14,-3.096 2.532,-3.096 m 0,0 c 1.392,0 2.544,0.696 2.544,3.096 0,2.4 -1.152,3.096 -2.544,3.096 -1.392,0 -2.532,-0.696 -2.532,-3.096 0,-2.4 1.14,-3.096 2.532,-3.096 m 2.556,-2.484 0,8.676 0,-8.676"
           id="path4084"
           inkscape:connector-curvature="0" />
        <path
           d="m 839.47225,764.73699 0,8.688 0,-8.688 m 2.544,2.496 c 1.404,0 2.544,0.684 2.544,3.096 0,2.4 -1.14,3.096 -2.544,3.096 -1.404,0 -2.544,-0.696 -2.544,-3.096 0,-2.412 1.14,-3.096 2.544,-3.096 m 0,0 c 1.404,0 2.544,0.684 2.544,3.096 0,2.4 -1.14,3.096 -2.544,3.096 -1.404,0 -2.544,-0.696 -2.544,-3.096 0,-2.412 1.14,-3.096 2.544,-3.096"
           id="path4086"
           inkscape:connector-curvature="0" />
        <path
           d="m 850.1815,773.42499 c 1.5,0 2.724,-0.708 2.724,-3.144 0,-2.424 -1.224,-3.132 -2.724,-3.132 -1.488,0 -2.724,0.708 -2.724,3.132 0,2.436 1.236,3.144 2.724,3.144 m 0,0 c 1.5,0 2.724,-0.708 2.724,-3.144 0,-2.424 -1.224,-3.132 -2.724,-3.132 -1.488,0 -2.724,0.708 -2.724,3.132 0,2.436 1.236,3.144 2.724,3.144"
           id="path4088"
           inkscape:connector-curvature="0" />
        <path
           d="m 860.12237,771.85299 c -0.36,0.516 -1.596,1.68 -2.58,1.644 -0.99599,-0.036 -1.788,-0.348 -1.788,-1.452 0,-1.116 0.67201,-1.584 1.944,-1.704 1.26,-0.12 1.824,-0.312 2.424,-0.48 -0.6,0.168 -1.164,0.36 -2.424,0.48 -1.27199,0.12 -1.944,0.588 -1.944,1.704 0,1.104 0.79201,1.416 1.788,1.452 0.984,0.036 2.22,-1.128 2.58,-1.644 m 0.852,1.572 c 0,0 -0.852,-0.06 -0.852,-0.78 l 0,-3.948 c 0,-0.504 -0.252,-1.464 -1.872,-1.464 -1.61999,0 -2.22,0.732 -2.22,1.488 0,-0.756 0.60001,-1.488 2.22,-1.488 1.62,0 1.872,0.96 1.872,1.464 l 0,3.948 c 0,0.72 0.852,0.78 0.852,0.78"
           id="path4090"
           inkscape:connector-curvature="0" />
        <path
           d="m 865.14887,770.28099 c -0.036,-1.38 1.23601,-3.024 2.352,-3.012 -1.11599,-0.012 -2.388,1.632 -2.352,3.012 m 0,3.144 0,-6.156 0,6.156"
           id="path4092"
           inkscape:connector-curvature="0" />
        <path
           d="m 872.79419,767.23299 c 1.392,0 2.544,0.696 2.544,3.096 0,2.4 -1.152,3.096 -2.544,3.096 -1.392,0 -2.532,-0.696 -2.532,-3.096 0,-2.4 1.14,-3.096 2.532,-3.096 m 0,0 c 1.392,0 2.544,0.696 2.544,3.096 0,2.4 -1.152,3.096 -2.544,3.096 -1.392,0 -2.532,-0.696 -2.532,-3.096 0,-2.4 1.14,-3.096 2.532,-3.096 m 2.556,-2.484 0,8.676 0,-8.676"
           id="path4094"
           inkscape:connector-curvature="0" />
      </g>
    </g>
    <path
       style="fill:none;stroke:#000000;stroke-width:0.99921262;stroke-miterlimit:4;stroke-opacity:1"
       d="m 651.79105,269.97214 c -3.92598,0 -7.09375,3.16777 -7.09375,7.09375 l 0,19.46875 20.67545,0 c 3.926,0 7.09375,3.16777 7.09375,7.09375 l 0,127.5625 c 0,3.92599 -3.16775,7.09375 -7.09375,7.09375 l -20.67545,0 0,19.46875 c 0,3.92598 3.16777,7.09375 7.09375,7.09375 l 333.06965,0 c 3.92598,0 6.39077,-3.23122 7.09375,-7.09375 l 0,-19.46875 -20.67545,0 c -3.926,0 -7.09375,-3.16776 -7.09375,-7.09375 l 0,-127.5625 c 0,-3.92598 3.16775,-7.09375 7.09375,-7.09375 l 20.67545,0 0,-19.46875 c 0,-3.92598 -3.16777,-7.09375 -7.09375,-7.09375 z"
       id="rect3898"
       inkscape:connector-curvature="0"
       sodipodi:nodetypes="sscsssscsssscsssscsss" />
    <path
       style="fill:none;fill-opacity:0.00384001000000000;stroke:#000000;stroke-width:0.99921262000000000;stroke-miterlimit:4;stroke-opacity:1;stroke-dasharray:none"
       d="m 286.28125,603.03125 c -9.81496,0 -17.71875,7.90379 -17.71875,17.71875 l 0,244.5 c 0,9.81496 7.90379,17.71875 17.71875,17.71875 l 1148.03125,0 c 9.815,0 17.7187,-7.90379 17.7187,-17.71875 l 0,-244.5 c 0,-9.81496 -7.9037,-17.71875 -17.7187,-17.71875 l -989.21875,0 c -1.79304,0.99534 -6.8324,6.31419 -10.48795,6.5 -6.73372,0.34227 -13.13172,-2.51754 -17.57455,-6.5 z"
       transform="translate(0,-364.96061)"
       id="rect3938"
       inkscape:connector-curvature="0"
       sodipodi:nodetypes="sssssssscscs" />
    <path
       style="fill:none;stroke:#ff0000;stroke-width:0.99921262;stroke-miterlimit:4;stroke-opacity:1"
       d="m 303.99556,246.93703 1080.70864,0 c 9.815,0 17.7165,7.90157 17.7165,17.71653 l 0,226.77164 c 0,9.81496 -7.9015,17.71654 -17.7165,17.71654 l -1080.70864,0 c -9.81496,0 -17.71654,-7.90158 -17.71654,-17.71654 l 0,-226.77164 c 0,-9.81496 7.90158,-17.71653 17.71654,-17.71653 z"
       id="rect3945" />
    <path
       style="fill:none;stroke:#000000;stroke-width:0.99921262;stroke-miterlimit:4;stroke-opacity:1"
       d="m 622.89244,261.11026 355.45038,0 c 9.81496,0 17.71654,7.90157 17.71654,17.71654 l 0,177.16534 c 0,9.81496 -7.90158,17.71654 -17.71654,17.71654 l -355.45038,0 c -9.81496,0 -17.71654,-7.90158 -17.71654,-17.71654 l 0,-177.16534 c 0,-9.81497 7.90158,-17.71654 17.71654,-17.71654 z"
       id="rect3947" />
    <path
       id="path4023"
       d="m 655.34209,276.40421 a 4.194256,4.1942553 0 0 1 4.19425,4.19425 4.194256,4.1942553 0 0 1 -4.19425,4.19426 4.194256,4.1942553 0 0 1 -4.19426,-4.19426 4.194256,4.1942553 0 0 1 4.19426,-4.19425 z"
       style="fill:none;stroke:#000000;stroke-width:0.46975663;stroke-opacity:1"
       inkscape:connector-curvature="0" />
    <use
       x="0"
       y="0"
       xlink:href="#path4023"
       id="use4025"
       transform="translate(0,173.62207)"
       width="2125.9841"
       height="1417.3228" />
    <use
       x="0"
       y="0"
       xlink:href="#path4023"
       id="use4027"
       transform="translate(325.98405,0)"
       width="2125.9841"
       height="1417.3228" />
    <use
       x="0"
       y="0"
       xlink:href="#use4025"
       id="use4029"
       transform="translate(325.98405,0)"
       width="2125.9841"
       height="1417.3228" />
    <g
       id="g3085"
       transform="translate(-72.637653,267.60655)"
       style="stroke:#000000;stroke-opacity:1">
      <g
         transform="translate(74.720843,-19.575408)"
         id="g3081"
         style="stroke:#000000;stroke-opacity:1">
        <path
           inkscape:connector-curvature="0"
           style="fill:none;stroke:#000000;stroke-width:0.46975663000000001;stroke-opacity:1"
           d="m 623.45239,28.37321 a 4.194256,4.1942553 0 0 1 4.19425,4.19425 4.194256,4.1942553 0 0 1 -4.19425,4.19426 4.194256,4.1942553 0 0 1 -4.19426,-4.19426 4.194256,4.1942553 0 0 1 4.19426,-4.19425 z"
           id="path3073" />
        <use
           height="1417.3228"
           width="2125.9841"
           transform="translate(-31.8897,-74.40893)"
           id="use3075"
           xlink:href="#path4023"
           y="0"
           x="0"
           style="stroke:#000000;stroke-opacity:1" />
      </g>
      <path
         transform="translate(0,-364.96061)"
         style="fill:none;stroke:#000000;stroke-width:0.17716534;stroke-miterlimit:4"
         d="m 691.08661,367.32275 14.17323,0 c 3.92599,0 7.08662,3.16063 7.08662,7.08662 l 0,180.70867 c 0,3.92598 -3.16063,7.08661 -7.08662,7.08661 l -14.17323,0 c -3.92598,0 -7.08661,-3.16063 -7.08661,-7.08661 l 0,-180.70867 c 0,-3.92599 3.16063,-7.08662 7.08661,-7.08662 z"
         id="rect3079" />
    </g>
    <rect
       style="fill:none;stroke:#000000;stroke-width:0.17716534;stroke-miterlimit:4;stroke-opacity:1;stroke-dasharray:none"
       id="rect3831"
       width="35.433071"
       height="35.433071"
       x="398.80823"
       y="939.31854"
       transform="translate(0,-364.96061)" />
    <text
       xml:space="preserve"
       style="font-size:40px;font-style:normal;font-weight:normal;line-height:125%;letter-spacing:0px;word-spacing:0px;fill:#000000;fill-opacity:1;stroke:none;font-family:Sans"
       x="449.71991"
       y="591.32849"
       id="text3841"
       sodipodi:linespacing="125%"><tspan
         sodipodi:role="line"
         id="tspan3843"
         x="449.71991"
         y="591.32849"
         style="font-size:14px">scale: square = 10mm</tspan><tspan
         sodipodi:role="line"
         x="449.71991"
         y="608.82849"
         style="font-size:14px"
         id="tspan3845">key:</tspan><tspan
         sodipodi:role="line"
         x="449.71991"
         y="626.32849"
         style="font-size:14px"
         id="tspan3847">red = vector etch</tspan><tspan
         sodipodi:role="line"
         x="449.71991"
         y="643.82849"
         style="font-size:14px"
         id="tspan3849">black = cut</tspan><tspan
         sodipodi:role="line"
         x="449.71991"
         y="661.32849"
         style="font-size:14px"
         id="tspan3851">recommended stock = 3mm acrylic</tspan></text>
  </g>
</svg>
