  0
SECTION
  2
HEADER
  9
$ACADVER
  1
AC1014
  9
$HANDSEED
  5
FFFF
  9
$MEASUREMENT
 70
     1
  0
ENDSEC
  0
SECTION
  2
TABLES
  0
TABLE
  2
VPORT
  5
8
330
0
100
AcDbSymbolTable
 70
     4
  0
VPORT
  5
2E
330
8
100
AcDbSymbolTableRecord
100
AcDbViewportTableRecord
  2
*ACTIVE
 70
     0
 10
0.0
 20
0.0
 11
1.0
 21
1.0
 12
210.0
 22
148.5
 13
0.0
 23
0.0
 14
10.0
 24
10.0
 15
10.0
 25
10.0
 16
0.0
 26
0.0
 36
1.0
 17
0.0
 27
0.0
 37
0.0
 40
341.0
 41
1.24
 42
50.0
 43
0.0
 44
0.0
 50
0.0
 51
0.0
 71
     0
 72
   100
 73
     1
 74
     3
 75
     0
 76
     0
 77
     0
 78
     0
  0
ENDTAB
  0
TABLE
  2
LTYPE
  5
5
330
0
100
AcDbSymbolTable
 70
     1
  0
LTYPE
  5
14
330
5
100
AcDbSymbolTableRecord
100
AcDbLinetypeTableRecord
  2
BYBLOCK
 70
     0
  3

 72
    65
 73
     0
 40
0.0
  0
LTYPE
  5
15
330
5
100
AcDbSymbolTableRecord
100
AcDbLinetypeTableRecord
  2
BYLAYER
 70
     0
  3

 72
    65
 73
     0
 40
0.0
  0
LTYPE
  5
16
330
5
100
AcDbSymbolTableRecord
100
AcDbLinetypeTableRecord
  2
CONTINUOUS
 70
     0
  3
Solid line
 72
    65
 73
     0
 40
0.0
  0
ENDTAB
  0
TABLE
  2
LAYER
  5
2
100
AcDbSymbolTable
 70
2
  0
LAYER
  5
50
100
AcDbSymbolTableRecord
100
AcDbLayerTableRecord
  2
0
 70
0
  6
CONTINUOUS
  0
LAYER
  5
51
100
AcDbSymbolTableRecord
100
AcDbLayerTableRecord
  2
Layer_1
 70
0
  6
CONTINUOUS
  0
ENDTAB
  0
TABLE
  2
STYLE
  5
3
330
0
100
AcDbSymbolTable
 70
     1
  0
STYLE
  5
11
330
3
100
AcDbSymbolTableRecord
100
AcDbTextStyleTableRecord
  2
STANDARD
 70
     0
 40
0.0
 41
1.0
 50
0.0
 71
     0
 42
2.5
  3
txt
  4

  0
ENDTAB
  0
TABLE
  2
VIEW
  5
6
330
0
100
AcDbSymbolTable
 70
     0
  0
ENDTAB
  0
TABLE
  2
UCS
  5
7
330
0
100
AcDbSymbolTable
 70
     0
  0
ENDTAB
  0
TABLE
  2
APPID
  5
9
330
0
100
AcDbSymbolTable
 70
     2
  0
APPID
  5
12
330
9
100
AcDbSymbolTableRecord
100
AcDbRegAppTableRecord
  2
ACAD
 70
     0
  0
ENDTAB
  0
TABLE
  2
DIMSTYLE
  5
A
330
0
100
AcDbSymbolTable
 70
     1
  0
DIMSTYLE
105
27
330
A
100
AcDbSymbolTableRecord
100
AcDbDimStyleTableRecord
  2
ISO-25
 70
     0
  3

  4

  5

  6

  7

 40
1.0
 41
2.5
 42
0.625
 43
3.75
 44
1.25
 45
0.0
 46
0.0
 47
0.0
 48
0.0
140
2.5
141
2.5
142
0.0
143
0.03937007874016
144
1.0
145
0.0
146
1.0
147
0.625
 71
     0
 72
     0
 73
     0
 74
     0
 75
     0
 76
     0
 77
     1
 78
     8
170
     0
171
     3
172
     1
173
     0
174
     0
175
     0
176
     0
177
     0
178
     0
270
     2
271
     2
272
     2
273
     2
274
     3
340
11
275
     0
280
     0
281
     0
282
     0
283
     0
284
     8
285
     0
286
     0
287
     3
288
     0
  0
ENDTAB
  0
TABLE
  2
BLOCK_RECORD
  5
1
330
0
100
AcDbSymbolTable
 70
     1
  0
BLOCK_RECORD
  5
1F
330
1
100
AcDbSymbolTableRecord
100
AcDbBlockTableRecord
  2
*MODEL_SPACE
  0
BLOCK_RECORD
  5
1B
330
1
100
AcDbSymbolTableRecord
100
AcDbBlockTableRecord
  2
*PAPER_SPACE
  0
ENDTAB
  0
ENDSEC
  0
SECTION
  2
BLOCKS
  0
BLOCK
  5
20
330
1F
100
AcDbEntity
  8
0
100
AcDbBlockBegin
  2
*MODEL_SPACE
 70
     0
 10
0.0
 20
0.0
 30
0.0
  3
*MODEL_SPACE
  1

  0
ENDBLK
  5
21
330
1F
100
AcDbEntity
  8
0
100
AcDbBlockEnd
  0
BLOCK
  5
1C
330
1B
100
AcDbEntity
 67
     1
  8
0
100
AcDbBlockBegin
  2
*PAPER_SPACE
  1

  0
ENDBLK
  5
1D
330
1B
100
AcDbEntity
 67
     1
  8
0
100
AcDbBlockEnd
  0
ENDSEC
  0
SECTION
  2
ENTITIES
  0
SPLINE
  5
100
100
AcDbEntity
  8
Layer_1
 62
7
100
AcDbSpline
 70
8
 71
3
 72
8
 73
4
 74
0
 40
0
 40
0
 40
0
 40
0
 40
1
 40
1
 40
1
 40
1
 10
20.795051
 20
369.810891
 30
0.0
 10
18.025051
 20
369.810891
 30
0.0
 10
15.794426
 20
367.580266
 30
0.0
 10
15.794426
 20
364.810266
 30
0.0
  0
LINE
  5
101
100
AcDbEntity
  8
Layer_1
 62
7
100
AcDbLine
 10
15.794426
 20
364.810266
 30
0.0
 11
15.794426
 21
295.806932
 31
0.0
  0
SPLINE
  5
102
100
AcDbEntity
  8
Layer_1
 62
7
100
AcDbSpline
 70
8
 71
3
 72
8
 73
4
 74
0
 40
0
 40
0
 40
0
 40
0
 40
1
 40
1
 40
1
 40
1
 10
15.794426
 20
295.806932
 30
0.0
 10
15.794426
 20
293.036933
 30
0.0
 10
18.025051
 20
290.806307
 30
0.0
 10
20.795051
 20
290.806307
 30
0.0
  0
LINE
  5
103
100
AcDbEntity
  8
Layer_1
 62
7
100
AcDbLine
 10
20.795051
 20
290.806307
 30
0.0
 11
344.794981
 21
290.806307
 31
0.0
  0
SPLINE
  5
104
100
AcDbEntity
  8
Layer_1
 62
7
100
AcDbSpline
 70
8
 71
3
 72
8
 73
4
 74
0
 40
0
 40
0
 40
0
 40
0
 40
1
 40
1
 40
1
 40
1
 10
344.794981
 20
290.806307
 30
0.0
 10
347.564992
 20
290.806307
 30
0.0
 10
349.795592
 20
293.036933
 30
0.0
 10
349.795592
 20
295.806932
 30
0.0
  0
LINE
  5
105
100
AcDbEntity
  8
Layer_1
 62
7
100
AcDbLine
 10
349.795592
 20
295.806932
 30
0.0
 11
349.795592
 21
364.810266
 31
0.0
  0
SPLINE
  5
106
100
AcDbEntity
  8
Layer_1
 62
7
100
AcDbSpline
 70
8
 71
3
 72
8
 73
4
 74
0
 40
0
 40
0
 40
0
 40
0
 40
1
 40
1
 40
1
 40
1
 10
349.795592
 20
364.810266
 30
0.0
 10
349.795592
 20
367.580266
 30
0.0
 10
347.564992
 20
369.810891
 30
0.0
 10
344.794981
 20
369.810891
 30
0.0
  0
LINE
  5
107
100
AcDbEntity
  8
Layer_1
 62
7
100
AcDbLine
 10
344.794981
 20
369.810891
 30
0.0
 11
65.615467
 21
369.810891
 31
0.0
  0
SPLINE
  5
108
100
AcDbEntity
  8
Layer_1
 62
7
100
AcDbSpline
 70
8
 71
3
 72
8
 73
4
 74
0
 40
0
 40
0
 40
0
 40
0
 40
1
 40
1
 40
1
 40
1
 10
65.615467
 20
369.810891
 30
0.0
 10
65.109431
 20
369.529984
 30
0.0
 10
63.687212
 20
368.028886
 30
0.0
 10
62.655535
 20
367.976446
 30
0.0
  0
SPLINE
  5
109
100
AcDbEntity
  8
Layer_1
 62
7
100
AcDbSpline
 70
8
 71
3
 72
8
 73
4
 74
0
 40
0
 40
0
 40
0
 40
0
 40
1
 40
1
 40
1
 40
1
 10
62.655535
 20
367.976446
 30
0.0
 10
60.755129
 20
367.879850
 30
0.0
 10
58.949471
 20
368.686952
 30
0.0
 10
57.695606
 20
369.810891
 30
0.0
  0
LINE
  5
10a
100
AcDbEntity
  8
Layer_1
 62
7
100
AcDbLine
 10
57.695606
 20
369.810891
 30
0.0
 11
20.795051
 21
369.810891
 31
0.0
  0
LINE
  5
10b
100
AcDbEntity
  8
Layer_1
 62
1
100
AcDbLine
 10
25.794422
 20
367.308598
 30
0.0
 11
330.794416
 21
367.308598
 31
0.0
  0
SPLINE
  5
10c
100
AcDbEntity
  8
Layer_1
 62
1
100
AcDbSpline
 70
8
 71
3
 72
8
 73
4
 74
0
 40
0
 40
0
 40
0
 40
0
 40
1
 40
1
 40
1
 40
1
 10
330.794416
 20
367.308598
 30
0.0
 10
333.564428
 20
367.308598
 30
0.0
 10
335.794406
 20
365.078600
 30
0.0
 10
335.794406
 20
362.308600
 30
0.0
  0
LINE
  5
10d
100
AcDbEntity
  8
Layer_1
 62
1
100
AcDbLine
 10
335.794406
 20
362.308600
 30
0.0
 11
335.794406
 21
298.308604
 31
0.0
  0
SPLINE
  5
10e
100
AcDbEntity
  8
Layer_1
 62
1
100
AcDbSpline
 70
8
 71
3
 72
8
 73
4
 74
0
 40
0
 40
0
 40
0
 40
0
 40
1
 40
1
 40
1
 40
1
 10
335.794406
 20
298.308604
 30
0.0
 10
335.794406
 20
295.538604
 30
0.0
 10
333.564428
 20
293.308603
 30
0.0
 10
330.794416
 20
293.308603
 30
0.0
  0
LINE
  5
10f
100
AcDbEntity
  8
Layer_1
 62
1
100
AcDbLine
 10
330.794416
 20
293.308603
 30
0.0
 11
25.794422
 21
293.308603
 31
0.0
  0
SPLINE
  5
110
100
AcDbEntity
  8
Layer_1
 62
1
100
AcDbSpline
 70
8
 71
3
 72
8
 73
4
 74
0
 40
0
 40
0
 40
0
 40
0
 40
1
 40
1
 40
1
 40
1
 10
25.794422
 20
293.308603
 30
0.0
 10
23.024423
 20
293.308603
 30
0.0
 10
20.794421
 20
295.538604
 30
0.0
 10
20.794421
 20
298.308604
 30
0.0
  0
LINE
  5
111
100
AcDbEntity
  8
Layer_1
 62
1
100
AcDbLine
 10
20.794421
 20
298.308604
 30
0.0
 11
20.794421
 21
362.308600
 31
0.0
  0
SPLINE
  5
112
100
AcDbEntity
  8
Layer_1
 62
1
100
AcDbSpline
 70
8
 71
3
 72
8
 73
4
 74
0
 40
0
 40
0
 40
0
 40
0
 40
1
 40
1
 40
1
 40
1
 10
20.794421
 20
362.308600
 30
0.0
 10
20.794421
 20
365.078600
 30
0.0
 10
23.024423
 20
367.308598
 30
0.0
 10
25.794422
 20
367.308598
 30
0.0
  0
LINE
  5
113
100
AcDbEntity
  8
Layer_1
 62
1
100
AcDbLine
 10
25.794422
 20
367.308598
 30
0.0
 11
25.794422
 21
367.308598
 31
0.0
  0
LINE
  5
114
100
AcDbEntity
  8
Layer_1
 62
7
100
AcDbLine
 10
52.552648
 20
274.903168
 30
0.0
 11
62.552648
 21
274.903168
 31
0.0
  0
LINE
  5
115
100
AcDbEntity
  8
Layer_1
 62
7
100
AcDbLine
 10
62.552648
 20
274.903168
 30
0.0
 11
62.552648
 21
264.903168
 31
0.0
  0
LINE
  5
116
100
AcDbEntity
  8
Layer_1
 62
7
100
AcDbLine
 10
62.552648
 20
264.903168
 30
0.0
 11
52.552648
 21
264.903168
 31
0.0
  0
LINE
  5
117
100
AcDbEntity
  8
Layer_1
 62
7
100
AcDbLine
 10
52.552648
 20
264.903168
 30
0.0
 11
52.552648
 21
274.903168
 31
0.0
  0
SPLINE
  5
118
100
AcDbEntity
  8
Layer_1
 62
1
100
AcDbSpline
 70
8
 71
3
 72
8
 73
4
 74
0
 40
0
 40
0
 40
0
 40
0
 40
1
 40
1
 40
1
 40
1
 10
270.815017
 20
326.419306
 30
0.0
 10
269.785217
 20
326.706272
 30
0.0
 10
268.980658
 20
327.192135
 30
0.0
 10
269.131421
 20
327.436031
 30
0.0
  0
SPLINE
  5
119
100
AcDbEntity
  8
Layer_1
 62
1
100
AcDbSpline
 70
8
 71
3
 72
8
 73
4
 74
0
 40
0
 40
0
 40
0
 40
0
 40
1
 40
1
 40
1
 40
1
 10
269.131421
 20
327.436031
 30
0.0
 10
269.190151
 20
327.531092
 30
0.0
 10
269.123518
 20
327.564840
 30
0.0
 10
268.983254
 20
327.511021
 30
0.0
  0
SPLINE
  5
11a
100
AcDbEntity
  8
Layer_1
 62
1
100
AcDbSpline
 70
8
 71
3
 72
8
 73
4
 74
0
 40
0
 40
0
 40
0
 40
0
 40
1
 40
1
 40
1
 40
1
 10
268.983254
 20
327.511021
 30
0.0
 10
268.652800
 20
327.384224
 30
0.0
 10
267.457928
 20
328.835179
 30
0.0
 10
267.136053
 20
329.754117
 30
0.0
  0
SPLINE
  5
11b
100
AcDbEntity
  8
Layer_1
 62
1
100
AcDbSpline
 70
8
 71
3
 72
8
 73
4
 74
0
 40
0
 40
0
 40
0
 40
0
 40
1
 40
1
 40
1
 40
1
 10
267.136053
 20
329.754117
 30
0.0
 10
266.336772
 20
332.036155
 30
0.0
 10
266.728157
 20
334.024105
 30
0.0
 10
268.315940
 20
335.746643
 30
0.0
  0
SPLINE
  5
11c
100
AcDbEntity
  8
Layer_1
 62
1
100
AcDbSpline
 70
8
 71
3
 72
8
 73
4
 74
0
 40
0
 40
0
 40
0
 40
0
 40
1
 40
1
 40
1
 40
1
 10
268.315940
 20
335.746643
 30
0.0
 10
268.940610
 20
336.424343
 30
0.0
 10
269.502486
 20
336.755943
 30
0.0
 10
270.958810
 20
337.306387
 30
0.0
  0
SPLINE
  5
11d
100
AcDbEntity
  8
Layer_1
 62
1
100
AcDbSpline
 70
8
 71
3
 72
8
 73
4
 74
0
 40
0
 40
0
 40
0
 40
0
 40
1
 40
1
 40
1
 40
1
 10
270.958810
 20
337.306387
 30
0.0
 10
271.191643
 20
337.394400
 30
0.0
 10
271.405313
 20
337.741432
 30
0.0
 10
271.542558
 20
338.254583
 30
0.0
  0
SPLINE
  5
11e
100
AcDbEntity
  8
Layer_1
 62
1
100
AcDbSpline
 70
8
 71
3
 72
8
 73
4
 74
0
 40
0
 40
0
 40
0
 40
0
 40
1
 40
1
 40
1
 40
1
 10
271.542558
 20
338.254583
 30
0.0
 10
271.938685
 20
339.735798
 30
0.0
 10
273.721878
 20
341.354746
 30
0.0
 10
275.544638
 20
341.888115
 30
0.0
  0
SPLINE
  5
11f
100
AcDbEntity
  8
Layer_1
 62
1
100
AcDbSpline
 70
8
 71
3
 72
8
 73
4
 74
0
 40
0
 40
0
 40
0
 40
0
 40
1
 40
1
 40
1
 40
1
 10
275.544638
 20
341.888115
 30
0.0
 10
276.214465
 20
342.084121
 30
0.0
 10
276.311493
 20
342.188521
 30
0.0
 10
276.508568
 20
342.925440
 30
0.0
  0
SPLINE
  5
120
100
AcDbEntity
  8
Layer_1
 62
1
100
AcDbSpline
 70
8
 71
3
 72
8
 73
4
 74
0
 40
0
 40
0
 40
0
 40
0
 40
1
 40
1
 40
1
 40
1
 10
276.508568
 20
342.925440
 30
0.0
 10
276.662436
 20
343.500614
 30
0.0
 10
276.994075
 20
344.004231
 30
0.0
 10
277.621286
 20
344.615177
 30
0.0
  0
SPLINE
  5
121
100
AcDbEntity
  8
Layer_1
 62
1
100
AcDbSpline
 70
8
 71
3
 72
8
 73
4
 74
0
 40
0
 40
0
 40
0
 40
0
 40
1
 40
1
 40
1
 40
1
 10
277.621286
 20
344.615177
 30
0.0
 10
278.787936
 20
345.751514
 30
0.0
 10
279.638328
 20
346.135613
 30
0.0
 10
281.211209
 20
346.236620
 30
0.0
  0
SPLINE
  5
122
100
AcDbEntity
  8
Layer_1
 62
1
100
AcDbSpline
 70
8
 71
3
 72
8
 73
4
 74
0
 40
0
 40
0
 40
0
 40
0
 40
1
 40
1
 40
1
 40
1
 10
281.211209
 20
346.236620
 30
0.0
 10
282.874796
 20
346.343455
 30
0.0
 10
284.102096
 20
345.854034
 30
0.0
 10
285.146854
 20
344.667118
 30
0.0
  0
SPLINE
  5
123
100
AcDbEntity
  8
Layer_1
 62
1
100
AcDbSpline
 70
8
 71
3
 72
8
 73
4
 74
0
 40
0
 40
0
 40
0
 40
0
 40
1
 40
1
 40
1
 40
1
 10
285.146854
 20
344.667118
 30
0.0
 10
285.546792
 20
344.212734
 30
0.0
 10
285.896098
 20
343.874273
 30
0.0
 10
285.923050
 20
343.914987
 30
0.0
  0
SPLINE
  5
124
100
AcDbEntity
  8
Layer_1
 62
1
100
AcDbSpline
 70
8
 71
3
 72
8
 73
4
 74
0
 40
0
 40
0
 40
0
 40
0
 40
1
 40
1
 40
1
 40
1
 10
285.923050
 20
343.914987
 30
0.0
 10
285.950144
 20
343.955695
 30
0.0
 10
286.104096
 20
344.359524
 30
0.0
 10
286.265583
 20
344.812377
 30
0.0
  0
SPLINE
  5
125
100
AcDbEntity
  8
Layer_1
 62
1
100
AcDbSpline
 70
8
 71
3
 72
8
 73
4
 74
0
 40
0
 40
0
 40
0
 40
0
 40
1
 40
1
 40
1
 40
1
 10
286.265583
 20
344.812377
 30
0.0
 10
286.427071
 20
345.265234
 30
0.0
 10
286.648107
 20
345.616152
 30
0.0
 10
286.756735
 20
345.592202
 30
0.0
  0
SPLINE
  5
126
100
AcDbEntity
  8
Layer_1
 62
1
100
AcDbSpline
 70
8
 71
3
 72
8
 73
4
 74
0
 40
0
 40
0
 40
0
 40
0
 40
1
 40
1
 40
1
 40
1
 10
286.756735
 20
345.592202
 30
0.0
 10
286.865390
 20
345.568242
 30
0.0
 10
286.911675
 20
345.659642
 30
0.0
 10
286.859633
 20
345.795295
 30
0.0
  0
SPLINE
  5
127
100
AcDbEntity
  8
Layer_1
 62
1
100
AcDbSpline
 70
8
 71
3
 72
8
 73
4
 74
0
 40
0
 40
0
 40
0
 40
0
 40
1
 40
1
 40
1
 40
1
 10
286.859633
 20
345.795295
 30
0.0
 10
286.746123
 20
346.091121
 30
0.0
 10
287.662499
 20
347.235379
 30
0.0
 10
287.896884
 20
347.090506
 30
0.0
  0
SPLINE
  5
128
100
AcDbEntity
  8
Layer_1
 62
1
100
AcDbSpline
 70
8
 71
3
 72
8
 73
4
 74
0
 40
0
 40
0
 40
0
 40
0
 40
1
 40
1
 40
1
 40
1
 10
287.896884
 20
347.090506
 30
0.0
 10
287.987195
 20
347.034694
 30
0.0
 10
288.018155
 20
347.100864
 30
0.0
 10
287.965718
 20
347.237561
 30
0.0
  0
SPLINE
  5
129
100
AcDbEntity
  8
Layer_1
 62
1
100
AcDbSpline
 70
8
 71
3
 72
8
 73
4
 74
0
 40
0
 40
0
 40
0
 40
0
 40
1
 40
1
 40
1
 40
1
 10
287.965718
 20
347.237561
 30
0.0
 10
287.859264
 20
347.514926
 30
0.0
 10
288.804539
 20
348.332687
 30
0.0
 10
290.077954
 20
349.064916
 30
0.0
  0
SPLINE
  5
12a
100
AcDbEntity
  8
Layer_1
 62
1
100
AcDbSpline
 70
8
 71
3
 72
8
 73
4
 74
0
 40
0
 40
0
 40
0
 40
0
 40
1
 40
1
 40
1
 40
1
 10
290.077954
 20
349.064916
 30
0.0
 10
292.525272
 20
350.472138
 30
0.0
 10
295.624326
 20
350.472742
 30
0.0
 10
298.401167
 20
349.066327
 30
0.0
  0
SPLINE
  5
12b
100
AcDbEntity
  8
Layer_1
 62
1
100
AcDbSpline
 70
8
 71
3
 72
8
 73
4
 74
0
 40
0
 40
0
 40
0
 40
0
 40
1
 40
1
 40
1
 40
1
 10
298.401167
 20
349.066564
 30
0.0
 10
300.260786
 20
348.124862
 30
0.0
 10
302.245514
 20
345.497590
 30
0.0
 10
302.617003
 20
343.485851
 30
0.0
  0
SPLINE
  5
12c
100
AcDbEntity
  8
Layer_1
 62
1
100
AcDbSpline
 70
8
 71
3
 72
8
 73
4
 74
0
 40
0
 40
0
 40
0
 40
0
 40
1
 40
1
 40
1
 40
1
 10
302.617003
 20
343.485851
 30
0.0
 10
302.686712
 20
343.108469
 30
0.0
 10
302.771011
 20
342.799710
 30
0.0
 10
302.804370
 20
342.799710
 30
0.0
  0
SPLINE
  5
12d
100
AcDbEntity
  8
Layer_1
 62
1
100
AcDbSpline
 70
8
 71
3
 72
8
 73
4
 74
0
 40
0
 40
0
 40
0
 40
0
 40
1
 40
1
 40
1
 40
1
 10
302.804370
 20
342.799710
 30
0.0
 10
302.837813
 20
342.799710
 30
0.0
 10
303.137336
 20
342.955248
 30
0.0
 10
303.470160
 20
343.145358
 30
0.0
  0
SPLINE
  5
12e
100
AcDbEntity
  8
Layer_1
 62
1
100
AcDbSpline
 70
8
 71
3
 72
8
 73
4
 74
0
 40
0
 40
0
 40
0
 40
0
 40
1
 40
1
 40
1
 40
1
 10
303.470160
 20
343.145358
 30
0.0
 10
306.217481
 20
344.714649
 30
0.0
 10
309.884705
 20
343.389365
 30
0.0
 10
311.514905
 20
340.238108
 30
0.0
  0
SPLINE
  5
12f
100
AcDbEntity
  8
Layer_1
 62
1
100
AcDbSpline
 70
8
 71
3
 72
8
 73
4
 74
0
 40
0
 40
0
 40
0
 40
0
 40
1
 40
1
 40
1
 40
1
 10
311.514905
 20
340.238108
 30
0.0
 10
312.163818
 20
338.983701
 30
0.0
 10
312.207930
 20
336.958003
 30
0.0
 10
311.611651
 20
335.794573
 30
0.0
  0
LINE
  5
130
100
AcDbEntity
  8
Layer_1
 62
1
100
AcDbLine
 10
311.611651
 20
335.794573
 30
0.0
 11
311.162889
 21
334.918987
 31
0.0
  0
LINE
  5
131
100
AcDbEntity
  8
Layer_1
 62
1
100
AcDbLine
 10
311.162889
 20
334.918987
 30
0.0
 11
311.644445
 21
334.662980
 31
0.0
  0
SPLINE
  5
132
100
AcDbEntity
  8
Layer_1
 62
1
100
AcDbSpline
 70
8
 71
3
 72
8
 73
4
 74
0
 40
0
 40
0
 40
0
 40
0
 40
1
 40
1
 40
1
 40
1
 10
311.644445
 20
334.662980
 30
0.0
 10
313.020814
 20
333.931297
 30
0.0
 10
313.682287
 20
332.786558
 30
0.0
 10
313.679493
 20
331.141155
 30
0.0
  0
SPLINE
  5
133
100
AcDbEntity
  8
Layer_1
 62
1
100
AcDbSpline
 70
8
 71
3
 72
8
 73
4
 74
0
 40
0
 40
0
 40
0
 40
0
 40
1
 40
1
 40
1
 40
1
 10
313.679493
 20
331.141155
 30
0.0
 10
313.675824
 20
329.207580
 30
0.0
 10
312.545157
 20
327.528459
 30
0.0
 10
310.662255
 20
326.661851
 30
0.0
  0
LINE
  5
134
100
AcDbEntity
  8
Layer_1
 62
1
100
AcDbLine
 10
310.662255
 20
326.661851
 30
0.0
 11
309.747375
 21
326.240792
 31
0.0
  0
LINE
  5
135
100
AcDbEntity
  8
Layer_1
 62
1
100
AcDbLine
 10
309.747375
 20
326.240792
 30
0.0
 11
290.718373
 21
326.208255
 31
0.0
  0
SPLINE
  5
136
100
AcDbEntity
  8
Layer_1
 62
1
100
AcDbSpline
 70
8
 71
3
 72
8
 73
4
 74
0
 40
0
 40
0
 40
0
 40
0
 40
1
 40
1
 40
1
 40
1
 10
290.718373
 20
326.208235
 30
0.0
 10
275.355183
 20
326.181932
 30
0.0
 10
271.520883
 20
326.222628
 30
0.0
 10
270.815017
 20
326.419320
 30
0.0
  0
LINE
  5
137
100
AcDbEntity
  8
Layer_1
 62
1
100
AcDbLine
 10
270.815017
 20
326.419320
 30
0.0
 11
270.815017
 21
326.419306
 31
0.0
  0
SPLINE
  5
138
100
AcDbEntity
  8
Layer_1
 62
1
100
AcDbSpline
 70
8
 71
3
 72
8
 73
4
 74
0
 40
0
 40
0
 40
0
 40
0
 40
1
 40
1
 40
1
 40
1
 10
316.538602
 20
337.173319
 30
0.0
 10
316.326427
 20
337.507095
 30
0.0
 10
316.314291
 20
337.784988
 30
0.0
 10
316.474311
 20
338.641721
 30
0.0
  0
SPLINE
  5
139
100
AcDbEntity
  8
Layer_1
 62
1
100
AcDbSpline
 70
8
 71
3
 72
8
 73
4
 74
0
 40
0
 40
0
 40
0
 40
0
 40
1
 40
1
 40
1
 40
1
 10
316.474311
 20
338.641721
 30
0.0
 10
317.115690
 20
342.075587
 30
0.0
 10
314.691711
 20
345.825976
 30
0.0
 10
311.073848
 20
346.997274
 30
0.0
  0
SPLINE
  5
13a
100
AcDbEntity
  8
Layer_1
 62
1
100
AcDbSpline
 70
8
 71
3
 72
8
 73
4
 74
0
 40
0
 40
0
 40
0
 40
0
 40
1
 40
1
 40
1
 40
1
 10
311.073848
 20
346.997274
 30
0.0
 10
310.603638
 20
347.149507
 30
0.0
 10
310.353419
 20
347.355682
 30
0.0
 10
310.278997
 20
347.652250
 30
0.0
  0
SPLINE
  5
13b
100
AcDbEntity
  8
Layer_1
 62
1
100
AcDbSpline
 70
8
 71
3
 72
8
 73
4
 74
0
 40
0
 40
0
 40
0
 40
0
 40
1
 40
1
 40
1
 40
1
 10
310.278997
 20
347.652250
 30
0.0
 10
310.156287
 20
348.141194
 30
0.0
 10
310.324717
 20
348.532377
 30
0.0
 10
310.587946
 20
348.369704
 30
0.0
  0
SPLINE
  5
13c
100
AcDbEntity
  8
Layer_1
 62
1
100
AcDbSpline
 70
8
 71
3
 72
8
 73
4
 74
0
 40
0
 40
0
 40
0
 40
0
 40
1
 40
1
 40
1
 40
1
 10
310.587946
 20
348.369704
 30
0.0
 10
310.684127
 20
348.310265
 30
0.0
 10
310.740177
 20
348.370550
 30
0.0
 10
310.712519
 20
348.503946
 30
0.0
  0
SPLINE
  5
13d
100
AcDbEntity
  8
Layer_1
 62
1
100
AcDbSpline
 70
8
 71
3
 72
8
 73
4
 74
0
 40
0
 40
0
 40
0
 40
0
 40
1
 40
1
 40
1
 40
1
 10
310.712519
 20
348.503946
 30
0.0
 10
310.626949
 20
348.916467
 30
0.0
 10
311.710739
 20
348.740817
 30
0.0
 10
312.969591
 20
348.138155
 30
0.0
  0
SPLINE
  5
13e
100
AcDbEntity
  8
Layer_1
 62
1
100
AcDbSpline
 70
8
 71
3
 72
8
 73
4
 74
0
 40
0
 40
0
 40
0
 40
0
 40
1
 40
1
 40
1
 40
1
 10
312.969591
 20
348.138155
 30
0.0
 10
315.343701
 20
347.001584
 30
0.0
 10
317.098841
 20
344.915696
 30
0.0
 10
317.893409
 20
342.286463
 30
0.0
  0
SPLINE
  5
13f
100
AcDbEntity
  8
Layer_1
 62
1
100
AcDbSpline
 70
8
 71
3
 72
8
 73
4
 74
0
 40
0
 40
0
 40
0
 40
0
 40
1
 40
1
 40
1
 40
1
 10
317.893409
 20
342.286463
 30
0.0
 10
318.224400
 20
341.191136
 30
0.0
 10
318.284259
 20
340.625241
 30
0.0
 10
318.225077
 20
339.151567
 30
0.0
  0
SPLINE
  5
140
100
AcDbEntity
  8
Layer_1
 62
1
100
AcDbSpline
 70
8
 71
3
 72
8
 73
4
 74
0
 40
0
 40
0
 40
0
 40
0
 40
1
 40
1
 40
1
 40
1
 10
318.225077
 20
339.151567
 30
0.0
 10
318.179357
 20
338.013113
 30
0.0
 10
318.062771
 20
337.244732
 30
0.0
 10
317.907323
 20
337.057455
 30
0.0
  0
SPLINE
  5
141
100
AcDbEntity
  8
Layer_1
 62
1
100
AcDbSpline
 70
8
 71
3
 72
8
 73
4
 74
0
 40
0
 40
0
 40
0
 40
0
 40
1
 40
1
 40
1
 40
1
 10
317.907323
 20
337.057455
 30
0.0
 10
317.552682
 20
336.630095
 30
0.0
 10
316.845829
 20
336.689931
 30
0.0
 10
316.538602
 20
337.173319
 30
0.0
  0
LINE
  5
142
100
AcDbEntity
  8
Layer_1
 62
1
100
AcDbLine
 10
316.538602
 20
337.173319
 30
0.0
 11
316.538602
 21
337.173319
 31
0.0
  0
SPLINE
  5
143
100
AcDbEntity
  8
Layer_1
 62
1
100
AcDbSpline
 70
8
 71
3
 72
8
 73
4
 74
0
 40
0
 40
0
 40
0
 40
0
 40
1
 40
1
 40
1
 40
1
 10
313.419848
 20
337.964074
 30
0.0
 10
313.197457
 20
338.186460
 30
0.0
 10
313.158087
 20
338.471521
 30
0.0
 10
313.246254
 20
339.221552
 30
0.0
  0
SPLINE
  5
144
100
AcDbEntity
  8
Layer_1
 62
1
100
AcDbSpline
 70
8
 71
3
 72
8
 73
4
 74
0
 40
0
 40
0
 40
0
 40
0
 40
1
 40
1
 40
1
 40
1
 10
313.246254
 20
339.221552
 30
0.0
 10
313.415248
 20
340.659455
 30
0.0
 10
312.958161
 20
341.867933
 30
0.0
 10
311.889498
 20
342.808594
 30
0.0
  0
SPLINE
  5
145
100
AcDbEntity
  8
Layer_1
 62
1
100
AcDbSpline
 70
8
 71
3
 72
8
 73
4
 74
0
 40
0
 40
0
 40
0
 40
0
 40
1
 40
1
 40
1
 40
1
 10
311.889498
 20
342.808594
 30
0.0
 10
311.422026
 20
343.220080
 30
0.0
 10
310.805003
 20
343.603662
 30
0.0
 10
310.518322
 20
343.660995
 30
0.0
  0
SPLINE
  5
146
100
AcDbEntity
  8
Layer_1
 62
1
100
AcDbSpline
 70
8
 71
3
 72
8
 73
4
 74
0
 40
0
 40
0
 40
0
 40
0
 40
1
 40
1
 40
1
 40
1
 10
310.518322
 20
343.660995
 30
0.0
 10
310.231612
 20
343.718334
 30
0.0
 10
309.869690
 20
343.959680
 30
0.0
 10
309.713932
 20
344.197330
 30
0.0
  0
SPLINE
  5
147
100
AcDbEntity
  8
Layer_1
 62
1
100
AcDbSpline
 70
8
 71
3
 72
8
 73
4
 74
0
 40
0
 40
0
 40
0
 40
0
 40
1
 40
1
 40
1
 40
1
 10
309.713932
 20
344.197330
 30
0.0
 10
309.457279
 20
344.589041
 30
0.0
 10
309.458831
 20
344.672135
 30
0.0
 10
309.730583
 20
345.086836
 30
0.0
  0
SPLINE
  5
148
100
AcDbEntity
  8
Layer_1
 62
1
100
AcDbSpline
 70
8
 71
3
 72
8
 73
4
 74
0
 40
0
 40
0
 40
0
 40
0
 40
1
 40
1
 40
1
 40
1
 10
309.730583
 20
345.086836
 30
0.0
 10
310.082345
 20
345.623636
 30
0.0
 10
310.228028
 20
345.638845
 30
0.0
 10
311.351442
 20
345.256064
 30
0.0
  0
SPLINE
  5
149
100
AcDbEntity
  8
Layer_1
 62
1
100
AcDbSpline
 70
8
 71
3
 72
8
 73
4
 74
0
 40
0
 40
0
 40
0
 40
0
 40
1
 40
1
 40
1
 40
1
 10
311.351442
 20
345.256064
 30
0.0
 10
313.714996
 20
344.450707
 30
0.0
 10
315.453598
 20
341.399769
 30
0.0
 10
314.983360
 20
338.882620
 30
0.0
  0
SPLINE
  5
14a
100
AcDbEntity
  8
Layer_1
 62
1
100
AcDbSpline
 70
8
 71
3
 72
8
 73
4
 74
0
 40
0
 40
0
 40
0
 40
0
 40
1
 40
1
 40
1
 40
1
 10
314.983360
 20
338.882620
 30
0.0
 10
314.762916
 20
337.702748
 30
0.0
 10
314.081518
 20
337.302419
 30
0.0
 10
313.419877
 20
337.964074
 30
0.0
  0
LINE
  5
14b
100
AcDbEntity
  8
Layer_1
 62
1
100
AcDbLine
 10
313.419877
 20
337.964074
 30
0.0
 11
313.419848
 21
337.964074
 31
0.0
  0
LINE
  5
14c
100
AcDbEntity
  8
Layer_1
 62
1
100
AcDbLine
 10
266.556623
 20
324.271039
 30
0.0
 11
271.724055
 21
324.271039
 31
0.0
  0
LINE
  5
14d
100
AcDbEntity
  8
Layer_1
 62
1
100
AcDbLine
 10
271.724055
 20
324.271039
 30
0.0
 11
271.724055
 21
323.178215
 31
0.0
  0
LINE
  5
14e
100
AcDbEntity
  8
Layer_1
 62
1
100
AcDbLine
 10
271.724055
 20
323.178215
 30
0.0
 11
269.865114
 21
323.178215
 31
0.0
  0
LINE
  5
14f
100
AcDbEntity
  8
Layer_1
 62
1
100
AcDbLine
 10
269.865114
 20
323.178215
 30
0.0
 11
269.865114
 21
318.664217
 31
0.0
  0
LINE
  5
150
100
AcDbEntity
  8
Layer_1
 62
1
100
AcDbLine
 10
269.865114
 20
318.664217
 30
0.0
 11
268.419318
 21
318.664217
 31
0.0
  0
LINE
  5
151
100
AcDbEntity
  8
Layer_1
 62
1
100
AcDbLine
 10
268.419318
 20
318.664217
 30
0.0
 11
268.419318
 21
323.178215
 31
0.0
  0
LINE
  5
152
100
AcDbEntity
  8
Layer_1
 62
1
100
AcDbLine
 10
268.419318
 20
323.178215
 30
0.0
 11
266.556623
 21
323.178215
 31
0.0
  0
LINE
  5
153
100
AcDbEntity
  8
Layer_1
 62
1
100
AcDbLine
 10
266.556623
 20
323.178215
 30
0.0
 11
266.556623
 21
324.271039
 31
0.0
  0
LINE
  5
154
100
AcDbEntity
  8
Layer_1
 62
1
100
AcDbLine
 10
272.467654
 20
324.271039
 30
0.0
 11
273.913479
 21
324.271039
 31
0.0
  0
LINE
  5
155
100
AcDbEntity
  8
Layer_1
 62
1
100
AcDbLine
 10
273.913479
 20
324.271039
 30
0.0
 11
273.913479
 21
322.134210
 31
0.0
  0
LINE
  5
156
100
AcDbEntity
  8
Layer_1
 62
1
100
AcDbLine
 10
273.913479
 20
322.134210
 30
0.0
 11
276.046542
 21
322.134210
 31
0.0
  0
LINE
  5
157
100
AcDbEntity
  8
Layer_1
 62
1
100
AcDbLine
 10
276.046542
 20
322.134210
 30
0.0
 11
276.046542
 21
324.271039
 31
0.0
  0
LINE
  5
158
100
AcDbEntity
  8
Layer_1
 62
1
100
AcDbLine
 10
276.046542
 20
324.271039
 30
0.0
 11
277.492395
 21
324.271039
 31
0.0
  0
LINE
  5
159
100
AcDbEntity
  8
Layer_1
 62
1
100
AcDbLine
 10
277.492395
 20
324.271039
 30
0.0
 11
277.492395
 21
318.664217
 31
0.0
  0
LINE
  5
15a
100
AcDbEntity
  8
Layer_1
 62
1
100
AcDbLine
 10
277.492395
 20
318.664217
 30
0.0
 11
276.046542
 21
318.664217
 31
0.0
  0
LINE
  5
15b
100
AcDbEntity
  8
Layer_1
 62
1
100
AcDbLine
 10
276.046542
 20
318.664217
 30
0.0
 11
276.046542
 21
321.041387
 31
0.0
  0
LINE
  5
15c
100
AcDbEntity
  8
Layer_1
 62
1
100
AcDbLine
 10
276.046542
 20
321.041387
 30
0.0
 11
273.913479
 21
321.041387
 31
0.0
  0
LINE
  5
15d
100
AcDbEntity
  8
Layer_1
 62
1
100
AcDbLine
 10
273.913479
 20
321.041387
 30
0.0
 11
273.913479
 21
318.664217
 31
0.0
  0
LINE
  5
15e
100
AcDbEntity
  8
Layer_1
 62
1
100
AcDbLine
 10
273.913479
 20
318.664217
 30
0.0
 11
272.467654
 21
318.664217
 31
0.0
  0
LINE
  5
15f
100
AcDbEntity
  8
Layer_1
 62
1
100
AcDbLine
 10
272.467654
 20
318.664217
 30
0.0
 11
272.467654
 21
324.271039
 31
0.0
  0
LINE
  5
160
100
AcDbEntity
  8
Layer_1
 62
1
100
AcDbLine
 10
278.911916
 20
324.271039
 30
0.0
 11
282.813780
 21
324.271039
 31
0.0
  0
LINE
  5
161
100
AcDbEntity
  8
Layer_1
 62
1
100
AcDbLine
 10
282.813780
 20
324.271039
 30
0.0
 11
282.813780
 21
323.178215
 31
0.0
  0
LINE
  5
162
100
AcDbEntity
  8
Layer_1
 62
1
100
AcDbLine
 10
282.813780
 20
323.178215
 30
0.0
 11
280.357769
 21
323.178215
 31
0.0
  0
LINE
  5
163
100
AcDbEntity
  8
Layer_1
 62
1
100
AcDbLine
 10
280.357769
 20
323.178215
 30
0.0
 11
280.357769
 21
322.134210
 31
0.0
  0
LINE
  5
164
100
AcDbEntity
  8
Layer_1
 62
1
100
AcDbLine
 10
280.357769
 20
322.134210
 30
0.0
 11
282.667335
 21
322.134210
 31
0.0
  0
LINE
  5
165
100
AcDbEntity
  8
Layer_1
 62
1
100
AcDbLine
 10
282.667335
 20
322.134210
 30
0.0
 11
282.667335
 21
321.041387
 31
0.0
  0
LINE
  5
166
100
AcDbEntity
  8
Layer_1
 62
1
100
AcDbLine
 10
282.667335
 20
321.041387
 30
0.0
 11
280.357769
 21
321.041387
 31
0.0
  0
LINE
  5
167
100
AcDbEntity
  8
Layer_1
 62
1
100
AcDbLine
 10
280.357769
 20
321.041387
 30
0.0
 11
280.357769
 21
319.757041
 31
0.0
  0
LINE
  5
168
100
AcDbEntity
  8
Layer_1
 62
1
100
AcDbLine
 10
280.357769
 20
319.757041
 30
0.0
 11
282.896414
 21
319.757041
 31
0.0
  0
LINE
  5
169
100
AcDbEntity
  8
Layer_1
 62
1
100
AcDbLine
 10
282.896414
 20
319.757041
 30
0.0
 11
282.896414
 21
318.664217
 31
0.0
  0
LINE
  5
16a
100
AcDbEntity
  8
Layer_1
 62
1
100
AcDbLine
 10
282.896414
 20
318.664217
 30
0.0
 11
278.911916
 21
318.664217
 31
0.0
  0
LINE
  5
16b
100
AcDbEntity
  8
Layer_1
 62
1
100
AcDbLine
 10
278.911916
 20
318.664217
 30
0.0
 11
278.911916
 21
324.271039
 31
0.0
  0
LINE
  5
16c
100
AcDbEntity
  8
Layer_1
 62
1
100
AcDbLine
 10
286.174877
 20
324.271039
 30
0.0
 11
291.342310
 21
324.271039
 31
0.0
  0
LINE
  5
16d
100
AcDbEntity
  8
Layer_1
 62
1
100
AcDbLine
 10
291.342310
 20
324.271039
 30
0.0
 11
291.342310
 21
323.178215
 31
0.0
  0
LINE
  5
16e
100
AcDbEntity
  8
Layer_1
 62
1
100
AcDbLine
 10
291.342310
 20
323.178215
 30
0.0
 11
289.483368
 21
323.178215
 31
0.0
  0
LINE
  5
16f
100
AcDbEntity
  8
Layer_1
 62
1
100
AcDbLine
 10
289.483368
 20
323.178215
 30
0.0
 11
289.483368
 21
318.664217
 31
0.0
  0
LINE
  5
170
100
AcDbEntity
  8
Layer_1
 62
1
100
AcDbLine
 10
289.483368
 20
318.664217
 30
0.0
 11
288.037544
 21
318.664217
 31
0.0
  0
LINE
  5
171
100
AcDbEntity
  8
Layer_1
 62
1
100
AcDbLine
 10
288.037544
 20
318.664217
 30
0.0
 11
288.037544
 21
323.178215
 31
0.0
  0
LINE
  5
172
100
AcDbEntity
  8
Layer_1
 62
1
100
AcDbLine
 10
288.037544
 20
323.178215
 30
0.0
 11
286.174877
 21
323.178215
 31
0.0
  0
LINE
  5
173
100
AcDbEntity
  8
Layer_1
 62
1
100
AcDbLine
 10
286.174877
 20
323.178215
 30
0.0
 11
286.174877
 21
324.271039
 31
0.0
  0
LINE
  5
174
100
AcDbEntity
  8
Layer_1
 62
1
100
AcDbLine
 10
292.085880
 20
324.271039
 30
0.0
 11
293.531705
 21
324.271039
 31
0.0
  0
LINE
  5
175
100
AcDbEntity
  8
Layer_1
 62
1
100
AcDbLine
 10
293.531705
 20
324.271039
 30
0.0
 11
293.531705
 21
322.134210
 31
0.0
  0
LINE
  5
176
100
AcDbEntity
  8
Layer_1
 62
1
100
AcDbLine
 10
293.531705
 20
322.134210
 30
0.0
 11
295.664797
 21
322.134210
 31
0.0
  0
LINE
  5
177
100
AcDbEntity
  8
Layer_1
 62
1
100
AcDbLine
 10
295.664797
 20
322.134210
 30
0.0
 11
295.664797
 21
324.271039
 31
0.0
  0
LINE
  5
178
100
AcDbEntity
  8
Layer_1
 62
1
100
AcDbLine
 10
295.664797
 20
324.271039
 30
0.0
 11
297.110593
 21
324.271039
 31
0.0
  0
LINE
  5
179
100
AcDbEntity
  8
Layer_1
 62
1
100
AcDbLine
 10
297.110593
 20
324.271039
 30
0.0
 11
297.110593
 21
318.664217
 31
0.0
  0
LINE
  5
17a
100
AcDbEntity
  8
Layer_1
 62
1
100
AcDbLine
 10
297.110593
 20
318.664217
 30
0.0
 11
295.664797
 21
318.664217
 31
0.0
  0
LINE
  5
17b
100
AcDbEntity
  8
Layer_1
 62
1
100
AcDbLine
 10
295.664797
 20
318.664217
 30
0.0
 11
295.664797
 21
321.041387
 31
0.0
  0
LINE
  5
17c
100
AcDbEntity
  8
Layer_1
 62
1
100
AcDbLine
 10
295.664797
 20
321.041387
 30
0.0
 11
293.531705
 21
321.041387
 31
0.0
  0
LINE
  5
17d
100
AcDbEntity
  8
Layer_1
 62
1
100
AcDbLine
 10
293.531705
 20
321.041387
 30
0.0
 11
293.531705
 21
318.664217
 31
0.0
  0
LINE
  5
17e
100
AcDbEntity
  8
Layer_1
 62
1
100
AcDbLine
 10
293.531705
 20
318.664217
 30
0.0
 11
292.085880
 21
318.664217
 31
0.0
  0
LINE
  5
17f
100
AcDbEntity
  8
Layer_1
 62
1
100
AcDbLine
 10
292.085880
 20
318.664217
 30
0.0
 11
292.085880
 21
324.271039
 31
0.0
  0
LINE
  5
180
100
AcDbEntity
  8
Layer_1
 62
1
100
AcDbLine
 10
298.530171
 20
324.271039
 30
0.0
 11
299.975967
 21
324.271039
 31
0.0
  0
LINE
  5
181
100
AcDbEntity
  8
Layer_1
 62
1
100
AcDbLine
 10
299.975967
 20
324.271039
 30
0.0
 11
299.975967
 21
318.664217
 31
0.0
  0
LINE
  5
182
100
AcDbEntity
  8
Layer_1
 62
1
100
AcDbLine
 10
299.975967
 20
318.664217
 30
0.0
 11
298.530171
 21
318.664217
 31
0.0
  0
LINE
  5
183
100
AcDbEntity
  8
Layer_1
 62
1
100
AcDbLine
 10
298.530171
 20
318.664217
 30
0.0
 11
298.530171
 21
324.271039
 31
0.0
  0
LINE
  5
184
100
AcDbEntity
  8
Layer_1
 62
1
100
AcDbLine
 10
301.399298
 20
324.271039
 30
0.0
 11
303.014118
 21
324.271039
 31
0.0
  0
LINE
  5
185
100
AcDbEntity
  8
Layer_1
 62
1
100
AcDbLine
 10
303.014118
 20
324.271039
 30
0.0
 11
305.053314
 21
320.425501
 31
0.0
  0
LINE
  5
186
100
AcDbEntity
  8
Layer_1
 62
1
100
AcDbLine
 10
305.053314
 20
320.425501
 30
0.0
 11
305.053314
 21
324.271039
 31
0.0
  0
LINE
  5
187
100
AcDbEntity
  8
Layer_1
 62
1
100
AcDbLine
 10
305.053314
 20
324.271039
 30
0.0
 11
306.424011
 21
324.271039
 31
0.0
  0
LINE
  5
188
100
AcDbEntity
  8
Layer_1
 62
1
100
AcDbLine
 10
306.424011
 20
324.271039
 30
0.0
 11
306.424011
 21
318.664217
 31
0.0
  0
LINE
  5
189
100
AcDbEntity
  8
Layer_1
 62
1
100
AcDbLine
 10
306.424011
 20
318.664217
 30
0.0
 11
304.809220
 21
318.664217
 31
0.0
  0
LINE
  5
18a
100
AcDbEntity
  8
Layer_1
 62
1
100
AcDbLine
 10
304.809220
 20
318.664217
 30
0.0
 11
302.769995
 21
322.509752
 31
0.0
  0
LINE
  5
18b
100
AcDbEntity
  8
Layer_1
 62
1
100
AcDbLine
 10
302.769995
 20
322.509752
 30
0.0
 11
302.769995
 21
318.664217
 31
0.0
  0
LINE
  5
18c
100
AcDbEntity
  8
Layer_1
 62
1
100
AcDbLine
 10
302.769995
 20
318.664217
 30
0.0
 11
301.399298
 21
318.664217
 31
0.0
  0
LINE
  5
18d
100
AcDbEntity
  8
Layer_1
 62
1
100
AcDbLine
 10
301.399298
 20
318.664217
 30
0.0
 11
301.399298
 21
324.271039
 31
0.0
  0
SPLINE
  5
18e
100
AcDbEntity
  8
Layer_1
 62
1
100
AcDbSpline
 70
8
 71
3
 72
8
 73
4
 74
0
 40
0
 40
0
 40
0
 40
0
 40
1
 40
1
 40
1
 40
1
 10
312.883316
 20
319.081063
 30
0.0
 10
312.522805
 20
318.905814
 30
0.0
 10
312.148522
 20
318.774372
 30
0.0
 10
311.760438
 20
318.686747
 30
0.0
  0
SPLINE
  5
18f
100
AcDbEntity
  8
Layer_1
 62
1
100
AcDbSpline
 70
8
 71
3
 72
8
 73
4
 74
0
 40
0
 40
0
 40
0
 40
0
 40
1
 40
1
 40
1
 40
1
 10
311.760438
 20
318.686747
 30
0.0
 10
311.372411
 20
318.599123
 30
0.0
 10
310.971825
 20
318.555308
 30
0.0
 10
310.558736
 20
318.555308
 30
0.0
  0
SPLINE
  5
190
100
AcDbEntity
  8
Layer_1
 62
1
100
AcDbSpline
 70
8
 71
3
 72
8
 73
4
 74
0
 40
0
 40
0
 40
0
 40
0
 40
1
 40
1
 40
1
 40
1
 10
310.558736
 20
318.555308
 30
0.0
 10
309.624891
 20
318.555308
 30
0.0
 10
308.885074
 20
318.815683
 30
0.0
 10
308.339256
 20
319.336431
 30
0.0
  0
SPLINE
  5
191
100
AcDbEntity
  8
Layer_1
 62
1
100
AcDbSpline
 70
8
 71
3
 72
8
 73
4
 74
0
 40
0
 40
0
 40
0
 40
0
 40
1
 40
1
 40
1
 40
1
 10
308.339256
 20
319.336431
 30
0.0
 10
307.793494
 20
319.859685
 30
0.0
 10
307.520614
 20
320.568204
 30
0.0
 10
307.520614
 20
321.461991
 30
0.0
  0
SPLINE
  5
192
100
AcDbEntity
  8
Layer_1
 62
1
100
AcDbSpline
 70
8
 71
3
 72
8
 73
4
 74
0
 40
0
 40
0
 40
0
 40
0
 40
1
 40
1
 40
1
 40
1
 10
307.520614
 20
321.461991
 30
0.0
 10
307.520614
 20
322.365791
 30
0.0
 10
307.798490
 20
323.076816
 30
0.0
 10
308.354298
 20
323.595066
 30
0.0
  0
SPLINE
  5
193
100
AcDbEntity
  8
Layer_1
 62
1
100
AcDbSpline
 70
8
 71
3
 72
8
 73
4
 74
0
 40
0
 40
0
 40
0
 40
0
 40
1
 40
1
 40
1
 40
1
 10
308.354298
 20
323.595066
 30
0.0
 10
308.910107
 20
324.113305
 30
0.0
 10
309.671175
 20
324.372424
 30
0.0
 10
310.637617
 20
324.372433
 30
0.0
  0
SPLINE
  5
194
100
AcDbEntity
  8
Layer_1
 62
1
100
AcDbSpline
 70
8
 71
3
 72
8
 73
4
 74
0
 40
0
 40
0
 40
0
 40
0
 40
1
 40
1
 40
1
 40
1
 10
310.637617
 20
324.372433
 30
0.0
 10
311.010630
 20
324.372424
 30
0.0
 10
311.367416
 20
324.337378
 30
0.0
 10
311.707888
 20
324.267280
 30
0.0
  0
SPLINE
  5
195
100
AcDbEntity
  8
Layer_1
 62
1
100
AcDbSpline
 70
8
 71
3
 72
8
 73
4
 74
0
 40
0
 40
0
 40
0
 40
0
 40
1
 40
1
 40
1
 40
1
 10
311.707888
 20
324.267280
 30
0.0
 10
312.050873
 20
324.197176
 30
0.0
 10
312.373848
 20
324.093276
 30
0.0
 10
312.676786
 20
323.955582
 30
0.0
  0
LINE
  5
196
100
AcDbEntity
  8
Layer_1
 62
1
100
AcDbLine
 10
312.676786
 20
323.955582
 30
0.0
 11
312.676786
 21
322.795163
 31
0.0
  0
SPLINE
  5
197
100
AcDbEntity
  8
Layer_1
 62
1
100
AcDbSpline
 70
8
 71
3
 72
8
 73
4
 74
0
 40
0
 40
0
 40
0
 40
0
 40
1
 40
1
 40
1
 40
1
 10
312.676786
 20
322.795163
 30
0.0
 10
312.363801
 20
322.972915
 30
0.0
 10
312.052115
 20
323.105608
 30
0.0
 10
311.741699
 20
323.193235
 30
0.0
  0
SPLINE
  5
198
100
AcDbEntity
  8
Layer_1
 62
1
100
AcDbSpline
 70
8
 71
3
 72
8
 73
4
 74
0
 40
0
 40
0
 40
0
 40
0
 40
1
 40
1
 40
1
 40
1
 10
311.741699
 20
323.193235
 30
0.0
 10
311.433710
 20
323.280857
 30
0.0
 10
311.124535
 20
323.324669
 30
0.0
 10
310.814091
 20
323.324677
 30
0.0
  0
SPLINE
  5
199
100
AcDbEntity
  8
Layer_1
 62
1
100
AcDbSpline
 70
8
 71
3
 72
8
 73
4
 74
0
 40
0
 40
0
 40
0
 40
0
 40
1
 40
1
 40
1
 40
1
 10
310.814091
 20
323.324677
 30
0.0
 10
310.238273
 20
323.324669
 30
0.0
 10
309.793857
 20
323.163190
 30
0.0
 10
309.480929
 20
322.840226
 30
0.0
  0
SPLINE
  5
19a
100
AcDbEntity
  8
Layer_1
 62
1
100
AcDbSpline
 70
8
 71
3
 72
8
 73
4
 74
0
 40
0
 40
0
 40
0
 40
0
 40
1
 40
1
 40
1
 40
1
 10
309.480929
 20
322.840226
 30
0.0
 10
309.170457
 20
322.519760
 30
0.0
 10
309.015263
 20
322.060353
 30
0.0
 10
309.015263
 20
321.461991
 30
0.0
  0
SPLINE
  5
19b
100
AcDbEntity
  8
Layer_1
 62
1
100
AcDbSpline
 70
8
 71
3
 72
8
 73
4
 74
0
 40
0
 40
0
 40
0
 40
0
 40
1
 40
1
 40
1
 40
1
 10
309.015263
 20
321.461991
 30
0.0
 10
309.015263
 20
320.868635
 30
0.0
 10
309.165461
 20
320.410479
 30
0.0
 10
309.465887
 20
320.087515
 30
0.0
  0
SPLINE
  5
19c
100
AcDbEntity
  8
Layer_1
 62
1
100
AcDbSpline
 70
8
 71
3
 72
8
 73
4
 74
0
 40
0
 40
0
 40
0
 40
0
 40
1
 40
1
 40
1
 40
1
 10
309.465887
 20
320.087515
 30
0.0
 10
309.766312
 20
319.764548
 30
0.0
 10
310.193202
 20
319.603066
 30
0.0
 10
310.746498
 20
319.603066
 30
0.0
  0
SPLINE
  5
19d
100
AcDbEntity
  8
Layer_1
 62
1
100
AcDbSpline
 70
8
 71
3
 72
8
 73
4
 74
0
 40
0
 40
0
 40
0
 40
0
 40
1
 40
1
 40
1
 40
1
 10
310.746498
 20
319.603066
 30
0.0
 10
310.896697
 20
319.603066
 30
0.0
 10
311.035635
 20
319.611815
 30
0.0
 10
311.163341
 20
319.629369
 30
0.0
  0
SPLINE
  5
19e
100
AcDbEntity
  8
Layer_1
 62
1
100
AcDbSpline
 70
8
 71
3
 72
8
 73
4
 74
0
 40
0
 40
0
 40
0
 40
0
 40
1
 40
1
 40
1
 40
1
 10
311.163341
 20
319.629367
 30
0.0
 10
311.293530
 20
319.649404
 30
0.0
 10
311.409946
 20
319.679436
 30
0.0
 10
311.512619
 20
319.719494
 30
0.0
  0
LINE
  5
19f
100
AcDbEntity
  8
Layer_1
 62
1
100
AcDbLine
 10
311.512619
 20
319.719494
 30
0.0
 11
311.512619
 21
320.808564
 31
0.0
  0
LINE
  5
1a0
100
AcDbEntity
  8
Layer_1
 62
1
100
AcDbLine
 10
311.512619
 20
320.808564
 30
0.0
 11
310.630082
 21
320.808564
 31
0.0
  0
LINE
  5
1a1
100
AcDbEntity
  8
Layer_1
 62
1
100
AcDbLine
 10
310.630082
 20
320.808564
 30
0.0
 11
310.630082
 21
321.777459
 31
0.0
  0
LINE
  5
1a2
100
AcDbEntity
  8
Layer_1
 62
1
100
AcDbLine
 10
310.630082
 20
321.777459
 30
0.0
 11
312.883316
 21
321.777459
 31
0.0
  0
LINE
  5
1a3
100
AcDbEntity
  8
Layer_1
 62
1
100
AcDbLine
 10
312.883316
 20
321.777459
 30
0.0
 11
312.883316
 21
319.081074
 31
0.0
  0
LINE
  5
1a4
100
AcDbEntity
  8
Layer_1
 62
1
100
AcDbLine
 10
318.054502
 20
324.094534
 30
0.0
 11
318.054502
 21
322.907824
 31
0.0
  0
SPLINE
  5
1a5
100
AcDbEntity
  8
Layer_1
 62
1
100
AcDbSpline
 70
8
 71
3
 72
8
 73
4
 74
0
 40
0
 40
0
 40
0
 40
0
 40
1
 40
1
 40
1
 40
1
 10
318.054502
 20
322.907824
 30
0.0
 10
317.746569
 20
323.045517
 30
0.0
 10
317.446144
 20
323.149420
 30
0.0
 10
317.153225
 20
323.219524
 30
0.0
  0
SPLINE
  5
1a6
100
AcDbEntity
  8
Layer_1
 62
1
100
AcDbSpline
 70
8
 71
3
 72
8
 73
4
 74
0
 40
0
 40
0
 40
0
 40
0
 40
1
 40
1
 40
1
 40
1
 10
317.153225
 20
323.219524
 30
0.0
 10
316.860278
 20
323.289617
 30
0.0
 10
316.583644
 20
323.324669
 30
0.0
 10
316.323266
 20
323.324677
 30
0.0
  0
SPLINE
  5
1a7
100
AcDbEntity
  8
Layer_1
 62
1
100
AcDbSpline
 70
8
 71
3
 72
8
 73
4
 74
0
 40
0
 40
0
 40
0
 40
0
 40
1
 40
1
 40
1
 40
1
 10
316.323266
 20
323.324677
 30
0.0
 10
315.977770
 20
323.324669
 30
0.0
 10
315.722415
 20
323.277103
 30
0.0
 10
315.557174
 20
323.181969
 30
0.0
  0
SPLINE
  5
1a8
100
AcDbEntity
  8
Layer_1
 62
1
100
AcDbSpline
 70
8
 71
3
 72
8
 73
4
 74
0
 40
0
 40
0
 40
0
 40
0
 40
1
 40
1
 40
1
 40
1
 10
315.557174
 20
323.181969
 30
0.0
 10
315.391933
 20
323.086829
 30
0.0
 10
315.309326
 20
322.939114
 30
0.0
 10
315.309326
 20
322.738832
 30
0.0
  0
SPLINE
  5
1a9
100
AcDbEntity
  8
Layer_1
 62
1
100
AcDbSpline
 70
8
 71
3
 72
8
 73
4
 74
0
 40
0
 40
0
 40
0
 40
0
 40
1
 40
1
 40
1
 40
1
 10
315.309326
 20
322.738832
 30
0.0
 10
315.309326
 20
322.588611
 30
0.0
 10
315.364416
 20
322.470941
 30
0.0
 10
315.474567
 20
322.385823
 30
0.0
  0
SPLINE
  5
1aa
100
AcDbEntity
  8
Layer_1
 62
1
100
AcDbSpline
 70
8
 71
3
 72
8
 73
4
 74
0
 40
0
 40
0
 40
0
 40
0
 40
1
 40
1
 40
1
 40
1
 10
315.474567
 20
322.385823
 30
0.0
 10
315.587202
 20
322.303202
 30
0.0
 10
315.790007
 20
322.231848
 30
0.0
 10
316.082926
 20
322.171763
 30
0.0
  0
LINE
  5
1ab
100
AcDbEntity
  8
Layer_1
 62
1
100
AcDbLine
 10
316.082926
 20
322.171763
 30
0.0
 11
316.698791
 21
322.047836
 31
0.0
  0
SPLINE
  5
1ac
100
AcDbEntity
  8
Layer_1
 62
1
100
AcDbSpline
 70
8
 71
3
 72
8
 73
4
 74
0
 40
0
 40
0
 40
0
 40
0
 40
1
 40
1
 40
1
 40
1
 10
316.698791
 20
322.047836
 30
0.0
 10
317.322192
 20
321.922651
 30
0.0
 10
317.765365
 20
321.732379
 30
0.0
 10
318.028255
 20
321.477016
 30
0.0
  0
SPLINE
  5
1ad
100
AcDbEntity
  8
Layer_1
 62
1
100
AcDbSpline
 70
8
 71
3
 72
8
 73
4
 74
0
 40
0
 40
0
 40
0
 40
0
 40
1
 40
1
 40
1
 40
1
 10
318.028255
 20
321.477016
 30
0.0
 10
318.291089
 20
321.221645
 30
0.0
 10
318.422548
 20
320.858622
 30
0.0
 10
318.422548
 20
320.387946
 30
0.0
  0
SPLINE
  5
1ae
100
AcDbEntity
  8
Layer_1
 62
1
100
AcDbSpline
 70
8
 71
3
 72
8
 73
4
 74
0
 40
0
 40
0
 40
0
 40
0
 40
1
 40
1
 40
1
 40
1
 10
318.422548
 20
320.387946
 30
0.0
 10
318.422548
 20
319.769555
 30
0.0
 10
318.238539
 20
319.308892
 30
0.0
 10
317.870521
 20
319.005958
 30
0.0
  0
SPLINE
  5
1af
100
AcDbEntity
  8
Layer_1
 62
1
100
AcDbSpline
 70
8
 71
3
 72
8
 73
4
 74
0
 40
0
 40
0
 40
0
 40
0
 40
1
 40
1
 40
1
 40
1
 10
317.870521
 20
319.005958
 30
0.0
 10
317.504987
 20
318.705526
 30
0.0
 10
316.945425
 20
318.555308
 30
0.0
 10
316.191835
 20
318.555308
 30
0.0
  0
SPLINE
  5
1b0
100
AcDbEntity
  8
Layer_1
 62
1
100
AcDbSpline
 70
8
 71
3
 72
8
 73
4
 74
0
 40
0
 40
0
 40
0
 40
0
 40
1
 40
1
 40
1
 40
1
 10
316.191835
 20
318.555308
 30
0.0
 10
315.836348
 20
318.555308
 30
0.0
 10
315.479563
 20
318.589121
 30
0.0
 10
315.121536
 20
318.656705
 30
0.0
  0
SPLINE
  5
1b1
100
AcDbEntity
  8
Layer_1
 62
1
100
AcDbSpline
 70
8
 71
3
 72
8
 73
4
 74
0
 40
0
 40
0
 40
0
 40
0
 40
1
 40
1
 40
1
 40
1
 10
315.121536
 20
318.656705
 30
0.0
 10
314.763508
 20
318.724300
 30
0.0
 10
314.405538
 20
318.824443
 30
0.0
 10
314.047511
 20
318.957136
 30
0.0
  0
LINE
  5
1b2
100
AcDbEntity
  8
Layer_1
 62
1
100
AcDbLine
 10
314.047511
 20
318.957136
 30
0.0
 11
314.047511
 21
320.177645
 31
0.0
  0
SPLINE
  5
1b3
100
AcDbEntity
  8
Layer_1
 62
1
100
AcDbSpline
 70
8
 71
3
 72
8
 73
4
 74
0
 40
0
 40
0
 40
0
 40
0
 40
1
 40
1
 40
1
 40
1
 10
314.047511
 20
320.177645
 30
0.0
 10
314.405538
 20
319.987371
 30
0.0
 10
314.751006
 20
319.843410
 30
0.0
 10
315.084000
 20
319.745772
 30
0.0
  0
SPLINE
  5
1b4
100
AcDbEntity
  8
Layer_1
 62
1
100
AcDbSpline
 70
8
 71
3
 72
8
 73
4
 74
0
 40
0
 40
0
 40
0
 40
0
 40
1
 40
1
 40
1
 40
1
 10
315.084000
 20
319.745772
 30
0.0
 10
315.419478
 20
319.650632
 30
0.0
 10
315.742453
 20
319.603066
 30
0.0
 10
316.052897
 20
319.603066
 30
0.0
  0
SPLINE
  5
1b5
100
AcDbEntity
  8
Layer_1
 62
1
100
AcDbSpline
 70
8
 71
3
 72
8
 73
4
 74
0
 40
0
 40
0
 40
0
 40
0
 40
1
 40
1
 40
1
 40
1
 10
316.052897
 20
319.603066
 30
0.0
 10
316.368309
 20
319.603066
 30
0.0
 10
316.609947
 20
319.655642
 30
0.0
 10
316.777672
 20
319.760795
 30
0.0
  0
SPLINE
  5
1b6
100
AcDbEntity
  8
Layer_1
 62
1
100
AcDbSpline
 70
8
 71
3
 72
8
 73
4
 74
0
 40
0
 40
0
 40
0
 40
0
 40
1
 40
1
 40
1
 40
1
 10
316.777672
 20
319.760795
 30
0.0
 10
316.945425
 20
319.865945
 30
0.0
 10
317.029273
 20
320.016161
 30
0.0
 10
317.029273
 20
320.211442
 30
0.0
  0
SPLINE
  5
1b7
100
AcDbEntity
  8
Layer_1
 62
1
100
AcDbSpline
 70
8
 71
3
 72
8
 73
4
 74
0
 40
0
 40
0
 40
0
 40
0
 40
1
 40
1
 40
1
 40
1
 10
317.029273
 20
320.211442
 30
0.0
 10
317.029273
 20
320.386696
 30
0.0
 10
316.971728
 20
320.521889
 30
0.0
 10
316.856525
 20
320.617029
 30
0.0
  0
SPLINE
  5
1b8
100
AcDbEntity
  8
Layer_1
 62
1
100
AcDbSpline
 70
8
 71
3
 72
8
 73
4
 74
0
 40
0
 40
0
 40
0
 40
0
 40
1
 40
1
 40
1
 40
1
 10
316.856525
 20
320.617029
 30
0.0
 10
316.743890
 20
320.712160
 30
0.0
 10
316.517294
 20
320.797284
 30
0.0
 10
316.176821
 20
320.872392
 30
0.0
  0
LINE
  5
1b9
100
AcDbEntity
  8
Layer_1
 62
1
100
AcDbLine
 10
316.176821
 20
320.872392
 30
0.0
 11
315.617259
 21
320.996324
 31
0.0
  0
SPLINE
  5
1ba
100
AcDbEntity
  8
Layer_1
 62
1
100
AcDbSpline
 70
8
 71
3
 72
8
 73
4
 74
0
 40
0
 40
0
 40
0
 40
0
 40
1
 40
1
 40
1
 40
1
 10
315.617259
 20
320.996324
 30
0.0
 10
315.056455
 20
321.116492
 30
0.0
 10
314.645850
 20
321.308019
 30
0.0
 10
314.385472
 20
321.570900
 30
0.0
  0
SPLINE
  5
1bb
100
AcDbEntity
  8
Layer_1
 62
1
100
AcDbSpline
 70
8
 71
3
 72
8
 73
4
 74
0
 40
0
 40
0
 40
0
 40
0
 40
1
 40
1
 40
1
 40
1
 10
314.385472
 20
321.570900
 30
0.0
 10
314.127605
 20
321.833776
 30
0.0
 10
313.998658
 20
322.188036
 30
0.0
 10
313.998658
 20
322.633679
 30
0.0
  0
SPLINE
  5
1bc
100
AcDbEntity
  8
Layer_1
 62
1
100
AcDbSpline
 70
8
 71
3
 72
8
 73
4
 74
0
 40
0
 40
0
 40
0
 40
0
 40
1
 40
1
 40
1
 40
1
 10
313.998658
 20
322.633679
 30
0.0
 10
313.998658
 20
323.191979
 30
0.0
 10
314.178942
 20
323.621346
 30
0.0
 10
314.539480
 20
323.921786
 30
0.0
  0
SPLINE
  5
1bd
100
AcDbEntity
  8
Layer_1
 62
1
100
AcDbSpline
 70
8
 71
3
 72
8
 73
4
 74
0
 40
0
 40
0
 40
0
 40
0
 40
1
 40
1
 40
1
 40
1
 10
314.539480
 20
323.921786
 30
0.0
 10
314.899991
 20
324.222209
 30
0.0
 10
315.418208
 20
324.372424
 30
0.0
 10
316.094186
 20
324.372433
 30
0.0
  0
SPLINE
  5
1be
100
AcDbEntity
  8
Layer_1
 62
1
100
AcDbSpline
 70
8
 71
3
 72
8
 73
4
 74
0
 40
0
 40
0
 40
0
 40
0
 40
1
 40
1
 40
1
 40
1
 10
316.094186
 20
324.372433
 30
0.0
 10
316.402147
 20
324.372424
 30
0.0
 10
316.718829
 20
324.348642
 30
0.0
 10
317.044316
 20
324.301081
 30
0.0
  0
SPLINE
  5
1bf
100
AcDbEntity
  8
Layer_1
 62
1
100
AcDbSpline
 70
8
 71
3
 72
8
 73
4
 74
0
 40
0
 40
0
 40
0
 40
0
 40
1
 40
1
 40
1
 40
1
 10
317.044316
 20
324.301081
 30
0.0
 10
317.369802
 20
324.256011
 30
0.0
 10
317.706522
 20
324.187160
 30
0.0
 10
318.054502
 20
324.094534
 30
0.0
  0
LINE
  5
1c0
100
AcDbEntity
  8
Layer_1
 62
1
100
AcDbLine
 10
270.011615
 20
315.069048
 30
0.0
 11
271.303459
 21
315.069048
 31
0.0
  0
LINE
  5
1c1
100
AcDbEntity
  8
Layer_1
 62
1
100
AcDbLine
 10
271.303459
 20
315.069048
 30
0.0
 11
272.934817
 21
311.992617
 31
0.0
  0
LINE
  5
1c2
100
AcDbEntity
  8
Layer_1
 62
1
100
AcDbLine
 10
272.934817
 20
311.992617
 30
0.0
 11
272.934817
 21
315.069048
 31
0.0
  0
LINE
  5
1c3
100
AcDbEntity
  8
Layer_1
 62
1
100
AcDbLine
 10
272.934817
 20
315.069048
 30
0.0
 11
274.031391
 21
315.069048
 31
0.0
  0
LINE
  5
1c4
100
AcDbEntity
  8
Layer_1
 62
1
100
AcDbLine
 10
274.031391
 20
315.069048
 30
0.0
 11
274.031391
 21
310.583588
 31
0.0
  0
LINE
  5
1c5
100
AcDbEntity
  8
Layer_1
 62
1
100
AcDbLine
 10
274.031391
 20
310.583588
 30
0.0
 11
272.739519
 21
310.583588
 31
0.0
  0
LINE
  5
1c6
100
AcDbEntity
  8
Layer_1
 62
1
100
AcDbLine
 10
272.739519
 20
310.583588
 30
0.0
 11
271.108190
 21
313.660017
 31
0.0
  0
LINE
  5
1c7
100
AcDbEntity
  8
Layer_1
 62
1
100
AcDbLine
 10
271.108190
 20
313.660017
 30
0.0
 11
271.108190
 21
310.583588
 31
0.0
  0
LINE
  5
1c8
100
AcDbEntity
  8
Layer_1
 62
1
100
AcDbLine
 10
271.108190
 20
310.583588
 30
0.0
 11
270.011615
 21
310.583588
 31
0.0
  0
LINE
  5
1c9
100
AcDbEntity
  8
Layer_1
 62
1
100
AcDbLine
 10
270.011615
 20
310.583588
 30
0.0
 11
270.011615
 21
315.069048
 31
0.0
  0
LINE
  5
1ca
100
AcDbEntity
  8
Layer_1
 62
1
100
AcDbLine
 10
277.089805
 20
315.069048
 30
0.0
 11
280.211296
 21
315.069048
 31
0.0
  0
LINE
  5
1cb
100
AcDbEntity
  8
Layer_1
 62
1
100
AcDbLine
 10
280.211296
 20
315.069048
 30
0.0
 11
280.211296
 21
314.194785
 31
0.0
  0
LINE
  5
1cc
100
AcDbEntity
  8
Layer_1
 62
1
100
AcDbLine
 10
280.211296
 20
314.194785
 30
0.0
 11
278.246465
 21
314.194785
 31
0.0
  0
LINE
  5
1cd
100
AcDbEntity
  8
Layer_1
 62
1
100
AcDbLine
 10
278.246465
 20
314.194785
 30
0.0
 11
278.246465
 21
313.359586
 31
0.0
  0
LINE
  5
1ce
100
AcDbEntity
  8
Layer_1
 62
1
100
AcDbLine
 10
278.246465
 20
313.359586
 30
0.0
 11
280.094117
 21
313.359586
 31
0.0
  0
LINE
  5
1cf
100
AcDbEntity
  8
Layer_1
 62
1
100
AcDbLine
 10
280.094117
 20
313.359586
 30
0.0
 11
280.094117
 21
312.485326
 31
0.0
  0
LINE
  5
1d0
100
AcDbEntity
  8
Layer_1
 62
1
100
AcDbLine
 10
280.094117
 20
312.485326
 30
0.0
 11
278.246465
 21
312.485326
 31
0.0
  0
LINE
  5
1d1
100
AcDbEntity
  8
Layer_1
 62
1
100
AcDbLine
 10
278.246465
 20
312.485326
 30
0.0
 11
278.246465
 21
311.457848
 31
0.0
  0
LINE
  5
1d2
100
AcDbEntity
  8
Layer_1
 62
1
100
AcDbLine
 10
278.246465
 20
311.457848
 30
0.0
 11
280.277392
 21
311.457848
 31
0.0
  0
LINE
  5
1d3
100
AcDbEntity
  8
Layer_1
 62
1
100
AcDbLine
 10
280.277392
 20
311.457848
 30
0.0
 11
280.277392
 21
310.583588
 31
0.0
  0
LINE
  5
1d4
100
AcDbEntity
  8
Layer_1
 62
1
100
AcDbLine
 10
280.277392
 20
310.583588
 30
0.0
 11
277.089805
 21
310.583588
 31
0.0
  0
LINE
  5
1d5
100
AcDbEntity
  8
Layer_1
 62
1
100
AcDbLine
 10
277.089805
 20
310.583588
 30
0.0
 11
277.089805
 21
315.069048
 31
0.0
  0
LINE
  5
1d6
100
AcDbEntity
  8
Layer_1
 62
1
100
AcDbLine
 10
282.683816
 20
315.069048
 30
0.0
 11
286.817808
 21
315.069048
 31
0.0
  0
LINE
  5
1d7
100
AcDbEntity
  8
Layer_1
 62
1
100
AcDbLine
 10
286.817808
 20
315.069048
 30
0.0
 11
286.817808
 21
314.194785
 31
0.0
  0
LINE
  5
1d8
100
AcDbEntity
  8
Layer_1
 62
1
100
AcDbLine
 10
286.817808
 20
314.194785
 30
0.0
 11
285.330638
 21
314.194785
 31
0.0
  0
LINE
  5
1d9
100
AcDbEntity
  8
Layer_1
 62
1
100
AcDbLine
 10
285.330638
 20
314.194785
 30
0.0
 11
285.330638
 21
310.583588
 31
0.0
  0
LINE
  5
1da
100
AcDbEntity
  8
Layer_1
 62
1
100
AcDbLine
 10
285.330638
 20
310.583588
 30
0.0
 11
284.174006
 21
310.583588
 31
0.0
  0
LINE
  5
1db
100
AcDbEntity
  8
Layer_1
 62
1
100
AcDbLine
 10
284.174006
 20
310.583588
 30
0.0
 11
284.174006
 21
314.194785
 31
0.0
  0
LINE
  5
1dc
100
AcDbEntity
  8
Layer_1
 62
1
100
AcDbLine
 10
284.174006
 20
314.194785
 30
0.0
 11
282.683816
 21
314.194785
 31
0.0
  0
LINE
  5
1dd
100
AcDbEntity
  8
Layer_1
 62
1
100
AcDbLine
 10
282.683816
 20
314.194785
 30
0.0
 11
282.683816
 21
315.069048
 31
0.0
  0
LINE
  5
1de
100
AcDbEntity
  8
Layer_1
 62
1
100
AcDbLine
 10
288.953891
 20
315.069048
 30
0.0
 11
290.062488
 21
315.069048
 31
0.0
  0
LINE
  5
1df
100
AcDbEntity
  8
Layer_1
 62
1
100
AcDbLine
 10
290.062488
 20
315.069048
 30
0.0
 11
290.837583
 21
311.809353
 31
0.0
  0
LINE
  5
1e0
100
AcDbEntity
  8
Layer_1
 62
1
100
AcDbLine
 10
290.837583
 20
311.809353
 30
0.0
 11
291.606667
 21
315.069048
 31
0.0
  0
LINE
  5
1e1
100
AcDbEntity
  8
Layer_1
 62
1
100
AcDbLine
 10
291.606667
 20
315.069048
 30
0.0
 11
292.721276
 21
315.069048
 31
0.0
  0
LINE
  5
1e2
100
AcDbEntity
  8
Layer_1
 62
1
100
AcDbLine
 10
292.721276
 20
315.069048
 30
0.0
 11
293.490416
 21
311.809353
 31
0.0
  0
LINE
  5
1e3
100
AcDbEntity
  8
Layer_1
 62
1
100
AcDbLine
 10
293.490416
 20
311.809353
 30
0.0
 11
294.265511
 21
315.069048
 31
0.0
  0
LINE
  5
1e4
100
AcDbEntity
  8
Layer_1
 62
1
100
AcDbLine
 10
294.265511
 20
315.069048
 30
0.0
 11
295.365105
 21
315.069048
 31
0.0
  0
LINE
  5
1e5
100
AcDbEntity
  8
Layer_1
 62
1
100
AcDbLine
 10
295.365105
 20
315.069048
 30
0.0
 11
294.307590
 21
310.583588
 31
0.0
  0
LINE
  5
1e6
100
AcDbEntity
  8
Layer_1
 62
1
100
AcDbLine
 10
294.307590
 20
310.583588
 30
0.0
 11
292.973639
 21
310.583588
 31
0.0
  0
LINE
  5
1e7
100
AcDbEntity
  8
Layer_1
 62
1
100
AcDbLine
 10
292.973639
 20
310.583588
 30
0.0
 11
292.159512
 21
313.993499
 31
0.0
  0
LINE
  5
1e8
100
AcDbEntity
  8
Layer_1
 62
1
100
AcDbLine
 10
292.159512
 20
313.993499
 30
0.0
 11
291.354332
 21
310.583588
 31
0.0
  0
LINE
  5
1e9
100
AcDbEntity
  8
Layer_1
 62
1
100
AcDbLine
 10
291.354332
 20
310.583588
 30
0.0
 11
290.020409
 21
310.583588
 31
0.0
  0
LINE
  5
1ea
100
AcDbEntity
  8
Layer_1
 62
1
100
AcDbLine
 10
290.020409
 20
310.583588
 30
0.0
 11
288.953891
 21
315.069048
 31
0.0
  0
SPLINE
  5
1eb
100
AcDbEntity
  8
Layer_1
 62
1
100
AcDbSpline
 70
8
 71
3
 72
8
 73
4
 74
0
 40
0
 40
0
 40
0
 40
0
 40
1
 40
1
 40
1
 40
1
 10
300.096928
 20
314.311959
 30
0.0
 10
299.744432
 20
314.311953
 30
0.0
 10
299.471015
 20
314.181764
 30
0.0
 10
299.276733
 20
313.921394
 30
0.0
  0
SPLINE
  5
1ec
100
AcDbEntity
  8
Layer_1
 62
1
100
AcDbSpline
 70
8
 71
3
 72
8
 73
4
 74
0
 40
0
 40
0
 40
0
 40
0
 40
1
 40
1
 40
1
 40
1
 10
299.276733
 20
313.921394
 30
0.0
 10
299.082452
 20
313.661016
 30
0.0
 10
298.985311
 20
313.294488
 30
0.0
 10
298.985311
 20
312.821811
 30
0.0
  0
SPLINE
  5
1ed
100
AcDbEntity
  8
Layer_1
 62
1
100
AcDbSpline
 70
8
 71
3
 72
8
 73
4
 74
0
 40
0
 40
0
 40
0
 40
0
 40
1
 40
1
 40
1
 40
1
 10
298.985311
 20
312.821811
 30
0.0
 10
298.985311
 20
312.351132
 30
0.0
 10
299.082452
 20
311.985606
 30
0.0
 10
299.276733
 20
311.725231
 30
0.0
  0
SPLINE
  5
1ee
100
AcDbEntity
  8
Layer_1
 62
1
100
AcDbSpline
 70
8
 71
3
 72
8
 73
4
 74
0
 40
0
 40
0
 40
0
 40
0
 40
1
 40
1
 40
1
 40
1
 10
299.276733
 20
311.725231
 30
0.0
 10
299.471015
 20
311.464856
 30
0.0
 10
299.744432
 20
311.334669
 30
0.0
 10
300.096928
 20
311.334669
 30
0.0
  0
SPLINE
  5
1ef
100
AcDbEntity
  8
Layer_1
 62
1
100
AcDbSpline
 70
8
 71
3
 72
8
 73
4
 74
0
 40
0
 40
0
 40
0
 40
0
 40
1
 40
1
 40
1
 40
1
 10
300.096928
 20
311.334669
 30
0.0
 10
300.451399
 20
311.334669
 30
0.0
 10
300.725832
 20
311.464856
 30
0.0
 10
300.920113
 20
311.725231
 30
0.0
  0
SPLINE
  5
1f0
100
AcDbEntity
  8
Layer_1
 62
1
100
AcDbSpline
 70
8
 71
3
 72
8
 73
4
 74
0
 40
0
 40
0
 40
0
 40
0
 40
1
 40
1
 40
1
 40
1
 10
300.920113
 20
311.725231
 30
0.0
 10
301.114367
 20
311.985606
 30
0.0
 10
301.211536
 20
312.351132
 30
0.0
 10
301.211536
 20
312.821811
 30
0.0
  0
SPLINE
  5
1f1
100
AcDbEntity
  8
Layer_1
 62
1
100
AcDbSpline
 70
8
 71
3
 72
8
 73
4
 74
0
 40
0
 40
0
 40
0
 40
0
 40
1
 40
1
 40
1
 40
1
 10
301.211536
 20
312.821811
 30
0.0
 10
301.211536
 20
313.294488
 30
0.0
 10
301.114367
 20
313.661016
 30
0.0
 10
300.920113
 20
313.921394
 30
0.0
  0
SPLINE
  5
1f2
100
AcDbEntity
  8
Layer_1
 62
1
100
AcDbSpline
 70
8
 71
3
 72
8
 73
4
 74
0
 40
0
 40
0
 40
0
 40
0
 40
1
 40
1
 40
1
 40
1
 10
300.920113
 20
313.921394
 30
0.0
 10
300.725832
 20
314.181764
 30
0.0
 10
300.451399
 20
314.311953
 30
0.0
 10
300.096928
 20
314.311959
 30
0.0
  0
SPLINE
  5
1f3
100
AcDbEntity
  8
Layer_1
 62
1
100
AcDbSpline
 70
8
 71
3
 72
8
 73
4
 74
0
 40
0
 40
0
 40
0
 40
0
 40
1
 40
1
 40
1
 40
1
 10
300.096928
 20
315.150161
 30
0.0
 10
300.817949
 20
315.150159
 30
0.0
 10
301.382788
 20
314.943863
 30
0.0
 10
301.791362
 20
314.531271
 30
0.0
  0
SPLINE
  5
1f4
100
AcDbEntity
  8
Layer_1
 62
1
100
AcDbSpline
 70
8
 71
3
 72
8
 73
4
 74
0
 40
0
 40
0
 40
0
 40
0
 40
1
 40
1
 40
1
 40
1
 10
301.791362
 20
314.531271
 30
0.0
 10
302.199935
 20
314.118673
 30
0.0
 10
302.404235
 20
313.548855
 30
0.0
 10
302.404235
 20
312.821811
 30
0.0
  0
SPLINE
  5
1f5
100
AcDbEntity
  8
Layer_1
 62
1
100
AcDbSpline
 70
8
 71
3
 72
8
 73
4
 74
0
 40
0
 40
0
 40
0
 40
0
 40
1
 40
1
 40
1
 40
1
 10
302.404235
 20
312.821811
 30
0.0
 10
302.404235
 20
312.096765
 30
0.0
 10
302.199935
 20
311.527949
 30
0.0
 10
301.791362
 20
311.115354
 30
0.0
  0
SPLINE
  5
1f6
100
AcDbEntity
  8
Layer_1
 62
1
100
AcDbSpline
 70
8
 71
3
 72
8
 73
4
 74
0
 40
0
 40
0
 40
0
 40
0
 40
1
 40
1
 40
1
 40
1
 10
301.791362
 20
311.115354
 30
0.0
 10
301.382788
 20
310.702760
 30
0.0
 10
300.817949
 20
310.496464
 30
0.0
 10
300.096928
 20
310.496464
 30
0.0
  0
SPLINE
  5
1f7
100
AcDbEntity
  8
Layer_1
 62
1
100
AcDbSpline
 70
8
 71
3
 72
8
 73
4
 74
0
 40
0
 40
0
 40
0
 40
0
 40
1
 40
1
 40
1
 40
1
 10
300.096928
 20
310.496464
 30
0.0
 10
299.377882
 20
310.496464
 30
0.0
 10
298.813070
 20
310.702760
 30
0.0
 10
298.402465
 20
311.115354
 30
0.0
  0
SPLINE
  5
1f8
100
AcDbEntity
  8
Layer_1
 62
1
100
AcDbSpline
 70
8
 71
3
 72
8
 73
4
 74
0
 40
0
 40
0
 40
0
 40
0
 40
1
 40
1
 40
1
 40
1
 10
298.402465
 20
311.115354
 30
0.0
 10
297.993892
 20
311.527949
 30
0.0
 10
297.789592
 20
312.096765
 30
0.0
 10
297.789592
 20
312.821811
 30
0.0
  0
SPLINE
  5
1f9
100
AcDbEntity
  8
Layer_1
 62
1
100
AcDbSpline
 70
8
 71
3
 72
8
 73
4
 74
0
 40
0
 40
0
 40
0
 40
0
 40
1
 40
1
 40
1
 40
1
 10
297.789592
 20
312.821811
 30
0.0
 10
297.789592
 20
313.548855
 30
0.0
 10
297.993892
 20
314.118673
 30
0.0
 10
298.402465
 20
314.531271
 30
0.0
  0
SPLINE
  5
1fa
100
AcDbEntity
  8
Layer_1
 62
1
100
AcDbSpline
 70
8
 71
3
 72
8
 73
4
 74
0
 40
0
 40
0
 40
0
 40
0
 40
1
 40
1
 40
1
 40
1
 10
298.402465
 20
314.531271
 30
0.0
 10
298.813070
 20
314.943863
 30
0.0
 10
299.377882
 20
315.150159
 30
0.0
 10
300.096928
 20
315.150161
 30
0.0
  0
SPLINE
  5
1fb
100
AcDbEntity
  8
Layer_1
 62
1
100
AcDbSpline
 70
8
 71
3
 72
8
 73
4
 74
0
 40
0
 40
0
 40
0
 40
0
 40
1
 40
1
 40
1
 40
1
 10
306.841615
 20
313.080183
 30
0.0
 10
307.083960
 20
313.080183
 30
0.0
 10
307.257244
 20
313.125245
 30
0.0
 10
307.361384
 20
313.215376
 30
0.0
  0
SPLINE
  5
1fc
100
AcDbEntity
  8
Layer_1
 62
1
100
AcDbSpline
 70
8
 71
3
 72
8
 73
4
 74
0
 40
0
 40
0
 40
0
 40
0
 40
1
 40
1
 40
1
 40
1
 10
307.361384
 20
313.215376
 30
0.0
 10
307.467528
 20
313.305503
 30
0.0
 10
307.520614
 20
313.453718
 30
0.0
 10
307.520614
 20
313.660017
 30
0.0
  0
SPLINE
  5
1fd
100
AcDbEntity
  8
Layer_1
 62
1
100
AcDbSpline
 70
8
 71
3
 72
8
 73
4
 74
0
 40
0
 40
0
 40
0
 40
0
 40
1
 40
1
 40
1
 40
1
 10
307.520614
 20
313.660017
 30
0.0
 10
307.520614
 20
313.864309
 30
0.0
 10
307.467528
 20
314.010520
 30
0.0
 10
307.361384
 20
314.098646
 30
0.0
  0
SPLINE
  5
1fe
100
AcDbEntity
  8
Layer_1
 62
1
100
AcDbSpline
 70
8
 71
3
 72
8
 73
4
 74
0
 40
0
 40
0
 40
0
 40
0
 40
1
 40
1
 40
1
 40
1
 10
307.361384
 20
314.098646
 30
0.0
 10
307.257244
 20
314.186773
 30
0.0
 10
307.083960
 20
314.230837
 30
0.0
 10
306.841615
 20
314.230839
 30
0.0
  0
LINE
  5
1ff
100
AcDbEntity
  8
Layer_1
 62
1
100
AcDbLine
 10
306.841615
 20
314.230839
 30
0.0
 11
306.354923
 21
314.230839
 31
0.0
  0
LINE
  5
200
100
AcDbEntity
  8
Layer_1
 62
1
100
AcDbLine
 10
306.354923
 20
314.230839
 30
0.0
 11
306.354923
 21
313.080183
 31
0.0
  0
LINE
  5
201
100
AcDbEntity
  8
Layer_1
 62
1
100
AcDbLine
 10
306.354923
 20
313.080183
 30
0.0
 11
306.841615
 21
313.080183
 31
0.0
  0
LINE
  5
202
100
AcDbEntity
  8
Layer_1
 62
1
100
AcDbLine
 10
306.354923
 20
312.281034
 30
0.0
 11
306.354923
 21
310.583588
 31
0.0
  0
LINE
  5
203
100
AcDbEntity
  8
Layer_1
 62
1
100
AcDbLine
 10
306.354923
 20
310.583588
 30
0.0
 11
305.198264
 21
310.583588
 31
0.0
  0
LINE
  5
204
100
AcDbEntity
  8
Layer_1
 62
1
100
AcDbLine
 10
305.198264
 20
310.583588
 30
0.0
 11
305.198264
 21
315.069048
 31
0.0
  0
LINE
  5
205
100
AcDbEntity
  8
Layer_1
 62
1
100
AcDbLine
 10
305.198264
 20
315.069048
 30
0.0
 11
306.964805
 21
315.069048
 31
0.0
  0
SPLINE
  5
206
100
AcDbEntity
  8
Layer_1
 62
1
100
AcDbSpline
 70
8
 71
3
 72
8
 73
4
 74
0
 40
0
 40
0
 40
0
 40
0
 40
1
 40
1
 40
1
 40
1
 10
306.964805
 20
315.069048
 30
0.0
 10
307.555638
 20
315.069039
 30
0.0
 10
307.988284
 20
314.969900
 30
0.0
 10
308.262661
 20
314.771619
 30
0.0
  0
SPLINE
  5
207
100
AcDbEntity
  8
Layer_1
 62
1
100
AcDbSpline
 70
8
 71
3
 72
8
 73
4
 74
0
 40
0
 40
0
 40
0
 40
0
 40
1
 40
1
 40
1
 40
1
 10
308.262661
 20
314.771619
 30
0.0
 10
308.539069
 20
314.573330
 30
0.0
 10
308.677273
 20
314.259880
 30
0.0
 10
308.677273
 20
313.831264
 30
0.0
  0
SPLINE
  5
208
100
AcDbEntity
  8
Layer_1
 62
1
100
AcDbSpline
 70
8
 71
3
 72
8
 73
4
 74
0
 40
0
 40
0
 40
0
 40
0
 40
1
 40
1
 40
1
 40
1
 10
308.677273
 20
313.831264
 30
0.0
 10
308.677273
 20
313.534834
 30
0.0
 10
308.605166
 20
313.291485
 30
0.0
 10
308.460950
 20
313.101214
 30
0.0
  0
SPLINE
  5
209
100
AcDbEntity
  8
Layer_1
 62
1
100
AcDbSpline
 70
8
 71
3
 72
8
 73
4
 74
0
 40
0
 40
0
 40
0
 40
0
 40
1
 40
1
 40
1
 40
1
 10
308.460950
 20
313.101214
 30
0.0
 10
308.318766
 20
312.910937
 30
0.0
 10
308.103431
 20
312.770737
 30
0.0
 10
307.815028
 20
312.680607
 30
0.0
  0
SPLINE
  5
20a
100
AcDbEntity
  8
Layer_1
 62
1
100
AcDbSpline
 70
8
 71
3
 72
8
 73
4
 74
0
 40
0
 40
0
 40
0
 40
0
 40
1
 40
1
 40
1
 40
1
 10
307.815028
 20
312.680607
 30
0.0
 10
307.973242
 20
312.644536
 30
0.0
 10
308.114438
 20
312.562435
 30
0.0
 10
308.238644
 20
312.434252
 30
0.0
  0
SPLINE
  5
20b
100
AcDbEntity
  8
Layer_1
 62
1
100
AcDbSpline
 70
8
 71
3
 72
8
 73
4
 74
0
 40
0
 40
0
 40
0
 40
0
 40
1
 40
1
 40
1
 40
1
 10
308.238644
 20
312.434252
 30
0.0
 10
308.364825
 20
312.308071
 30
0.0
 10
308.491994
 20
312.115793
 30
0.0
 10
308.620180
 20
311.857424
 30
0.0
  0
LINE
  5
20c
100
AcDbEntity
  8
Layer_1
 62
1
100
AcDbLine
 10
308.620180
 20
311.857424
 30
0.0
 11
309.248096
 21
310.583588
 31
0.0
  0
LINE
  5
20d
100
AcDbEntity
  8
Layer_1
 62
1
100
AcDbLine
 10
309.248096
 20
310.583588
 30
0.0
 11
308.016309
 21
310.583588
 31
0.0
  0
LINE
  5
20e
100
AcDbEntity
  8
Layer_1
 62
1
100
AcDbLine
 10
308.016309
 20
310.583588
 30
0.0
 11
307.469532
 21
311.698194
 31
0.0
  0
SPLINE
  5
20f
100
AcDbEntity
  8
Layer_1
 62
1
100
AcDbSpline
 70
8
 71
3
 72
8
 73
4
 74
0
 40
0
 40
0
 40
0
 40
0
 40
1
 40
1
 40
1
 40
1
 10
307.469532
 20
311.698194
 30
0.0
 10
307.359352
 20
311.922516
 30
0.0
 10
307.247197
 20
312.075734
 30
0.0
 10
307.133066
 20
312.157855
 30
0.0
  0
SPLINE
  5
210
100
AcDbEntity
  8
Layer_1
 62
1
100
AcDbSpline
 70
8
 71
3
 72
8
 73
4
 74
0
 40
0
 40
0
 40
0
 40
0
 40
1
 40
1
 40
1
 40
1
 10
307.133066
 20
312.157855
 30
0.0
 10
307.020883
 20
312.239970
 30
0.0
 10
306.870656
 20
312.281031
 30
0.0
 10
306.682386
 20
312.281034
 30
0.0
  0
LINE
  5
211
100
AcDbEntity
  8
Layer_1
 62
1
100
AcDbLine
 10
306.682386
 20
312.281034
 30
0.0
 11
306.354923
 21
312.281034
 31
0.0
  0
LINE
  5
212
100
AcDbEntity
  8
Layer_1
 62
1
100
AcDbLine
 10
311.855829
 20
315.069048
 30
0.0
 11
313.012517
 21
315.069048
 31
0.0
  0
LINE
  5
213
100
AcDbEntity
  8
Layer_1
 62
1
100
AcDbLine
 10
313.012517
 20
315.069048
 30
0.0
 11
313.012517
 21
313.431688
 31
0.0
  0
LINE
  5
214
100
AcDbEntity
  8
Layer_1
 62
1
100
AcDbLine
 10
313.012517
 20
313.431688
 30
0.0
 11
314.679914
 21
315.069048
 31
0.0
  0
LINE
  5
215
100
AcDbEntity
  8
Layer_1
 62
1
100
AcDbLine
 10
314.679914
 20
315.069048
 30
0.0
 11
316.022840
 21
315.069048
 31
0.0
  0
LINE
  5
216
100
AcDbEntity
  8
Layer_1
 62
1
100
AcDbLine
 10
316.022840
 20
315.069048
 30
0.0
 11
313.862740
 21
312.944987
 31
0.0
  0
LINE
  5
217
100
AcDbEntity
  8
Layer_1
 62
1
100
AcDbLine
 10
313.862740
 20
312.944987
 30
0.0
 11
316.245147
 21
310.583588
 31
0.0
  0
LINE
  5
218
100
AcDbEntity
  8
Layer_1
 62
1
100
AcDbLine
 10
316.245147
 20
310.583588
 30
0.0
 11
314.797065
 21
310.583588
 31
0.0
  0
LINE
  5
219
100
AcDbEntity
  8
Layer_1
 62
1
100
AcDbLine
 10
314.797065
 20
310.583588
 30
0.0
 11
313.012517
 21
312.350133
 31
0.0
  0
LINE
  5
21a
100
AcDbEntity
  8
Layer_1
 62
1
100
AcDbLine
 10
313.012517
 20
312.350133
 30
0.0
 11
313.012517
 21
310.583588
 31
0.0
  0
LINE
  5
21b
100
AcDbEntity
  8
Layer_1
 62
1
100
AcDbLine
 10
313.012517
 20
310.583588
 30
0.0
 11
311.855829
 21
310.583588
 31
0.0
  0
LINE
  5
21c
100
AcDbEntity
  8
Layer_1
 62
1
100
AcDbLine
 10
311.855829
 20
310.583588
 30
0.0
 11
311.855829
 21
315.069048
 31
0.0
  0
LINE
  5
21d
100
AcDbEntity
  8
Layer_1
 62
1
100
AcDbLine
 10
33.814093
 20
310.157938
 30
0.0
 11
32.884374
 21
310.157938
 31
0.0
  0
LINE
  5
21e
100
AcDbEntity
  8
Layer_1
 62
1
100
AcDbLine
 10
32.884374
 20
310.157938
 30
0.0
 11
32.884374
 21
305.533205
 31
0.0
  0
LINE
  5
21f
100
AcDbEntity
  8
Layer_1
 62
1
100
AcDbLine
 10
32.884374
 20
305.533205
 30
0.0
 11
33.802781
 21
305.533205
 31
0.0
  0
SPLINE
  5
220
100
AcDbEntity
  8
Layer_1
 62
1
100
AcDbSpline
 70
8
 71
3
 72
8
 73
4
 74
0
 40
0
 40
0
 40
0
 40
0
 40
1
 40
1
 40
1
 40
1
 10
33.802781
 20
305.533205
 30
0.0
 10
35.265056
 20
305.533205
 30
0.0
 10
35.854703
 20
306.473882
 30
0.0
 10
35.854703
 20
307.834348
 30
0.0
  0
SPLINE
  5
221
100
AcDbEntity
  8
Layer_1
 62
1
100
AcDbSpline
 70
8
 71
3
 72
8
 73
4
 74
0
 40
0
 40
0
 40
0
 40
0
 40
1
 40
1
 40
1
 40
1
 10
35.854703
 20
307.834348
 30
0.0
 10
35.854703
 20
309.172012
 30
0.0
 10
35.242431
 20
310.157938
 30
0.0
 10
33.814093
 20
310.157938
 30
0.0
  0
LINE
  5
222
100
AcDbEntity
  8
Layer_1
 62
1
100
AcDbLine
 10
33.677993
 20
303.650965
 30
0.0
 11
30.741778
 21
303.650965
 31
0.0
  0
LINE
  5
223
100
AcDbEntity
  8
Layer_1
 62
1
100
AcDbLine
 10
30.741778
 20
303.650965
 30
0.0
 11
30.741778
 21
312.040001
 31
0.0
  0
LINE
  5
224
100
AcDbEntity
  8
Layer_1
 62
1
100
AcDbLine
 10
30.741778
 20
312.040001
 30
0.0
 11
33.519269
 21
312.040001
 31
0.0
  0
SPLINE
  5
225
100
AcDbEntity
  8
Layer_1
 62
1
100
AcDbSpline
 70
8
 71
3
 72
8
 73
4
 74
0
 40
0
 40
0
 40
0
 40
0
 40
1
 40
1
 40
1
 40
1
 10
33.519269
 20
312.040001
 30
0.0
 10
35.038459
 20
312.040001
 30
0.0
 10
36.274137
 20
311.790426
 30
0.0
 10
37.226480
 20
310.475563
 30
0.0
  0
SPLINE
  5
226
100
AcDbEntity
  8
Layer_1
 62
1
100
AcDbSpline
 70
8
 71
3
 72
8
 73
4
 74
0
 40
0
 40
0
 40
0
 40
0
 40
1
 40
1
 40
1
 40
1
 10
37.226480
 20
310.475563
 30
0.0
 10
37.770525
 20
309.716057
 30
0.0
 10
37.997299
 20
308.797827
 30
0.0
 10
37.997299
 20
307.868107
 30
0.0
  0
SPLINE
  5
227
100
AcDbEntity
  8
Layer_1
 62
1
100
AcDbSpline
 70
8
 71
3
 72
8
 73
4
 74
0
 40
0
 40
0
 40
0
 40
0
 40
1
 40
1
 40
1
 40
1
 10
37.997299
 20
307.868107
 30
0.0
 10
37.997299
 20
305.113417
 30
0.0
 10
36.421548
 20
303.650965
 30
0.0
 10
33.677993
 20
303.650965
 30
0.0
  0
LINE
  5
228
100
AcDbEntity
  8
Layer_1
 62
1
100
AcDbLine
 10
38.813401
 20
303.650984
 30
0.0
 11
38.813401
 21
312.040019
 31
0.0
  0
LINE
  5
229
100
AcDbEntity
  8
Layer_1
 62
1
100
AcDbLine
 10
38.813401
 20
312.040019
 30
0.0
 11
43.472779
 21
312.040019
 31
0.0
  0
LINE
  5
22a
100
AcDbEntity
  8
Layer_1
 62
1
100
AcDbLine
 10
43.472779
 20
312.040019
 30
0.0
 11
43.472779
 21
310.157957
 31
0.0
  0
LINE
  5
22b
100
AcDbEntity
  8
Layer_1
 62
1
100
AcDbLine
 10
43.472779
 20
310.157957
 30
0.0
 11
40.865323
 21
310.157957
 31
0.0
  0
LINE
  5
22c
100
AcDbEntity
  8
Layer_1
 62
1
100
AcDbLine
 10
40.865323
 20
310.157957
 30
0.0
 11
40.865323
 21
308.854406
 31
0.0
  0
LINE
  5
22d
100
AcDbEntity
  8
Layer_1
 62
1
100
AcDbLine
 10
40.865323
 20
308.854406
 30
0.0
 11
43.393240
 21
308.854406
 31
0.0
  0
LINE
  5
22e
100
AcDbEntity
  8
Layer_1
 62
1
100
AcDbLine
 10
43.393240
 20
308.854406
 30
0.0
 11
43.393240
 21
306.972697
 31
0.0
  0
LINE
  5
22f
100
AcDbEntity
  8
Layer_1
 62
1
100
AcDbLine
 10
43.393240
 20
306.972697
 30
0.0
 11
40.865323
 21
306.972697
 31
0.0
  0
LINE
  5
230
100
AcDbEntity
  8
Layer_1
 62
1
100
AcDbLine
 10
40.865323
 20
306.972697
 30
0.0
 11
40.865323
 21
305.533046
 31
0.0
  0
LINE
  5
231
100
AcDbEntity
  8
Layer_1
 62
1
100
AcDbLine
 10
40.865323
 20
305.533046
 30
0.0
 11
43.472779
 21
305.533046
 31
0.0
  0
LINE
  5
232
100
AcDbEntity
  8
Layer_1
 62
1
100
AcDbLine
 10
43.472779
 20
305.533046
 30
0.0
 11
43.472779
 21
303.650984
 31
0.0
  0
LINE
  5
233
100
AcDbEntity
  8
Layer_1
 62
1
100
AcDbLine
 10
43.472779
 20
303.650984
 30
0.0
 11
38.813401
 21
303.650984
 31
0.0
  0
LINE
  5
234
100
AcDbEntity
  8
Layer_1
 62
1
100
AcDbLine
 10
38.813401
 20
303.650984
 30
0.0
 11
38.813401
 21
303.650984
 31
0.0
  0
SPLINE
  5
235
100
AcDbEntity
  8
Layer_1
 62
1
100
AcDbSpline
 70
8
 71
3
 72
8
 73
4
 74
0
 40
0
 40
0
 40
0
 40
0
 40
1
 40
1
 40
1
 40
1
 10
47.123199
 20
303.492171
 30
0.0
 10
45.433974
 20
303.492171
 30
0.0
 10
44.096310
 20
304.365329
 30
0.0
 10
44.096310
 20
306.156187
 30
0.0
  0
LINE
  5
236
100
AcDbEntity
  8
Layer_1
 62
1
100
AcDbLine
 10
44.096310
 20
306.156187
 30
0.0
 11
44.096310
 21
306.428563
 31
0.0
  0
LINE
  5
237
100
AcDbEntity
  8
Layer_1
 62
1
100
AcDbLine
 10
44.096310
 20
306.428563
 30
0.0
 11
46.227770
 21
306.428563
 31
0.0
  0
SPLINE
  5
238
100
AcDbEntity
  8
Layer_1
 62
1
100
AcDbSpline
 70
8
 71
3
 72
8
 73
4
 74
0
 40
0
 40
0
 40
0
 40
0
 40
1
 40
1
 40
1
 40
1
 10
46.227770
 20
306.428563
 30
0.0
 10
46.227770
 20
305.884165
 30
0.0
 10
46.477168
 20
305.283559
 30
0.0
 10
47.100575
 20
305.283559
 30
0.0
  0
SPLINE
  5
239
100
AcDbEntity
  8
Layer_1
 62
1
100
AcDbSpline
 70
8
 71
3
 72
8
 73
4
 74
0
 40
0
 40
0
 40
0
 40
0
 40
1
 40
1
 40
1
 40
1
 10
47.100575
 20
305.283559
 30
0.0
 10
47.542457
 20
305.283559
 30
0.0
 10
47.916642
 20
305.634943
 30
0.0
 10
47.916642
 20
306.088668
 30
0.0
  0
SPLINE
  5
23a
100
AcDbEntity
  8
Layer_1
 62
1
100
AcDbSpline
 70
8
 71
3
 72
8
 73
4
 74
0
 40
0
 40
0
 40
0
 40
0
 40
1
 40
1
 40
1
 40
1
 10
47.916642
 20
306.088668
 30
0.0
 10
47.916642
 20
306.632712
 30
0.0
 10
47.463448
 20
306.813884
 30
0.0
 10
47.021213
 20
307.006898
 30
0.0
  0
SPLINE
  5
23b
100
AcDbEntity
  8
Layer_1
 62
1
100
AcDbSpline
 70
8
 71
3
 72
8
 73
4
 74
0
 40
0
 40
0
 40
0
 40
0
 40
1
 40
1
 40
1
 40
1
 10
47.021213
 20
307.006898
 30
0.0
 10
46.771638
 20
307.120019
 30
0.0
 10
46.522417
 20
307.222359
 30
0.0
 10
46.272842
 20
307.324169
 30
0.0
  0
SPLINE
  5
23c
100
AcDbEntity
  8
Layer_1
 62
1
100
AcDbSpline
 70
8
 71
3
 72
8
 73
4
 74
0
 40
0
 40
0
 40
0
 40
0
 40
1
 40
1
 40
1
 40
1
 10
46.272842
 20
307.324169
 30
0.0
 10
45.184576
 20
307.777716
 30
0.0
 10
44.220920
 20
308.412258
 30
0.0
 10
44.220920
 20
309.727475
 30
0.0
  0
SPLINE
  5
23d
100
AcDbEntity
  8
Layer_1
 62
1
100
AcDbSpline
 70
8
 71
3
 72
8
 73
4
 74
0
 40
0
 40
0
 40
0
 40
0
 40
1
 40
1
 40
1
 40
1
 10
44.220920
 20
309.727475
 30
0.0
 10
44.220920
 20
311.291560
 30
0.0
 10
45.728621
 20
312.198831
 30
0.0
 10
47.157136
 20
312.198831
 30
0.0
  0
SPLINE
  5
23e
100
AcDbEntity
  8
Layer_1
 62
1
100
AcDbSpline
 70
8
 71
3
 72
8
 73
4
 74
0
 40
0
 40
0
 40
0
 40
0
 40
1
 40
1
 40
1
 40
1
 10
47.157136
 20
312.198831
 30
0.0
 10
47.973380
 20
312.198831
 30
0.0
 10
48.891610
 20
311.892695
 30
0.0
 10
49.424696
 20
311.246488
 30
0.0
  0
SPLINE
  5
23f
100
AcDbEntity
  8
Layer_1
 62
1
100
AcDbSpline
 70
8
 71
3
 72
8
 73
4
 74
0
 40
0
 40
0
 40
0
 40
0
 40
1
 40
1
 40
1
 40
1
 10
49.424696
 20
311.246488
 30
0.0
 10
49.855442
 20
310.713755
 30
0.0
 10
49.957252
 20
310.248719
 30
0.0
 10
49.980053
 20
309.591375
 30
0.0
  0
LINE
  5
240
100
AcDbEntity
  8
Layer_1
 62
1
100
AcDbLine
 10
49.980053
 20
309.591375
 30
0.0
 11
47.860081
 21
309.591375
 31
0.0
  0
SPLINE
  5
241
100
AcDbEntity
  8
Layer_1
 62
1
100
AcDbSpline
 70
8
 71
3
 72
8
 73
4
 74
0
 40
0
 40
0
 40
0
 40
0
 40
1
 40
1
 40
1
 40
1
 10
47.860081
 20
309.591375
 30
0.0
 10
47.792032
 20
310.056058
 30
0.0
 10
47.633308
 20
310.407619
 30
0.0
 10
47.089263
 20
310.407619
 30
0.0
  0
SPLINE
  5
242
100
AcDbEntity
  8
Layer_1
 62
1
100
AcDbSpline
 70
8
 71
3
 72
8
 73
4
 74
0
 40
0
 40
0
 40
0
 40
0
 40
1
 40
1
 40
1
 40
1
 10
47.089263
 20
310.407619
 30
0.0
 10
46.714901
 20
310.407619
 30
0.0
 10
46.352381
 20
310.146909
 30
0.0
 10
46.352381
 20
309.749923
 30
0.0
  0
SPLINE
  5
243
100
AcDbEntity
  8
Layer_1
 62
1
100
AcDbSpline
 70
8
 71
3
 72
8
 73
4
 74
0
 40
0
 40
0
 40
0
 40
0
 40
1
 40
1
 40
1
 40
1
 10
46.352381
 20
309.749923
 30
0.0
 10
46.352381
 20
309.625312
 30
0.0
 10
46.363516
 20
309.500701
 30
0.0
 10
46.431566
 20
309.398892
 30
0.0
  0
SPLINE
  5
244
100
AcDbEntity
  8
Layer_1
 62
1
100
AcDbSpline
 70
8
 71
3
 72
8
 73
4
 74
0
 40
0
 40
0
 40
0
 40
0
 40
1
 40
1
 40
1
 40
1
 10
46.431566
 20
309.398892
 30
0.0
 10
46.635716
 20
309.058466
 30
0.0
 10
47.735471
 20
308.627897
 30
0.0
 10
48.086855
 20
308.468819
 30
0.0
  0
SPLINE
  5
245
100
AcDbEntity
  8
Layer_1
 62
1
100
AcDbSpline
 70
8
 71
3
 72
8
 73
4
 74
0
 40
0
 40
0
 40
0
 40
0
 40
1
 40
1
 40
1
 40
1
 10
48.086855
 20
308.468819
 30
0.0
 10
49.197746
 20
307.958888
 30
0.0
 10
50.048103
 20
307.380730
 30
0.0
 10
50.048103
 20
306.065866
 30
0.0
  0
SPLINE
  5
246
100
AcDbEntity
  8
Layer_1
 62
1
100
AcDbSpline
 70
8
 71
3
 72
8
 73
4
 74
0
 40
0
 40
0
 40
0
 40
0
 40
1
 40
1
 40
1
 40
1
 10
50.048103
 20
306.065866
 30
0.0
 10
50.048103
 20
304.308591
 30
0.0
 10
48.778312
 20
303.492171
 30
0.0
 10
47.123199
 20
303.492171
 30
0.0
  0
LINE
  5
247
100
AcDbEntity
  8
Layer_1
 62
1
100
AcDbLine
 10
50.614913
 20
312.040107
 30
0.0
 11
52.757509
 21
312.040107
 31
0.0
  0
LINE
  5
248
100
AcDbEntity
  8
Layer_1
 62
1
100
AcDbLine
 10
52.757509
 20
312.040107
 30
0.0
 11
52.757509
 21
303.651071
 31
0.0
  0
LINE
  5
249
100
AcDbEntity
  8
Layer_1
 62
1
100
AcDbLine
 10
52.757509
 20
303.651071
 30
0.0
 11
50.614913
 21
303.651071
 31
0.0
  0
LINE
  5
24a
100
AcDbEntity
  8
Layer_1
 62
1
100
AcDbLine
 10
50.614913
 20
303.651071
 30
0.0
 11
50.614913
 21
312.040107
 31
0.0
  0
LINE
  5
24b
100
AcDbEntity
  8
Layer_1
 62
1
100
AcDbLine
 10
50.614913
 20
312.040107
 30
0.0
 11
50.614913
 21
312.040107
 31
0.0
  0
SPLINE
  5
24c
100
AcDbEntity
  8
Layer_1
 62
1
100
AcDbSpline
 70
8
 71
3
 72
8
 73
4
 74
0
 40
0
 40
0
 40
0
 40
0
 40
1
 40
1
 40
1
 40
1
 10
57.915648
 20
303.481124
 30
0.0
 10
55.444292
 20
303.481124
 30
0.0
 10
53.460419
 20
305.396770
 30
0.0
 10
53.460419
 20
307.879438
 30
0.0
  0
SPLINE
  5
24d
100
AcDbEntity
  8
Layer_1
 62
1
100
AcDbSpline
 70
8
 71
3
 72
8
 73
4
 74
0
 40
0
 40
0
 40
0
 40
0
 40
1
 40
1
 40
1
 40
1
 10
53.460419
 20
307.879438
 30
0.0
 10
53.460419
 20
310.396219
 30
0.0
 10
55.489540
 20
312.198920
 30
0.0
 10
57.949584
 20
312.198920
 30
0.0
  0
SPLINE
  5
24e
100
AcDbEntity
  8
Layer_1
 62
1
100
AcDbSpline
 70
8
 71
3
 72
8
 73
4
 74
0
 40
0
 40
0
 40
0
 40
0
 40
1
 40
1
 40
1
 40
1
 10
57.949584
 20
312.198920
 30
0.0
 10
59.763597
 20
312.198920
 30
0.0
 10
61.633994
 20
311.019626
 30
0.0
 10
62.144279
 20
309.228591
 30
0.0
  0
LINE
  5
24f
100
AcDbEntity
  8
Layer_1
 62
1
100
AcDbLine
 10
62.144279
 20
309.228591
 30
0.0
 11
59.740796
 21
309.228591
 31
0.0
  0
SPLINE
  5
250
100
AcDbEntity
  8
Layer_1
 62
1
100
AcDbSpline
 70
8
 71
3
 72
8
 73
4
 74
0
 40
0
 40
0
 40
0
 40
0
 40
1
 40
1
 40
1
 40
1
 10
59.740796
 20
309.228591
 30
0.0
 10
59.355475
 20
309.920048
 30
0.0
 10
58.686466
 20
310.316681
 30
0.0
 10
57.892847
 20
310.316681
 30
0.0
  0
SPLINE
  5
251
100
AcDbEntity
  8
Layer_1
 62
1
100
AcDbSpline
 70
8
 71
3
 72
8
 73
4
 74
0
 40
0
 40
0
 40
0
 40
0
 40
1
 40
1
 40
1
 40
1
 10
57.892847
 20
310.316681
 30
0.0
 10
56.521246
 20
310.316681
 30
0.0
 10
55.603016
 20
309.205790
 30
0.0
 10
55.603016
 20
307.879438
 30
0.0
  0
SPLINE
  5
252
100
AcDbEntity
  8
Layer_1
 62
1
100
AcDbSpline
 70
8
 71
3
 72
8
 73
4
 74
0
 40
0
 40
0
 40
0
 40
0
 40
1
 40
1
 40
1
 40
1
 10
55.603016
 20
307.879438
 30
0.0
 10
55.603016
 20
306.508014
 30
0.0
 10
56.475820
 20
305.363010
 30
0.0
 10
57.904335
 20
305.363010
 30
0.0
  0
SPLINE
  5
253
100
AcDbEntity
  8
Layer_1
 62
1
100
AcDbSpline
 70
8
 71
3
 72
8
 73
4
 74
0
 40
0
 40
0
 40
0
 40
0
 40
1
 40
1
 40
1
 40
1
 10
57.904335
 20
305.363010
 30
0.0
 10
58.822566
 20
305.363010
 30
0.0
 10
59.650122
 20
305.782444
 30
0.0
 10
59.911009
 20
306.711987
 30
0.0
  0
LINE
  5
254
100
AcDbEntity
  8
Layer_1
 62
1
100
AcDbLine
 10
59.911009
 20
306.711987
 30
0.0
 11
57.405363
 21
306.711987
 31
0.0
  0
LINE
  5
255
100
AcDbEntity
  8
Layer_1
 62
1
100
AcDbLine
 10
57.405363
 20
306.711987
 30
0.0
 11
57.405363
 21
308.423483
 31
0.0
  0
LINE
  5
256
100
AcDbEntity
  8
Layer_1
 62
1
100
AcDbLine
 10
57.405363
 20
308.423483
 30
0.0
 11
62.382188
 21
308.423483
 31
0.0
  0
SPLINE
  5
257
100
AcDbEntity
  8
Layer_1
 62
1
100
AcDbSpline
 70
8
 71
3
 72
8
 73
4
 74
0
 40
0
 40
0
 40
0
 40
0
 40
1
 40
1
 40
1
 40
1
 10
62.382188
 20
308.423483
 30
0.0
 10
62.393677
 20
308.276248
 30
0.0
 10
62.393677
 20
308.128659
 30
0.0
 10
62.393677
 20
307.981424
 30
0.0
  0
SPLINE
  5
258
100
AcDbEntity
  8
Layer_1
 62
1
100
AcDbSpline
 70
8
 71
3
 72
8
 73
4
 74
0
 40
0
 40
0
 40
0
 40
0
 40
1
 40
1
 40
1
 40
1
 10
62.393677
 20
307.981424
 30
0.0
 10
62.393677
 20
305.408082
 30
0.0
 10
60.488990
 20
303.481124
 30
0.0
 10
57.915648
 20
303.481124
 30
0.0
  0
LINE
  5
259
100
AcDbEntity
  8
Layer_1
 62
1
100
AcDbLine
 10
68.379423
 20
303.650984
 30
0.0
 11
65.182321
 21
308.752243
 31
0.0
  0
LINE
  5
25a
100
AcDbEntity
  8
Layer_1
 62
1
100
AcDbLine
 10
65.182321
 20
308.752243
 30
0.0
 11
65.159520
 21
308.741107
 31
0.0
  0
LINE
  5
25b
100
AcDbEntity
  8
Layer_1
 62
1
100
AcDbLine
 10
65.159520
 20
308.741107
 30
0.0
 11
65.216434
 21
303.650984
 31
0.0
  0
LINE
  5
25c
100
AcDbEntity
  8
Layer_1
 62
1
100
AcDbLine
 10
65.216434
 20
303.650984
 30
0.0
 11
63.164336
 21
303.650984
 31
0.0
  0
LINE
  5
25d
100
AcDbEntity
  8
Layer_1
 62
1
100
AcDbLine
 10
63.164336
 20
303.650984
 30
0.0
 11
63.164336
 21
312.040019
 31
0.0
  0
LINE
  5
25e
100
AcDbEntity
  8
Layer_1
 62
1
100
AcDbLine
 10
63.164336
 20
312.040019
 30
0.0
 11
65.012285
 21
312.040019
 31
0.0
  0
LINE
  5
25f
100
AcDbEntity
  8
Layer_1
 62
1
100
AcDbLine
 10
65.012285
 20
312.040019
 30
0.0
 11
68.254459
 21
306.768724
 31
0.0
  0
LINE
  5
260
100
AcDbEntity
  8
Layer_1
 62
1
100
AcDbLine
 10
68.254459
 20
306.768724
 30
0.0
 11
68.277260
 21
306.791172
 31
0.0
  0
LINE
  5
261
100
AcDbEntity
  8
Layer_1
 62
1
100
AcDbLine
 10
68.277260
 20
306.791172
 30
0.0
 11
68.186410
 21
312.040019
 31
0.0
  0
LINE
  5
262
100
AcDbEntity
  8
Layer_1
 62
1
100
AcDbLine
 10
68.186410
 20
312.040019
 30
0.0
 11
70.238685
 21
312.040019
 31
0.0
  0
LINE
  5
263
100
AcDbEntity
  8
Layer_1
 62
1
100
AcDbLine
 10
70.238685
 20
312.040019
 30
0.0
 11
70.238685
 21
303.650984
 31
0.0
  0
LINE
  5
264
100
AcDbEntity
  8
Layer_1
 62
1
100
AcDbLine
 10
70.238685
 20
303.650984
 30
0.0
 11
68.379423
 21
303.650984
 31
0.0
  0
LINE
  5
265
100
AcDbEntity
  8
Layer_1
 62
1
100
AcDbLine
 10
68.379423
 20
303.650984
 30
0.0
 11
68.379423
 21
303.650984
 31
0.0
  0
SPLINE
  5
266
100
AcDbEntity
  8
Layer_1
 62
1
100
AcDbSpline
 70
8
 71
3
 72
8
 73
4
 74
0
 40
0
 40
0
 40
0
 40
0
 40
1
 40
1
 40
1
 40
1
 10
74.092991
 20
303.492171
 30
0.0
 10
72.403765
 20
303.492171
 30
0.0
 10
71.066101
 20
304.365329
 30
0.0
 10
71.066101
 20
306.156187
 30
0.0
  0
LINE
  5
267
100
AcDbEntity
  8
Layer_1
 62
1
100
AcDbLine
 10
71.066101
 20
306.156187
 30
0.0
 11
71.066101
 21
306.428563
 31
0.0
  0
LINE
  5
268
100
AcDbEntity
  8
Layer_1
 62
1
100
AcDbLine
 10
71.066101
 20
306.428563
 30
0.0
 11
73.197562
 21
306.428563
 31
0.0
  0
SPLINE
  5
269
100
AcDbEntity
  8
Layer_1
 62
1
100
AcDbSpline
 70
8
 71
3
 72
8
 73
4
 74
0
 40
0
 40
0
 40
0
 40
0
 40
1
 40
1
 40
1
 40
1
 10
73.197562
 20
306.428563
 30
0.0
 10
73.197562
 20
305.884165
 30
0.0
 10
73.447136
 20
305.283559
 30
0.0
 10
74.070190
 20
305.283559
 30
0.0
  0
SPLINE
  5
26a
100
AcDbEntity
  8
Layer_1
 62
1
100
AcDbSpline
 70
8
 71
3
 72
8
 73
4
 74
0
 40
0
 40
0
 40
0
 40
0
 40
1
 40
1
 40
1
 40
1
 10
74.070190
 20
305.283559
 30
0.0
 10
74.512425
 20
305.283559
 30
0.0
 10
74.886610
 20
305.634943
 30
0.0
 10
74.886610
 20
306.088668
 30
0.0
  0
SPLINE
  5
26b
100
AcDbEntity
  8
Layer_1
 62
1
100
AcDbSpline
 70
8
 71
3
 72
8
 73
4
 74
0
 40
0
 40
0
 40
0
 40
0
 40
1
 40
1
 40
1
 40
1
 10
74.886610
 20
306.088668
 30
0.0
 10
74.886610
 20
306.632712
 30
0.0
 10
74.433063
 20
306.813884
 30
0.0
 10
73.990828
 20
307.006898
 30
0.0
  0
SPLINE
  5
26c
100
AcDbEntity
  8
Layer_1
 62
1
100
AcDbSpline
 70
8
 71
3
 72
8
 73
4
 74
0
 40
0
 40
0
 40
0
 40
0
 40
1
 40
1
 40
1
 40
1
 10
73.990828
 20
307.006898
 30
0.0
 10
73.741606
 20
307.120019
 30
0.0
 10
73.492385
 20
307.222359
 30
0.0
 10
73.242810
 20
307.324169
 30
0.0
  0
SPLINE
  5
26d
100
AcDbEntity
  8
Layer_1
 62
1
100
AcDbSpline
 70
8
 71
3
 72
8
 73
4
 74
0
 40
0
 40
0
 40
0
 40
0
 40
1
 40
1
 40
1
 40
1
 10
73.242810
 20
307.324169
 30
0.0
 10
72.154544
 20
307.777716
 30
0.0
 10
71.190712
 20
308.412258
 30
0.0
 10
71.190712
 20
309.727475
 30
0.0
  0
SPLINE
  5
26e
100
AcDbEntity
  8
Layer_1
 62
1
100
AcDbSpline
 70
8
 71
3
 72
8
 73
4
 74
0
 40
0
 40
0
 40
0
 40
0
 40
1
 40
1
 40
1
 40
1
 10
71.190712
 20
309.727475
 30
0.0
 10
71.190712
 20
311.291560
 30
0.0
 10
72.698589
 20
312.198831
 30
0.0
 10
74.127104
 20
312.198831
 30
0.0
  0
SPLINE
  5
26f
100
AcDbEntity
  8
Layer_1
 62
1
100
AcDbSpline
 70
8
 71
3
 72
8
 73
4
 74
0
 40
0
 40
0
 40
0
 40
0
 40
1
 40
1
 40
1
 40
1
 10
74.127104
 20
312.198831
 30
0.0
 10
74.943348
 20
312.198831
 30
0.0
 10
75.861578
 20
311.892695
 30
0.0
 10
76.394664
 20
311.246488
 30
0.0
  0
SPLINE
  5
270
100
AcDbEntity
  8
Layer_1
 62
1
100
AcDbSpline
 70
8
 71
3
 72
8
 73
4
 74
0
 40
0
 40
0
 40
0
 40
0
 40
1
 40
1
 40
1
 40
1
 10
76.394664
 20
311.246488
 30
0.0
 10
76.825057
 20
310.713755
 30
0.0
 10
76.927220
 20
310.248719
 30
0.0
 10
76.950021
 20
309.591375
 30
0.0
  0
LINE
  5
271
100
AcDbEntity
  8
Layer_1
 62
1
100
AcDbLine
 10
76.950021
 20
309.591375
 30
0.0
 11
74.830049
 21
309.591375
 31
0.0
  0
SPLINE
  5
272
100
AcDbEntity
  8
Layer_1
 62
1
100
AcDbSpline
 70
8
 71
3
 72
8
 73
4
 74
0
 40
0
 40
0
 40
0
 40
0
 40
1
 40
1
 40
1
 40
1
 10
74.830049
 20
309.591375
 30
0.0
 10
74.761646
 20
310.056058
 30
0.0
 10
74.603276
 20
310.407619
 30
0.0
 10
74.059231
 20
310.407619
 30
0.0
  0
SPLINE
  5
273
100
AcDbEntity
  8
Layer_1
 62
1
100
AcDbSpline
 70
8
 71
3
 72
8
 73
4
 74
0
 40
0
 40
0
 40
0
 40
0
 40
1
 40
1
 40
1
 40
1
 10
74.059231
 20
310.407619
 30
0.0
 10
73.684869
 20
310.407619
 30
0.0
 10
73.322172
 20
310.146909
 30
0.0
 10
73.322172
 20
309.749923
 30
0.0
  0
SPLINE
  5
274
100
AcDbEntity
  8
Layer_1
 62
1
100
AcDbSpline
 70
8
 71
3
 72
8
 73
4
 74
0
 40
0
 40
0
 40
0
 40
0
 40
1
 40
1
 40
1
 40
1
 10
73.322172
 20
309.749923
 30
0.0
 10
73.322172
 20
309.625312
 30
0.0
 10
73.333484
 20
309.500701
 30
0.0
 10
73.401534
 20
309.398892
 30
0.0
  0
SPLINE
  5
275
100
AcDbEntity
  8
Layer_1
 62
1
100
AcDbSpline
 70
8
 71
3
 72
8
 73
4
 74
0
 40
0
 40
0
 40
0
 40
0
 40
1
 40
1
 40
1
 40
1
 10
73.401534
 20
309.398892
 30
0.0
 10
73.605507
 20
309.058466
 30
0.0
 10
74.705439
 20
308.627897
 30
0.0
 10
75.056470
 20
308.468819
 30
0.0
  0
SPLINE
  5
276
100
AcDbEntity
  8
Layer_1
 62
1
100
AcDbSpline
 70
8
 71
3
 72
8
 73
4
 74
0
 40
0
 40
0
 40
0
 40
0
 40
1
 40
1
 40
1
 40
1
 10
75.056470
 20
308.468819
 30
0.0
 10
76.167714
 20
307.958888
 30
0.0
 10
77.018071
 20
307.380730
 30
0.0
 10
77.018071
 20
306.065866
 30
0.0
  0
SPLINE
  5
277
100
AcDbEntity
  8
Layer_1
 62
1
100
AcDbSpline
 70
8
 71
3
 72
8
 73
4
 74
0
 40
0
 40
0
 40
0
 40
0
 40
1
 40
1
 40
1
 40
1
 10
77.018071
 20
306.065866
 30
0.0
 10
77.018071
 20
304.308591
 30
0.0
 10
75.748280
 20
303.492171
 30
0.0
 10
74.092991
 20
303.492171
 30
0.0
  0
LINE
  5
278
100
AcDbEntity
  8
Layer_1
 62
1
100
AcDbLine
 10
103.059379
 20
303.650984
 30
0.0
 11
100.769194
 21
307.278832
 31
0.0
  0
LINE
  5
279
100
AcDbEntity
  8
Layer_1
 62
1
100
AcDbLine
 10
100.769194
 20
307.278832
 30
0.0
 11
100.746747
 21
307.278832
 31
0.0
  0
LINE
  5
27a
100
AcDbEntity
  8
Layer_1
 62
1
100
AcDbLine
 10
100.746747
 20
307.278832
 30
0.0
 11
100.746747
 21
303.650984
 31
0.0
  0
LINE
  5
27b
100
AcDbEntity
  8
Layer_1
 62
1
100
AcDbLine
 10
100.746747
 20
303.650984
 30
0.0
 11
98.603974
 21
303.650984
 31
0.0
  0
LINE
  5
27c
100
AcDbEntity
  8
Layer_1
 62
1
100
AcDbLine
 10
98.603974
 20
303.650984
 30
0.0
 11
98.603974
 21
312.040019
 31
0.0
  0
LINE
  5
27d
100
AcDbEntity
  8
Layer_1
 62
1
100
AcDbLine
 10
98.603974
 20
312.040019
 30
0.0
 11
100.746747
 21
312.040019
 31
0.0
  0
LINE
  5
27e
100
AcDbEntity
  8
Layer_1
 62
1
100
AcDbLine
 10
100.746747
 20
312.040019
 30
0.0
 11
100.746747
 21
308.265112
 31
0.0
  0
LINE
  5
27f
100
AcDbEntity
  8
Layer_1
 62
1
100
AcDbLine
 10
100.746747
 20
308.265112
 30
0.0
 11
100.769194
 21
308.265112
 31
0.0
  0
LINE
  5
280
100
AcDbEntity
  8
Layer_1
 62
1
100
AcDbLine
 10
100.769194
 20
308.265112
 30
0.0
 11
103.138741
 21
312.040019
 31
0.0
  0
LINE
  5
281
100
AcDbEntity
  8
Layer_1
 62
1
100
AcDbLine
 10
103.138741
 20
312.040019
 30
0.0
 11
105.383323
 21
312.040019
 31
0.0
  0
LINE
  5
282
100
AcDbEntity
  8
Layer_1
 62
1
100
AcDbLine
 10
105.383323
 20
312.040019
 30
0.0
 11
102.605832
 21
307.856637
 31
0.0
  0
LINE
  5
283
100
AcDbEntity
  8
Layer_1
 62
1
100
AcDbLine
 10
102.605832
 20
307.856637
 30
0.0
 11
105.565025
 21
303.650984
 31
0.0
  0
LINE
  5
284
100
AcDbEntity
  8
Layer_1
 62
1
100
AcDbLine
 10
105.565025
 20
303.650984
 30
0.0
 11
103.059379
 21
303.650984
 31
0.0
  0
LINE
  5
285
100
AcDbEntity
  8
Layer_1
 62
1
100
AcDbLine
 10
103.059379
 20
303.650984
 30
0.0
 11
103.059379
 21
303.650984
 31
0.0
  0
LINE
  5
286
100
AcDbEntity
  8
Layer_1
 62
1
100
AcDbLine
 10
84.704726
 20
307.830813
 30
0.0
 11
86.793235
 21
305.227599
 31
0.0
  0
LINE
  5
287
100
AcDbEntity
  8
Layer_1
 62
1
100
AcDbLine
 10
86.793235
 20
305.227599
 30
0.0
 11
86.976705
 21
312.039471
 31
0.0
  0
LINE
  5
288
100
AcDbEntity
  8
Layer_1
 62
1
100
AcDbLine
 10
86.976705
 20
312.039471
 30
0.0
 11
86.203058
 21
312.039471
 31
0.0
  0
LINE
  5
289
100
AcDbEntity
  8
Layer_1
 62
1
100
AcDbLine
 10
86.203058
 20
312.039471
 30
0.0
 11
83.837577
 21
306.189664
 31
0.0
  0
LINE
  5
28a
100
AcDbEntity
  8
Layer_1
 62
1
100
AcDbLine
 10
83.837577
 20
306.189664
 30
0.0
 11
86.298328
 21
304.942144
 31
0.0
  0
LINE
  5
28b
100
AcDbEntity
  8
Layer_1
 62
1
100
AcDbLine
 10
86.298328
 20
304.942144
 30
0.0
 11
84.704726
 21
307.830813
 31
0.0
  0
LINE
  5
28c
100
AcDbEntity
  8
Layer_1
 62
1
100
AcDbLine
 10
84.704726
 20
307.830813
 30
0.0
 11
84.704726
 21
307.830813
 31
0.0
  0
LINE
  5
28d
100
AcDbEntity
  8
Layer_1
 62
1
100
AcDbLine
 10
89.462891
 20
307.830813
 30
0.0
 11
87.860098
 21
304.942144
 31
0.0
  0
LINE
  5
28e
100
AcDbEntity
  8
Layer_1
 62
1
100
AcDbLine
 10
87.860098
 20
304.942144
 30
0.0
 11
90.325974
 21
306.177291
 31
0.0
  0
LINE
  5
28f
100
AcDbEntity
  8
Layer_1
 62
1
100
AcDbLine
 10
90.325974
 20
306.177291
 30
0.0
 11
87.955367
 21
312.039471
 31
0.0
  0
LINE
  5
290
100
AcDbEntity
  8
Layer_1
 62
1
100
AcDbLine
 10
87.955367
 20
312.039471
 30
0.0
 11
87.181367
 21
312.039471
 31
0.0
  0
LINE
  5
291
100
AcDbEntity
  8
Layer_1
 62
1
100
AcDbLine
 10
87.181367
 20
312.039471
 30
0.0
 11
87.365013
 21
305.227599
 31
0.0
  0
LINE
  5
292
100
AcDbEntity
  8
Layer_1
 62
1
100
AcDbLine
 10
87.365013
 20
305.227599
 30
0.0
 11
89.462891
 21
307.830813
 31
0.0
  0
LINE
  5
293
100
AcDbEntity
  8
Layer_1
 62
1
100
AcDbLine
 10
89.462891
 20
307.830813
 30
0.0
 11
89.462891
 21
307.830813
 31
0.0
  0
LINE
  5
294
100
AcDbEntity
  8
Layer_1
 62
1
100
AcDbLine
 10
91.494503
 20
303.266740
 30
0.0
 11
91.506876
 21
303.255958
 31
0.0
  0
LINE
  5
295
100
AcDbEntity
  8
Layer_1
 62
1
100
AcDbLine
 10
91.506876
 20
303.255958
 30
0.0
 11
90.492669
 21
305.764432
 31
0.0
  0
LINE
  5
296
100
AcDbEntity
  8
Layer_1
 62
1
100
AcDbLine
 10
90.492669
 20
305.764432
 30
0.0
 11
88.145924
 21
304.306223
 31
0.0
  0
LINE
  5
297
100
AcDbEntity
  8
Layer_1
 62
1
100
AcDbLine
 10
88.145924
 20
304.306223
 30
0.0
 11
91.494503
 21
303.266740
 31
0.0
  0
LINE
  5
298
100
AcDbEntity
  8
Layer_1
 62
1
100
AcDbLine
 10
91.494503
 20
303.266740
 30
0.0
 11
91.494503
 21
303.266740
 31
0.0
  0
LINE
  5
299
100
AcDbEntity
  8
Layer_1
 62
1
100
AcDbLine
 10
83.670086
 20
305.776152
 30
0.0
 11
82.656940
 21
303.269799
 31
0.0
  0
LINE
  5
29a
100
AcDbEntity
  8
Layer_1
 62
1
100
AcDbLine
 10
82.656940
 20
303.269799
 30
0.0
 11
86.012413
 21
304.306276
 31
0.0
  0
LINE
  5
29b
100
AcDbEntity
  8
Layer_1
 62
1
100
AcDbLine
 10
86.012413
 20
304.306276
 30
0.0
 11
83.670086
 21
305.776152
 31
0.0
  0
LINE
  5
29c
100
AcDbEntity
  8
Layer_1
 62
1
100
AcDbLine
 10
83.670086
 20
305.776152
 30
0.0
 11
83.670086
 21
305.776152
 31
0.0
  0
SPLINE
  5
29d
100
AcDbEntity
  8
Layer_1
 62
1
100
AcDbSpline
 70
8
 71
3
 72
8
 73
4
 74
0
 40
0
 40
0
 40
0
 40
0
 40
1
 40
1
 40
1
 40
1
 10
95.838059
 20
306.508014
 30
0.0
 10
97.164411
 20
306.723122
 30
0.0
 10
97.923917
 20
307.856637
 30
0.0
 10
97.923917
 20
309.149229
 30
0.0
  0
SPLINE
  5
29e
100
AcDbEntity
  8
Layer_1
 62
1
100
AcDbSpline
 70
8
 71
3
 72
8
 73
4
 74
0
 40
0
 40
0
 40
0
 40
0
 40
1
 40
1
 40
1
 40
1
 10
97.923917
 20
309.149229
 30
0.0
 10
97.923917
 20
310.022211
 30
0.0
 10
97.583845
 20
310.883527
 30
0.0
 10
96.892389
 20
311.439060
 30
0.0
  0
SPLINE
  5
29f
100
AcDbEntity
  8
Layer_1
 62
1
100
AcDbSpline
 70
8
 71
3
 72
8
 73
4
 74
0
 40
0
 40
0
 40
0
 40
0
 40
1
 40
1
 40
1
 40
1
 10
96.892389
 20
311.439060
 30
0.0
 10
96.166642
 20
312.017218
 30
0.0
 10
95.191851
 20
312.040019
 30
0.0
 10
94.307381
 20
312.040019
 30
0.0
  0
LINE
  5
2a0
100
AcDbEntity
  8
Layer_1
 62
1
100
AcDbLine
 10
94.307381
 20
312.040019
 30
0.0
 11
91.654676
 21
312.040019
 31
0.0
  0
LINE
  5
2a1
100
AcDbEntity
  8
Layer_1
 62
1
100
AcDbLine
 10
91.654676
 20
312.040019
 30
0.0
 11
91.654676
 21
306.843314
 31
0.0
  0
LINE
  5
2a2
100
AcDbEntity
  8
Layer_1
 62
1
100
AcDbLine
 10
91.654676
 20
306.843314
 30
0.0
 11
93.706598
 21
307.870954
 31
0.0
  0
LINE
  5
2a3
100
AcDbEntity
  8
Layer_1
 62
1
100
AcDbLine
 10
93.706598
 20
307.870954
 30
0.0
 11
93.706598
 21
310.157957
 31
0.0
  0
LINE
  5
2a4
100
AcDbEntity
  8
Layer_1
 62
1
100
AcDbLine
 10
93.706598
 20
310.157957
 30
0.0
 11
94.488906
 21
310.157957
 31
0.0
  0
SPLINE
  5
2a5
100
AcDbEntity
  8
Layer_1
 62
1
100
AcDbSpline
 70
8
 71
3
 72
8
 73
4
 74
0
 40
0
 40
0
 40
0
 40
0
 40
1
 40
1
 40
1
 40
1
 10
94.488906
 20
310.157957
 30
0.0
 10
95.225611
 20
310.157957
 30
0.0
 10
95.871819
 20
309.851998
 30
0.0
 10
95.871819
 20
309.024619
 30
0.0
  0
SPLINE
  5
2a6
100
AcDbEntity
  8
Layer_1
 62
1
100
AcDbSpline
 70
8
 71
3
 72
8
 73
4
 74
0
 40
0
 40
0
 40
0
 40
0
 40
1
 40
1
 40
1
 40
1
 10
95.871819
 20
309.024619
 30
0.0
 10
95.871819
 20
308.162949
 30
0.0
 10
95.270860
 20
307.822877
 30
0.0
 10
94.466105
 20
307.822877
 30
0.0
  0
LINE
  5
2a7
100
AcDbEntity
  8
Layer_1
 62
1
100
AcDbLine
 10
94.466105
 20
307.822877
 30
0.0
 11
93.806464
 21
307.822877
 31
0.0
  0
LINE
  5
2a8
100
AcDbEntity
  8
Layer_1
 62
1
100
AcDbLine
 10
93.806464
 20
307.822877
 30
0.0
 11
91.654676
 21
306.486273
 31
0.0
  0
LINE
  5
2a9
100
AcDbEntity
  8
Layer_1
 62
1
100
AcDbLine
 10
91.654676
 20
306.486273
 30
0.0
 11
91.654676
 21
303.650984
 31
0.0
  0
LINE
  5
2aa
100
AcDbEntity
  8
Layer_1
 62
1
100
AcDbLine
 10
91.654676
 20
303.650984
 30
0.0
 11
93.706598
 21
303.650984
 31
0.0
  0
LINE
  5
2ab
100
AcDbEntity
  8
Layer_1
 62
1
100
AcDbLine
 10
93.706598
 20
303.650984
 30
0.0
 11
93.706598
 21
306.360602
 31
0.0
  0
LINE
  5
2ac
100
AcDbEntity
  8
Layer_1
 62
1
100
AcDbLine
 10
93.706598
 20
306.360602
 30
0.0
 11
93.729046
 21
306.360602
 31
0.0
  0
LINE
  5
2ad
100
AcDbEntity
  8
Layer_1
 62
1
100
AcDbLine
 10
93.729046
 20
306.360602
 30
0.0
 11
95.667846
 21
303.650984
 31
0.0
  0
LINE
  5
2ae
100
AcDbEntity
  8
Layer_1
 62
1
100
AcDbLine
 10
95.667846
 20
303.650984
 30
0.0
 11
98.116578
 21
303.650984
 31
0.0
  0
LINE
  5
2af
100
AcDbEntity
  8
Layer_1
 62
1
100
AcDbLine
 10
98.116578
 20
303.650984
 30
0.0
 11
95.838059
 21
306.508014
 31
0.0
  0
LINE
  5
2b0
100
AcDbEntity
  8
Layer_1
 62
1
100
AcDbLine
 10
95.838059
 20
306.508014
 30
0.0
 11
95.838059
 21
306.508014
 31
0.0
  0
SPLINE
  5
2b1
100
AcDbEntity
  8
Layer_1
 62
1
100
AcDbSpline
 70
8
 71
3
 72
8
 73
4
 74
0
 40
0
 40
0
 40
0
 40
0
 40
1
 40
1
 40
1
 40
1
 10
83.241674
 20
307.006862
 30
0.0
 10
83.831321
 20
307.528106
 30
0.0
 10
84.125791
 20
308.435024
 30
0.0
 10
84.125791
 20
309.205842
 30
0.0
  0
SPLINE
  5
2b2
100
AcDbEntity
  8
Layer_1
 62
1
100
AcDbSpline
 70
8
 71
3
 72
8
 73
4
 74
0
 40
0
 40
0
 40
0
 40
0
 40
1
 40
1
 40
1
 40
1
 10
84.125791
 20
309.205842
 30
0.0
 10
84.125791
 20
310.067512
 30
0.0
 10
83.797562
 20
310.872267
 30
0.0
 10
83.139865
 20
311.427977
 30
0.0
  0
SPLINE
  5
2b3
100
AcDbEntity
  8
Layer_1
 62
1
100
AcDbSpline
 70
8
 71
3
 72
8
 73
4
 74
0
 40
0
 40
0
 40
0
 40
0
 40
1
 40
1
 40
1
 40
1
 10
83.139865
 20
311.427977
 30
0.0
 10
82.448055
 20
312.006312
 30
0.0
 10
81.416526
 20
312.040072
 30
0.0
 10
80.554857
 20
312.040072
 30
0.0
  0
LINE
  5
2b4
100
AcDbEntity
  8
Layer_1
 62
1
100
AcDbLine
 10
80.554857
 20
312.040072
 30
0.0
 11
77.811302
 21
312.040072
 31
0.0
  0
LINE
  5
2b5
100
AcDbEntity
  8
Layer_1
 62
1
100
AcDbLine
 10
77.811302
 20
312.040072
 30
0.0
 11
77.811302
 21
303.651036
 31
0.0
  0
LINE
  5
2b6
100
AcDbEntity
  8
Layer_1
 62
1
100
AcDbLine
 10
77.811302
 20
303.651036
 30
0.0
 11
79.863400
 21
303.651036
 31
0.0
  0
LINE
  5
2b7
100
AcDbEntity
  8
Layer_1
 62
1
100
AcDbLine
 10
79.863400
 20
303.651036
 30
0.0
 11
79.863400
 21
306.281293
 31
0.0
  0
LINE
  5
2b8
100
AcDbEntity
  8
Layer_1
 62
1
100
AcDbLine
 10
79.863400
 20
306.281293
 30
0.0
 11
80.793119
 21
306.281293
 31
0.0
  0
SPLINE
  5
2b9
100
AcDbEntity
  8
Layer_1
 62
1
100
AcDbSpline
 70
8
 71
3
 72
8
 73
4
 74
0
 40
0
 40
0
 40
0
 40
0
 40
1
 40
1
 40
1
 40
1
 10
80.793119
 20
306.281293
 30
0.0
 10
81.411754
 20
306.281293
 30
0.0
 10
81.961985
 20
306.320355
 30
0.0
 10
82.472270
 20
306.527863
 30
0.0
  0
LINE
  5
2ba
100
AcDbEntity
  8
Layer_1
 62
1
100
AcDbLine
 10
82.472270
 20
306.527863
 30
0.0
 11
79.863400
 21
308.162825
 31
0.0
  0
LINE
  5
2bb
100
AcDbEntity
  8
Layer_1
 62
1
100
AcDbLine
 10
79.863400
 20
308.162825
 30
0.0
 11
79.863400
 21
310.158009
 31
0.0
  0
LINE
  5
2bc
100
AcDbEntity
  8
Layer_1
 62
1
100
AcDbLine
 10
79.863400
 20
310.158009
 30
0.0
 11
80.657020
 21
310.158009
 31
0.0
  0
SPLINE
  5
2bd
100
AcDbEntity
  8
Layer_1
 62
1
100
AcDbSpline
 70
8
 71
3
 72
8
 73
4
 74
0
 40
0
 40
0
 40
0
 40
0
 40
1
 40
1
 40
1
 40
1
 10
80.657020
 20
310.158009
 30
0.0
 10
81.359965
 20
310.158009
 30
0.0
 10
82.074223
 20
310.044711
 30
0.0
 10
82.074223
 20
309.172083
 30
0.0
  0
SPLINE
  5
2be
100
AcDbEntity
  8
Layer_1
 62
1
100
AcDbSpline
 70
8
 71
3
 72
8
 73
4
 74
0
 40
0
 40
0
 40
0
 40
0
 40
1
 40
1
 40
1
 40
1
 10
82.074223
 20
309.172083
 30
0.0
 10
82.074223
 20
308.321726
 30
0.0
 10
81.439327
 20
308.162825
 30
0.0
 10
80.736382
 20
308.162825
 30
0.0
  0
LINE
  5
2bf
100
AcDbEntity
  8
Layer_1
 62
1
100
AcDbLine
 10
80.736382
 20
308.162825
 30
0.0
 11
80.319069
 21
308.162825
 31
0.0
  0
LINE
  5
2c0
100
AcDbEntity
  8
Layer_1
 62
1
100
AcDbLine
 10
80.319069
 20
308.162825
 30
0.0
 11
80.240060
 21
308.162825
 31
0.0
  0
LINE
  5
2c1
100
AcDbEntity
  8
Layer_1
 62
1
100
AcDbLine
 10
80.240060
 20
308.162825
 30
0.0
 11
79.990485
 21
308.162825
 31
0.0
  0
LINE
  5
2c2
100
AcDbEntity
  8
Layer_1
 62
1
100
AcDbLine
 10
79.990485
 20
308.162825
 30
0.0
 11
82.831962
 21
306.707620
 31
0.0
  0
SPLINE
  5
2c3
100
AcDbEntity
  8
Layer_1
 62
1
100
AcDbSpline
 70
8
 71
3
 72
8
 73
4
 74
0
 40
0
 40
0
 40
0
 40
0
 40
1
 40
1
 40
1
 40
1
 10
82.831962
 20
306.707620
 30
0.0
 10
82.884457
 20
306.739259
 30
0.0
 10
82.936599
 20
306.772842
 30
0.0
 10
82.988564
 20
306.809076
 30
0.0
  0
SPLINE
  5
2c4
100
AcDbEntity
  8
Layer_1
 62
1
100
AcDbSpline
 70
8
 71
3
 72
8
 73
4
 74
0
 40
0
 40
0
 40
0
 40
0
 40
1
 40
1
 40
1
 40
1
 10
82.988564
 20
306.809076
 30
0.0
 10
83.073936
 20
306.868465
 30
0.0
 10
83.158070
 20
306.933687
 30
0.0
 10
83.241674
 20
307.006862
 30
0.0
  0
LINE
  5
2c5
100
AcDbEntity
  8
Layer_1
 62
7
100
AcDbLine
 10
56.292581
 20
190.375252
 30
0.0
 11
42.551895
 21
183.072738
 31
0.0
  0
LINE
  5
2c6
100
AcDbEntity
  8
Layer_1
 62
7
100
AcDbLine
 10
42.551895
 20
183.072738
 30
0.0
 11
41.987450
 21
181.326516
 31
0.0
  0
SPLINE
  5
2c7
100
AcDbEntity
  8
Layer_1
 62
7
100
AcDbSpline
 70
8
 71
3
 72
8
 73
4
 74
0
 40
0
 40
0
 40
0
 40
0
 40
1
 40
1
 40
1
 40
1
 10
41.987450
 20
181.326516
 30
0.0
 10
43.494537
 20
179.725328
 30
0.0
 10
45.927608
 20
179.263161
 30
0.0
 10
47.967025
 20
180.347544
 30
0.0
  0
LINE
  5
2c8
100
AcDbEntity
  8
Layer_1
 62
7
100
AcDbLine
 10
47.967025
 20
180.347544
 30
0.0
 11
56.292581
 21
184.774905
 31
0.0
  0
LINE
  5
2c9
100
AcDbEntity
  8
Layer_1
 62
7
100
AcDbLine
 10
56.292581
 20
184.774905
 30
0.0
 11
56.292581
 21
190.375252
 31
0.0
  0
LINE
  5
2ca
100
AcDbEntity
  8
Layer_1
 62
7
100
AcDbLine
 10
56.292581
 20
190.375252
 30
0.0
 11
56.292581
 21
190.375252
 31
0.0
  0
LINE
  5
2cb
100
AcDbEntity
  8
Layer_1
 62
7
100
AcDbLine
 10
42.695137
 20
191.921082
 30
0.0
 11
36.900762
 21
188.843096
 31
0.0
  0
SPLINE
  5
2cc
100
AcDbEntity
  8
Layer_1
 62
7
100
AcDbSpline
 70
8
 71
3
 72
8
 73
4
 74
0
 40
0
 40
0
 40
0
 40
0
 40
1
 40
1
 40
1
 40
1
 10
36.900762
 20
188.843096
 30
0.0
 10
34.859519
 20
187.757748
 30
0.0
 10
33.890687
 20
185.477404
 30
0.0
 10
34.378400
 20
183.330943
 30
0.0
  0
LINE
  5
2cd
100
AcDbEntity
  8
Layer_1
 62
7
100
AcDbLine
 10
34.378400
 20
183.330943
 30
0.0
 11
36.159928
 21
182.784138
 31
0.0
  0
LINE
  5
2ce
100
AcDbEntity
  8
Layer_1
 62
7
100
AcDbLine
 10
36.159928
 20
182.784138
 30
0.0
 11
51.170614
 21
190.765735
 31
0.0
  0
LINE
  5
2cf
100
AcDbEntity
  8
Layer_1
 62
7
100
AcDbLine
 10
51.170614
 20
190.765735
 30
0.0
 11
51.523392
 21
191.921082
 31
0.0
  0
LINE
  5
2d0
100
AcDbEntity
  8
Layer_1
 62
7
100
AcDbLine
 10
51.523392
 20
191.921082
 30
0.0
 11
42.695137
 21
191.921082
 31
0.0
  0
LINE
  5
2d1
100
AcDbEntity
  8
Layer_1
 62
7
100
AcDbLine
 10
42.695137
 20
191.921082
 30
0.0
 11
42.695137
 21
191.921082
 31
0.0
  0
SPLINE
  5
2d2
100
AcDbEntity
  8
Layer_1
 62
7
100
AcDbSpline
 70
8
 71
3
 72
8
 73
4
 74
0
 40
0
 40
0
 40
0
 40
0
 40
1
 40
1
 40
1
 40
1
 10
62.422024
 20
203.357474
 30
0.0
 10
61.616138
 20
203.363853
 30
0.0
 10
60.796255
 20
203.172957
 30
0.0
 10
60.031969
 20
202.766572
 30
0.0
  0
LINE
  5
2d3
100
AcDbEntity
  8
Layer_1
 62
7
100
AcDbLine
 10
60.031969
 20
202.766572
 30
0.0
 11
55.613413
 21
200.420599
 31
0.0
  0
SPLINE
  5
2d4
100
AcDbEntity
  8
Layer_1
 62
7
100
AcDbSpline
 70
8
 71
3
 72
8
 73
4
 74
0
 40
0
 40
0
 40
0
 40
0
 40
1
 40
1
 40
1
 40
1
 10
55.613413
 20
200.420599
 30
0.0
 10
53.167647
 20
199.120165
 30
0.0
 10
52.249239
 20
196.110671
 30
0.0
 10
53.549663
 20
193.664905
 30
0.0
  0
LINE
  5
2d5
100
AcDbEntity
  8
Layer_1
 62
7
100
AcDbLine
 10
53.549663
 20
193.664905
 30
0.0
 11
54.493358
 21
191.892197
 31
0.0
  0
LINE
  5
2d6
100
AcDbEntity
  8
Layer_1
 62
7
100
AcDbLine
 10
54.493358
 20
191.892197
 30
0.0
 11
61.134385
 21
195.428794
 31
0.0
  0
LINE
  5
2d7
100
AcDbEntity
  8
Layer_1
 62
7
100
AcDbLine
 10
61.134385
 20
195.428794
 30
0.0
 11
59.493968
 21
198.515599
 31
0.0
  0
LINE
  5
2d8
100
AcDbEntity
  8
Layer_1
 62
7
100
AcDbLine
 10
59.493968
 20
198.515599
 30
0.0
 11
65.888080
 21
201.919905
 31
0.0
  0
SPLINE
  5
2d9
100
AcDbEntity
  8
Layer_1
 62
7
100
AcDbSpline
 70
8
 71
3
 72
8
 73
4
 74
0
 40
0
 40
0
 40
0
 40
0
 40
1
 40
1
 40
1
 40
1
 10
65.888080
 20
201.919905
 30
0.0
 10
64.957311
 20
202.839213
 30
0.0
 10
63.707349
 20
203.347317
 30
0.0
 10
62.422024
 20
203.357474
 30
0.0
  0
LINE
  5
2da
100
AcDbEntity
  8
Layer_1
 62
7
100
AcDbLine
 10
62.422024
 20
203.357474
 30
0.0
 11
62.422024
 21
203.357474
 31
0.0
  0
LINE
  5
2db
100
AcDbEntity
  8
Layer_1
 62
7
100
AcDbLine
 10
74.664683
 20
196.606789
 30
0.0
 11
68.270600
 21
193.202484
 31
0.0
  0
LINE
  5
2dc
100
AcDbEntity
  8
Layer_1
 62
7
100
AcDbLine
 10
68.270600
 20
193.202484
 30
0.0
 11
66.621350
 21
196.298123
 31
0.0
  0
LINE
  5
2dd
100
AcDbEntity
  8
Layer_1
 62
7
100
AcDbLine
 10
66.621350
 20
196.298123
 30
0.0
 11
59.980322
 21
192.761512
 31
0.0
  0
LINE
  5
2de
100
AcDbEntity
  8
Layer_1
 62
7
100
AcDbLine
 10
59.980322
 20
192.761512
 30
0.0
 11
60.923988
 21
190.988789
 31
0.0
  0
SPLINE
  5
2df
100
AcDbEntity
  8
Layer_1
 62
7
100
AcDbSpline
 70
8
 71
3
 72
8
 73
4
 74
0
 40
0
 40
0
 40
0
 40
0
 40
1
 40
1
 40
1
 40
1
 10
60.923988
 20
190.988789
 30
0.0
 10
62.224440
 20
188.543051
 30
0.0
 10
65.233917
 20
187.624616
 30
0.0
 10
67.679683
 20
188.925067
 30
0.0
  0
LINE
  5
2e0
100
AcDbEntity
  8
Layer_1
 62
7
100
AcDbLine
 10
67.679683
 20
188.925067
 30
0.0
 11
72.098239
 21
191.271011
 31
0.0
  0
SPLINE
  5
2e1
100
AcDbEntity
  8
Layer_1
 62
7
100
AcDbSpline
 70
8
 71
3
 72
8
 73
4
 74
0
 40
0
 40
0
 40
0
 40
0
 40
1
 40
1
 40
1
 40
1
 10
72.098239
 20
191.271011
 30
0.0
 10
74.082684
 20
192.326184
 30
0.0
 10
75.059766
 20
194.513801
 30
0.0
 10
74.664683
 20
196.606789
 30
0.0
  0
LINE
  5
2e2
100
AcDbEntity
  8
Layer_1
 62
7
100
AcDbLine
 10
74.664683
 20
196.606789
 30
0.0
 11
74.664683
 21
196.606789
 31
0.0
  0
SPLINE
  5
2e3
100
AcDbEntity
  8
Layer_1
 62
7
100
AcDbSpline
 70
8
 71
3
 72
8
 73
4
 74
0
 40
0
 40
0
 40
0
 40
0
 40
1
 40
1
 40
1
 40
1
 10
372.113895
 20
357.960188
 30
0.0
 10
372.767640
 20
357.960179
 30
0.0
 10
373.297598
 20
357.430208
 30
0.0
 10
373.297591
 20
356.776463
 30
0.0
  0
SPLINE
  5
2e4
100
AcDbEntity
  8
Layer_1
 62
7
100
AcDbSpline
 70
8
 71
3
 72
8
 73
4
 74
0
 40
0
 40
0
 40
0
 40
0
 40
1
 40
1
 40
1
 40
1
 10
373.297591
 20
356.776463
 30
0.0
 10
373.297582
 20
356.122729
 30
0.0
 10
372.767629
 20
355.592775
 30
0.0
 10
372.113895
 20
355.592767
 30
0.0
  0
SPLINE
  5
2e5
100
AcDbEntity
  8
Layer_1
 62
7
100
AcDbSpline
 70
8
 71
3
 72
8
 73
4
 74
0
 40
0
 40
0
 40
0
 40
0
 40
1
 40
1
 40
1
 40
1
 10
372.113895
 20
355.592767
 30
0.0
 10
371.460150
 20
355.592760
 30
0.0
 10
370.930179
 20
356.122718
 30
0.0
 10
370.930170
 20
356.776463
 30
0.0
  0
SPLINE
  5
2e6
100
AcDbEntity
  8
Layer_1
 62
7
100
AcDbSpline
 70
8
 71
3
 72
8
 73
4
 74
0
 40
0
 40
0
 40
0
 40
0
 40
1
 40
1
 40
1
 40
1
 10
370.930170
 20
356.776463
 30
0.0
 10
370.930167
 20
357.090407
 30
0.0
 10
371.054879
 20
357.391494
 30
0.0
 10
371.276871
 20
357.613486
 30
0.0
  0
SPLINE
  5
2e7
100
AcDbEntity
  8
Layer_1
 62
7
100
AcDbSpline
 70
8
 71
3
 72
8
 73
4
 74
0
 40
0
 40
0
 40
0
 40
0
 40
1
 40
1
 40
1
 40
1
 10
371.276871
 20
357.613486
 30
0.0
 10
371.498863
 20
357.835479
 30
0.0
 10
371.799950
 20
357.960191
 30
0.0
 10
372.113895
 20
357.960188
 30
0.0
  0
LINE
  5
2e8
100
AcDbEntity
  8
Layer_1
 62
7
100
AcDbLine
 10
372.113895
 20
357.960188
 30
0.0
 11
372.113895
 21
357.960188
 31
0.0
  0
SPLINE
  5
2e9
100
AcDbEntity
  8
Layer_1
 62
7
100
AcDbSpline
 70
8
 71
3
 72
8
 73
4
 74
0
 40
0
 40
0
 40
0
 40
0
 40
1
 40
1
 40
1
 40
1
 10
372.113895
 20
308.960171
 30
0.0
 10
372.767634
 20
308.960162
 30
0.0
 10
373.297590
 20
308.430200
 30
0.0
 10
373.297591
 20
307.776461
 30
0.0
  0
SPLINE
  5
2ea
100
AcDbEntity
  8
Layer_1
 62
7
100
AcDbSpline
 70
8
 71
3
 72
8
 73
4
 74
0
 40
0
 40
0
 40
0
 40
0
 40
1
 40
1
 40
1
 40
1
 10
373.297591
 20
307.776461
 30
0.0
 10
373.297592
 20
307.122720
 30
0.0
 10
372.767635
 20
306.592756
 30
0.0
 10
372.113895
 20
306.592747
 30
0.0
  0
SPLINE
  5
2eb
100
AcDbEntity
  8
Layer_1
 62
7
100
AcDbSpline
 70
8
 71
3
 72
8
 73
4
 74
0
 40
0
 40
0
 40
0
 40
0
 40
1
 40
1
 40
1
 40
1
 10
372.113895
 20
306.592747
 30
0.0
 10
371.799952
 20
306.592744
 30
0.0
 10
371.498867
 20
306.717455
 30
0.0
 10
371.276875
 20
306.939445
 30
0.0
  0
SPLINE
  5
2ec
100
AcDbEntity
  8
Layer_1
 62
7
100
AcDbSpline
 70
8
 71
3
 72
8
 73
4
 74
0
 40
0
 40
0
 40
0
 40
0
 40
1
 40
1
 40
1
 40
1
 10
371.276875
 20
306.939445
 30
0.0
 10
371.054883
 20
307.161434
 30
0.0
 10
370.930170
 20
307.462518
 30
0.0
 10
370.930170
 20
307.776461
 30
0.0
  0
SPLINE
  5
2ed
100
AcDbEntity
  8
Layer_1
 62
7
100
AcDbSpline
 70
8
 71
3
 72
8
 73
4
 74
0
 40
0
 40
0
 40
0
 40
0
 40
1
 40
1
 40
1
 40
1
 10
370.930170
 20
307.776461
 30
0.0
 10
370.930170
 20
308.090402
 30
0.0
 10
371.054884
 20
308.391486
 30
0.0
 10
371.276876
 20
308.613475
 30
0.0
  0
SPLINE
  5
2ee
100
AcDbEntity
  8
Layer_1
 62
7
100
AcDbSpline
 70
8
 71
3
 72
8
 73
4
 74
0
 40
0
 40
0
 40
0
 40
0
 40
1
 40
1
 40
1
 40
1
 10
371.276876
 20
308.613475
 30
0.0
 10
371.498868
 20
308.835464
 30
0.0
 10
371.799953
 20
308.960174
 30
0.0
 10
372.113895
 20
308.960171
 30
0.0
  0
LINE
  5
2ef
100
AcDbEntity
  8
Layer_1
 62
7
100
AcDbLine
 10
372.113895
 20
308.960171
 30
0.0
 11
372.113895
 21
308.960171
 31
0.0
  0
SPLINE
  5
2f0
100
AcDbEntity
  8
Layer_1
 62
7
100
AcDbSpline
 70
8
 71
3
 72
8
 73
4
 74
0
 40
0
 40
0
 40
0
 40
0
 40
1
 40
1
 40
1
 40
1
 10
432.113888
 20
357.960188
 30
0.0
 10
432.427832
 20
357.960191
 30
0.0
 10
432.728919
 20
357.835479
 30
0.0
 10
432.950911
 20
357.613486
 30
0.0
  0
SPLINE
  5
2f1
100
AcDbEntity
  8
Layer_1
 62
7
100
AcDbSpline
 70
8
 71
3
 72
8
 73
4
 74
0
 40
0
 40
0
 40
0
 40
0
 40
1
 40
1
 40
1
 40
1
 10
432.950911
 20
357.613486
 30
0.0
 10
433.172903
 20
357.391494
 30
0.0
 10
433.297616
 20
357.090407
 30
0.0
 10
433.297612
 20
356.776463
 30
0.0
  0
SPLINE
  5
2f2
100
AcDbEntity
  8
Layer_1
 62
7
100
AcDbSpline
 70
8
 71
3
 72
8
 73
4
 74
0
 40
0
 40
0
 40
0
 40
0
 40
1
 40
1
 40
1
 40
1
 10
433.297612
 20
356.776463
 30
0.0
 10
433.297604
 20
356.122718
 30
0.0
 10
432.767633
 20
355.592760
 30
0.0
 10
432.113888
 20
355.592767
 30
0.0
  0
SPLINE
  5
2f3
100
AcDbEntity
  8
Layer_1
 62
7
100
AcDbSpline
 70
8
 71
3
 72
8
 73
4
 74
0
 40
0
 40
0
 40
0
 40
0
 40
1
 40
1
 40
1
 40
1
 10
432.113888
 20
355.592767
 30
0.0
 10
431.460154
 20
355.592775
 30
0.0
 10
430.930200
 20
356.122729
 30
0.0
 10
430.930191
 20
356.776463
 30
0.0
  0
SPLINE
  5
2f4
100
AcDbEntity
  8
Layer_1
 62
7
100
AcDbSpline
 70
8
 71
3
 72
8
 73
4
 74
0
 40
0
 40
0
 40
0
 40
0
 40
1
 40
1
 40
1
 40
1
 10
430.930191
 20
356.776463
 30
0.0
 10
430.930184
 20
357.430208
 30
0.0
 10
431.460143
 20
357.960179
 30
0.0
 10
432.113888
 20
357.960188
 30
0.0
  0
LINE
  5
2f5
100
AcDbEntity
  8
Layer_1
 62
7
100
AcDbLine
 10
432.113888
 20
357.960188
 30
0.0
 11
432.113888
 21
357.960188
 31
0.0
  0
SPLINE
  5
2f6
100
AcDbEntity
  8
Layer_1
 62
7
100
AcDbSpline
 70
8
 71
3
 72
8
 73
4
 74
0
 40
0
 40
0
 40
0
 40
0
 40
1
 40
1
 40
1
 40
1
 10
432.113888
 20
308.960180
 30
0.0
 10
432.427829
 20
308.960183
 30
0.0
 10
432.728914
 20
308.835472
 30
0.0
 10
432.950906
 20
308.613483
 30
0.0
  0
SPLINE
  5
2f7
100
AcDbEntity
  8
Layer_1
 62
7
100
AcDbSpline
 70
8
 71
3
 72
8
 73
4
 74
0
 40
0
 40
0
 40
0
 40
0
 40
1
 40
1
 40
1
 40
1
 10
432.950906
 20
308.613483
 30
0.0
 10
433.172898
 20
308.391494
 30
0.0
 10
433.297612
 20
308.090411
 30
0.0
 10
433.297612
 20
307.776469
 30
0.0
  0
SPLINE
  5
2f8
100
AcDbEntity
  8
Layer_1
 62
7
100
AcDbSpline
 70
8
 71
3
 72
8
 73
4
 74
0
 40
0
 40
0
 40
0
 40
0
 40
1
 40
1
 40
1
 40
1
 10
433.297612
 20
307.776469
 30
0.0
 10
433.297613
 20
307.462527
 30
0.0
 10
433.172899
 20
307.161443
 30
0.0
 10
432.950907
 20
306.939453
 30
0.0
  0
SPLINE
  5
2f9
100
AcDbEntity
  8
Layer_1
 62
7
100
AcDbSpline
 70
8
 71
3
 72
8
 73
4
 74
0
 40
0
 40
0
 40
0
 40
0
 40
1
 40
1
 40
1
 40
1
 10
432.950907
 20
306.939453
 30
0.0
 10
432.728915
 20
306.717463
 30
0.0
 10
432.427830
 20
306.592752
 30
0.0
 10
432.113888
 20
306.592756
 30
0.0
  0
SPLINE
  5
2fa
100
AcDbEntity
  8
Layer_1
 62
7
100
AcDbSpline
 70
8
 71
3
 72
8
 73
4
 74
0
 40
0
 40
0
 40
0
 40
0
 40
1
 40
1
 40
1
 40
1
 10
432.113888
 20
306.592756
 30
0.0
 10
431.460147
 20
306.592764
 30
0.0
 10
430.930190
 20
307.122729
 30
0.0
 10
430.930191
 20
307.776469
 30
0.0
  0
SPLINE
  5
2fb
100
AcDbEntity
  8
Layer_1
 62
7
100
AcDbSpline
 70
8
 71
3
 72
8
 73
4
 74
0
 40
0
 40
0
 40
0
 40
0
 40
1
 40
1
 40
1
 40
1
 10
430.930191
 20
307.776469
 30
0.0
 10
430.930192
 20
308.430208
 30
0.0
 10
431.460148
 20
308.960171
 30
0.0
 10
432.113888
 20
308.960180
 30
0.0
  0
LINE
  5
2fc
100
AcDbEntity
  8
Layer_1
 62
7
100
AcDbLine
 10
432.113888
 20
308.960180
 30
0.0
 11
432.113888
 21
308.960180
 31
0.0
  0
LINE
  5
2fd
100
AcDbEntity
  8
Layer_1
 62
7
100
AcDbLine
 10
361.961571
 20
364.926900
 30
0.0
 11
433.261572
 21
364.926900
 31
0.0
  0
SPLINE
  5
2fe
100
AcDbEntity
  8
Layer_1
 62
7
100
AcDbSpline
 70
8
 71
3
 72
8
 73
4
 74
0
 40
0
 40
0
 40
0
 40
0
 40
1
 40
1
 40
1
 40
1
 10
433.261572
 20
364.926900
 30
0.0
 10
434.369577
 20
364.926900
 30
0.0
 10
435.261568
 20
364.034908
 30
0.0
 10
435.261568
 20
362.926904
 30
0.0
  0
LINE
  5
2ff
100
AcDbEntity
  8
Layer_1
 62
7
100
AcDbLine
 10
435.261568
 20
362.926904
 30
0.0
 11
435.261568
 21
298.626906
 31
0.0
  0
SPLINE
  5
300
100
AcDbEntity
  8
Layer_1
 62
7
100
AcDbSpline
 70
8
 71
3
 72
8
 73
4
 74
0
 40
0
 40
0
 40
0
 40
0
 40
1
 40
1
 40
1
 40
1
 10
435.261568
 20
298.626906
 30
0.0
 10
435.261568
 20
297.518908
 30
0.0
 10
434.369577
 20
296.626908
 30
0.0
 10
433.261572
 20
296.626908
 30
0.0
  0
LINE
  5
301
100
AcDbEntity
  8
Layer_1
 62
7
100
AcDbLine
 10
433.261572
 20
296.626908
 30
0.0
 11
361.961571
 21
296.626908
 31
0.0
  0
SPLINE
  5
302
100
AcDbEntity
  8
Layer_1
 62
7
100
AcDbSpline
 70
8
 71
3
 72
8
 73
4
 74
0
 40
0
 40
0
 40
0
 40
0
 40
1
 40
1
 40
1
 40
1
 10
361.961571
 20
296.626908
 30
0.0
 10
360.853595
 20
296.626908
 30
0.0
 10
359.961575
 20
297.518908
 30
0.0
 10
359.961575
 20
298.626906
 30
0.0
  0
LINE
  5
303
100
AcDbEntity
  8
Layer_1
 62
7
100
AcDbLine
 10
359.961575
 20
298.626906
 30
0.0
 11
359.961575
 21
362.926904
 31
0.0
  0
SPLINE
  5
304
100
AcDbEntity
  8
Layer_1
 62
7
100
AcDbSpline
 70
8
 71
3
 72
8
 73
4
 74
0
 40
0
 40
0
 40
0
 40
0
 40
1
 40
1
 40
1
 40
1
 10
359.961575
 20
362.926904
 30
0.0
 10
359.961575
 20
364.034908
 30
0.0
 10
360.853595
 20
364.926900
 30
0.0
 10
361.961571
 20
364.926900
 30
0.0
  0
LINE
  5
305
100
AcDbEntity
  8
Layer_1
 62
7
100
AcDbLine
 10
361.961571
 20
364.926900
 30
0.0
 11
361.961571
 21
364.926900
 31
0.0
  0
SPLINE
  5
306
100
AcDbEntity
  8
Layer_1
 62
7
100
AcDbSpline
 70
8
 71
3
 72
8
 73
4
 74
0
 40
0
 40
0
 40
0
 40
0
 40
1
 40
1
 40
1
 40
1
 10
411.988762
 20
362.264760
 30
0.0
 10
412.371230
 20
361.545437
 30
0.0
 10
412.098180
 20
360.652260
 30
0.0
 10
411.378852
 20
360.269790
 30
0.0
  0
SPLINE
  5
307
100
AcDbEntity
  8
Layer_1
 62
7
100
AcDbSpline
 70
8
 71
3
 72
8
 73
4
 74
0
 40
0
 40
0
 40
0
 40
0
 40
1
 40
1
 40
1
 40
1
 10
411.378852
 20
360.269790
 30
0.0
 10
410.659524
 20
359.887322
 30
0.0
 10
409.766347
 20
360.160392
 30
0.0
 10
409.383879
 20
360.879715
 30
0.0
  0
SPLINE
  5
308
100
AcDbEntity
  8
Layer_1
 62
7
100
AcDbSpline
 70
8
 71
3
 72
8
 73
4
 74
0
 40
0
 40
0
 40
0
 40
0
 40
1
 40
1
 40
1
 40
1
 10
409.383879
 20
360.879715
 30
0.0
 10
409.001412
 20
361.599034
 30
0.0
 10
409.274490
 20
362.492211
 30
0.0
 10
409.993818
 20
362.874681
 30
0.0
  0
SPLINE
  5
309
100
AcDbEntity
  8
Layer_1
 62
7
100
AcDbSpline
 70
8
 71
3
 72
8
 73
4
 74
0
 40
0
 40
0
 40
0
 40
0
 40
1
 40
1
 40
1
 40
1
 10
409.993818
 20
362.874681
 30
0.0
 10
410.713118
 20
363.257149
 30
0.0
 10
411.606294
 20
362.984079
 30
0.0
 10
411.988762
 20
362.264760
 30
0.0
  0
LINE
  5
30a
100
AcDbEntity
  8
Layer_1
 62
7
100
AcDbLine
 10
411.988762
 20
362.264760
 30
0.0
 11
411.988762
 21
362.264760
 31
0.0
  0
SPLINE
  5
30b
100
AcDbEntity
  8
Layer_1
 62
7
100
AcDbSpline
 70
8
 71
3
 72
8
 73
4
 74
0
 40
0
 40
0
 40
0
 40
0
 40
1
 40
1
 40
1
 40
1
 10
431.260589
 20
326.019755
 30
0.0
 10
431.643056
 20
325.300436
 30
0.0
 10
431.369978
 20
324.407259
 30
0.0
 10
430.650650
 20
324.024789
 30
0.0
  0
SPLINE
  5
30c
100
AcDbEntity
  8
Layer_1
 62
7
100
AcDbSpline
 70
8
 71
3
 72
8
 73
4
 74
0
 40
0
 40
0
 40
0
 40
0
 40
1
 40
1
 40
1
 40
1
 10
430.650650
 20
324.024789
 30
0.0
 10
429.931350
 20
323.642321
 30
0.0
 10
429.038173
 20
323.915391
 30
0.0
 10
428.655706
 20
324.634713
 30
0.0
  0
SPLINE
  5
30d
100
AcDbEntity
  8
Layer_1
 62
7
100
AcDbSpline
 70
8
 71
3
 72
8
 73
4
 74
0
 40
0
 40
0
 40
0
 40
0
 40
1
 40
1
 40
1
 40
1
 10
428.655706
 20
324.634713
 30
0.0
 10
428.273210
 20
325.354030
 30
0.0
 10
428.546288
 20
326.247210
 30
0.0
 10
429.265616
 20
326.629680
 30
0.0
  0
SPLINE
  5
30e
100
AcDbEntity
  8
Layer_1
 62
7
100
AcDbSpline
 70
8
 71
3
 72
8
 73
4
 74
0
 40
0
 40
0
 40
0
 40
0
 40
1
 40
1
 40
1
 40
1
 10
429.265616
 20
326.629680
 30
0.0
 10
429.984944
 20
327.012148
 30
0.0
 10
430.878121
 20
326.739075
 30
0.0
 10
431.260589
 20
326.019755
 30
0.0
  0
LINE
  5
30f
100
AcDbEntity
  8
Layer_1
 62
7
100
AcDbLine
 10
431.260589
 20
326.019755
 30
0.0
 11
431.260589
 21
326.019755
 31
0.0
  0
SPLINE
  5
310
100
AcDbEntity
  8
Layer_1
 62
7
100
AcDbSpline
 70
8
 71
3
 72
8
 73
4
 74
0
 40
0
 40
0
 40
0
 40
0
 40
1
 40
1
 40
1
 40
1
 10
366.958541
 20
338.321754
 30
0.0
 10
367.341009
 20
337.602435
 30
0.0
 10
367.067931
 20
336.709258
 30
0.0
 10
366.348603
 20
336.326788
 30
0.0
  0
SPLINE
  5
311
100
AcDbEntity
  8
Layer_1
 62
7
100
AcDbSpline
 70
8
 71
3
 72
8
 73
4
 74
0
 40
0
 40
0
 40
0
 40
0
 40
1
 40
1
 40
1
 40
1
 10
366.348603
 20
336.326788
 30
0.0
 10
365.629303
 20
335.944320
 30
0.0
 10
364.736126
 20
336.217390
 30
0.0
 10
364.353658
 20
336.936712
 30
0.0
  0
SPLINE
  5
312
100
AcDbEntity
  8
Layer_1
 62
7
100
AcDbSpline
 70
8
 71
3
 72
8
 73
4
 74
0
 40
0
 40
0
 40
0
 40
0
 40
1
 40
1
 40
1
 40
1
 10
364.353658
 20
336.936712
 30
0.0
 10
363.971191
 20
337.656029
 30
0.0
 10
364.244241
 20
338.549209
 30
0.0
 10
364.963569
 20
338.931679
 30
0.0
  0
SPLINE
  5
313
100
AcDbEntity
  8
Layer_1
 62
7
100
AcDbSpline
 70
8
 71
3
 72
8
 73
4
 74
0
 40
0
 40
0
 40
0
 40
0
 40
1
 40
1
 40
1
 40
1
 10
364.963569
 20
338.931679
 30
0.0
 10
365.682897
 20
339.314147
 30
0.0
 10
366.576074
 20
339.041074
 30
0.0
 10
366.958541
 20
338.321754
 30
0.0
  0
LINE
  5
314
100
AcDbEntity
  8
Layer_1
 62
7
100
AcDbLine
 10
366.958541
 20
338.321754
 30
0.0
 11
366.958541
 21
338.321754
 31
0.0
  0
SPLINE
  5
315
100
AcDbEntity
  8
Layer_1
 62
7
100
AcDbSpline
 70
8
 71
3
 72
8
 73
4
 74
0
 40
0
 40
0
 40
0
 40
0
 40
1
 40
1
 40
1
 40
1
 10
386.230340
 20
302.076754
 30
0.0
 10
386.612807
 20
301.357435
 30
0.0
 10
386.339757
 20
300.464258
 30
0.0
 10
385.620429
 20
300.081787
 30
0.0
  0
SPLINE
  5
316
100
AcDbEntity
  8
Layer_1
 62
7
100
AcDbSpline
 70
8
 71
3
 72
8
 73
4
 74
0
 40
0
 40
0
 40
0
 40
0
 40
1
 40
1
 40
1
 40
1
 10
385.620429
 20
300.081787
 30
0.0
 10
384.901101
 20
299.699320
 30
0.0
 10
384.007924
 20
299.972390
 30
0.0
 10
383.625457
 20
300.691712
 30
0.0
  0
SPLINE
  5
317
100
AcDbEntity
  8
Layer_1
 62
7
100
AcDbSpline
 70
8
 71
3
 72
8
 73
4
 74
0
 40
0
 40
0
 40
0
 40
0
 40
1
 40
1
 40
1
 40
1
 10
383.625457
 20
300.691712
 30
0.0
 10
383.242989
 20
301.411029
 30
0.0
 10
383.516068
 20
302.304208
 30
0.0
 10
384.235367
 20
302.686679
 30
0.0
  0
SPLINE
  5
318
100
AcDbEntity
  8
Layer_1
 62
7
100
AcDbSpline
 70
8
 71
3
 72
8
 73
4
 74
0
 40
0
 40
0
 40
0
 40
0
 40
1
 40
1
 40
1
 40
1
 10
384.235367
 20
302.686679
 30
0.0
 10
384.954695
 20
303.069146
 30
0.0
 10
385.847872
 20
302.796074
 30
0.0
 10
386.230340
 20
302.076754
 30
0.0
  0
LINE
  5
319
100
AcDbEntity
  8
Layer_1
 62
7
100
AcDbLine
 10
386.230340
 20
302.076754
 30
0.0
 11
386.230340
 21
302.076754
 31
0.0
  0
SPLINE
  5
31a
100
AcDbEntity
  8
Layer_1
 62
7
100
AcDbSpline
 70
8
 71
3
 72
8
 73
4
 74
0
 40
0
 40
0
 40
0
 40
0
 40
1
 40
1
 40
1
 40
1
 10
81.917230
 20
215.037439
 30
0.0
 10
79.147218
 20
215.037439
 30
0.0
 10
76.916590
 20
212.806813
 30
0.0
 10
76.916590
 20
210.036814
 30
0.0
  0
LINE
  5
31b
100
AcDbEntity
  8
Layer_1
 62
7
100
AcDbLine
 10
76.916590
 20
210.036814
 30
0.0
 11
76.916590
 21
173.039244
 31
0.0
  0
SPLINE
  5
31c
100
AcDbEntity
  8
Layer_1
 62
7
100
AcDbSpline
 70
8
 71
3
 72
8
 73
4
 74
0
 40
0
 40
0
 40
0
 40
0
 40
1
 40
1
 40
1
 40
1
 10
76.916590
 20
173.039244
 30
0.0
 10
76.916590
 20
170.269244
 30
0.0
 10
79.147218
 20
168.038619
 30
0.0
 10
81.917230
 20
168.038619
 30
0.0
  0
LINE
  5
31d
100
AcDbEntity
  8
Layer_1
 62
7
100
AcDbLine
 10
81.917230
 20
168.038619
 30
0.0
 11
86.917840
 21
168.038619
 31
0.0
  0
SPLINE
  5
31e
100
AcDbEntity
  8
Layer_1
 62
7
100
AcDbSpline
 70
8
 71
3
 72
8
 73
4
 74
0
 40
0
 40
0
 40
0
 40
0
 40
1
 40
1
 40
1
 40
1
 10
86.917840
 20
168.038619
 30
0.0
 10
89.687852
 20
168.038619
 30
0.0
 10
91.918480
 20
170.269244
 30
0.0
 10
91.918480
 20
173.039244
 30
0.0
  0
LINE
  5
31f
100
AcDbEntity
  8
Layer_1
 62
7
100
AcDbLine
 10
91.918480
 20
173.039244
 30
0.0
 11
91.918480
 21
174.538550
 31
0.0
  0
LINE
  5
320
100
AcDbEntity
  8
Layer_1
 62
7
100
AcDbLine
 10
91.918480
 20
174.538550
 30
0.0
 11
87.914452
 21
174.538550
 31
0.0
  0
LINE
  5
321
100
AcDbEntity
  8
Layer_1
 62
7
100
AcDbLine
 10
87.914452
 20
174.538550
 30
0.0
 11
87.914452
 21
208.537508
 31
0.0
  0
LINE
  5
322
100
AcDbEntity
  8
Layer_1
 62
7
100
AcDbLine
 10
87.914452
 20
208.537508
 30
0.0
 11
91.918480
 21
208.537508
 31
0.0
  0
LINE
  5
323
100
AcDbEntity
  8
Layer_1
 62
7
100
AcDbLine
 10
91.918480
 20
208.537508
 30
0.0
 11
91.918480
 21
210.036814
 31
0.0
  0
SPLINE
  5
324
100
AcDbEntity
  8
Layer_1
 62
7
100
AcDbSpline
 70
8
 71
3
 72
8
 73
4
 74
0
 40
0
 40
0
 40
0
 40
0
 40
1
 40
1
 40
1
 40
1
 10
91.918480
 20
210.036814
 30
0.0
 10
91.918480
 20
212.806813
 30
0.0
 10
89.687852
 20
215.037439
 30
0.0
 10
86.917840
 20
215.037439
 30
0.0
  0
LINE
  5
325
100
AcDbEntity
  8
Layer_1
 62
7
100
AcDbLine
 10
86.917840
 20
215.037439
 30
0.0
 11
81.917230
 21
215.037439
 31
0.0
  0
LINE
  5
326
100
AcDbEntity
  8
Layer_1
 62
7
100
AcDbLine
 10
81.917230
 20
215.037439
 30
0.0
 11
81.917230
 21
215.037439
 31
0.0
  0
SPLINE
  5
327
100
AcDbEntity
  8
Layer_1
 62
7
100
AcDbSpline
 70
8
 71
3
 72
8
 73
4
 74
0
 40
0
 40
0
 40
0
 40
0
 40
1
 40
1
 40
1
 40
1
 10
83.017727
 20
212.065599
 30
0.0
 10
83.017727
 20
211.250917
 30
0.0
 10
82.357299
 20
210.590488
 30
0.0
 10
81.542608
 20
210.590488
 30
0.0
  0
SPLINE
  5
328
100
AcDbEntity
  8
Layer_1
 62
7
100
AcDbSpline
 70
8
 71
3
 72
8
 73
4
 74
0
 40
0
 40
0
 40
0
 40
0
 40
1
 40
1
 40
1
 40
1
 10
81.542608
 20
210.590488
 30
0.0
 10
80.727945
 20
210.590488
 30
0.0
 10
80.067517
 20
211.250917
 30
0.0
 10
80.067517
 20
212.065599
 30
0.0
  0
SPLINE
  5
329
100
AcDbEntity
  8
Layer_1
 62
7
100
AcDbSpline
 70
8
 71
3
 72
8
 73
4
 74
0
 40
0
 40
0
 40
0
 40
0
 40
1
 40
1
 40
1
 40
1
 10
80.067517
 20
212.065599
 30
0.0
 10
80.067517
 20
212.880279
 30
0.0
 10
80.727945
 20
213.540710
 30
0.0
 10
81.542608
 20
213.540710
 30
0.0
  0
SPLINE
  5
32a
100
AcDbEntity
  8
Layer_1
 62
7
100
AcDbSpline
 70
8
 71
3
 72
8
 73
4
 74
0
 40
0
 40
0
 40
0
 40
0
 40
1
 40
1
 40
1
 40
1
 10
81.542608
 20
213.540710
 30
0.0
 10
82.357299
 20
213.540710
 30
0.0
 10
83.017727
 20
212.880279
 30
0.0
 10
83.017727
 20
212.065599
 30
0.0
  0
LINE
  5
32b
100
AcDbEntity
  8
Layer_1
 62
7
100
AcDbLine
 10
83.017727
 20
212.065599
 30
0.0
 11
83.017727
 21
212.065599
 31
0.0
  0
SPLINE
  5
32c
100
AcDbEntity
  8
Layer_1
 62
7
100
AcDbSpline
 70
8
 71
3
 72
8
 73
4
 74
0
 40
0
 40
0
 40
0
 40
0
 40
1
 40
1
 40
1
 40
1
 10
83.017727
 20
171.015592
 30
0.0
 10
83.017727
 20
170.200910
 30
0.0
 10
82.357299
 20
169.540482
 30
0.0
 10
81.542608
 20
169.540482
 30
0.0
  0
SPLINE
  5
32d
100
AcDbEntity
  8
Layer_1
 62
7
100
AcDbSpline
 70
8
 71
3
 72
8
 73
4
 74
0
 40
0
 40
0
 40
0
 40
0
 40
1
 40
1
 40
1
 40
1
 10
81.542608
 20
169.540482
 30
0.0
 10
80.727945
 20
169.540482
 30
0.0
 10
80.067517
 20
170.200910
 30
0.0
 10
80.067517
 20
171.015592
 30
0.0
  0
SPLINE
  5
32e
100
AcDbEntity
  8
Layer_1
 62
7
100
AcDbSpline
 70
8
 71
3
 72
8
 73
4
 74
0
 40
0
 40
0
 40
0
 40
0
 40
1
 40
1
 40
1
 40
1
 10
80.067517
 20
171.015592
 30
0.0
 10
80.067517
 20
171.830272
 30
0.0
 10
80.727945
 20
172.490703
 30
0.0
 10
81.542608
 20
172.490703
 30
0.0
  0
SPLINE
  5
32f
100
AcDbEntity
  8
Layer_1
 62
7
100
AcDbSpline
 70
8
 71
3
 72
8
 73
4
 74
0
 40
0
 40
0
 40
0
 40
0
 40
1
 40
1
 40
1
 40
1
 10
81.542608
 20
172.490703
 30
0.0
 10
82.357299
 20
172.490703
 30
0.0
 10
83.017727
 20
171.830272
 30
0.0
 10
83.017727
 20
171.015592
 30
0.0
  0
LINE
  5
330
100
AcDbEntity
  8
Layer_1
 62
7
100
AcDbLine
 10
83.017727
 20
171.015592
 30
0.0
 11
83.017727
 21
171.015592
 31
0.0
  0
SPLINE
  5
331
100
AcDbEntity
  8
Layer_1
 62
7
100
AcDbSpline
 70
8
 71
3
 72
8
 73
4
 74
0
 40
0
 40
0
 40
0
 40
0
 40
1
 40
1
 40
1
 40
1
 10
57.987382
 20
198.313915
 30
0.0
 10
58.369849
 20
197.594593
 30
0.0
 10
58.096771
 20
196.701416
 30
0.0
 10
57.377471
 20
196.318945
 30
0.0
  0
SPLINE
  5
332
100
AcDbEntity
  8
Layer_1
 62
7
100
AcDbSpline
 70
8
 71
3
 72
8
 73
4
 74
0
 40
0
 40
0
 40
0
 40
0
 40
1
 40
1
 40
1
 40
1
 10
57.377471
 20
196.318945
 30
0.0
 10
56.658143
 20
195.936478
 30
0.0
 10
55.764966
 20
196.209547
 30
0.0
 10
55.382499
 20
196.928870
 30
0.0
  0
SPLINE
  5
333
100
AcDbEntity
  8
Layer_1
 62
7
100
AcDbSpline
 70
8
 71
3
 72
8
 73
4
 74
0
 40
0
 40
0
 40
0
 40
0
 40
1
 40
1
 40
1
 40
1
 10
55.382499
 20
196.928870
 30
0.0
 10
55.000031
 20
197.648189
 30
0.0
 10
55.273109
 20
198.541366
 30
0.0
 10
55.992409
 20
198.923837
 30
0.0
  0
SPLINE
  5
334
100
AcDbEntity
  8
Layer_1
 62
7
100
AcDbSpline
 70
8
 71
3
 72
8
 73
4
 74
0
 40
0
 40
0
 40
0
 40
0
 40
1
 40
1
 40
1
 40
1
 10
55.992409
 20
198.923837
 30
0.0
 10
56.711737
 20
199.306304
 30
0.0
 10
57.604914
 20
199.033234
 30
0.0
 10
57.987382
 20
198.313915
 30
0.0
  0
LINE
  5
335
100
AcDbEntity
  8
Layer_1
 62
7
100
AcDbLine
 10
57.987382
 20
198.313915
 30
0.0
 11
57.987382
 21
198.313915
 31
0.0
  0
SPLINE
  5
336
100
AcDbEntity
  8
Layer_1
 62
7
100
AcDbSpline
 70
8
 71
3
 72
8
 73
4
 74
0
 40
0
 40
0
 40
0
 40
0
 40
1
 40
1
 40
1
 40
1
 10
67.259200
 20
192.068854
 30
0.0
 10
67.641696
 20
191.349531
 30
0.0
 10
67.368618
 20
190.456354
 30
0.0
 10
66.649290
 20
190.073884
 30
0.0
  0
SPLINE
  5
337
100
AcDbEntity
  8
Layer_1
 62
7
100
AcDbSpline
 70
8
 71
3
 72
8
 73
4
 74
0
 40
0
 40
0
 40
0
 40
0
 40
1
 40
1
 40
1
 40
1
 10
66.649290
 20
190.073884
 30
0.0
 10
65.929962
 20
189.691416
 30
0.0
 10
65.036785
 20
189.964486
 30
0.0
 10
64.654317
 20
190.683809
 30
0.0
  0
SPLINE
  5
338
100
AcDbEntity
  8
Layer_1
 62
7
100
AcDbSpline
 70
8
 71
3
 72
8
 73
4
 74
0
 40
0
 40
0
 40
0
 40
0
 40
1
 40
1
 40
1
 40
1
 10
64.654317
 20
190.683809
 30
0.0
 10
64.271850
 20
191.403128
 30
0.0
 10
64.544928
 20
192.296305
 30
0.0
 10
65.264256
 20
192.678775
 30
0.0
  0
SPLINE
  5
339
100
AcDbEntity
  8
Layer_1
 62
7
100
AcDbSpline
 70
8
 71
3
 72
8
 73
4
 74
0
 40
0
 40
0
 40
0
 40
0
 40
1
 40
1
 40
1
 40
1
 10
65.264256
 20
192.678775
 30
0.0
 10
65.983556
 20
193.061243
 30
0.0
 10
66.876732
 20
192.788173
 30
0.0
 10
67.259200
 20
192.068854
 30
0.0
  0
LINE
  5
33a
100
AcDbEntity
  8
Layer_1
 62
7
100
AcDbLine
 10
67.259200
 20
192.068854
 30
0.0
 11
67.259200
 21
192.068854
 31
0.0
  0
SPLINE
  5
33b
100
AcDbEntity
  8
Layer_1
 62
7
100
AcDbSpline
 70
8
 71
3
 72
8
 73
4
 74
0
 40
0
 40
0
 40
0
 40
0
 40
1
 40
1
 40
1
 40
1
 10
62.422024
 20
182.357516
 30
0.0
 10
61.616138
 20
182.363895
 30
0.0
 10
60.796255
 20
182.172999
 30
0.0
 10
60.031969
 20
181.766614
 30
0.0
  0
LINE
  5
33c
100
AcDbEntity
  8
Layer_1
 62
7
100
AcDbLine
 10
60.031969
 20
181.766614
 30
0.0
 11
55.613413
 21
179.420641
 31
0.0
  0
SPLINE
  5
33d
100
AcDbEntity
  8
Layer_1
 62
7
100
AcDbSpline
 70
8
 71
3
 72
8
 73
4
 74
0
 40
0
 40
0
 40
0
 40
0
 40
1
 40
1
 40
1
 40
1
 10
55.613413
 20
179.420641
 30
0.0
 10
53.167647
 20
178.120207
 30
0.0
 10
52.249239
 20
175.110713
 30
0.0
 10
53.549663
 20
172.664947
 30
0.0
  0
LINE
  5
33e
100
AcDbEntity
  8
Layer_1
 62
7
100
AcDbLine
 10
53.549663
 20
172.664947
 30
0.0
 11
54.493358
 21
170.892239
 31
0.0
  0
LINE
  5
33f
100
AcDbEntity
  8
Layer_1
 62
7
100
AcDbLine
 10
54.493358
 20
170.892239
 30
0.0
 11
61.134385
 21
174.428836
 31
0.0
  0
LINE
  5
340
100
AcDbEntity
  8
Layer_1
 62
7
100
AcDbLine
 10
61.134385
 20
174.428836
 30
0.0
 11
59.493968
 21
177.515641
 31
0.0
  0
LINE
  5
341
100
AcDbEntity
  8
Layer_1
 62
7
100
AcDbLine
 10
59.493968
 20
177.515641
 30
0.0
 11
65.888080
 21
180.919947
 31
0.0
  0
SPLINE
  5
342
100
AcDbEntity
  8
Layer_1
 62
7
100
AcDbSpline
 70
8
 71
3
 72
8
 73
4
 74
0
 40
0
 40
0
 40
0
 40
0
 40
1
 40
1
 40
1
 40
1
 10
65.888080
 20
180.919947
 30
0.0
 10
64.957311
 20
181.839255
 30
0.0
 10
63.707349
 20
182.347359
 30
0.0
 10
62.422024
 20
182.357516
 30
0.0
  0
LINE
  5
343
100
AcDbEntity
  8
Layer_1
 62
7
100
AcDbLine
 10
62.422024
 20
182.357516
 30
0.0
 11
62.422024
 21
182.357516
 31
0.0
  0
LINE
  5
344
100
AcDbEntity
  8
Layer_1
 62
7
100
AcDbLine
 10
74.664683
 20
175.606831
 30
0.0
 11
68.270600
 21
172.202526
 31
0.0
  0
LINE
  5
345
100
AcDbEntity
  8
Layer_1
 62
7
100
AcDbLine
 10
68.270600
 20
172.202526
 30
0.0
 11
66.621350
 21
175.298165
 31
0.0
  0
LINE
  5
346
100
AcDbEntity
  8
Layer_1
 62
7
100
AcDbLine
 10
66.621350
 20
175.298165
 30
0.0
 11
59.980322
 21
171.761554
 31
0.0
  0
LINE
  5
347
100
AcDbEntity
  8
Layer_1
 62
7
100
AcDbLine
 10
59.980322
 20
171.761554
 30
0.0
 11
60.923988
 21
169.988831
 31
0.0
  0
SPLINE
  5
348
100
AcDbEntity
  8
Layer_1
 62
7
100
AcDbSpline
 70
8
 71
3
 72
8
 73
4
 74
0
 40
0
 40
0
 40
0
 40
0
 40
1
 40
1
 40
1
 40
1
 10
60.923988
 20
169.988831
 30
0.0
 10
62.224440
 20
167.543093
 30
0.0
 10
65.233917
 20
166.624658
 30
0.0
 10
67.679683
 20
167.925109
 30
0.0
  0
LINE
  5
349
100
AcDbEntity
  8
Layer_1
 62
7
100
AcDbLine
 10
67.679683
 20
167.925109
 30
0.0
 11
72.098239
 21
170.271053
 31
0.0
  0
SPLINE
  5
34a
100
AcDbEntity
  8
Layer_1
 62
7
100
AcDbSpline
 70
8
 71
3
 72
8
 73
4
 74
0
 40
0
 40
0
 40
0
 40
0
 40
1
 40
1
 40
1
 40
1
 10
72.098239
 20
170.271053
 30
0.0
 10
74.082684
 20
171.326226
 30
0.0
 10
75.059766
 20
173.513843
 30
0.0
 10
74.664683
 20
175.606831
 30
0.0
  0
LINE
  5
34b
100
AcDbEntity
  8
Layer_1
 62
7
100
AcDbLine
 10
74.664683
 20
175.606831
 30
0.0
 11
74.664683
 21
175.606831
 31
0.0
  0
SPLINE
  5
34c
100
AcDbEntity
  8
Layer_1
 62
7
100
AcDbSpline
 70
8
 71
3
 72
8
 73
4
 74
0
 40
0
 40
0
 40
0
 40
0
 40
1
 40
1
 40
1
 40
1
 10
57.987382
 20
177.313954
 30
0.0
 10
58.369849
 20
176.594635
 30
0.0
 10
58.096771
 20
175.701458
 30
0.0
 10
57.377471
 20
175.318987
 30
0.0
  0
SPLINE
  5
34d
100
AcDbEntity
  8
Layer_1
 62
7
100
AcDbSpline
 70
8
 71
3
 72
8
 73
4
 74
0
 40
0
 40
0
 40
0
 40
0
 40
1
 40
1
 40
1
 40
1
 10
57.377471
 20
175.318987
 30
0.0
 10
56.658143
 20
174.936520
 30
0.0
 10
55.764966
 20
175.209589
 30
0.0
 10
55.382499
 20
175.928909
 30
0.0
  0
SPLINE
  5
34e
100
AcDbEntity
  8
Layer_1
 62
7
100
AcDbSpline
 70
8
 71
3
 72
8
 73
4
 74
0
 40
0
 40
0
 40
0
 40
0
 40
1
 40
1
 40
1
 40
1
 10
55.382499
 20
175.928909
 30
0.0
 10
55.000031
 20
176.648229
 30
0.0
 10
55.273109
 20
177.541408
 30
0.0
 10
55.992409
 20
177.923879
 30
0.0
  0
SPLINE
  5
34f
100
AcDbEntity
  8
Layer_1
 62
7
100
AcDbSpline
 70
8
 71
3
 72
8
 73
4
 74
0
 40
0
 40
0
 40
0
 40
0
 40
1
 40
1
 40
1
 40
1
 10
55.992409
 20
177.923879
 30
0.0
 10
56.711737
 20
178.306346
 30
0.0
 10
57.604914
 20
178.033274
 30
0.0
 10
57.987382
 20
177.313954
 30
0.0
  0
LINE
  5
350
100
AcDbEntity
  8
Layer_1
 62
7
100
AcDbLine
 10
57.987382
 20
177.313954
 30
0.0
 11
57.987382
 21
177.313954
 31
0.0
  0
SPLINE
  5
351
100
AcDbEntity
  8
Layer_1
 62
7
100
AcDbSpline
 70
8
 71
3
 72
8
 73
4
 74
0
 40
0
 40
0
 40
0
 40
0
 40
1
 40
1
 40
1
 40
1
 10
67.259200
 20
171.068893
 30
0.0
 10
67.641696
 20
170.349573
 30
0.0
 10
67.368618
 20
169.456396
 30
0.0
 10
66.649290
 20
169.073926
 30
0.0
  0
SPLINE
  5
352
100
AcDbEntity
  8
Layer_1
 62
7
100
AcDbSpline
 70
8
 71
3
 72
8
 73
4
 74
0
 40
0
 40
0
 40
0
 40
0
 40
1
 40
1
 40
1
 40
1
 10
66.649290
 20
169.073926
 30
0.0
 10
65.929962
 20
168.691458
 30
0.0
 10
65.036785
 20
168.964528
 30
0.0
 10
64.654317
 20
169.683848
 30
0.0
  0
SPLINE
  5
353
100
AcDbEntity
  8
Layer_1
 62
7
100
AcDbSpline
 70
8
 71
3
 72
8
 73
4
 74
0
 40
0
 40
0
 40
0
 40
0
 40
1
 40
1
 40
1
 40
1
 10
64.654317
 20
169.683848
 30
0.0
 10
64.271850
 20
170.403167
 30
0.0
 10
64.544928
 20
171.296347
 30
0.0
 10
65.264256
 20
171.678817
 30
0.0
  0
SPLINE
  5
354
100
AcDbEntity
  8
Layer_1
 62
7
100
AcDbSpline
 70
8
 71
3
 72
8
 73
4
 74
0
 40
0
 40
0
 40
0
 40
0
 40
1
 40
1
 40
1
 40
1
 10
65.264256
 20
171.678817
 30
0.0
 10
65.983556
 20
172.061285
 30
0.0
 10
66.876732
 20
171.788212
 30
0.0
 10
67.259200
 20
171.068893
 30
0.0
  0
LINE
  5
355
100
AcDbEntity
  8
Layer_1
 62
7
100
AcDbLine
 10
67.259200
 20
171.068893
 30
0.0
 11
67.259200
 21
171.068893
 31
0.0
  0
SPLINE
  5
356
100
AcDbEntity
  8
Layer_1
 62
7
100
AcDbSpline
 70
8
 71
3
 72
8
 73
4
 74
0
 40
0
 40
0
 40
0
 40
0
 40
1
 40
1
 40
1
 40
1
 10
44.017734
 20
189.256983
 30
0.0
 10
44.400205
 20
188.537661
 30
0.0
 10
44.127132
 20
187.644484
 30
0.0
 10
43.407813
 20
187.262014
 30
0.0
  0
SPLINE
  5
357
100
AcDbEntity
  8
Layer_1
 62
7
100
AcDbSpline
 70
8
 71
3
 72
8
 73
4
 74
0
 40
0
 40
0
 40
0
 40
0
 40
1
 40
1
 40
1
 40
1
 10
43.407813
 20
187.262014
 30
0.0
 10
42.688493
 20
186.879546
 30
0.0
 10
41.795313
 20
187.152616
 30
0.0
 10
41.412843
 20
187.871938
 30
0.0
  0
SPLINE
  5
358
100
AcDbEntity
  8
Layer_1
 62
7
100
AcDbSpline
 70
8
 71
3
 72
8
 73
4
 74
0
 40
0
 40
0
 40
0
 40
0
 40
1
 40
1
 40
1
 40
1
 10
41.412843
 20
187.871938
 30
0.0
 10
41.030375
 20
188.591258
 30
0.0
 10
41.303448
 20
189.484435
 30
0.0
 10
42.022768
 20
189.866905
 30
0.0
  0
SPLINE
  5
359
100
AcDbEntity
  8
Layer_1
 62
7
100
AcDbSpline
 70
8
 71
3
 72
8
 73
4
 74
0
 40
0
 40
0
 40
0
 40
0
 40
1
 40
1
 40
1
 40
1
 10
42.022768
 20
189.866905
 30
0.0
 10
42.742087
 20
190.249373
 30
0.0
 10
43.635267
 20
189.976303
 30
0.0
 10
44.017734
 20
189.256983
 30
0.0
  0
LINE
  5
35a
100
AcDbEntity
  8
Layer_1
 62
7
100
AcDbLine
 10
44.017734
 20
189.256983
 30
0.0
 11
44.017734
 21
189.256983
 31
0.0
  0
SPLINE
  5
35b
100
AcDbEntity
  8
Layer_1
 62
7
100
AcDbSpline
 70
8
 71
3
 72
8
 73
4
 74
0
 40
0
 40
0
 40
0
 40
0
 40
1
 40
1
 40
1
 40
1
 10
52.289569
 20
186.011913
 30
0.0
 10
52.672036
 20
185.292594
 30
0.0
 10
52.398958
 20
184.399417
 30
0.0
 10
51.679630
 20
184.016946
 30
0.0
  0
SPLINE
  5
35c
100
AcDbEntity
  8
Layer_1
 62
7
100
AcDbSpline
 70
8
 71
3
 72
8
 73
4
 74
0
 40
0
 40
0
 40
0
 40
0
 40
1
 40
1
 40
1
 40
1
 10
51.679630
 20
184.016946
 30
0.0
 10
50.960330
 20
183.634479
 30
0.0
 10
50.067154
 20
183.907549
 30
0.0
 10
49.684686
 20
184.626868
 30
0.0
  0
SPLINE
  5
35d
100
AcDbEntity
  8
Layer_1
 62
7
100
AcDbSpline
 70
8
 71
3
 72
8
 73
4
 74
0
 40
0
 40
0
 40
0
 40
0
 40
1
 40
1
 40
1
 40
1
 10
49.684686
 20
184.626868
 30
0.0
 10
49.302218
 20
185.346188
 30
0.0
 10
49.575268
 20
186.239367
 30
0.0
 10
50.294596
 20
186.621838
 30
0.0
  0
SPLINE
  5
35e
100
AcDbEntity
  8
Layer_1
 62
7
100
AcDbSpline
 70
8
 71
3
 72
8
 73
4
 74
0
 40
0
 40
0
 40
0
 40
0
 40
1
 40
1
 40
1
 40
1
 10
50.294596
 20
186.621838
 30
0.0
 10
51.013924
 20
187.004305
 30
0.0
 10
51.907101
 20
186.731233
 30
0.0
 10
52.289569
 20
186.011913
 30
0.0
  0
LINE
  5
35f
100
AcDbEntity
  8
Layer_1
 62
7
100
AcDbLine
 10
52.289569
 20
186.011913
 30
0.0
 11
52.289569
 21
186.011913
 31
0.0
  0
SPLINE
  5
360
100
AcDbEntity
  8
Layer_1
 62
7
100
AcDbSpline
 70
8
 71
3
 72
8
 73
4
 74
0
 40
0
 40
0
 40
0
 40
0
 40
1
 40
1
 40
1
 40
1
 10
101.917190
 20
215.037439
 30
0.0
 10
99.147178
 20
215.037439
 30
0.0
 10
96.916550
 20
212.806813
 30
0.0
 10
96.916550
 20
210.036814
 30
0.0
  0
LINE
  5
361
100
AcDbEntity
  8
Layer_1
 62
7
100
AcDbLine
 10
96.916550
 20
210.036814
 30
0.0
 11
96.916550
 21
173.039244
 31
0.0
  0
SPLINE
  5
362
100
AcDbEntity
  8
Layer_1
 62
7
100
AcDbSpline
 70
8
 71
3
 72
8
 73
4
 74
0
 40
0
 40
0
 40
0
 40
0
 40
1
 40
1
 40
1
 40
1
 10
96.916550
 20
173.039244
 30
0.0
 10
96.916550
 20
170.269244
 30
0.0
 10
99.147178
 20
168.038619
 30
0.0
 10
101.917190
 20
168.038619
 30
0.0
  0
LINE
  5
363
100
AcDbEntity
  8
Layer_1
 62
7
100
AcDbLine
 10
101.917190
 20
168.038619
 30
0.0
 11
106.917800
 21
168.038619
 31
0.0
  0
SPLINE
  5
364
100
AcDbEntity
  8
Layer_1
 62
7
100
AcDbSpline
 70
8
 71
3
 72
8
 73
4
 74
0
 40
0
 40
0
 40
0
 40
0
 40
1
 40
1
 40
1
 40
1
 10
106.917800
 20
168.038619
 30
0.0
 10
109.687812
 20
168.038619
 30
0.0
 10
111.918440
 20
170.269244
 30
0.0
 10
111.918440
 20
173.039244
 30
0.0
  0
LINE
  5
365
100
AcDbEntity
  8
Layer_1
 62
7
100
AcDbLine
 10
111.918440
 20
173.039244
 30
0.0
 11
111.918440
 21
174.538550
 31
0.0
  0
LINE
  5
366
100
AcDbEntity
  8
Layer_1
 62
7
100
AcDbLine
 10
111.918440
 20
174.538550
 30
0.0
 11
107.914412
 21
174.538550
 31
0.0
  0
LINE
  5
367
100
AcDbEntity
  8
Layer_1
 62
7
100
AcDbLine
 10
107.914412
 20
174.538550
 30
0.0
 11
107.914412
 21
208.537508
 31
0.0
  0
LINE
  5
368
100
AcDbEntity
  8
Layer_1
 62
7
100
AcDbLine
 10
107.914412
 20
208.537508
 30
0.0
 11
111.918440
 21
208.537508
 31
0.0
  0
LINE
  5
369
100
AcDbEntity
  8
Layer_1
 62
7
100
AcDbLine
 10
111.918440
 20
208.537508
 30
0.0
 11
111.918440
 21
210.036814
 31
0.0
  0
SPLINE
  5
36a
100
AcDbEntity
  8
Layer_1
 62
7
100
AcDbSpline
 70
8
 71
3
 72
8
 73
4
 74
0
 40
0
 40
0
 40
0
 40
0
 40
1
 40
1
 40
1
 40
1
 10
111.918440
 20
210.036814
 30
0.0
 10
111.918440
 20
212.806813
 30
0.0
 10
109.687812
 20
215.037439
 30
0.0
 10
106.917800
 20
215.037439
 30
0.0
  0
LINE
  5
36b
100
AcDbEntity
  8
Layer_1
 62
7
100
AcDbLine
 10
106.917800
 20
215.037439
 30
0.0
 11
101.917190
 21
215.037439
 31
0.0
  0
LINE
  5
36c
100
AcDbEntity
  8
Layer_1
 62
7
100
AcDbLine
 10
101.917190
 20
215.037439
 30
0.0
 11
101.917190
 21
215.037439
 31
0.0
  0
SPLINE
  5
36d
100
AcDbEntity
  8
Layer_1
 62
7
100
AcDbSpline
 70
8
 71
3
 72
8
 73
4
 74
0
 40
0
 40
0
 40
0
 40
0
 40
1
 40
1
 40
1
 40
1
 10
103.017687
 20
212.065599
 30
0.0
 10
103.017687
 20
211.250917
 30
0.0
 10
102.357259
 20
210.590488
 30
0.0
 10
101.542568
 20
210.590488
 30
0.0
  0
SPLINE
  5
36e
100
AcDbEntity
  8
Layer_1
 62
7
100
AcDbSpline
 70
8
 71
3
 72
8
 73
4
 74
0
 40
0
 40
0
 40
0
 40
0
 40
1
 40
1
 40
1
 40
1
 10
101.542568
 20
210.590488
 30
0.0
 10
100.727905
 20
210.590488
 30
0.0
 10
100.067477
 20
211.250917
 30
0.0
 10
100.067477
 20
212.065599
 30
0.0
  0
SPLINE
  5
36f
100
AcDbEntity
  8
Layer_1
 62
7
100
AcDbSpline
 70
8
 71
3
 72
8
 73
4
 74
0
 40
0
 40
0
 40
0
 40
0
 40
1
 40
1
 40
1
 40
1
 10
100.067477
 20
212.065599
 30
0.0
 10
100.067477
 20
212.880279
 30
0.0
 10
100.727905
 20
213.540710
 30
0.0
 10
101.542568
 20
213.540710
 30
0.0
  0
SPLINE
  5
370
100
AcDbEntity
  8
Layer_1
 62
7
100
AcDbSpline
 70
8
 71
3
 72
8
 73
4
 74
0
 40
0
 40
0
 40
0
 40
0
 40
1
 40
1
 40
1
 40
1
 10
101.542568
 20
213.540710
 30
0.0
 10
102.357259
 20
213.540710
 30
0.0
 10
103.017687
 20
212.880279
 30
0.0
 10
103.017687
 20
212.065599
 30
0.0
  0
LINE
  5
371
100
AcDbEntity
  8
Layer_1
 62
7
100
AcDbLine
 10
103.017687
 20
212.065599
 30
0.0
 11
103.017687
 21
212.065599
 31
0.0
  0
SPLINE
  5
372
100
AcDbEntity
  8
Layer_1
 62
7
100
AcDbSpline
 70
8
 71
3
 72
8
 73
4
 74
0
 40
0
 40
0
 40
0
 40
0
 40
1
 40
1
 40
1
 40
1
 10
103.017687
 20
171.015592
 30
0.0
 10
103.017687
 20
170.200910
 30
0.0
 10
102.357259
 20
169.540482
 30
0.0
 10
101.542568
 20
169.540482
 30
0.0
  0
SPLINE
  5
373
100
AcDbEntity
  8
Layer_1
 62
7
100
AcDbSpline
 70
8
 71
3
 72
8
 73
4
 74
0
 40
0
 40
0
 40
0
 40
0
 40
1
 40
1
 40
1
 40
1
 10
101.542568
 20
169.540482
 30
0.0
 10
100.727905
 20
169.540482
 30
0.0
 10
100.067477
 20
170.200910
 30
0.0
 10
100.067477
 20
171.015592
 30
0.0
  0
SPLINE
  5
374
100
AcDbEntity
  8
Layer_1
 62
7
100
AcDbSpline
 70
8
 71
3
 72
8
 73
4
 74
0
 40
0
 40
0
 40
0
 40
0
 40
1
 40
1
 40
1
 40
1
 10
100.067477
 20
171.015592
 30
0.0
 10
100.067477
 20
171.830272
 30
0.0
 10
100.727905
 20
172.490703
 30
0.0
 10
101.542568
 20
172.490703
 30
0.0
  0
SPLINE
  5
375
100
AcDbEntity
  8
Layer_1
 62
7
100
AcDbSpline
 70
8
 71
3
 72
8
 73
4
 74
0
 40
0
 40
0
 40
0
 40
0
 40
1
 40
1
 40
1
 40
1
 10
101.542568
 20
172.490703
 30
0.0
 10
102.357259
 20
172.490703
 30
0.0
 10
103.017687
 20
171.830272
 30
0.0
 10
103.017687
 20
171.015592
 30
0.0
  0
LINE
  5
376
100
AcDbEntity
  8
Layer_1
 62
7
100
AcDbLine
 10
103.017687
 20
171.015592
 30
0.0
 11
103.017687
 21
171.015592
 31
0.0
  0
LINE
  5
377
100
AcDbEntity
  8
Layer_1
 62
7
100
AcDbLine
 10
51.292591
 20
176.375280
 30
0.0
 11
37.551905
 21
169.072766
 31
0.0
  0
LINE
  5
378
100
AcDbEntity
  8
Layer_1
 62
7
100
AcDbLine
 10
37.551905
 20
169.072766
 30
0.0
 11
36.987460
 21
167.326544
 31
0.0
  0
SPLINE
  5
379
100
AcDbEntity
  8
Layer_1
 62
7
100
AcDbSpline
 70
8
 71
3
 72
8
 73
4
 74
0
 40
0
 40
0
 40
0
 40
0
 40
1
 40
1
 40
1
 40
1
 10
36.987460
 20
167.326544
 30
0.0
 10
38.494547
 20
165.725356
 30
0.0
 10
40.927618
 20
165.263189
 30
0.0
 10
42.967044
 20
166.347572
 30
0.0
  0
LINE
  5
37a
100
AcDbEntity
  8
Layer_1
 62
7
100
AcDbLine
 10
42.967044
 20
166.347572
 30
0.0
 11
51.292591
 21
170.774933
 31
0.0
  0
LINE
  5
37b
100
AcDbEntity
  8
Layer_1
 62
7
100
AcDbLine
 10
51.292591
 20
170.774933
 30
0.0
 11
51.292591
 21
176.375280
 31
0.0
  0
LINE
  5
37c
100
AcDbEntity
  8
Layer_1
 62
7
100
AcDbLine
 10
51.292591
 20
176.375280
 30
0.0
 11
51.292591
 21
176.375280
 31
0.0
  0
LINE
  5
37d
100
AcDbEntity
  8
Layer_1
 62
7
100
AcDbLine
 10
38.695145
 20
177.921110
 30
0.0
 11
32.900770
 21
174.843124
 31
0.0
  0
SPLINE
  5
37e
100
AcDbEntity
  8
Layer_1
 62
7
100
AcDbSpline
 70
8
 71
3
 72
8
 73
4
 74
0
 40
0
 40
0
 40
0
 40
0
 40
1
 40
1
 40
1
 40
1
 10
32.900770
 20
174.843124
 30
0.0
 10
30.859527
 20
173.757776
 30
0.0
 10
29.890695
 20
171.477432
 30
0.0
 10
30.378408
 20
169.330971
 30
0.0
  0
LINE
  5
37f
100
AcDbEntity
  8
Layer_1
 62
7
100
AcDbLine
 10
30.378408
 20
169.330971
 30
0.0
 11
32.159936
 21
168.784166
 31
0.0
  0
LINE
  5
380
100
AcDbEntity
  8
Layer_1
 62
7
100
AcDbLine
 10
32.159936
 20
168.784166
 30
0.0
 11
47.170622
 21
176.765763
 31
0.0
  0
LINE
  5
381
100
AcDbEntity
  8
Layer_1
 62
7
100
AcDbLine
 10
47.170622
 20
176.765763
 30
0.0
 11
47.523400
 21
177.921110
 31
0.0
  0
LINE
  5
382
100
AcDbEntity
  8
Layer_1
 62
7
100
AcDbLine
 10
47.523400
 20
177.921110
 30
0.0
 11
38.695145
 21
177.921110
 31
0.0
  0
LINE
  5
383
100
AcDbEntity
  8
Layer_1
 62
7
100
AcDbLine
 10
38.695145
 20
177.921110
 30
0.0
 11
38.695145
 21
177.921110
 31
0.0
  0
SPLINE
  5
384
100
AcDbEntity
  8
Layer_1
 62
7
100
AcDbSpline
 70
8
 71
3
 72
8
 73
4
 74
0
 40
0
 40
0
 40
0
 40
0
 40
1
 40
1
 40
1
 40
1
 10
40.017742
 20
175.257008
 30
0.0
 10
40.400213
 20
174.537689
 30
0.0
 10
40.127140
 20
173.644512
 30
0.0
 10
39.407821
 20
173.262042
 30
0.0
  0
SPLINE
  5
385
100
AcDbEntity
  8
Layer_1
 62
7
100
AcDbSpline
 70
8
 71
3
 72
8
 73
4
 74
0
 40
0
 40
0
 40
0
 40
0
 40
1
 40
1
 40
1
 40
1
 10
39.407821
 20
173.262042
 30
0.0
 10
38.688501
 20
172.879574
 30
0.0
 10
37.795321
 20
173.152644
 30
0.0
 10
37.412851
 20
173.871963
 30
0.0
  0
SPLINE
  5
386
100
AcDbEntity
  8
Layer_1
 62
7
100
AcDbSpline
 70
8
 71
3
 72
8
 73
4
 74
0
 40
0
 40
0
 40
0
 40
0
 40
1
 40
1
 40
1
 40
1
 10
37.412851
 20
173.871963
 30
0.0
 10
37.030383
 20
174.591283
 30
0.0
 10
37.303456
 20
175.484463
 30
0.0
 10
38.022776
 20
175.866933
 30
0.0
  0
SPLINE
  5
387
100
AcDbEntity
  8
Layer_1
 62
7
100
AcDbSpline
 70
8
 71
3
 72
8
 73
4
 74
0
 40
0
 40
0
 40
0
 40
0
 40
1
 40
1
 40
1
 40
1
 10
38.022776
 20
175.866933
 30
0.0
 10
38.742095
 20
176.249401
 30
0.0
 10
39.635275
 20
175.976328
 30
0.0
 10
40.017742
 20
175.257008
 30
0.0
  0
LINE
  5
388
100
AcDbEntity
  8
Layer_1
 62
7
100
AcDbLine
 10
40.017742
 20
175.257008
 30
0.0
 11
40.017742
 21
175.257008
 31
0.0
  0
SPLINE
  5
389
100
AcDbEntity
  8
Layer_1
 62
7
100
AcDbSpline
 70
8
 71
3
 72
8
 73
4
 74
0
 40
0
 40
0
 40
0
 40
0
 40
1
 40
1
 40
1
 40
1
 10
47.289579
 20
172.011941
 30
0.0
 10
47.672046
 20
171.292622
 30
0.0
 10
47.398968
 20
170.399445
 30
0.0
 10
46.679640
 20
170.016974
 30
0.0
  0
SPLINE
  5
38a
100
AcDbEntity
  8
Layer_1
 62
7
100
AcDbSpline
 70
8
 71
3
 72
8
 73
4
 74
0
 40
0
 40
0
 40
0
 40
0
 40
1
 40
1
 40
1
 40
1
 10
46.679640
 20
170.016974
 30
0.0
 10
45.960340
 20
169.634507
 30
0.0
 10
45.067164
 20
169.907577
 30
0.0
 10
44.684696
 20
170.626896
 30
0.0
  0
SPLINE
  5
38b
100
AcDbEntity
  8
Layer_1
 62
7
100
AcDbSpline
 70
8
 71
3
 72
8
 73
4
 74
0
 40
0
 40
0
 40
0
 40
0
 40
1
 40
1
 40
1
 40
1
 10
44.684696
 20
170.626896
 30
0.0
 10
44.302228
 20
171.346216
 30
0.0
 10
44.575278
 20
172.239395
 30
0.0
 10
45.294606
 20
172.621866
 30
0.0
  0
SPLINE
  5
38c
100
AcDbEntity
  8
Layer_1
 62
7
100
AcDbSpline
 70
8
 71
3
 72
8
 73
4
 74
0
 40
0
 40
0
 40
0
 40
0
 40
1
 40
1
 40
1
 40
1
 10
45.294606
 20
172.621866
 30
0.0
 10
46.013934
 20
173.004333
 30
0.0
 10
46.907111
 20
172.731261
 30
0.0
 10
47.289579
 20
172.011941
 30
0.0
  0
LINE
  5
38d
100
AcDbEntity
  8
Layer_1
 62
7
100
AcDbLine
 10
47.289579
 20
172.011941
 30
0.0
 11
47.289579
 21
172.011941
 31
0.0
  0
LINE
  5
38e
100
AcDbEntity
  8
Layer_1
 62
7
100
AcDbLine
 10
452.294470
 20
357.229085
 30
0.0
 11
445.753010
 21
357.231061
 31
0.0
  0
SPLINE
  5
38f
100
AcDbEntity
  8
Layer_1
 62
7
100
AcDbSpline
 70
8
 71
3
 72
8
 73
4
 74
0
 40
0
 40
0
 40
0
 40
0
 40
1
 40
1
 40
1
 40
1
 10
445.753010
 20
357.231061
 30
0.0
 10
442.982999
 20
357.231064
 30
0.0
 10
440.755080
 20
354.997216
 30
0.0
 10
440.755080
 20
352.227221
 30
0.0
  0
LINE
  5
390
100
AcDbEntity
  8
Layer_1
 62
7
100
AcDbLine
 10
440.755080
 20
352.227221
 30
0.0
 11
440.752258
 21
350.230911
 31
0.0
  0
LINE
  5
391
100
AcDbEntity
  8
Layer_1
 62
7
100
AcDbLine
 10
440.752258
 20
350.230911
 30
0.0
 11
460.755323
 21
350.223009
 31
0.0
  0
LINE
  5
392
100
AcDbEntity
  8
Layer_1
 62
7
100
AcDbLine
 10
460.755323
 20
350.223009
 30
0.0
 11
460.755323
 21
352.231257
 31
0.0
  0
SPLINE
  5
393
100
AcDbEntity
  8
Layer_1
 62
7
100
AcDbSpline
 70
8
 71
3
 72
8
 73
4
 74
0
 40
0
 40
0
 40
0
 40
0
 40
1
 40
1
 40
1
 40
1
 10
460.755323
 20
352.231257
 30
0.0
 10
460.755323
 20
352.404384
 30
0.0
 10
460.745727
 20
352.576333
 30
0.0
 10
460.728794
 20
352.744826
 30
0.0
  0
LINE
  5
394
100
AcDbEntity
  8
Layer_1
 62
7
100
AcDbLine
 10
460.728794
 20
352.744826
 30
0.0
 11
452.295373
 21
357.228958
 31
0.0
  0
LINE
  5
395
100
AcDbEntity
  8
Layer_1
 62
7
100
AcDbLine
 10
452.295373
 20
357.228958
 30
0.0
 11
452.294470
 21
357.229085
 31
0.0
  0
LINE
  5
396
100
AcDbEntity
  8
Layer_1
 62
7
100
AcDbLine
 10
458.590057
 20
331.060295
 30
0.0
 11
440.441136
 21
331.061142
 31
0.0
  0
LINE
  5
397
100
AcDbEntity
  8
Layer_1
 62
7
100
AcDbLine
 10
440.441136
 20
331.061142
 30
0.0
 11
440.446216
 21
329.060683
 31
0.0
  0
SPLINE
  5
398
100
AcDbEntity
  8
Layer_1
 62
7
100
AcDbSpline
 70
8
 71
3
 72
8
 73
4
 74
0
 40
0
 40
0
 40
0
 40
0
 40
1
 40
1
 40
1
 40
1
 10
440.446216
 20
329.060683
 30
0.0
 10
440.446188
 20
326.290689
 30
0.0
 10
442.680034
 20
324.062773
 30
0.0
 10
445.450045
 20
324.062786
 30
0.0
  0
LINE
  5
399
100
AcDbEntity
  8
Layer_1
 62
7
100
AcDbLine
 10
445.450045
 20
324.062786
 30
0.0
 11
454.867659
 21
324.059636
 31
0.0
  0
LINE
  5
39a
100
AcDbEntity
  8
Layer_1
 62
7
100
AcDbLine
 10
454.867659
 20
324.059636
 30
0.0
 11
458.589973
 21
331.060244
 31
0.0
  0
LINE
  5
39b
100
AcDbEntity
  8
Layer_1
 62
7
100
AcDbLine
 10
458.589973
 20
331.060244
 30
0.0
 11
458.590057
 21
331.060295
 31
0.0
  0
SPLINE
  5
39c
100
AcDbEntity
  8
Layer_1
 62
7
100
AcDbSpline
 70
8
 71
3
 72
8
 73
4
 74
0
 40
0
 40
0
 40
0
 40
0
 40
1
 40
1
 40
1
 40
1
 10
445.967668
 20
344.585143
 30
0.0
 10
443.197657
 20
344.585146
 30
0.0
 10
440.967001
 20
342.354529
 30
0.0
 10
440.967029
 20
339.584524
 30
0.0
  0
LINE
  5
39d
100
AcDbEntity
  8
Layer_1
 62
7
100
AcDbLine
 10
440.967029
 20
339.584524
 30
0.0
 11
440.967029
 21
335.060149
 31
0.0
  0
LINE
  5
39e
100
AcDbEntity
  8
Layer_1
 62
7
100
AcDbLine
 10
440.967029
 20
335.060149
 30
0.0
 11
450.492029
 21
335.060149
 31
0.0
  0
LINE
  5
39f
100
AcDbEntity
  8
Layer_1
 62
7
100
AcDbLine
 10
450.492029
 20
335.060149
 30
0.0
 11
450.492029
 21
339.055360
 31
0.0
  0
LINE
  5
3a0
100
AcDbEntity
  8
Layer_1
 62
7
100
AcDbLine
 10
450.492029
 20
339.055360
 30
0.0
 11
455.968890
 21
339.055363
 31
0.0
  0
LINE
  5
3a1
100
AcDbEntity
  8
Layer_1
 62
7
100
AcDbLine
 10
455.968890
 20
339.055363
 30
0.0
 11
455.968918
 21
339.584521
 31
0.0
  0
SPLINE
  5
3a2
100
AcDbEntity
  8
Layer_1
 62
7
100
AcDbSpline
 70
8
 71
3
 72
8
 73
4
 74
0
 40
0
 40
0
 40
0
 40
0
 40
1
 40
1
 40
1
 40
1
 10
455.968918
 20
339.584521
 30
0.0
 10
455.968890
 20
342.354529
 30
0.0
 10
453.738290
 20
344.585149
 30
0.0
 10
450.968279
 20
344.585149
 30
0.0
  0
LINE
  5
3a3
100
AcDbEntity
  8
Layer_1
 62
7
100
AcDbLine
 10
450.968279
 20
344.585149
 30
0.0
 11
445.967668
 21
344.585143
 31
0.0
  0
LINE
  5
3a4
100
AcDbEntity
  8
Layer_1
 62
7
100
AcDbLine
 10
445.967668
 20
344.585143
 30
0.0
 11
445.967668
 21
344.585143
 31
0.0
  0
LINE
  5
3a5
100
AcDbEntity
  8
Layer_1
 62
7
100
AcDbLine
 10
443.661744
 20
318.940768
 30
0.0
 11
443.661744
 21
314.416406
 31
0.0
  0
SPLINE
  5
3a6
100
AcDbEntity
  8
Layer_1
 62
7
100
AcDbSpline
 70
8
 71
3
 72
8
 73
4
 74
0
 40
0
 40
0
 40
0
 40
0
 40
1
 40
1
 40
1
 40
1
 10
443.661744
 20
314.416406
 30
0.0
 10
443.661715
 20
311.646404
 30
0.0
 10
445.892372
 20
309.415767
 30
0.0
 10
448.662354
 20
309.415766
 30
0.0
  0
LINE
  5
3a7
100
AcDbEntity
  8
Layer_1
 62
7
100
AcDbLine
 10
448.662354
 20
309.415766
 30
0.0
 11
453.662994
 21
309.415770
 31
0.0
  0
SPLINE
  5
3a8
100
AcDbEntity
  8
Layer_1
 62
7
100
AcDbSpline
 70
8
 71
3
 72
8
 73
4
 74
0
 40
0
 40
0
 40
0
 40
0
 40
1
 40
1
 40
1
 40
1
 10
453.662994
 20
309.415770
 30
0.0
 10
456.432976
 20
309.415770
 30
0.0
 10
458.663604
 20
311.646400
 30
0.0
 10
458.663633
 20
314.416402
 30
0.0
  0
LINE
  5
3a9
100
AcDbEntity
  8
Layer_1
 62
7
100
AcDbLine
 10
458.663633
 20
314.416402
 30
0.0
 11
458.663633
 21
314.936762
 31
0.0
  0
LINE
  5
3aa
100
AcDbEntity
  8
Layer_1
 62
7
100
AcDbLine
 10
458.663633
 20
314.936762
 30
0.0
 11
453.186744
 21
314.936763
 31
0.0
  0
LINE
  5
3ab
100
AcDbEntity
  8
Layer_1
 62
7
100
AcDbLine
 10
453.186744
 20
314.936763
 30
0.0
 11
453.186744
 21
318.940765
 31
0.0
  0
LINE
  5
3ac
100
AcDbEntity
  8
Layer_1
 62
7
100
AcDbLine
 10
453.186744
 20
318.940765
 30
0.0
 11
443.661744
 21
318.940768
 31
0.0
  0
LINE
  5
3ad
100
AcDbEntity
  8
Layer_1
 62
7
100
AcDbLine
 10
443.661744
 20
318.940768
 30
0.0
 11
443.661744
 21
318.940768
 31
0.0
  0
SPLINE
  5
3ae
100
AcDbEntity
  8
Layer_1
 62
7
100
AcDbSpline
 70
8
 71
3
 72
8
 73
4
 74
0
 40
0
 40
0
 40
0
 40
0
 40
1
 40
1
 40
1
 40
1
 10
452.225466
 20
354.254342
 30
0.0
 10
452.225466
 20
353.439662
 30
0.0
 10
451.565066
 20
352.779223
 30
0.0
 10
450.750376
 20
352.779226
 30
0.0
  0
SPLINE
  5
3af
100
AcDbEntity
  8
Layer_1
 62
7
100
AcDbSpline
 70
8
 71
3
 72
8
 73
4
 74
0
 40
0
 40
0
 40
0
 40
0
 40
1
 40
1
 40
1
 40
1
 10
450.750376
 20
352.779226
 30
0.0
 10
449.935685
 20
352.779231
 30
0.0
 10
449.275256
 20
353.439657
 30
0.0
 10
449.275256
 20
354.254339
 30
0.0
  0
SPLINE
  5
3b0
100
AcDbEntity
  8
Layer_1
 62
7
100
AcDbSpline
 70
8
 71
3
 72
8
 73
4
 74
0
 40
0
 40
0
 40
0
 40
0
 40
1
 40
1
 40
1
 40
1
 10
449.275256
 20
354.254339
 30
0.0
 10
449.275256
 20
355.069019
 30
0.0
 10
449.935713
 20
355.729444
 30
0.0
 10
450.750376
 20
355.729455
 30
0.0
  0
SPLINE
  5
3b1
100
AcDbEntity
  8
Layer_1
 62
7
100
AcDbSpline
 70
8
 71
3
 72
8
 73
4
 74
0
 40
0
 40
0
 40
0
 40
0
 40
1
 40
1
 40
1
 40
1
 10
450.750376
 20
355.729455
 30
0.0
 10
451.565038
 20
355.729450
 30
0.0
 10
452.225495
 20
355.069021
 30
0.0
 10
452.225466
 20
354.254342
 30
0.0
  0
LINE
  5
3b2
100
AcDbEntity
  8
Layer_1
 62
7
100
AcDbLine
 10
452.225466
 20
354.254342
 30
0.0
 11
452.225466
 21
354.254342
 31
0.0
  0
SPLINE
  5
3b3
100
AcDbEntity
  8
Layer_1
 62
7
100
AcDbSpline
 70
8
 71
3
 72
8
 73
4
 74
0
 40
0
 40
0
 40
0
 40
0
 40
1
 40
1
 40
1
 40
1
 10
451.920215
 20
327.033777
 30
0.0
 10
451.920215
 20
326.219098
 30
0.0
 10
451.259787
 20
325.558672
 30
0.0
 10
450.445096
 20
325.558675
 30
0.0
  0
SPLINE
  5
3b4
100
AcDbEntity
  8
Layer_1
 62
7
100
AcDbSpline
 70
8
 71
3
 72
8
 73
4
 74
0
 40
0
 40
0
 40
0
 40
0
 40
1
 40
1
 40
1
 40
1
 10
450.445096
 20
325.558675
 30
0.0
 10
449.630433
 20
325.558666
 30
0.0
 10
448.970005
 20
326.219095
 30
0.0
 10
448.969977
 20
327.033791
 30
0.0
  0
SPLINE
  5
3b5
100
AcDbEntity
  8
Layer_1
 62
7
100
AcDbSpline
 70
8
 71
3
 72
8
 73
4
 74
0
 40
0
 40
0
 40
0
 40
0
 40
1
 40
1
 40
1
 40
1
 10
448.969977
 20
327.033791
 30
0.0
 10
448.969977
 20
327.848465
 30
0.0
 10
449.630405
 20
328.508896
 30
0.0
 10
450.445096
 20
328.508893
 30
0.0
  0
SPLINE
  5
3b6
100
AcDbEntity
  8
Layer_1
 62
7
100
AcDbSpline
 70
8
 71
3
 72
8
 73
4
 74
0
 40
0
 40
0
 40
0
 40
0
 40
1
 40
1
 40
1
 40
1
 10
450.445096
 20
328.508893
 30
0.0
 10
451.259787
 20
328.508888
 30
0.0
 10
451.920215
 20
327.848457
 30
0.0
 10
451.920215
 20
327.033777
 30
0.0
  0
LINE
  5
3b7
100
AcDbEntity
  8
Layer_1
 62
7
100
AcDbLine
 10
451.920215
 20
327.033777
 30
0.0
 11
451.920215
 21
327.033777
 31
0.0
  0
SPLINE
  5
3b8
100
AcDbEntity
  8
Layer_1
 62
7
100
AcDbSpline
 70
8
 71
3
 72
8
 73
4
 74
0
 40
0
 40
0
 40
0
 40
0
 40
1
 40
1
 40
1
 40
1
 10
447.067601
 20
341.610256
 30
0.0
 10
447.067601
 20
340.795576
 30
0.0
 10
446.407173
 20
340.135151
 30
0.0
 10
445.592482
 20
340.135154
 30
0.0
  0
SPLINE
  5
3b9
100
AcDbEntity
  8
Layer_1
 62
7
100
AcDbSpline
 70
8
 71
3
 72
8
 73
4
 74
0
 40
0
 40
0
 40
0
 40
0
 40
1
 40
1
 40
1
 40
1
 10
445.592482
 20
340.135154
 30
0.0
 10
444.777820
 20
340.135145
 30
0.0
 10
444.117391
 20
340.795573
 30
0.0
 10
444.117363
 20
341.610267
 30
0.0
  0
SPLINE
  5
3ba
100
AcDbEntity
  8
Layer_1
 62
7
100
AcDbSpline
 70
8
 71
3
 72
8
 73
4
 74
0
 40
0
 40
0
 40
0
 40
0
 40
1
 40
1
 40
1
 40
1
 10
444.117363
 20
341.610267
 30
0.0
 10
444.117363
 20
342.424944
 30
0.0
 10
444.777791
 20
343.085372
 30
0.0
 10
445.592482
 20
343.085369
 30
0.0
  0
SPLINE
  5
3bb
100
AcDbEntity
  8
Layer_1
 62
7
100
AcDbSpline
 70
8
 71
3
 72
8
 73
4
 74
0
 40
0
 40
0
 40
0
 40
0
 40
1
 40
1
 40
1
 40
1
 10
445.592482
 20
343.085369
 30
0.0
 10
446.407173
 20
343.085364
 30
0.0
 10
447.067601
 20
342.424935
 30
0.0
 10
447.067601
 20
341.610256
 30
0.0
  0
LINE
  5
3bc
100
AcDbEntity
  8
Layer_1
 62
7
100
AcDbLine
 10
447.067601
 20
341.610256
 30
0.0
 11
447.067601
 21
341.610256
 31
0.0
  0
SPLINE
  5
3bd
100
AcDbEntity
  8
Layer_1
 62
7
100
AcDbSpline
 70
8
 71
3
 72
8
 73
4
 74
0
 40
0
 40
0
 40
0
 40
0
 40
1
 40
1
 40
1
 40
1
 10
449.762287
 20
312.389711
 30
0.0
 10
449.762287
 20
311.575032
 30
0.0
 10
449.101859
 20
310.914606
 30
0.0
 10
448.287196
 20
310.914595
 30
0.0
  0
SPLINE
  5
3be
100
AcDbEntity
  8
Layer_1
 62
7
100
AcDbSpline
 70
8
 71
3
 72
8
 73
4
 74
0
 40
0
 40
0
 40
0
 40
0
 40
1
 40
1
 40
1
 40
1
 10
448.287196
 20
310.914595
 30
0.0
 10
447.472506
 20
310.914600
 30
0.0
 10
446.812077
 20
311.575028
 30
0.0
 10
446.812077
 20
312.389709
 30
0.0
  0
SPLINE
  5
3bf
100
AcDbEntity
  8
Layer_1
 62
7
100
AcDbSpline
 70
8
 71
3
 72
8
 73
4
 74
0
 40
0
 40
0
 40
0
 40
0
 40
1
 40
1
 40
1
 40
1
 10
446.812077
 20
312.389709
 30
0.0
 10
446.812077
 20
313.204386
 30
0.0
 10
447.472534
 20
313.864815
 30
0.0
 10
448.287196
 20
313.864825
 30
0.0
  0
SPLINE
  5
3c0
100
AcDbEntity
  8
Layer_1
 62
7
100
AcDbSpline
 70
8
 71
3
 72
8
 73
4
 74
0
 40
0
 40
0
 40
0
 40
0
 40
1
 40
1
 40
1
 40
1
 10
448.287196
 20
313.864825
 30
0.0
 10
449.101859
 20
313.864820
 30
0.0
 10
449.762316
 20
313.204390
 30
0.0
 10
449.762287
 20
312.389711
 30
0.0
  0
LINE
  5
3c1
100
AcDbEntity
  8
Layer_1
 62
7
100
AcDbLine
 10
449.762287
 20
312.389711
 30
0.0
 11
449.762287
 21
312.389711
 31
0.0
  0
LINE
  5
3c2
100
AcDbEntity
  8
Layer_1
 62
7
100
AcDbLine
 10
123.399259
 20
212.037445
 30
0.0
 11
117.622523
 21
208.968278
 31
0.0
  0
SPLINE
  5
3c3
100
AcDbEntity
  8
Layer_1
 62
7
100
AcDbSpline
 70
8
 71
3
 72
8
 73
4
 74
0
 40
0
 40
0
 40
0
 40
0
 40
1
 40
1
 40
1
 40
1
 10
117.622523
 20
208.968278
 30
0.0
 10
115.176757
 20
207.667843
 30
0.0
 10
114.258338
 20
204.649530
 30
0.0
 10
115.558773
 20
202.203764
 30
0.0
  0
LINE
  5
3c4
100
AcDbEntity
  8
Layer_1
 62
7
100
AcDbLine
 10
115.558773
 20
202.203764
 30
0.0
 11
132.933079
 21
169.536528
 31
0.0
  0
SPLINE
  5
3c5
100
AcDbEntity
  8
Layer_1
 62
7
100
AcDbSpline
 70
8
 71
3
 72
8
 73
4
 74
0
 40
0
 40
0
 40
0
 40
0
 40
1
 40
1
 40
1
 40
1
 10
132.933079
 20
169.536528
 30
0.0
 10
134.233514
 20
167.090790
 30
0.0
 10
137.243007
 20
166.163549
 30
0.0
 10
139.688773
 20
167.463972
 30
0.0
  0
LINE
  5
3c6
100
AcDbEntity
  8
Layer_1
 62
7
100
AcDbLine
 10
139.688773
 20
167.463972
 30
0.0
 11
148.014329
 21
171.900139
 31
0.0
  0
LINE
  5
3c7
100
AcDbEntity
  8
Layer_1
 62
7
100
AcDbLine
 10
148.014329
 20
171.900139
 30
0.0
 11
148.014329
 21
183.762306
 31
0.0
  0
LINE
  5
3c8
100
AcDbEntity
  8
Layer_1
 62
7
100
AcDbLine
 10
148.014329
 20
183.762306
 30
0.0
 11
133.215301
 21
211.596472
 31
0.0
  0
SPLINE
  5
3c9
100
AcDbEntity
  8
Layer_1
 62
7
100
AcDbSpline
 70
8
 71
3
 72
8
 73
4
 74
0
 40
0
 40
0
 40
0
 40
0
 40
1
 40
1
 40
1
 40
1
 10
133.215301
 20
211.596472
 30
0.0
 10
133.134024
 20
211.749332
 30
0.0
 10
133.044839
 20
211.896658
 30
0.0
 10
132.950718
 20
212.037445
 30
0.0
  0
LINE
  5
3ca
100
AcDbEntity
  8
Layer_1
 62
7
100
AcDbLine
 10
132.950718
 20
212.037445
 30
0.0
 11
123.399259
 21
212.037445
 31
0.0
  0
LINE
  5
3cb
100
AcDbEntity
  8
Layer_1
 62
7
100
AcDbLine
 10
123.399259
 20
212.037445
 30
0.0
 11
123.399259
 21
212.037445
 31
0.0
  0
SPLINE
  5
3cc
100
AcDbEntity
  8
Layer_1
 62
7
100
AcDbSpline
 70
8
 71
3
 72
8
 73
4
 74
0
 40
0
 40
0
 40
0
 40
0
 40
1
 40
1
 40
1
 40
1
 10
124.739859
 20
209.378515
 30
0.0
 10
125.122329
 20
208.659193
 30
0.0
 10
124.849255
 20
207.766016
 30
0.0
 10
124.129936
 20
207.383547
 30
0.0
  0
SPLINE
  5
3cd
100
AcDbEntity
  8
Layer_1
 62
7
100
AcDbSpline
 70
8
 71
3
 72
8
 73
4
 74
0
 40
0
 40
0
 40
0
 40
0
 40
1
 40
1
 40
1
 40
1
 10
124.129936
 20
207.383547
 30
0.0
 10
123.410616
 20
207.001078
 30
0.0
 10
122.517438
 20
207.274148
 30
0.0
 10
122.134968
 20
207.993470
 30
0.0
  0
SPLINE
  5
3ce
100
AcDbEntity
  8
Layer_1
 62
7
100
AcDbSpline
 70
8
 71
3
 72
8
 73
4
 74
0
 40
0
 40
0
 40
0
 40
0
 40
1
 40
1
 40
1
 40
1
 10
122.134968
 20
207.993470
 30
0.0
 10
121.752499
 20
208.712790
 30
0.0
 10
122.025572
 20
209.605969
 30
0.0
 10
122.744891
 20
209.988438
 30
0.0
  0
SPLINE
  5
3cf
100
AcDbEntity
  8
Layer_1
 62
7
100
AcDbSpline
 70
8
 71
3
 72
8
 73
4
 74
0
 40
0
 40
0
 40
0
 40
0
 40
1
 40
1
 40
1
 40
1
 10
122.744891
 20
209.988438
 30
0.0
 10
123.464210
 20
210.370907
 30
0.0
 10
124.357390
 20
210.097834
 30
0.0
 10
124.739859
 20
209.378515
 30
0.0
  0
LINE
  5
3d0
100
AcDbEntity
  8
Layer_1
 62
7
100
AcDbLine
 10
124.739859
 20
209.378515
 30
0.0
 11
124.739859
 21
209.378515
 31
0.0
  0
SPLINE
  5
3d1
100
AcDbEntity
  8
Layer_1
 62
7
100
AcDbSpline
 70
8
 71
3
 72
8
 73
4
 74
0
 40
0
 40
0
 40
0
 40
0
 40
1
 40
1
 40
1
 40
1
 10
144.011668
 20
173.133514
 30
0.0
 10
144.394139
 20
172.414192
 30
0.0
 10
144.121065
 20
171.521015
 30
0.0
 10
143.401745
 20
171.138546
 30
0.0
  0
SPLINE
  5
3d2
100
AcDbEntity
  8
Layer_1
 62
7
100
AcDbSpline
 70
8
 71
3
 72
8
 73
4
 74
0
 40
0
 40
0
 40
0
 40
0
 40
1
 40
1
 40
1
 40
1
 10
143.401745
 20
171.138546
 30
0.0
 10
142.682426
 20
170.756077
 30
0.0
 10
141.789248
 20
171.029147
 30
0.0
 10
141.406778
 20
171.748469
 30
0.0
  0
SPLINE
  5
3d3
100
AcDbEntity
  8
Layer_1
 62
7
100
AcDbSpline
 70
8
 71
3
 72
8
 73
4
 74
0
 40
0
 40
0
 40
0
 40
0
 40
1
 40
1
 40
1
 40
1
 10
141.406778
 20
171.748469
 30
0.0
 10
141.024309
 20
172.467788
 30
0.0
 10
141.297381
 20
173.360968
 30
0.0
 10
142.016700
 20
173.743437
 30
0.0
  0
SPLINE
  5
3d4
100
AcDbEntity
  8
Layer_1
 62
7
100
AcDbSpline
 70
8
 71
3
 72
8
 73
4
 74
0
 40
0
 40
0
 40
0
 40
0
 40
1
 40
1
 40
1
 40
1
 10
142.016700
 20
173.743437
 30
0.0
 10
142.736020
 20
174.125906
 30
0.0
 10
143.629199
 20
173.852833
 30
0.0
 10
144.011668
 20
173.133514
 30
0.0
  0
LINE
  5
3d5
100
AcDbEntity
  8
Layer_1
 62
7
100
AcDbLine
 10
144.011668
 20
173.133514
 30
0.0
 11
144.011668
 21
173.133514
 31
0.0
  0
LINE
  5
3d6
100
AcDbEntity
  8
Layer_1
 62
7
100
AcDbLine
 10
153.399199
 20
212.037445
 30
0.0
 11
147.622463
 21
208.968278
 31
0.0
  0
SPLINE
  5
3d7
100
AcDbEntity
  8
Layer_1
 62
7
100
AcDbSpline
 70
8
 71
3
 72
8
 73
4
 74
0
 40
0
 40
0
 40
0
 40
0
 40
1
 40
1
 40
1
 40
1
 10
147.622463
 20
208.968278
 30
0.0
 10
145.176697
 20
207.667843
 30
0.0
 10
144.258278
 20
204.649530
 30
0.0
 10
145.558713
 20
202.203764
 30
0.0
  0
LINE
  5
3d8
100
AcDbEntity
  8
Layer_1
 62
7
100
AcDbLine
 10
145.558713
 20
202.203764
 30
0.0
 11
162.933019
 21
169.536528
 31
0.0
  0
SPLINE
  5
3d9
100
AcDbEntity
  8
Layer_1
 62
7
100
AcDbSpline
 70
8
 71
3
 72
8
 73
4
 74
0
 40
0
 40
0
 40
0
 40
0
 40
1
 40
1
 40
1
 40
1
 10
162.933019
 20
169.536528
 30
0.0
 10
164.233454
 20
167.090790
 30
0.0
 10
167.242947
 20
166.163549
 30
0.0
 10
169.688713
 20
167.463972
 30
0.0
  0
LINE
  5
3da
100
AcDbEntity
  8
Layer_1
 62
7
100
AcDbLine
 10
169.688713
 20
167.463972
 30
0.0
 11
178.014269
 21
171.900139
 31
0.0
  0
LINE
  5
3db
100
AcDbEntity
  8
Layer_1
 62
7
100
AcDbLine
 10
178.014269
 20
171.900139
 30
0.0
 11
178.014269
 21
183.762306
 31
0.0
  0
LINE
  5
3dc
100
AcDbEntity
  8
Layer_1
 62
7
100
AcDbLine
 10
178.014269
 20
183.762306
 30
0.0
 11
163.215241
 21
211.596472
 31
0.0
  0
SPLINE
  5
3dd
100
AcDbEntity
  8
Layer_1
 62
7
100
AcDbSpline
 70
8
 71
3
 72
8
 73
4
 74
0
 40
0
 40
0
 40
0
 40
0
 40
1
 40
1
 40
1
 40
1
 10
163.215241
 20
211.596472
 30
0.0
 10
163.133964
 20
211.749332
 30
0.0
 10
163.044779
 20
211.896658
 30
0.0
 10
162.950658
 20
212.037445
 30
0.0
  0
LINE
  5
3de
100
AcDbEntity
  8
Layer_1
 62
7
100
AcDbLine
 10
162.950658
 20
212.037445
 30
0.0
 11
153.399199
 21
212.037445
 31
0.0
  0
LINE
  5
3df
100
AcDbEntity
  8
Layer_1
 62
7
100
AcDbLine
 10
153.399199
 20
212.037445
 30
0.0
 11
153.399199
 21
212.037445
 31
0.0
  0
SPLINE
  5
3e0
100
AcDbEntity
  8
Layer_1
 62
7
100
AcDbSpline
 70
8
 71
3
 72
8
 73
4
 74
0
 40
0
 40
0
 40
0
 40
0
 40
1
 40
1
 40
1
 40
1
 10
154.739799
 20
209.378515
 30
0.0
 10
155.122269
 20
208.659193
 30
0.0
 10
154.849195
 20
207.766016
 30
0.0
 10
154.129876
 20
207.383547
 30
0.0
  0
SPLINE
  5
3e1
100
AcDbEntity
  8
Layer_1
 62
7
100
AcDbSpline
 70
8
 71
3
 72
8
 73
4
 74
0
 40
0
 40
0
 40
0
 40
0
 40
1
 40
1
 40
1
 40
1
 10
154.129876
 20
207.383547
 30
0.0
 10
153.410556
 20
207.001078
 30
0.0
 10
152.517378
 20
207.274148
 30
0.0
 10
152.134908
 20
207.993470
 30
0.0
  0
SPLINE
  5
3e2
100
AcDbEntity
  8
Layer_1
 62
7
100
AcDbSpline
 70
8
 71
3
 72
8
 73
4
 74
0
 40
0
 40
0
 40
0
 40
0
 40
1
 40
1
 40
1
 40
1
 10
152.134908
 20
207.993470
 30
0.0
 10
151.752439
 20
208.712790
 30
0.0
 10
152.025512
 20
209.605969
 30
0.0
 10
152.744831
 20
209.988438
 30
0.0
  0
SPLINE
  5
3e3
100
AcDbEntity
  8
Layer_1
 62
7
100
AcDbSpline
 70
8
 71
3
 72
8
 73
4
 74
0
 40
0
 40
0
 40
0
 40
0
 40
1
 40
1
 40
1
 40
1
 10
152.744831
 20
209.988438
 30
0.0
 10
153.464150
 20
210.370907
 30
0.0
 10
154.357330
 20
210.097834
 30
0.0
 10
154.739799
 20
209.378515
 30
0.0
  0
LINE
  5
3e4
100
AcDbEntity
  8
Layer_1
 62
7
100
AcDbLine
 10
154.739799
 20
209.378515
 30
0.0
 11
154.739799
 21
209.378515
 31
0.0
  0
SPLINE
  5
3e5
100
AcDbEntity
  8
Layer_1
 62
7
100
AcDbSpline
 70
8
 71
3
 72
8
 73
4
 74
0
 40
0
 40
0
 40
0
 40
0
 40
1
 40
1
 40
1
 40
1
 10
174.011608
 20
173.133514
 30
0.0
 10
174.394079
 20
172.414192
 30
0.0
 10
174.121005
 20
171.521015
 30
0.0
 10
173.401685
 20
171.138546
 30
0.0
  0
SPLINE
  5
3e6
100
AcDbEntity
  8
Layer_1
 62
7
100
AcDbSpline
 70
8
 71
3
 72
8
 73
4
 74
0
 40
0
 40
0
 40
0
 40
0
 40
1
 40
1
 40
1
 40
1
 10
173.401685
 20
171.138546
 30
0.0
 10
172.682366
 20
170.756077
 30
0.0
 10
171.789188
 20
171.029147
 30
0.0
 10
171.406718
 20
171.748469
 30
0.0
  0
SPLINE
  5
3e7
100
AcDbEntity
  8
Layer_1
 62
7
100
AcDbSpline
 70
8
 71
3
 72
8
 73
4
 74
0
 40
0
 40
0
 40
0
 40
0
 40
1
 40
1
 40
1
 40
1
 10
171.406718
 20
171.748469
 30
0.0
 10
171.024249
 20
172.467788
 30
0.0
 10
171.297321
 20
173.360968
 30
0.0
 10
172.016640
 20
173.743437
 30
0.0
  0
SPLINE
  5
3e8
100
AcDbEntity
  8
Layer_1
 62
7
100
AcDbSpline
 70
8
 71
3
 72
8
 73
4
 74
0
 40
0
 40
0
 40
0
 40
0
 40
1
 40
1
 40
1
 40
1
 10
172.016640
 20
173.743437
 30
0.0
 10
172.735960
 20
174.125906
 30
0.0
 10
173.629139
 20
173.852833
 30
0.0
 10
174.011608
 20
173.133514
 30
0.0
  0
LINE
  5
3e9
100
AcDbEntity
  8
Layer_1
 62
7
100
AcDbLine
 10
174.011608
 20
173.133514
 30
0.0
 11
174.011608
 21
173.133514
 31
0.0
  0
SPLINE
  5
3ea
100
AcDbEntity
  8
Layer_1
 62
3
100
AcDbSpline
 70
8
 71
3
 72
8
 73
4
 74
0
 40
0
 40
0
 40
0
 40
0
 40
1
 40
1
 40
1
 40
1
 10
368.477518
 20
339.129407
 30
0.0
 10
369.306038
 20
337.571179
 30
0.0
 10
368.714500
 20
335.636339
 30
0.0
 10
367.156266
 20
334.807820
 30
0.0
  0
SPLINE
  5
3eb
100
AcDbEntity
  8
Layer_1
 62
3
100
AcDbSpline
 70
8
 71
3
 72
8
 73
4
 74
0
 40
0
 40
0
 40
0
 40
0
 40
1
 40
1
 40
1
 40
1
 10
367.156266
 20
334.807820
 30
0.0
 10
365.598033
 20
333.979297
 30
0.0
 10
363.663202
 20
334.570835
 30
0.0
 10
362.834682
 20
336.129060
 30
0.0
  0
SPLINE
  5
3ec
100
AcDbEntity
  8
Layer_1
 62
3
100
AcDbSpline
 70
8
 71
3
 72
8
 73
4
 74
0
 40
0
 40
0
 40
0
 40
0
 40
1
 40
1
 40
1
 40
1
 10
362.834682
 20
336.129060
 30
0.0
 10
362.006162
 20
337.687282
 30
0.0
 10
362.597700
 20
339.622127
 30
0.0
 10
364.155934
 20
340.450650
 30
0.0
  0
SPLINE
  5
3ed
100
AcDbEntity
  8
Layer_1
 62
3
100
AcDbSpline
 70
8
 71
3
 72
8
 73
4
 74
0
 40
0
 40
0
 40
0
 40
0
 40
1
 40
1
 40
1
 40
1
 10
364.155934
 20
340.450650
 30
0.0
 10
365.714139
 20
341.279170
 30
0.0
 10
367.648998
 20
340.687629
 30
0.0
 10
368.477518
 20
339.129407
 30
0.0
  0
LINE
  5
3ee
100
AcDbEntity
  8
Layer_1
 62
3
100
AcDbLine
 10
368.477518
 20
339.129407
 30
0.0
 11
368.477518
 21
339.129407
 31
0.0
  0
SPLINE
  5
3ef
100
AcDbEntity
  8
Layer_1
 62
3
100
AcDbSpline
 70
8
 71
3
 72
8
 73
4
 74
0
 40
0
 40
0
 40
0
 40
0
 40
1
 40
1
 40
1
 40
1
 10
413.507738
 20
363.072409
 30
0.0
 10
414.336258
 20
361.514181
 30
0.0
 10
413.744720
 20
359.579342
 30
0.0
 10
412.186515
 20
358.750822
 30
0.0
  0
SPLINE
  5
3f0
100
AcDbEntity
  8
Layer_1
 62
3
100
AcDbSpline
 70
8
 71
3
 72
8
 73
4
 74
0
 40
0
 40
0
 40
0
 40
0
 40
1
 40
1
 40
1
 40
1
 10
412.186515
 20
358.750822
 30
0.0
 10
410.628282
 20
357.922299
 30
0.0
 10
408.693422
 20
358.513837
 30
0.0
 10
407.864903
 20
360.072062
 30
0.0
  0
SPLINE
  5
3f1
100
AcDbEntity
  8
Layer_1
 62
3
100
AcDbSpline
 70
8
 71
3
 72
8
 73
4
 74
0
 40
0
 40
0
 40
0
 40
0
 40
1
 40
1
 40
1
 40
1
 10
407.864903
 20
360.072062
 30
0.0
 10
407.036383
 20
361.630285
 30
0.0
 10
407.627921
 20
363.565130
 30
0.0
 10
409.186154
 20
364.393652
 30
0.0
  0
SPLINE
  5
3f2
100
AcDbEntity
  8
Layer_1
 62
3
100
AcDbSpline
 70
8
 71
3
 72
8
 73
4
 74
0
 40
0
 40
0
 40
0
 40
0
 40
1
 40
1
 40
1
 40
1
 10
409.186154
 20
364.393652
 30
0.0
 10
410.744388
 20
365.222172
 30
0.0
 10
412.679219
 20
364.630631
 30
0.0
 10
413.507738
 20
363.072409
 30
0.0
  0
LINE
  5
3f3
100
AcDbEntity
  8
Layer_1
 62
3
100
AcDbLine
 10
413.507738
 20
363.072409
 30
0.0
 11
413.507738
 21
363.072409
 31
0.0
  0
SPLINE
  5
3f4
100
AcDbEntity
  8
Layer_1
 62
3
100
AcDbSpline
 70
8
 71
3
 72
8
 73
4
 74
0
 40
0
 40
0
 40
0
 40
0
 40
1
 40
1
 40
1
 40
1
 10
432.779537
 20
326.827408
 30
0.0
 10
433.608085
 20
325.269180
 30
0.0
 10
433.016547
 20
323.334340
 30
0.0
 10
431.458314
 20
322.505821
 30
0.0
  0
SPLINE
  5
3f5
100
AcDbEntity
  8
Layer_1
 62
3
100
AcDbSpline
 70
8
 71
3
 72
8
 73
4
 74
0
 40
0
 40
0
 40
0
 40
0
 40
1
 40
1
 40
1
 40
1
 10
431.458314
 20
322.505821
 30
0.0
 10
429.900080
 20
321.677298
 30
0.0
 10
427.965249
 20
322.268836
 30
0.0
 10
427.136729
 20
323.827061
 30
0.0
  0
SPLINE
  5
3f6
100
AcDbEntity
  8
Layer_1
 62
3
100
AcDbSpline
 70
8
 71
3
 72
8
 73
4
 74
0
 40
0
 40
0
 40
0
 40
0
 40
1
 40
1
 40
1
 40
1
 10
427.136729
 20
323.827061
 30
0.0
 10
426.308210
 20
325.385283
 30
0.0
 10
426.899747
 20
327.320128
 30
0.0
 10
428.457953
 20
328.148651
 30
0.0
  0
SPLINE
  5
3f7
100
AcDbEntity
  8
Layer_1
 62
3
100
AcDbSpline
 70
8
 71
3
 72
8
 73
4
 74
0
 40
0
 40
0
 40
0
 40
0
 40
1
 40
1
 40
1
 40
1
 10
428.457953
 20
328.148651
 30
0.0
 10
430.016186
 20
328.977171
 30
0.0
 10
431.951045
 20
328.385630
 30
0.0
 10
432.779537
 20
326.827408
 30
0.0
  0
LINE
  5
3f8
100
AcDbEntity
  8
Layer_1
 62
3
100
AcDbLine
 10
432.779537
 20
326.827408
 30
0.0
 11
432.779537
 21
326.827408
 31
0.0
  0
SPLINE
  5
3f9
100
AcDbEntity
  8
Layer_1
 62
3
100
AcDbSpline
 70
8
 71
3
 72
8
 73
4
 74
0
 40
0
 40
0
 40
0
 40
0
 40
1
 40
1
 40
1
 40
1
 10
387.749316
 20
302.884407
 30
0.0
 10
388.577836
 20
301.326179
 30
0.0
 10
387.986298
 20
299.391339
 30
0.0
 10
386.428065
 20
298.562819
 30
0.0
  0
SPLINE
  5
3fa
100
AcDbEntity
  8
Layer_1
 62
3
100
AcDbSpline
 70
8
 71
3
 72
8
 73
4
 74
0
 40
0
 40
0
 40
0
 40
0
 40
1
 40
1
 40
1
 40
1
 10
386.428065
 20
298.562819
 30
0.0
 10
384.869859
 20
297.734297
 30
0.0
 10
382.935000
 20
298.325835
 30
0.0
 10
382.106480
 20
299.884060
 30
0.0
  0
SPLINE
  5
3fb
100
AcDbEntity
  8
Layer_1
 62
3
100
AcDbSpline
 70
8
 71
3
 72
8
 73
4
 74
0
 40
0
 40
0
 40
0
 40
0
 40
1
 40
1
 40
1
 40
1
 10
382.106480
 20
299.884060
 30
0.0
 10
381.277961
 20
301.442282
 30
0.0
 10
381.869498
 20
303.377127
 30
0.0
 10
383.427732
 20
304.205650
 30
0.0
  0
SPLINE
  5
3fc
100
AcDbEntity
  8
Layer_1
 62
3
100
AcDbSpline
 70
8
 71
3
 72
8
 73
4
 74
0
 40
0
 40
0
 40
0
 40
0
 40
1
 40
1
 40
1
 40
1
 10
383.427732
 20
304.205650
 30
0.0
 10
384.985937
 20
305.034169
 30
0.0
 10
386.920796
 20
304.442629
 30
0.0
 10
387.749316
 20
302.884407
 30
0.0
  0
LINE
  5
3fd
100
AcDbEntity
  8
Layer_1
 62
3
100
AcDbLine
 10
387.749316
 20
302.884407
 30
0.0
 11
387.749316
 21
302.884407
 31
0.0
  0
SPLINE
  5
3fe
100
AcDbEntity
  8
Layer_1
 62
7
100
AcDbSpline
 70
8
 71
3
 72
8
 73
4
 74
0
 40
0
 40
0
 40
0
 40
0
 40
1
 40
1
 40
1
 40
1
 10
39.948191
 20
197.380064
 30
0.0
 10
39.948191
 20
197.026563
 30
0.0
 10
39.759452
 20
196.699915
 30
0.0
 10
39.453069
 20
196.523164
 30
0.0
  0
SPLINE
  5
3ff
100
AcDbEntity
  8
Layer_1
 62
7
100
AcDbSpline
 70
8
 71
3
 72
8
 73
4
 74
0
 40
0
 40
0
 40
0
 40
0
 40
1
 40
1
 40
1
 40
1
 10
39.453069
 20
196.523164
 30
0.0
 10
39.146686
 20
196.346414
 30
0.0
 10
38.769206
 20
196.346414
 30
0.0
 10
38.462823
 20
196.523164
 30
0.0
  0
SPLINE
  5
400
100
AcDbEntity
  8
Layer_1
 62
7
100
AcDbSpline
 70
8
 71
3
 72
8
 73
4
 74
0
 40
0
 40
0
 40
0
 40
0
 40
1
 40
1
 40
1
 40
1
 10
38.462823
 20
196.523164
 30
0.0
 10
38.156441
 20
196.699915
 30
0.0
 10
37.967701
 20
197.026563
 30
0.0
 10
37.967701
 20
197.380064
 30
0.0
  0
SPLINE
  5
401
100
AcDbEntity
  8
Layer_1
 62
7
100
AcDbSpline
 70
8
 71
3
 72
8
 73
4
 74
0
 40
0
 40
0
 40
0
 40
0
 40
1
 40
1
 40
1
 40
1
 10
37.967701
 20
197.380064
 30
0.0
 10
37.967701
 20
197.733565
 30
0.0
 10
38.156441
 20
198.060214
 30
0.0
 10
38.462823
 20
198.236964
 30
0.0
  0
SPLINE
  5
402
100
AcDbEntity
  8
Layer_1
 62
7
100
AcDbSpline
 70
8
 71
3
 72
8
 73
4
 74
0
 40
0
 40
0
 40
0
 40
0
 40
1
 40
1
 40
1
 40
1
 10
38.462823
 20
198.236964
 30
0.0
 10
38.769206
 20
198.413715
 30
0.0
 10
39.146686
 20
198.413715
 30
0.0
 10
39.453069
 20
198.236964
 30
0.0
  0
SPLINE
  5
403
100
AcDbEntity
  8
Layer_1
 62
7
100
AcDbSpline
 70
8
 71
3
 72
8
 73
4
 74
0
 40
0
 40
0
 40
0
 40
0
 40
1
 40
1
 40
1
 40
1
 10
39.453069
 20
198.236964
 30
0.0
 10
39.759452
 20
198.060214
 30
0.0
 10
39.948191
 20
197.733565
 30
0.0
 10
39.948191
 20
197.380064
 30
0.0
  0
LINE
  5
404
100
AcDbEntity
  8
Layer_1
 62
7
100
AcDbLine
 10
39.948191
 20
197.380064
 30
0.0
 11
39.948191
 21
197.380064
 31
0.0
  0
SPLINE
  5
405
100
AcDbEntity
  8
Layer_1
 62
7
100
AcDbSpline
 70
8
 71
3
 72
8
 73
4
 74
0
 40
0
 40
0
 40
0
 40
0
 40
1
 40
1
 40
1
 40
1
 10
41.905239
 20
197.380064
 30
0.0
 10
41.905239
 20
196.319592
 30
0.0
 10
41.343489
 20
195.339674
 30
0.0
 10
40.431593
 20
194.809438
 30
0.0
  0
SPLINE
  5
406
100
AcDbEntity
  8
Layer_1
 62
7
100
AcDbSpline
 70
8
 71
3
 72
8
 73
4
 74
0
 40
0
 40
0
 40
0
 40
0
 40
1
 40
1
 40
1
 40
1
 10
40.431593
 20
194.809438
 30
0.0
 10
39.519698
 20
194.279201
 30
0.0
 10
38.396197
 20
194.279201
 30
0.0
 10
37.484302
 20
194.809438
 30
0.0
  0
SPLINE
  5
407
100
AcDbEntity
  8
Layer_1
 62
7
100
AcDbSpline
 70
8
 71
3
 72
8
 73
4
 74
0
 40
0
 40
0
 40
0
 40
0
 40
1
 40
1
 40
1
 40
1
 10
37.484302
 20
194.809438
 30
0.0
 10
36.572407
 20
195.339674
 30
0.0
 10
36.010656
 20
196.319592
 30
0.0
 10
36.010656
 20
197.380064
 30
0.0
  0
SPLINE
  5
408
100
AcDbEntity
  8
Layer_1
 62
7
100
AcDbSpline
 70
8
 71
3
 72
8
 73
4
 74
0
 40
0
 40
0
 40
0
 40
0
 40
1
 40
1
 40
1
 40
1
 10
36.010656
 20
197.380064
 30
0.0
 10
36.010656
 20
198.440537
 30
0.0
 10
36.572407
 20
199.420455
 30
0.0
 10
37.484302
 20
199.950691
 30
0.0
  0
SPLINE
  5
409
100
AcDbEntity
  8
Layer_1
 62
7
100
AcDbSpline
 70
8
 71
3
 72
8
 73
4
 74
0
 40
0
 40
0
 40
0
 40
0
 40
1
 40
1
 40
1
 40
1
 10
37.484302
 20
199.950691
 30
0.0
 10
38.396197
 20
200.480928
 30
0.0
 10
39.519698
 20
200.480928
 30
0.0
 10
40.431593
 20
199.950691
 30
0.0
  0
SPLINE
  5
40a
100
AcDbEntity
  8
Layer_1
 62
7
100
AcDbSpline
 70
8
 71
3
 72
8
 73
4
 74
0
 40
0
 40
0
 40
0
 40
0
 40
1
 40
1
 40
1
 40
1
 10
40.431593
 20
199.950691
 30
0.0
 10
41.343489
 20
199.420455
 30
0.0
 10
41.905239
 20
198.440537
 30
0.0
 10
41.905239
 20
197.380064
 30
0.0
  0
LINE
  5
40b
100
AcDbEntity
  8
Layer_1
 62
7
100
AcDbLine
 10
41.905239
 20
197.380064
 30
0.0
 11
41.905239
 21
197.380064
 31
0.0
  0
SPLINE
  5
40c
100
AcDbEntity
  8
Layer_1
 62
7
100
AcDbSpline
 70
8
 71
3
 72
8
 73
4
 74
0
 40
0
 40
0
 40
0
 40
0
 40
1
 40
1
 40
1
 40
1
 10
47.948175
 20
197.380064
 30
0.0
 10
47.948175
 20
197.026563
 30
0.0
 10
47.759436
 20
196.699915
 30
0.0
 10
47.453053
 20
196.523164
 30
0.0
  0
SPLINE
  5
40d
100
AcDbEntity
  8
Layer_1
 62
7
100
AcDbSpline
 70
8
 71
3
 72
8
 73
4
 74
0
 40
0
 40
0
 40
0
 40
0
 40
1
 40
1
 40
1
 40
1
 10
47.453053
 20
196.523164
 30
0.0
 10
47.146670
 20
196.346414
 30
0.0
 10
46.769190
 20
196.346414
 30
0.0
 10
46.462807
 20
196.523164
 30
0.0
  0
SPLINE
  5
40e
100
AcDbEntity
  8
Layer_1
 62
7
100
AcDbSpline
 70
8
 71
3
 72
8
 73
4
 74
0
 40
0
 40
0
 40
0
 40
0
 40
1
 40
1
 40
1
 40
1
 10
46.462807
 20
196.523164
 30
0.0
 10
46.156425
 20
196.699915
 30
0.0
 10
45.967685
 20
197.026563
 30
0.0
 10
45.967685
 20
197.380064
 30
0.0
  0
SPLINE
  5
40f
100
AcDbEntity
  8
Layer_1
 62
7
100
AcDbSpline
 70
8
 71
3
 72
8
 73
4
 74
0
 40
0
 40
0
 40
0
 40
0
 40
1
 40
1
 40
1
 40
1
 10
45.967685
 20
197.380064
 30
0.0
 10
45.967685
 20
197.733565
 30
0.0
 10
46.156425
 20
198.060214
 30
0.0
 10
46.462807
 20
198.236964
 30
0.0
  0
SPLINE
  5
410
100
AcDbEntity
  8
Layer_1
 62
7
100
AcDbSpline
 70
8
 71
3
 72
8
 73
4
 74
0
 40
0
 40
0
 40
0
 40
0
 40
1
 40
1
 40
1
 40
1
 10
46.462807
 20
198.236964
 30
0.0
 10
46.769190
 20
198.413715
 30
0.0
 10
47.146670
 20
198.413715
 30
0.0
 10
47.453053
 20
198.236964
 30
0.0
  0
SPLINE
  5
411
100
AcDbEntity
  8
Layer_1
 62
7
100
AcDbSpline
 70
8
 71
3
 72
8
 73
4
 74
0
 40
0
 40
0
 40
0
 40
0
 40
1
 40
1
 40
1
 40
1
 10
47.453053
 20
198.236964
 30
0.0
 10
47.759436
 20
198.060214
 30
0.0
 10
47.948175
 20
197.733565
 30
0.0
 10
47.948175
 20
197.380064
 30
0.0
  0
LINE
  5
412
100
AcDbEntity
  8
Layer_1
 62
7
100
AcDbLine
 10
47.948175
 20
197.380064
 30
0.0
 11
47.948175
 21
197.380064
 31
0.0
  0
SPLINE
  5
413
100
AcDbEntity
  8
Layer_1
 62
7
100
AcDbSpline
 70
8
 71
3
 72
8
 73
4
 74
0
 40
0
 40
0
 40
0
 40
0
 40
1
 40
1
 40
1
 40
1
 10
49.905223
 20
197.380064
 30
0.0
 10
49.905223
 20
196.319592
 30
0.0
 10
49.343473
 20
195.339674
 30
0.0
 10
48.431577
 20
194.809438
 30
0.0
  0
SPLINE
  5
414
100
AcDbEntity
  8
Layer_1
 62
7
100
AcDbSpline
 70
8
 71
3
 72
8
 73
4
 74
0
 40
0
 40
0
 40
0
 40
0
 40
1
 40
1
 40
1
 40
1
 10
48.431577
 20
194.809438
 30
0.0
 10
47.519682
 20
194.279201
 30
0.0
 10
46.396181
 20
194.279201
 30
0.0
 10
45.484286
 20
194.809438
 30
0.0
  0
SPLINE
  5
415
100
AcDbEntity
  8
Layer_1
 62
7
100
AcDbSpline
 70
8
 71
3
 72
8
 73
4
 74
0
 40
0
 40
0
 40
0
 40
0
 40
1
 40
1
 40
1
 40
1
 10
45.484286
 20
194.809438
 30
0.0
 10
44.572391
 20
195.339674
 30
0.0
 10
44.010640
 20
196.319592
 30
0.0
 10
44.010640
 20
197.380064
 30
0.0
  0
SPLINE
  5
416
100
AcDbEntity
  8
Layer_1
 62
7
100
AcDbSpline
 70
8
 71
3
 72
8
 73
4
 74
0
 40
0
 40
0
 40
0
 40
0
 40
1
 40
1
 40
1
 40
1
 10
44.010640
 20
197.380064
 30
0.0
 10
44.010640
 20
198.440537
 30
0.0
 10
44.572391
 20
199.420455
 30
0.0
 10
45.484286
 20
199.950691
 30
0.0
  0
SPLINE
  5
417
100
AcDbEntity
  8
Layer_1
 62
7
100
AcDbSpline
 70
8
 71
3
 72
8
 73
4
 74
0
 40
0
 40
0
 40
0
 40
0
 40
1
 40
1
 40
1
 40
1
 10
45.484286
 20
199.950691
 30
0.0
 10
46.396181
 20
200.480928
 30
0.0
 10
47.519682
 20
200.480928
 30
0.0
 10
48.431577
 20
199.950691
 30
0.0
  0
SPLINE
  5
418
100
AcDbEntity
  8
Layer_1
 62
7
100
AcDbSpline
 70
8
 71
3
 72
8
 73
4
 74
0
 40
0
 40
0
 40
0
 40
0
 40
1
 40
1
 40
1
 40
1
 10
48.431577
 20
199.950691
 30
0.0
 10
49.343473
 20
199.420455
 30
0.0
 10
49.905223
 20
198.440537
 30
0.0
 10
49.905223
 20
197.380064
 30
0.0
  0
LINE
  5
419
100
AcDbEntity
  8
Layer_1
 62
7
100
AcDbLine
 10
49.905223
 20
197.380064
 30
0.0
 11
49.905223
 21
197.380064
 31
0.0
  0
SPLINE
  5
41a
100
AcDbEntity
  8
Layer_1
 62
7
100
AcDbSpline
 70
8
 71
3
 72
8
 73
4
 74
0
 40
0
 40
0
 40
0
 40
0
 40
1
 40
1
 40
1
 40
1
 10
39.948191
 20
205.380048
 30
0.0
 10
39.948191
 20
205.026547
 30
0.0
 10
39.759452
 20
204.699899
 30
0.0
 10
39.453069
 20
204.523148
 30
0.0
  0
SPLINE
  5
41b
100
AcDbEntity
  8
Layer_1
 62
7
100
AcDbSpline
 70
8
 71
3
 72
8
 73
4
 74
0
 40
0
 40
0
 40
0
 40
0
 40
1
 40
1
 40
1
 40
1
 10
39.453069
 20
204.523148
 30
0.0
 10
39.146686
 20
204.346398
 30
0.0
 10
38.769206
 20
204.346398
 30
0.0
 10
38.462823
 20
204.523148
 30
0.0
  0
SPLINE
  5
41c
100
AcDbEntity
  8
Layer_1
 62
7
100
AcDbSpline
 70
8
 71
3
 72
8
 73
4
 74
0
 40
0
 40
0
 40
0
 40
0
 40
1
 40
1
 40
1
 40
1
 10
38.462823
 20
204.523148
 30
0.0
 10
38.156441
 20
204.699899
 30
0.0
 10
37.967701
 20
205.026547
 30
0.0
 10
37.967701
 20
205.380048
 30
0.0
  0
SPLINE
  5
41d
100
AcDbEntity
  8
Layer_1
 62
7
100
AcDbSpline
 70
8
 71
3
 72
8
 73
4
 74
0
 40
0
 40
0
 40
0
 40
0
 40
1
 40
1
 40
1
 40
1
 10
37.967701
 20
205.380048
 30
0.0
 10
37.967701
 20
205.733549
 30
0.0
 10
38.156441
 20
206.060198
 30
0.0
 10
38.462823
 20
206.236948
 30
0.0
  0
SPLINE
  5
41e
100
AcDbEntity
  8
Layer_1
 62
7
100
AcDbSpline
 70
8
 71
3
 72
8
 73
4
 74
0
 40
0
 40
0
 40
0
 40
0
 40
1
 40
1
 40
1
 40
1
 10
38.462823
 20
206.236948
 30
0.0
 10
38.769206
 20
206.413699
 30
0.0
 10
39.146686
 20
206.413699
 30
0.0
 10
39.453069
 20
206.236948
 30
0.0
  0
SPLINE
  5
41f
100
AcDbEntity
  8
Layer_1
 62
7
100
AcDbSpline
 70
8
 71
3
 72
8
 73
4
 74
0
 40
0
 40
0
 40
0
 40
0
 40
1
 40
1
 40
1
 40
1
 10
39.453069
 20
206.236948
 30
0.0
 10
39.759452
 20
206.060198
 30
0.0
 10
39.948191
 20
205.733549
 30
0.0
 10
39.948191
 20
205.380048
 30
0.0
  0
LINE
  5
420
100
AcDbEntity
  8
Layer_1
 62
7
100
AcDbLine
 10
39.948191
 20
205.380048
 30
0.0
 11
39.948191
 21
205.380048
 31
0.0
  0
SPLINE
  5
421
100
AcDbEntity
  8
Layer_1
 62
7
100
AcDbSpline
 70
8
 71
3
 72
8
 73
4
 74
0
 40
0
 40
0
 40
0
 40
0
 40
1
 40
1
 40
1
 40
1
 10
41.905239
 20
205.380048
 30
0.0
 10
41.905239
 20
204.319576
 30
0.0
 10
41.343489
 20
203.339658
 30
0.0
 10
40.431593
 20
202.809422
 30
0.0
  0
SPLINE
  5
422
100
AcDbEntity
  8
Layer_1
 62
7
100
AcDbSpline
 70
8
 71
3
 72
8
 73
4
 74
0
 40
0
 40
0
 40
0
 40
0
 40
1
 40
1
 40
1
 40
1
 10
40.431593
 20
202.809422
 30
0.0
 10
39.519698
 20
202.279185
 30
0.0
 10
38.396197
 20
202.279185
 30
0.0
 10
37.484302
 20
202.809422
 30
0.0
  0
SPLINE
  5
423
100
AcDbEntity
  8
Layer_1
 62
7
100
AcDbSpline
 70
8
 71
3
 72
8
 73
4
 74
0
 40
0
 40
0
 40
0
 40
0
 40
1
 40
1
 40
1
 40
1
 10
37.484302
 20
202.809422
 30
0.0
 10
36.572407
 20
203.339658
 30
0.0
 10
36.010656
 20
204.319576
 30
0.0
 10
36.010656
 20
205.380048
 30
0.0
  0
SPLINE
  5
424
100
AcDbEntity
  8
Layer_1
 62
7
100
AcDbSpline
 70
8
 71
3
 72
8
 73
4
 74
0
 40
0
 40
0
 40
0
 40
0
 40
1
 40
1
 40
1
 40
1
 10
36.010656
 20
205.380048
 30
0.0
 10
36.010656
 20
206.440521
 30
0.0
 10
36.572407
 20
207.420439
 30
0.0
 10
37.484302
 20
207.950675
 30
0.0
  0
SPLINE
  5
425
100
AcDbEntity
  8
Layer_1
 62
7
100
AcDbSpline
 70
8
 71
3
 72
8
 73
4
 74
0
 40
0
 40
0
 40
0
 40
0
 40
1
 40
1
 40
1
 40
1
 10
37.484302
 20
207.950675
 30
0.0
 10
38.396197
 20
208.480912
 30
0.0
 10
39.519698
 20
208.480912
 30
0.0
 10
40.431593
 20
207.950675
 30
0.0
  0
SPLINE
  5
426
100
AcDbEntity
  8
Layer_1
 62
7
100
AcDbSpline
 70
8
 71
3
 72
8
 73
4
 74
0
 40
0
 40
0
 40
0
 40
0
 40
1
 40
1
 40
1
 40
1
 10
40.431593
 20
207.950675
 30
0.0
 10
41.343489
 20
207.420439
 30
0.0
 10
41.905239
 20
206.440521
 30
0.0
 10
41.905239
 20
205.380048
 30
0.0
  0
LINE
  5
427
100
AcDbEntity
  8
Layer_1
 62
7
100
AcDbLine
 10
41.905239
 20
205.380048
 30
0.0
 11
41.905239
 21
205.380048
 31
0.0
  0
SPLINE
  5
428
100
AcDbEntity
  8
Layer_1
 62
7
100
AcDbSpline
 70
8
 71
3
 72
8
 73
4
 74
0
 40
0
 40
0
 40
0
 40
0
 40
1
 40
1
 40
1
 40
1
 10
47.948175
 20
205.380048
 30
0.0
 10
47.948175
 20
205.026547
 30
0.0
 10
47.759436
 20
204.699899
 30
0.0
 10
47.453053
 20
204.523148
 30
0.0
  0
SPLINE
  5
429
100
AcDbEntity
  8
Layer_1
 62
7
100
AcDbSpline
 70
8
 71
3
 72
8
 73
4
 74
0
 40
0
 40
0
 40
0
 40
0
 40
1
 40
1
 40
1
 40
1
 10
47.453053
 20
204.523148
 30
0.0
 10
47.146670
 20
204.346398
 30
0.0
 10
46.769190
 20
204.346398
 30
0.0
 10
46.462807
 20
204.523148
 30
0.0
  0
SPLINE
  5
42a
100
AcDbEntity
  8
Layer_1
 62
7
100
AcDbSpline
 70
8
 71
3
 72
8
 73
4
 74
0
 40
0
 40
0
 40
0
 40
0
 40
1
 40
1
 40
1
 40
1
 10
46.462807
 20
204.523148
 30
0.0
 10
46.156425
 20
204.699899
 30
0.0
 10
45.967685
 20
205.026547
 30
0.0
 10
45.967685
 20
205.380048
 30
0.0
  0
SPLINE
  5
42b
100
AcDbEntity
  8
Layer_1
 62
7
100
AcDbSpline
 70
8
 71
3
 72
8
 73
4
 74
0
 40
0
 40
0
 40
0
 40
0
 40
1
 40
1
 40
1
 40
1
 10
45.967685
 20
205.380048
 30
0.0
 10
45.967685
 20
205.733549
 30
0.0
 10
46.156425
 20
206.060198
 30
0.0
 10
46.462807
 20
206.236948
 30
0.0
  0
SPLINE
  5
42c
100
AcDbEntity
  8
Layer_1
 62
7
100
AcDbSpline
 70
8
 71
3
 72
8
 73
4
 74
0
 40
0
 40
0
 40
0
 40
0
 40
1
 40
1
 40
1
 40
1
 10
46.462807
 20
206.236948
 30
0.0
 10
46.769190
 20
206.413699
 30
0.0
 10
47.146670
 20
206.413699
 30
0.0
 10
47.453053
 20
206.236948
 30
0.0
  0
SPLINE
  5
42d
100
AcDbEntity
  8
Layer_1
 62
7
100
AcDbSpline
 70
8
 71
3
 72
8
 73
4
 74
0
 40
0
 40
0
 40
0
 40
0
 40
1
 40
1
 40
1
 40
1
 10
47.453053
 20
206.236948
 30
0.0
 10
47.759436
 20
206.060198
 30
0.0
 10
47.948175
 20
205.733549
 30
0.0
 10
47.948175
 20
205.380048
 30
0.0
  0
LINE
  5
42e
100
AcDbEntity
  8
Layer_1
 62
7
100
AcDbLine
 10
47.948175
 20
205.380048
 30
0.0
 11
47.948175
 21
205.380048
 31
0.0
  0
SPLINE
  5
42f
100
AcDbEntity
  8
Layer_1
 62
7
100
AcDbSpline
 70
8
 71
3
 72
8
 73
4
 74
0
 40
0
 40
0
 40
0
 40
0
 40
1
 40
1
 40
1
 40
1
 10
49.905223
 20
205.380048
 30
0.0
 10
49.905223
 20
204.319576
 30
0.0
 10
49.343473
 20
203.339658
 30
0.0
 10
48.431577
 20
202.809422
 30
0.0
  0
SPLINE
  5
430
100
AcDbEntity
  8
Layer_1
 62
7
100
AcDbSpline
 70
8
 71
3
 72
8
 73
4
 74
0
 40
0
 40
0
 40
0
 40
0
 40
1
 40
1
 40
1
 40
1
 10
48.431577
 20
202.809422
 30
0.0
 10
47.519682
 20
202.279185
 30
0.0
 10
46.396181
 20
202.279185
 30
0.0
 10
45.484286
 20
202.809422
 30
0.0
  0
SPLINE
  5
431
100
AcDbEntity
  8
Layer_1
 62
7
100
AcDbSpline
 70
8
 71
3
 72
8
 73
4
 74
0
 40
0
 40
0
 40
0
 40
0
 40
1
 40
1
 40
1
 40
1
 10
45.484286
 20
202.809422
 30
0.0
 10
44.572391
 20
203.339658
 30
0.0
 10
44.010640
 20
204.319576
 30
0.0
 10
44.010640
 20
205.380048
 30
0.0
  0
SPLINE
  5
432
100
AcDbEntity
  8
Layer_1
 62
7
100
AcDbSpline
 70
8
 71
3
 72
8
 73
4
 74
0
 40
0
 40
0
 40
0
 40
0
 40
1
 40
1
 40
1
 40
1
 10
44.010640
 20
205.380048
 30
0.0
 10
44.010640
 20
206.440521
 30
0.0
 10
44.572391
 20
207.420439
 30
0.0
 10
45.484286
 20
207.950675
 30
0.0
  0
SPLINE
  5
433
100
AcDbEntity
  8
Layer_1
 62
7
100
AcDbSpline
 70
8
 71
3
 72
8
 73
4
 74
0
 40
0
 40
0
 40
0
 40
0
 40
1
 40
1
 40
1
 40
1
 10
45.484286
 20
207.950675
 30
0.0
 10
46.396181
 20
208.480912
 30
0.0
 10
47.519682
 20
208.480912
 30
0.0
 10
48.431577
 20
207.950675
 30
0.0
  0
SPLINE
  5
434
100
AcDbEntity
  8
Layer_1
 62
7
100
AcDbSpline
 70
8
 71
3
 72
8
 73
4
 74
0
 40
0
 40
0
 40
0
 40
0
 40
1
 40
1
 40
1
 40
1
 10
48.431577
 20
207.950675
 30
0.0
 10
49.343473
 20
207.420439
 30
0.0
 10
49.905223
 20
206.440521
 30
0.0
 10
49.905223
 20
205.380048
 30
0.0
  0
LINE
  5
435
100
AcDbEntity
  8
Layer_1
 62
7
100
AcDbLine
 10
49.905223
 20
205.380048
 30
0.0
 11
49.905223
 21
205.380048
 31
0.0
  0
SPLINE
  5
436
100
AcDbEntity
  8
Layer_1
 62
7
100
AcDbSpline
 70
8
 71
3
 72
8
 73
4
 74
0
 40
0
 40
0
 40
0
 40
0
 40
1
 40
1
 40
1
 40
1
 10
39.948191
 20
213.380032
 30
0.0
 10
39.948191
 20
213.026531
 30
0.0
 10
39.759452
 20
212.699883
 30
0.0
 10
39.453069
 20
212.523132
 30
0.0
  0
SPLINE
  5
437
100
AcDbEntity
  8
Layer_1
 62
7
100
AcDbSpline
 70
8
 71
3
 72
8
 73
4
 74
0
 40
0
 40
0
 40
0
 40
0
 40
1
 40
1
 40
1
 40
1
 10
39.453069
 20
212.523132
 30
0.0
 10
39.146686
 20
212.346382
 30
0.0
 10
38.769206
 20
212.346382
 30
0.0
 10
38.462823
 20
212.523132
 30
0.0
  0
SPLINE
  5
438
100
AcDbEntity
  8
Layer_1
 62
7
100
AcDbSpline
 70
8
 71
3
 72
8
 73
4
 74
0
 40
0
 40
0
 40
0
 40
0
 40
1
 40
1
 40
1
 40
1
 10
38.462823
 20
212.523132
 30
0.0
 10
38.156441
 20
212.699883
 30
0.0
 10
37.967701
 20
213.026531
 30
0.0
 10
37.967701
 20
213.380032
 30
0.0
  0
SPLINE
  5
439
100
AcDbEntity
  8
Layer_1
 62
7
100
AcDbSpline
 70
8
 71
3
 72
8
 73
4
 74
0
 40
0
 40
0
 40
0
 40
0
 40
1
 40
1
 40
1
 40
1
 10
37.967701
 20
213.380032
 30
0.0
 10
37.967701
 20
213.733533
 30
0.0
 10
38.156441
 20
214.060182
 30
0.0
 10
38.462823
 20
214.236932
 30
0.0
  0
SPLINE
  5
43a
100
AcDbEntity
  8
Layer_1
 62
7
100
AcDbSpline
 70
8
 71
3
 72
8
 73
4
 74
0
 40
0
 40
0
 40
0
 40
0
 40
1
 40
1
 40
1
 40
1
 10
38.462823
 20
214.236932
 30
0.0
 10
38.769206
 20
214.413683
 30
0.0
 10
39.146686
 20
214.413683
 30
0.0
 10
39.453069
 20
214.236932
 30
0.0
  0
SPLINE
  5
43b
100
AcDbEntity
  8
Layer_1
 62
7
100
AcDbSpline
 70
8
 71
3
 72
8
 73
4
 74
0
 40
0
 40
0
 40
0
 40
0
 40
1
 40
1
 40
1
 40
1
 10
39.453069
 20
214.236932
 30
0.0
 10
39.759452
 20
214.060182
 30
0.0
 10
39.948191
 20
213.733533
 30
0.0
 10
39.948191
 20
213.380032
 30
0.0
  0
LINE
  5
43c
100
AcDbEntity
  8
Layer_1
 62
7
100
AcDbLine
 10
39.948191
 20
213.380032
 30
0.0
 11
39.948191
 21
213.380032
 31
0.0
  0
SPLINE
  5
43d
100
AcDbEntity
  8
Layer_1
 62
7
100
AcDbSpline
 70
8
 71
3
 72
8
 73
4
 74
0
 40
0
 40
0
 40
0
 40
0
 40
1
 40
1
 40
1
 40
1
 10
41.905239
 20
213.380032
 30
0.0
 10
41.905239
 20
212.319560
 30
0.0
 10
41.343489
 20
211.339642
 30
0.0
 10
40.431593
 20
210.809406
 30
0.0
  0
SPLINE
  5
43e
100
AcDbEntity
  8
Layer_1
 62
7
100
AcDbSpline
 70
8
 71
3
 72
8
 73
4
 74
0
 40
0
 40
0
 40
0
 40
0
 40
1
 40
1
 40
1
 40
1
 10
40.431593
 20
210.809406
 30
0.0
 10
39.519698
 20
210.279169
 30
0.0
 10
38.396197
 20
210.279169
 30
0.0
 10
37.484302
 20
210.809406
 30
0.0
  0
SPLINE
  5
43f
100
AcDbEntity
  8
Layer_1
 62
7
100
AcDbSpline
 70
8
 71
3
 72
8
 73
4
 74
0
 40
0
 40
0
 40
0
 40
0
 40
1
 40
1
 40
1
 40
1
 10
37.484302
 20
210.809406
 30
0.0
 10
36.572407
 20
211.339642
 30
0.0
 10
36.010656
 20
212.319560
 30
0.0
 10
36.010656
 20
213.380032
 30
0.0
  0
SPLINE
  5
440
100
AcDbEntity
  8
Layer_1
 62
7
100
AcDbSpline
 70
8
 71
3
 72
8
 73
4
 74
0
 40
0
 40
0
 40
0
 40
0
 40
1
 40
1
 40
1
 40
1
 10
36.010656
 20
213.380032
 30
0.0
 10
36.010656
 20
214.440505
 30
0.0
 10
36.572407
 20
215.420423
 30
0.0
 10
37.484302
 20
215.950659
 30
0.0
  0
SPLINE
  5
441
100
AcDbEntity
  8
Layer_1
 62
7
100
AcDbSpline
 70
8
 71
3
 72
8
 73
4
 74
0
 40
0
 40
0
 40
0
 40
0
 40
1
 40
1
 40
1
 40
1
 10
37.484302
 20
215.950659
 30
0.0
 10
38.396197
 20
216.480896
 30
0.0
 10
39.519698
 20
216.480896
 30
0.0
 10
40.431593
 20
215.950659
 30
0.0
  0
SPLINE
  5
442
100
AcDbEntity
  8
Layer_1
 62
7
100
AcDbSpline
 70
8
 71
3
 72
8
 73
4
 74
0
 40
0
 40
0
 40
0
 40
0
 40
1
 40
1
 40
1
 40
1
 10
40.431593
 20
215.950659
 30
0.0
 10
41.343489
 20
215.420423
 30
0.0
 10
41.905239
 20
214.440505
 30
0.0
 10
41.905239
 20
213.380032
 30
0.0
  0
LINE
  5
443
100
AcDbEntity
  8
Layer_1
 62
7
100
AcDbLine
 10
41.905239
 20
213.380032
 30
0.0
 11
41.905239
 21
213.380032
 31
0.0
  0
SPLINE
  5
444
100
AcDbEntity
  8
Layer_1
 62
7
100
AcDbSpline
 70
8
 71
3
 72
8
 73
4
 74
0
 40
0
 40
0
 40
0
 40
0
 40
1
 40
1
 40
1
 40
1
 10
47.948175
 20
213.380032
 30
0.0
 10
47.948175
 20
213.026531
 30
0.0
 10
47.759436
 20
212.699883
 30
0.0
 10
47.453053
 20
212.523132
 30
0.0
  0
SPLINE
  5
445
100
AcDbEntity
  8
Layer_1
 62
7
100
AcDbSpline
 70
8
 71
3
 72
8
 73
4
 74
0
 40
0
 40
0
 40
0
 40
0
 40
1
 40
1
 40
1
 40
1
 10
47.453053
 20
212.523132
 30
0.0
 10
47.146670
 20
212.346382
 30
0.0
 10
46.769190
 20
212.346382
 30
0.0
 10
46.462807
 20
212.523132
 30
0.0
  0
SPLINE
  5
446
100
AcDbEntity
  8
Layer_1
 62
7
100
AcDbSpline
 70
8
 71
3
 72
8
 73
4
 74
0
 40
0
 40
0
 40
0
 40
0
 40
1
 40
1
 40
1
 40
1
 10
46.462807
 20
212.523132
 30
0.0
 10
46.156425
 20
212.699883
 30
0.0
 10
45.967685
 20
213.026531
 30
0.0
 10
45.967685
 20
213.380032
 30
0.0
  0
SPLINE
  5
447
100
AcDbEntity
  8
Layer_1
 62
7
100
AcDbSpline
 70
8
 71
3
 72
8
 73
4
 74
0
 40
0
 40
0
 40
0
 40
0
 40
1
 40
1
 40
1
 40
1
 10
45.967685
 20
213.380032
 30
0.0
 10
45.967685
 20
213.733533
 30
0.0
 10
46.156425
 20
214.060182
 30
0.0
 10
46.462807
 20
214.236932
 30
0.0
  0
SPLINE
  5
448
100
AcDbEntity
  8
Layer_1
 62
7
100
AcDbSpline
 70
8
 71
3
 72
8
 73
4
 74
0
 40
0
 40
0
 40
0
 40
0
 40
1
 40
1
 40
1
 40
1
 10
46.462807
 20
214.236932
 30
0.0
 10
46.769190
 20
214.413683
 30
0.0
 10
47.146670
 20
214.413683
 30
0.0
 10
47.453053
 20
214.236932
 30
0.0
  0
SPLINE
  5
449
100
AcDbEntity
  8
Layer_1
 62
7
100
AcDbSpline
 70
8
 71
3
 72
8
 73
4
 74
0
 40
0
 40
0
 40
0
 40
0
 40
1
 40
1
 40
1
 40
1
 10
47.453053
 20
214.236932
 30
0.0
 10
47.759436
 20
214.060182
 30
0.0
 10
47.948175
 20
213.733533
 30
0.0
 10
47.948175
 20
213.380032
 30
0.0
  0
LINE
  5
44a
100
AcDbEntity
  8
Layer_1
 62
7
100
AcDbLine
 10
47.948175
 20
213.380032
 30
0.0
 11
47.948175
 21
213.380032
 31
0.0
  0
SPLINE
  5
44b
100
AcDbEntity
  8
Layer_1
 62
7
100
AcDbSpline
 70
8
 71
3
 72
8
 73
4
 74
0
 40
0
 40
0
 40
0
 40
0
 40
1
 40
1
 40
1
 40
1
 10
49.905223
 20
213.380032
 30
0.0
 10
49.905223
 20
212.319560
 30
0.0
 10
49.343473
 20
211.339642
 30
0.0
 10
48.431577
 20
210.809406
 30
0.0
  0
SPLINE
  5
44c
100
AcDbEntity
  8
Layer_1
 62
7
100
AcDbSpline
 70
8
 71
3
 72
8
 73
4
 74
0
 40
0
 40
0
 40
0
 40
0
 40
1
 40
1
 40
1
 40
1
 10
48.431577
 20
210.809406
 30
0.0
 10
47.519682
 20
210.279169
 30
0.0
 10
46.396181
 20
210.279169
 30
0.0
 10
45.484286
 20
210.809406
 30
0.0
  0
SPLINE
  5
44d
100
AcDbEntity
  8
Layer_1
 62
7
100
AcDbSpline
 70
8
 71
3
 72
8
 73
4
 74
0
 40
0
 40
0
 40
0
 40
0
 40
1
 40
1
 40
1
 40
1
 10
45.484286
 20
210.809406
 30
0.0
 10
44.572391
 20
211.339642
 30
0.0
 10
44.010640
 20
212.319560
 30
0.0
 10
44.010640
 20
213.380032
 30
0.0
  0
SPLINE
  5
44e
100
AcDbEntity
  8
Layer_1
 62
7
100
AcDbSpline
 70
8
 71
3
 72
8
 73
4
 74
0
 40
0
 40
0
 40
0
 40
0
 40
1
 40
1
 40
1
 40
1
 10
44.010640
 20
213.380032
 30
0.0
 10
44.010640
 20
214.440505
 30
0.0
 10
44.572391
 20
215.420423
 30
0.0
 10
45.484286
 20
215.950659
 30
0.0
  0
SPLINE
  5
44f
100
AcDbEntity
  8
Layer_1
 62
7
100
AcDbSpline
 70
8
 71
3
 72
8
 73
4
 74
0
 40
0
 40
0
 40
0
 40
0
 40
1
 40
1
 40
1
 40
1
 10
45.484286
 20
215.950659
 30
0.0
 10
46.396181
 20
216.480896
 30
0.0
 10
47.519682
 20
216.480896
 30
0.0
 10
48.431577
 20
215.950659
 30
0.0
  0
SPLINE
  5
450
100
AcDbEntity
  8
Layer_1
 62
7
100
AcDbSpline
 70
8
 71
3
 72
8
 73
4
 74
0
 40
0
 40
0
 40
0
 40
0
 40
1
 40
1
 40
1
 40
1
 10
48.431577
 20
215.950659
 30
0.0
 10
49.343473
 20
215.420423
 30
0.0
 10
49.905223
 20
214.440505
 30
0.0
 10
49.905223
 20
213.380032
 30
0.0
  0
LINE
  5
451
100
AcDbEntity
  8
Layer_1
 62
7
100
AcDbLine
 10
49.905223
 20
213.380032
 30
0.0
 11
49.905223
 21
213.380032
 31
0.0
  0
ENDSEC
  0
SECTION
  2
OBJECTS
  0
DICTIONARY
  5
C
330
0
100
AcDbDictionary
  3
ACAD_GROUP
350
D
  3
ACAD_MLINESTYLE
350
17
  0
DICTIONARY
  5
D
330
C
100
AcDbDictionary
  0
DICTIONARY
  5
1A
330
C
100
AcDbDictionary
  0
DICTIONARY
  5
17
330
C
100
AcDbDictionary
  3
STANDARD
350
18
  0
DICTIONARY
  5
19
330
C
100
AcDbDictionary
  0
ENDSEC
  0
EOF
