  0
SECTION
  2
HEADER
  9
$ACADVER
  1
AC1014
  9
$HANDSEED
  5
FFFF
  9
$MEASUREMENT
 70
     1
  0
ENDSEC
  0
SECTION
  2
TABLES
  0
TABLE
  2
VPORT
  5
8
330
0
100
AcDbSymbolTable
 70
     4
  0
VPORT
  5
2E
330
8
100
AcDbSymbolTableRecord
100
AcDbViewportTableRecord
  2
*ACTIVE
 70
     0
 10
0.0
 20
0.0
 11
1.0
 21
1.0
 12
210.0
 22
148.5
 13
0.0
 23
0.0
 14
10.0
 24
10.0
 15
10.0
 25
10.0
 16
0.0
 26
0.0
 36
1.0
 17
0.0
 27
0.0
 37
0.0
 40
341.0
 41
1.24
 42
50.0
 43
0.0
 44
0.0
 50
0.0
 51
0.0
 71
     0
 72
   100
 73
     1
 74
     3
 75
     0
 76
     0
 77
     0
 78
     0
  0
ENDTAB
  0
TABLE
  2
LTYPE
  5
5
330
0
100
AcDbSymbolTable
 70
     1
  0
LTYPE
  5
14
330
5
100
AcDbSymbolTableRecord
100
AcDbLinetypeTableRecord
  2
BYBLOCK
 70
     0
  3

 72
    65
 73
     0
 40
0.0
  0
LTYPE
  5
15
330
5
100
AcDbSymbolTableRecord
100
AcDbLinetypeTableRecord
  2
BYLAYER
 70
     0
  3

 72
    65
 73
     0
 40
0.0
  0
LTYPE
  5
16
330
5
100
AcDbSymbolTableRecord
100
AcDbLinetypeTableRecord
  2
CONTINUOUS
 70
     0
  3
Solid line
 72
    65
 73
     0
 40
0.0
  0
ENDTAB
  0
TABLE
  2
LAYER
  5
2
100
AcDbSymbolTable
 70
2
  0
LAYER
  5
50
100
AcDbSymbolTableRecord
100
AcDbLayerTableRecord
  2
0
 70
0
  6
CONTINUOUS
  0
LAYER
  5
51
100
AcDbSymbolTableRecord
100
AcDbLayerTableRecord
  2
Layer_1
 70
0
  6
CONTINUOUS
  0
ENDTAB
  0
TABLE
  2
STYLE
  5
3
330
0
100
AcDbSymbolTable
 70
     1
  0
STYLE
  5
11
330
3
100
AcDbSymbolTableRecord
100
AcDbTextStyleTableRecord
  2
STANDARD
 70
     0
 40
0.0
 41
1.0
 50
0.0
 71
     0
 42
2.5
  3
txt
  4

  0
ENDTAB
  0
TABLE
  2
VIEW
  5
6
330
0
100
AcDbSymbolTable
 70
     0
  0
ENDTAB
  0
TABLE
  2
UCS
  5
7
330
0
100
AcDbSymbolTable
 70
     0
  0
ENDTAB
  0
TABLE
  2
APPID
  5
9
330
0
100
AcDbSymbolTable
 70
     2
  0
APPID
  5
12
330
9
100
AcDbSymbolTableRecord
100
AcDbRegAppTableRecord
  2
ACAD
 70
     0
  0
ENDTAB
  0
TABLE
  2
DIMSTYLE
  5
A
330
0
100
AcDbSymbolTable
 70
     1
  0
DIMSTYLE
105
27
330
A
100
AcDbSymbolTableRecord
100
AcDbDimStyleTableRecord
  2
ISO-25
 70
     0
  3

  4

  5

  6

  7

 40
1.0
 41
2.5
 42
0.625
 43
3.75
 44
1.25
 45
0.0
 46
0.0
 47
0.0
 48
0.0
140
2.5
141
2.5
142
0.0
143
0.03937007874016
144
1.0
145
0.0
146
1.0
147
0.625
 71
     0
 72
     0
 73
     0
 74
     0
 75
     0
 76
     0
 77
     1
 78
     8
170
     0
171
     3
172
     1
173
     0
174
     0
175
     0
176
     0
177
     0
178
     0
270
     2
271
     2
272
     2
273
     2
274
     3
340
11
275
     0
280
     0
281
     0
282
     0
283
     0
284
     8
285
     0
286
     0
287
     3
288
     0
  0
ENDTAB
  0
TABLE
  2
BLOCK_RECORD
  5
1
330
0
100
AcDbSymbolTable
 70
     1
  0
BLOCK_RECORD
  5
1F
330
1
100
AcDbSymbolTableRecord
100
AcDbBlockTableRecord
  2
*MODEL_SPACE
  0
BLOCK_RECORD
  5
1B
330
1
100
AcDbSymbolTableRecord
100
AcDbBlockTableRecord
  2
*PAPER_SPACE
  0
ENDTAB
  0
ENDSEC
  0
SECTION
  2
BLOCKS
  0
BLOCK
  5
20
330
1F
100
AcDbEntity
  8
0
100
AcDbBlockBegin
  2
*MODEL_SPACE
 70
     0
 10
0.0
 20
0.0
 30
0.0
  3
*MODEL_SPACE
  1

  0
ENDBLK
  5
21
330
1F
100
AcDbEntity
  8
0
100
AcDbBlockEnd
  0
BLOCK
  5
1C
330
1B
100
AcDbEntity
 67
     1
  8
0
100
AcDbBlockBegin
  2
*PAPER_SPACE
  1

  0
ENDBLK
  5
1D
330
1B
100
AcDbEntity
 67
     1
  8
0
100
AcDbBlockEnd
  0
ENDSEC
  0
SECTION
  2
ENTITIES
  0
LINE
  5
100
100
AcDbEntity
  8
Layer_1
 62
1
100
AcDbLine
 10
189.955333
 20
219.805620
 30
0.0
 11
271.955333
 21
219.805620
 31
0.0
  0
LINE
  5
101
100
AcDbEntity
  8
Layer_1
 62
1
100
AcDbLine
 10
271.955333
 20
219.805620
 30
0.0
 11
271.955333
 21
166.805613
 31
0.0
  0
LINE
  5
102
100
AcDbEntity
  8
Layer_1
 62
1
100
AcDbLine
 10
271.955333
 20
166.805613
 30
0.0
 11
189.955333
 21
166.805613
 31
0.0
  0
LINE
  5
103
100
AcDbEntity
  8
Layer_1
 62
1
100
AcDbLine
 10
189.955333
 20
166.805613
 30
0.0
 11
189.955333
 21
219.805620
 31
0.0
  0
SPLINE
  5
104
100
AcDbEntity
  8
Layer_1
 62
1
100
AcDbSpline
 70
8
 71
3
 72
8
 73
4
 74
0
 40
0
 40
0
 40
0
 40
0
 40
1
 40
1
 40
1
 40
1
 10
204.919187
 20
218.833869
 30
0.0
 10
204.919187
 20
218.289536
 30
0.0
 10
204.477910
 20
217.848254
 30
0.0
 10
203.933567
 20
217.848254
 30
0.0
  0
SPLINE
  5
105
100
AcDbEntity
  8
Layer_1
 62
1
100
AcDbSpline
 70
8
 71
3
 72
8
 73
4
 74
0
 40
0
 40
0
 40
0
 40
0
 40
1
 40
1
 40
1
 40
1
 10
203.933567
 20
217.848254
 30
0.0
 10
203.389224
 20
217.848254
 30
0.0
 10
202.947947
 20
218.289536
 30
0.0
 10
202.947947
 20
218.833869
 30
0.0
  0
SPLINE
  5
106
100
AcDbEntity
  8
Layer_1
 62
1
100
AcDbSpline
 70
8
 71
3
 72
8
 73
4
 74
0
 40
0
 40
0
 40
0
 40
0
 40
1
 40
1
 40
1
 40
1
 10
202.947947
 20
218.833869
 30
0.0
 10
202.947947
 20
219.378219
 30
0.0
 10
203.389224
 20
219.819501
 30
0.0
 10
203.933567
 20
219.819501
 30
0.0
  0
SPLINE
  5
107
100
AcDbEntity
  8
Layer_1
 62
1
100
AcDbSpline
 70
8
 71
3
 72
8
 73
4
 74
0
 40
0
 40
0
 40
0
 40
0
 40
1
 40
1
 40
1
 40
1
 10
203.933567
 20
219.819501
 30
0.0
 10
204.477910
 20
219.819501
 30
0.0
 10
204.919187
 20
219.378219
 30
0.0
 10
204.919187
 20
218.833869
 30
0.0
  0
LINE
  5
108
100
AcDbEntity
  8
Layer_1
 62
1
100
AcDbLine
 10
204.919187
 20
218.833869
 30
0.0
 11
204.919187
 21
218.833869
 31
0.0
  0
SPLINE
  5
109
100
AcDbEntity
  8
Layer_1
 62
1
100
AcDbSpline
 70
8
 71
3
 72
8
 73
4
 74
0
 40
0
 40
0
 40
0
 40
0
 40
1
 40
1
 40
1
 40
1
 10
258.962719
 20
218.833869
 30
0.0
 10
258.962719
 20
218.289536
 30
0.0
 10
258.521442
 20
217.848254
 30
0.0
 10
257.977099
 20
217.848254
 30
0.0
  0
SPLINE
  5
10a
100
AcDbEntity
  8
Layer_1
 62
1
100
AcDbSpline
 70
8
 71
3
 72
8
 73
4
 74
0
 40
0
 40
0
 40
0
 40
0
 40
1
 40
1
 40
1
 40
1
 10
257.977099
 20
217.848254
 30
0.0
 10
257.432756
 20
217.848254
 30
0.0
 10
256.991479
 20
218.289536
 30
0.0
 10
256.991479
 20
218.833869
 30
0.0
  0
SPLINE
  5
10b
100
AcDbEntity
  8
Layer_1
 62
1
100
AcDbSpline
 70
8
 71
3
 72
8
 73
4
 74
0
 40
0
 40
0
 40
0
 40
0
 40
1
 40
1
 40
1
 40
1
 10
256.991479
 20
218.833869
 30
0.0
 10
256.991479
 20
219.378219
 30
0.0
 10
257.432756
 20
219.819501
 30
0.0
 10
257.977099
 20
219.819501
 30
0.0
  0
SPLINE
  5
10c
100
AcDbEntity
  8
Layer_1
 62
1
100
AcDbSpline
 70
8
 71
3
 72
8
 73
4
 74
0
 40
0
 40
0
 40
0
 40
0
 40
1
 40
1
 40
1
 40
1
 10
257.977099
 20
219.819501
 30
0.0
 10
258.521442
 20
219.819501
 30
0.0
 10
258.962719
 20
219.378219
 30
0.0
 10
258.962719
 20
218.833869
 30
0.0
  0
LINE
  5
10d
100
AcDbEntity
  8
Layer_1
 62
1
100
AcDbLine
 10
258.962719
 20
218.833869
 30
0.0
 11
258.962719
 21
218.833869
 31
0.0
  0
SPLINE
  5
10e
100
AcDbEntity
  8
Layer_1
 62
1
100
AcDbSpline
 70
8
 71
3
 72
8
 73
4
 74
0
 40
0
 40
0
 40
0
 40
0
 40
1
 40
1
 40
1
 40
1
 10
191.912691
 20
215.333870
 30
0.0
 10
191.912691
 20
214.789537
 30
0.0
 10
191.471414
 20
214.348255
 30
0.0
 10
190.927071
 20
214.348255
 30
0.0
  0
SPLINE
  5
10f
100
AcDbEntity
  8
Layer_1
 62
1
100
AcDbSpline
 70
8
 71
3
 72
8
 73
4
 74
0
 40
0
 40
0
 40
0
 40
0
 40
1
 40
1
 40
1
 40
1
 10
190.927071
 20
214.348255
 30
0.0
 10
190.382728
 20
214.348255
 30
0.0
 10
189.941451
 20
214.789537
 30
0.0
 10
189.941451
 20
215.333870
 30
0.0
  0
SPLINE
  5
110
100
AcDbEntity
  8
Layer_1
 62
1
100
AcDbSpline
 70
8
 71
3
 72
8
 73
4
 74
0
 40
0
 40
0
 40
0
 40
0
 40
1
 40
1
 40
1
 40
1
 10
189.941451
 20
215.333870
 30
0.0
 10
189.941451
 20
215.878220
 30
0.0
 10
190.382728
 20
216.319501
 30
0.0
 10
190.927071
 20
216.319501
 30
0.0
  0
SPLINE
  5
111
100
AcDbEntity
  8
Layer_1
 62
1
100
AcDbSpline
 70
8
 71
3
 72
8
 73
4
 74
0
 40
0
 40
0
 40
0
 40
0
 40
1
 40
1
 40
1
 40
1
 10
190.927071
 20
216.319501
 30
0.0
 10
191.471414
 20
216.319501
 30
0.0
 10
191.912691
 20
215.878220
 30
0.0
 10
191.912691
 20
215.333870
 30
0.0
  0
LINE
  5
112
100
AcDbEntity
  8
Layer_1
 62
1
100
AcDbLine
 10
191.912691
 20
215.333870
 30
0.0
 11
191.912691
 21
215.333870
 31
0.0
  0
SPLINE
  5
113
100
AcDbEntity
  8
Layer_1
 62
1
100
AcDbSpline
 70
8
 71
3
 72
8
 73
4
 74
0
 40
0
 40
0
 40
0
 40
0
 40
1
 40
1
 40
1
 40
1
 10
191.912691
 20
171.283864
 30
0.0
 10
191.912691
 20
170.739530
 30
0.0
 10
191.471414
 20
170.298249
 30
0.0
 10
190.927071
 20
170.298249
 30
0.0
  0
SPLINE
  5
114
100
AcDbEntity
  8
Layer_1
 62
1
100
AcDbSpline
 70
8
 71
3
 72
8
 73
4
 74
0
 40
0
 40
0
 40
0
 40
0
 40
1
 40
1
 40
1
 40
1
 10
190.927071
 20
170.298249
 30
0.0
 10
190.382728
 20
170.298249
 30
0.0
 10
189.941451
 20
170.739530
 30
0.0
 10
189.941451
 20
171.283864
 30
0.0
  0
SPLINE
  5
115
100
AcDbEntity
  8
Layer_1
 62
1
100
AcDbSpline
 70
8
 71
3
 72
8
 73
4
 74
0
 40
0
 40
0
 40
0
 40
0
 40
1
 40
1
 40
1
 40
1
 10
189.941451
 20
171.283864
 30
0.0
 10
189.941451
 20
171.828213
 30
0.0
 10
190.382728
 20
172.269495
 30
0.0
 10
190.927071
 20
172.269495
 30
0.0
  0
SPLINE
  5
116
100
AcDbEntity
  8
Layer_1
 62
1
100
AcDbSpline
 70
8
 71
3
 72
8
 73
4
 74
0
 40
0
 40
0
 40
0
 40
0
 40
1
 40
1
 40
1
 40
1
 10
190.927071
 20
172.269495
 30
0.0
 10
191.471414
 20
172.269495
 30
0.0
 10
191.912691
 20
171.828213
 30
0.0
 10
191.912691
 20
171.283864
 30
0.0
  0
LINE
  5
117
100
AcDbEntity
  8
Layer_1
 62
1
100
AcDbLine
 10
191.912691
 20
171.283864
 30
0.0
 11
191.912691
 21
171.283864
 31
0.0
  0
SPLINE
  5
118
100
AcDbEntity
  8
Layer_1
 62
1
100
AcDbSpline
 70
8
 71
3
 72
8
 73
4
 74
0
 40
0
 40
0
 40
0
 40
0
 40
1
 40
1
 40
1
 40
1
 10
191.912691
 20
193.305607
 30
0.0
 10
191.912691
 20
192.761274
 30
0.0
 10
191.471414
 20
192.319992
 30
0.0
 10
190.927071
 20
192.319992
 30
0.0
  0
SPLINE
  5
119
100
AcDbEntity
  8
Layer_1
 62
1
100
AcDbSpline
 70
8
 71
3
 72
8
 73
4
 74
0
 40
0
 40
0
 40
0
 40
0
 40
1
 40
1
 40
1
 40
1
 10
190.927071
 20
192.319992
 30
0.0
 10
190.382728
 20
192.319992
 30
0.0
 10
189.941451
 20
192.761274
 30
0.0
 10
189.941451
 20
193.305607
 30
0.0
  0
SPLINE
  5
11a
100
AcDbEntity
  8
Layer_1
 62
1
100
AcDbSpline
 70
8
 71
3
 72
8
 73
4
 74
0
 40
0
 40
0
 40
0
 40
0
 40
1
 40
1
 40
1
 40
1
 10
189.941451
 20
193.305607
 30
0.0
 10
189.941451
 20
193.849957
 30
0.0
 10
190.382728
 20
194.291239
 30
0.0
 10
190.927071
 20
194.291239
 30
0.0
  0
SPLINE
  5
11b
100
AcDbEntity
  8
Layer_1
 62
1
100
AcDbSpline
 70
8
 71
3
 72
8
 73
4
 74
0
 40
0
 40
0
 40
0
 40
0
 40
1
 40
1
 40
1
 40
1
 10
190.927071
 20
194.291239
 30
0.0
 10
191.471414
 20
194.291239
 30
0.0
 10
191.912691
 20
193.849957
 30
0.0
 10
191.912691
 20
193.305607
 30
0.0
  0
LINE
  5
11c
100
AcDbEntity
  8
Layer_1
 62
1
100
AcDbLine
 10
191.912691
 20
193.305607
 30
0.0
 11
191.912691
 21
193.305607
 31
0.0
  0
LINE
  5
11d
100
AcDbEntity
  8
Layer_1
 62
7
100
AcDbLine
 10
220.048576
 20
194.541735
 30
0.0
 11
220.048576
 21
192.089789
 31
0.0
  0
LINE
  5
11e
100
AcDbEntity
  8
Layer_1
 62
7
100
AcDbLine
 10
220.048576
 20
192.089789
 30
0.0
 11
220.048576
 21
194.541735
 31
0.0
  0
SPLINE
  5
11f
100
AcDbEntity
  8
Layer_1
 62
7
100
AcDbSpline
 70
8
 71
3
 72
8
 73
4
 74
0
 40
0
 40
0
 40
0
 40
0
 40
1
 40
1
 40
1
 40
1
 10
220.766549
 20
193.837309
 30
0.0
 10
221.162789
 20
193.837309
 30
0.0
 10
221.484522
 20
193.644269
 30
0.0
 10
221.484522
 20
192.963549
 30
0.0
  0
SPLINE
  5
120
100
AcDbEntity
  8
Layer_1
 62
7
100
AcDbSpline
 70
8
 71
3
 72
8
 73
4
 74
0
 40
0
 40
0
 40
0
 40
0
 40
1
 40
1
 40
1
 40
1
 10
221.484522
 20
192.963549
 30
0.0
 10
221.484522
 20
192.286215
 30
0.0
 10
221.162789
 20
192.089789
 30
0.0
 10
220.766549
 20
192.089789
 30
0.0
  0
SPLINE
  5
121
100
AcDbEntity
  8
Layer_1
 62
7
100
AcDbSpline
 70
8
 71
3
 72
8
 73
4
 74
0
 40
0
 40
0
 40
0
 40
0
 40
1
 40
1
 40
1
 40
1
 10
220.766549
 20
192.089789
 30
0.0
 10
220.370309
 20
192.089789
 30
0.0
 10
220.048576
 20
192.286215
 30
0.0
 10
220.048576
 20
192.963549
 30
0.0
  0
SPLINE
  5
122
100
AcDbEntity
  8
Layer_1
 62
7
100
AcDbSpline
 70
8
 71
3
 72
8
 73
4
 74
0
 40
0
 40
0
 40
0
 40
0
 40
1
 40
1
 40
1
 40
1
 10
220.048576
 20
192.963549
 30
0.0
 10
220.048576
 20
193.644269
 30
0.0
 10
220.370309
 20
193.837309
 30
0.0
 10
220.766549
 20
193.837309
 30
0.0
  0
SPLINE
  5
123
100
AcDbEntity
  8
Layer_1
 62
7
100
AcDbSpline
 70
8
 71
3
 72
8
 73
4
 74
0
 40
0
 40
0
 40
0
 40
0
 40
1
 40
1
 40
1
 40
1
 10
220.766549
 20
193.837309
 30
0.0
 10
221.162789
 20
193.837309
 30
0.0
 10
221.484522
 20
193.644269
 30
0.0
 10
221.484522
 20
192.963549
 30
0.0
  0
SPLINE
  5
124
100
AcDbEntity
  8
Layer_1
 62
7
100
AcDbSpline
 70
8
 71
3
 72
8
 73
4
 74
0
 40
0
 40
0
 40
0
 40
0
 40
1
 40
1
 40
1
 40
1
 10
221.484522
 20
192.963549
 30
0.0
 10
221.484522
 20
192.286215
 30
0.0
 10
221.162789
 20
192.089789
 30
0.0
 10
220.766549
 20
192.089789
 30
0.0
  0
SPLINE
  5
125
100
AcDbEntity
  8
Layer_1
 62
7
100
AcDbSpline
 70
8
 71
3
 72
8
 73
4
 74
0
 40
0
 40
0
 40
0
 40
0
 40
1
 40
1
 40
1
 40
1
 10
220.766549
 20
192.089789
 30
0.0
 10
220.370309
 20
192.089789
 30
0.0
 10
220.048576
 20
192.286215
 30
0.0
 10
220.048576
 20
192.963549
 30
0.0
  0
SPLINE
  5
126
100
AcDbEntity
  8
Layer_1
 62
7
100
AcDbSpline
 70
8
 71
3
 72
8
 73
4
 74
0
 40
0
 40
0
 40
0
 40
0
 40
1
 40
1
 40
1
 40
1
 10
220.048576
 20
192.963549
 30
0.0
 10
220.048576
 20
193.644269
 30
0.0
 10
220.370309
 20
193.837309
 30
0.0
 10
220.766549
 20
193.837309
 30
0.0
  0
SPLINE
  5
127
100
AcDbEntity
  8
Layer_1
 62
7
100
AcDbSpline
 70
8
 71
3
 72
8
 73
4
 74
0
 40
0
 40
0
 40
0
 40
0
 40
1
 40
1
 40
1
 40
1
 10
222.678111
 20
192.977095
 30
0.0
 10
222.667951
 20
193.366562
 30
0.0
 10
223.026937
 20
193.830535
 30
0.0
 10
223.341897
 20
193.827149
 30
0.0
  0
SPLINE
  5
128
100
AcDbEntity
  8
Layer_1
 62
7
100
AcDbSpline
 70
8
 71
3
 72
8
 73
4
 74
0
 40
0
 40
0
 40
0
 40
0
 40
1
 40
1
 40
1
 40
1
 10
223.341897
 20
193.827149
 30
0.0
 10
223.026937
 20
193.830535
 30
0.0
 10
222.667951
 20
193.366562
 30
0.0
 10
222.678111
 20
192.977095
 30
0.0
  0
LINE
  5
129
100
AcDbEntity
  8
Layer_1
 62
7
100
AcDbLine
 10
222.678111
 20
192.089789
 30
0.0
 11
222.678111
 21
193.827149
 31
0.0
  0
LINE
  5
12a
100
AcDbEntity
  8
Layer_1
 62
7
100
AcDbLine
 10
222.678111
 20
193.827149
 30
0.0
 11
222.678111
 21
192.089789
 31
0.0
  0
LINE
  5
12b
100
AcDbEntity
  8
Layer_1
 62
7
100
AcDbLine
 10
224.124587
 20
193.017735
 30
0.0
 11
225.638427
 21
193.017735
 31
0.0
  0
SPLINE
  5
12c
100
AcDbEntity
  8
Layer_1
 62
7
100
AcDbSpline
 70
8
 71
3
 72
8
 73
4
 74
0
 40
0
 40
0
 40
0
 40
0
 40
1
 40
1
 40
1
 40
1
 10
225.638427
 20
193.017735
 30
0.0
 10
225.638427
 20
193.393655
 30
0.0
 10
225.489414
 20
193.874562
 30
0.0
 10
224.950934
 20
193.874562
 30
0.0
  0
SPLINE
  5
12d
100
AcDbEntity
  8
Layer_1
 62
7
100
AcDbSpline
 70
8
 71
3
 72
8
 73
4
 74
0
 40
0
 40
0
 40
0
 40
0
 40
1
 40
1
 40
1
 40
1
 10
224.950934
 20
193.874562
 30
0.0
 10
224.415841
 20
193.874562
 30
0.0
 10
224.121201
 20
193.508802
 30
0.0
 10
224.121201
 20
192.950002
 30
0.0
  0
SPLINE
  5
12e
100
AcDbEntity
  8
Layer_1
 62
7
100
AcDbSpline
 70
8
 71
3
 72
8
 73
4
 74
0
 40
0
 40
0
 40
0
 40
0
 40
1
 40
1
 40
1
 40
1
 10
224.121201
 20
192.950002
 30
0.0
 10
224.121201
 20
192.387815
 30
0.0
 10
224.500507
 20
192.089789
 30
0.0
 10
224.950934
 20
192.103335
 30
0.0
  0
SPLINE
  5
12f
100
AcDbEntity
  8
Layer_1
 62
7
100
AcDbSpline
 70
8
 71
3
 72
8
 73
4
 74
0
 40
0
 40
0
 40
0
 40
0
 40
1
 40
1
 40
1
 40
1
 10
224.950934
 20
192.103335
 30
0.0
 10
225.404747
 20
192.116882
 30
0.0
 10
225.601174
 20
192.469095
 30
0.0
 10
225.624881
 20
192.594402
 30
0.0
  0
SPLINE
  5
130
100
AcDbEntity
  8
Layer_1
 62
7
100
AcDbSpline
 70
8
 71
3
 72
8
 73
4
 74
0
 40
0
 40
0
 40
0
 40
0
 40
1
 40
1
 40
1
 40
1
 10
225.624881
 20
192.594402
 30
0.0
 10
225.601174
 20
192.469095
 30
0.0
 10
225.404747
 20
192.116882
 30
0.0
 10
224.950934
 20
192.103335
 30
0.0
  0
SPLINE
  5
131
100
AcDbEntity
  8
Layer_1
 62
7
100
AcDbSpline
 70
8
 71
3
 72
8
 73
4
 74
0
 40
0
 40
0
 40
0
 40
0
 40
1
 40
1
 40
1
 40
1
 10
224.950934
 20
192.103335
 30
0.0
 10
224.500507
 20
192.089789
 30
0.0
 10
224.121201
 20
192.387815
 30
0.0
 10
224.121201
 20
192.950002
 30
0.0
  0
SPLINE
  5
132
100
AcDbEntity
  8
Layer_1
 62
7
100
AcDbSpline
 70
8
 71
3
 72
8
 73
4
 74
0
 40
0
 40
0
 40
0
 40
0
 40
1
 40
1
 40
1
 40
1
 10
224.121201
 20
192.950002
 30
0.0
 10
224.121201
 20
193.508802
 30
0.0
 10
224.415841
 20
193.874562
 30
0.0
 10
224.950934
 20
193.874562
 30
0.0
  0
SPLINE
  5
133
100
AcDbEntity
  8
Layer_1
 62
7
100
AcDbSpline
 70
8
 71
3
 72
8
 73
4
 74
0
 40
0
 40
0
 40
0
 40
0
 40
1
 40
1
 40
1
 40
1
 10
224.950934
 20
193.874562
 30
0.0
 10
225.489414
 20
193.874562
 30
0.0
 10
225.638427
 20
193.393655
 30
0.0
 10
225.638427
 20
193.017735
 30
0.0
  0
LINE
  5
134
100
AcDbEntity
  8
Layer_1
 62
7
100
AcDbLine
 10
225.638427
 20
193.017735
 30
0.0
 11
224.124587
 21
193.017735
 31
0.0
  0
SPLINE
  5
135
100
AcDbEntity
  8
Layer_1
 62
7
100
AcDbSpline
 70
8
 71
3
 72
8
 73
4
 74
0
 40
0
 40
0
 40
0
 40
0
 40
1
 40
1
 40
1
 40
1
 10
227.708739
 20
192.533442
 30
0.0
 10
227.607139
 20
192.387815
 30
0.0
 10
227.258312
 20
192.059309
 30
0.0
 10
226.980606
 20
192.069469
 30
0.0
  0
SPLINE
  5
136
100
AcDbEntity
  8
Layer_1
 62
7
100
AcDbSpline
 70
8
 71
3
 72
8
 73
4
 74
0
 40
0
 40
0
 40
0
 40
0
 40
1
 40
1
 40
1
 40
1
 10
226.980606
 20
192.069469
 30
0.0
 10
226.699512
 20
192.079629
 30
0.0
 10
226.475992
 20
192.167682
 30
0.0
 10
226.475992
 20
192.479255
 30
0.0
  0
SPLINE
  5
137
100
AcDbEntity
  8
Layer_1
 62
7
100
AcDbSpline
 70
8
 71
3
 72
8
 73
4
 74
0
 40
0
 40
0
 40
0
 40
0
 40
1
 40
1
 40
1
 40
1
 10
226.475992
 20
192.479255
 30
0.0
 10
226.475992
 20
192.794215
 30
0.0
 10
226.665646
 20
192.926295
 30
0.0
 10
227.024632
 20
192.960162
 30
0.0
  0
SPLINE
  5
138
100
AcDbEntity
  8
Layer_1
 62
7
100
AcDbSpline
 70
8
 71
3
 72
8
 73
4
 74
0
 40
0
 40
0
 40
0
 40
0
 40
1
 40
1
 40
1
 40
1
 10
227.024632
 20
192.960162
 30
0.0
 10
227.380232
 20
192.994029
 30
0.0
 10
227.539406
 20
193.048215
 30
0.0
 10
227.708739
 20
193.095629
 30
0.0
  0
SPLINE
  5
139
100
AcDbEntity
  8
Layer_1
 62
7
100
AcDbSpline
 70
8
 71
3
 72
8
 73
4
 74
0
 40
0
 40
0
 40
0
 40
0
 40
1
 40
1
 40
1
 40
1
 10
227.708739
 20
193.095629
 30
0.0
 10
227.539406
 20
193.048215
 30
0.0
 10
227.380232
 20
192.994029
 30
0.0
 10
227.024632
 20
192.960162
 30
0.0
  0
SPLINE
  5
13a
100
AcDbEntity
  8
Layer_1
 62
7
100
AcDbSpline
 70
8
 71
3
 72
8
 73
4
 74
0
 40
0
 40
0
 40
0
 40
0
 40
1
 40
1
 40
1
 40
1
 10
227.024632
 20
192.960162
 30
0.0
 10
226.665646
 20
192.926295
 30
0.0
 10
226.475992
 20
192.794215
 30
0.0
 10
226.475992
 20
192.479255
 30
0.0
  0
SPLINE
  5
13b
100
AcDbEntity
  8
Layer_1
 62
7
100
AcDbSpline
 70
8
 71
3
 72
8
 73
4
 74
0
 40
0
 40
0
 40
0
 40
0
 40
1
 40
1
 40
1
 40
1
 10
226.475992
 20
192.479255
 30
0.0
 10
226.475992
 20
192.167682
 30
0.0
 10
226.699512
 20
192.079629
 30
0.0
 10
226.980606
 20
192.069469
 30
0.0
  0
SPLINE
  5
13c
100
AcDbEntity
  8
Layer_1
 62
7
100
AcDbSpline
 70
8
 71
3
 72
8
 73
4
 74
0
 40
0
 40
0
 40
0
 40
0
 40
1
 40
1
 40
1
 40
1
 10
226.980606
 20
192.069469
 30
0.0
 10
227.258312
 20
192.059309
 30
0.0
 10
227.607139
 20
192.387815
 30
0.0
 10
227.708739
 20
192.533442
 30
0.0
  0
SPLINE
  5
13d
100
AcDbEntity
  8
Layer_1
 62
7
100
AcDbSpline
 70
8
 71
3
 72
8
 73
4
 74
0
 40
0
 40
0
 40
0
 40
0
 40
1
 40
1
 40
1
 40
1
 10
227.949192
 20
192.089789
 30
0.0
 10
227.949192
 20
192.089789
 30
0.0
 10
227.708739
 20
192.106722
 30
0.0
 10
227.708739
 20
192.309922
 30
0.0
  0
LINE
  5
13e
100
AcDbEntity
  8
Layer_1
 62
7
100
AcDbLine
 10
227.708739
 20
192.309922
 30
0.0
 11
227.708739
 21
193.424135
 31
0.0
  0
SPLINE
  5
13f
100
AcDbEntity
  8
Layer_1
 62
7
100
AcDbSpline
 70
8
 71
3
 72
8
 73
4
 74
0
 40
0
 40
0
 40
0
 40
0
 40
1
 40
1
 40
1
 40
1
 10
227.708739
 20
193.424135
 30
0.0
 10
227.708739
 20
193.566375
 30
0.0
 10
227.637619
 20
193.837309
 30
0.0
 10
227.180419
 20
193.837309
 30
0.0
  0
SPLINE
  5
140
100
AcDbEntity
  8
Layer_1
 62
7
100
AcDbSpline
 70
8
 71
3
 72
8
 73
4
 74
0
 40
0
 40
0
 40
0
 40
0
 40
1
 40
1
 40
1
 40
1
 10
227.180419
 20
193.837309
 30
0.0
 10
226.723219
 20
193.837309
 30
0.0
 10
226.553886
 20
193.630722
 30
0.0
 10
226.553886
 20
193.417362
 30
0.0
  0
SPLINE
  5
141
100
AcDbEntity
  8
Layer_1
 62
7
100
AcDbSpline
 70
8
 71
3
 72
8
 73
4
 74
0
 40
0
 40
0
 40
0
 40
0
 40
1
 40
1
 40
1
 40
1
 10
226.553886
 20
193.417362
 30
0.0
 10
226.553886
 20
193.630722
 30
0.0
 10
226.723219
 20
193.837309
 30
0.0
 10
227.180419
 20
193.837309
 30
0.0
  0
SPLINE
  5
142
100
AcDbEntity
  8
Layer_1
 62
7
100
AcDbSpline
 70
8
 71
3
 72
8
 73
4
 74
0
 40
0
 40
0
 40
0
 40
0
 40
1
 40
1
 40
1
 40
1
 10
227.180419
 20
193.837309
 30
0.0
 10
227.637619
 20
193.837309
 30
0.0
 10
227.708739
 20
193.566375
 30
0.0
 10
227.708739
 20
193.424135
 30
0.0
  0
LINE
  5
143
100
AcDbEntity
  8
Layer_1
 62
7
100
AcDbLine
 10
227.708739
 20
193.424135
 30
0.0
 11
227.708739
 21
192.309922
 31
0.0
  0
SPLINE
  5
144
100
AcDbEntity
  8
Layer_1
 62
7
100
AcDbSpline
 70
8
 71
3
 72
8
 73
4
 74
0
 40
0
 40
0
 40
0
 40
0
 40
1
 40
1
 40
1
 40
1
 10
227.708739
 20
192.309922
 30
0.0
 10
227.708739
 20
192.106722
 30
0.0
 10
227.949192
 20
192.089789
 30
0.0
 10
227.949192
 20
192.089789
 30
0.0
  0
SPLINE
  5
145
100
AcDbEntity
  8
Layer_1
 62
7
100
AcDbSpline
 70
8
 71
3
 72
8
 73
4
 74
0
 40
0
 40
0
 40
0
 40
0
 40
1
 40
1
 40
1
 40
1
 10
229.465996
 20
193.837309
 30
0.0
 10
229.858849
 20
193.837309
 30
0.0
 10
230.183969
 20
193.640882
 30
0.0
 10
230.183969
 20
192.963549
 30
0.0
  0
SPLINE
  5
146
100
AcDbEntity
  8
Layer_1
 62
7
100
AcDbSpline
 70
8
 71
3
 72
8
 73
4
 74
0
 40
0
 40
0
 40
0
 40
0
 40
1
 40
1
 40
1
 40
1
 10
230.183969
 20
192.963549
 30
0.0
 10
230.183969
 20
192.286215
 30
0.0
 10
229.858849
 20
192.089789
 30
0.0
 10
229.465996
 20
192.089789
 30
0.0
  0
SPLINE
  5
147
100
AcDbEntity
  8
Layer_1
 62
7
100
AcDbSpline
 70
8
 71
3
 72
8
 73
4
 74
0
 40
0
 40
0
 40
0
 40
0
 40
1
 40
1
 40
1
 40
1
 10
229.465996
 20
192.089789
 30
0.0
 10
229.073142
 20
192.089789
 30
0.0
 10
228.751409
 20
192.286215
 30
0.0
 10
228.751409
 20
192.963549
 30
0.0
  0
SPLINE
  5
148
100
AcDbEntity
  8
Layer_1
 62
7
100
AcDbSpline
 70
8
 71
3
 72
8
 73
4
 74
0
 40
0
 40
0
 40
0
 40
0
 40
1
 40
1
 40
1
 40
1
 10
228.751409
 20
192.963549
 30
0.0
 10
228.751409
 20
193.640882
 30
0.0
 10
229.073142
 20
193.837309
 30
0.0
 10
229.465996
 20
193.837309
 30
0.0
  0
SPLINE
  5
149
100
AcDbEntity
  8
Layer_1
 62
7
100
AcDbSpline
 70
8
 71
3
 72
8
 73
4
 74
0
 40
0
 40
0
 40
0
 40
0
 40
1
 40
1
 40
1
 40
1
 10
229.465996
 20
193.837309
 30
0.0
 10
229.858849
 20
193.837309
 30
0.0
 10
230.183969
 20
193.640882
 30
0.0
 10
230.183969
 20
192.963549
 30
0.0
  0
SPLINE
  5
14a
100
AcDbEntity
  8
Layer_1
 62
7
100
AcDbSpline
 70
8
 71
3
 72
8
 73
4
 74
0
 40
0
 40
0
 40
0
 40
0
 40
1
 40
1
 40
1
 40
1
 10
230.183969
 20
192.963549
 30
0.0
 10
230.183969
 20
192.286215
 30
0.0
 10
229.858849
 20
192.089789
 30
0.0
 10
229.465996
 20
192.089789
 30
0.0
  0
SPLINE
  5
14b
100
AcDbEntity
  8
Layer_1
 62
7
100
AcDbSpline
 70
8
 71
3
 72
8
 73
4
 74
0
 40
0
 40
0
 40
0
 40
0
 40
1
 40
1
 40
1
 40
1
 10
229.465996
 20
192.089789
 30
0.0
 10
229.073142
 20
192.089789
 30
0.0
 10
228.751409
 20
192.286215
 30
0.0
 10
228.751409
 20
192.963549
 30
0.0
  0
SPLINE
  5
14c
100
AcDbEntity
  8
Layer_1
 62
7
100
AcDbSpline
 70
8
 71
3
 72
8
 73
4
 74
0
 40
0
 40
0
 40
0
 40
0
 40
1
 40
1
 40
1
 40
1
 10
228.751409
 20
192.963549
 30
0.0
 10
228.751409
 20
193.640882
 30
0.0
 10
229.073142
 20
193.837309
 30
0.0
 10
229.465996
 20
193.837309
 30
0.0
  0
LINE
  5
14d
100
AcDbEntity
  8
Layer_1
 62
7
100
AcDbLine
 10
230.187356
 20
194.538349
 30
0.0
 11
230.187356
 21
192.089789
 31
0.0
  0
LINE
  5
14e
100
AcDbEntity
  8
Layer_1
 62
7
100
AcDbLine
 10
230.187356
 20
192.089789
 30
0.0
 11
230.187356
 21
194.538349
 31
0.0
  0
LINE
  5
14f
100
AcDbEntity
  8
Layer_1
 62
7
100
AcDbLine
 10
231.736544
 20
194.541735
 30
0.0
 11
231.736544
 21
192.089789
 31
0.0
  0
LINE
  5
150
100
AcDbEntity
  8
Layer_1
 62
7
100
AcDbLine
 10
231.736544
 20
192.089789
 30
0.0
 11
231.736544
 21
194.541735
 31
0.0
  0
SPLINE
  5
151
100
AcDbEntity
  8
Layer_1
 62
7
100
AcDbSpline
 70
8
 71
3
 72
8
 73
4
 74
0
 40
0
 40
0
 40
0
 40
0
 40
1
 40
1
 40
1
 40
1
 10
232.454517
 20
193.837309
 30
0.0
 10
232.850757
 20
193.837309
 30
0.0
 10
233.172491
 20
193.644269
 30
0.0
 10
233.172491
 20
192.963549
 30
0.0
  0
SPLINE
  5
152
100
AcDbEntity
  8
Layer_1
 62
7
100
AcDbSpline
 70
8
 71
3
 72
8
 73
4
 74
0
 40
0
 40
0
 40
0
 40
0
 40
1
 40
1
 40
1
 40
1
 10
233.172491
 20
192.963549
 30
0.0
 10
233.172491
 20
192.286215
 30
0.0
 10
232.850757
 20
192.089789
 30
0.0
 10
232.454517
 20
192.089789
 30
0.0
  0
SPLINE
  5
153
100
AcDbEntity
  8
Layer_1
 62
7
100
AcDbSpline
 70
8
 71
3
 72
8
 73
4
 74
0
 40
0
 40
0
 40
0
 40
0
 40
1
 40
1
 40
1
 40
1
 10
232.454517
 20
192.089789
 30
0.0
 10
232.058277
 20
192.089789
 30
0.0
 10
231.736544
 20
192.286215
 30
0.0
 10
231.736544
 20
192.963549
 30
0.0
  0
SPLINE
  5
154
100
AcDbEntity
  8
Layer_1
 62
7
100
AcDbSpline
 70
8
 71
3
 72
8
 73
4
 74
0
 40
0
 40
0
 40
0
 40
0
 40
1
 40
1
 40
1
 40
1
 10
231.736544
 20
192.963549
 30
0.0
 10
231.736544
 20
193.644269
 30
0.0
 10
232.058277
 20
193.837309
 30
0.0
 10
232.454517
 20
193.837309
 30
0.0
  0
SPLINE
  5
155
100
AcDbEntity
  8
Layer_1
 62
7
100
AcDbSpline
 70
8
 71
3
 72
8
 73
4
 74
0
 40
0
 40
0
 40
0
 40
0
 40
1
 40
1
 40
1
 40
1
 10
232.454517
 20
193.837309
 30
0.0
 10
232.850757
 20
193.837309
 30
0.0
 10
233.172491
 20
193.644269
 30
0.0
 10
233.172491
 20
192.963549
 30
0.0
  0
SPLINE
  5
156
100
AcDbEntity
  8
Layer_1
 62
7
100
AcDbSpline
 70
8
 71
3
 72
8
 73
4
 74
0
 40
0
 40
0
 40
0
 40
0
 40
1
 40
1
 40
1
 40
1
 10
233.172491
 20
192.963549
 30
0.0
 10
233.172491
 20
192.286215
 30
0.0
 10
232.850757
 20
192.089789
 30
0.0
 10
232.454517
 20
192.089789
 30
0.0
  0
SPLINE
  5
157
100
AcDbEntity
  8
Layer_1
 62
7
100
AcDbSpline
 70
8
 71
3
 72
8
 73
4
 74
0
 40
0
 40
0
 40
0
 40
0
 40
1
 40
1
 40
1
 40
1
 10
232.454517
 20
192.089789
 30
0.0
 10
232.058277
 20
192.089789
 30
0.0
 10
231.736544
 20
192.286215
 30
0.0
 10
231.736544
 20
192.963549
 30
0.0
  0
SPLINE
  5
158
100
AcDbEntity
  8
Layer_1
 62
7
100
AcDbSpline
 70
8
 71
3
 72
8
 73
4
 74
0
 40
0
 40
0
 40
0
 40
0
 40
1
 40
1
 40
1
 40
1
 10
231.736544
 20
192.963549
 30
0.0
 10
231.736544
 20
193.644269
 30
0.0
 10
232.058277
 20
193.837309
 30
0.0
 10
232.454517
 20
193.837309
 30
0.0
  0
SPLINE
  5
159
100
AcDbEntity
  8
Layer_1
 62
7
100
AcDbSpline
 70
8
 71
3
 72
8
 73
4
 74
0
 40
0
 40
0
 40
0
 40
0
 40
1
 40
1
 40
1
 40
1
 10
234.758932
 20
192.089789
 30
0.0
 10
235.182266
 20
192.089789
 30
0.0
 10
235.527706
 20
192.289602
 30
0.0
 10
235.527706
 20
192.977095
 30
0.0
  0
SPLINE
  5
15a
100
AcDbEntity
  8
Layer_1
 62
7
100
AcDbSpline
 70
8
 71
3
 72
8
 73
4
 74
0
 40
0
 40
0
 40
0
 40
0
 40
1
 40
1
 40
1
 40
1
 10
235.527706
 20
192.977095
 30
0.0
 10
235.527706
 20
193.661202
 30
0.0
 10
235.182266
 20
193.861015
 30
0.0
 10
234.758932
 20
193.861015
 30
0.0
  0
SPLINE
  5
15b
100
AcDbEntity
  8
Layer_1
 62
7
100
AcDbSpline
 70
8
 71
3
 72
8
 73
4
 74
0
 40
0
 40
0
 40
0
 40
0
 40
1
 40
1
 40
1
 40
1
 10
234.758932
 20
193.861015
 30
0.0
 10
234.338986
 20
193.861015
 30
0.0
 10
233.990159
 20
193.661202
 30
0.0
 10
233.990159
 20
192.977095
 30
0.0
  0
SPLINE
  5
15c
100
AcDbEntity
  8
Layer_1
 62
7
100
AcDbSpline
 70
8
 71
3
 72
8
 73
4
 74
0
 40
0
 40
0
 40
0
 40
0
 40
1
 40
1
 40
1
 40
1
 10
233.990159
 20
192.977095
 30
0.0
 10
233.990159
 20
192.289602
 30
0.0
 10
234.338986
 20
192.089789
 30
0.0
 10
234.758932
 20
192.089789
 30
0.0
  0
SPLINE
  5
15d
100
AcDbEntity
  8
Layer_1
 62
7
100
AcDbSpline
 70
8
 71
3
 72
8
 73
4
 74
0
 40
0
 40
0
 40
0
 40
0
 40
1
 40
1
 40
1
 40
1
 10
234.758932
 20
192.089789
 30
0.0
 10
235.182266
 20
192.089789
 30
0.0
 10
235.527706
 20
192.289602
 30
0.0
 10
235.527706
 20
192.977095
 30
0.0
  0
SPLINE
  5
15e
100
AcDbEntity
  8
Layer_1
 62
7
100
AcDbSpline
 70
8
 71
3
 72
8
 73
4
 74
0
 40
0
 40
0
 40
0
 40
0
 40
1
 40
1
 40
1
 40
1
 10
235.527706
 20
192.977095
 30
0.0
 10
235.527706
 20
193.661202
 30
0.0
 10
235.182266
 20
193.861015
 30
0.0
 10
234.758932
 20
193.861015
 30
0.0
  0
SPLINE
  5
15f
100
AcDbEntity
  8
Layer_1
 62
7
100
AcDbSpline
 70
8
 71
3
 72
8
 73
4
 74
0
 40
0
 40
0
 40
0
 40
0
 40
1
 40
1
 40
1
 40
1
 10
234.758932
 20
193.861015
 30
0.0
 10
234.338986
 20
193.861015
 30
0.0
 10
233.990159
 20
193.661202
 30
0.0
 10
233.990159
 20
192.977095
 30
0.0
  0
SPLINE
  5
160
100
AcDbEntity
  8
Layer_1
 62
7
100
AcDbSpline
 70
8
 71
3
 72
8
 73
4
 74
0
 40
0
 40
0
 40
0
 40
0
 40
1
 40
1
 40
1
 40
1
 10
233.990159
 20
192.977095
 30
0.0
 10
233.990159
 20
192.289602
 30
0.0
 10
234.338986
 20
192.089789
 30
0.0
 10
234.758932
 20
192.089789
 30
0.0
  0
SPLINE
  5
161
100
AcDbEntity
  8
Layer_1
 62
7
100
AcDbSpline
 70
8
 71
3
 72
8
 73
4
 74
0
 40
0
 40
0
 40
0
 40
0
 40
1
 40
1
 40
1
 40
1
 10
237.564467
 20
192.533442
 30
0.0
 10
237.462867
 20
192.387815
 30
0.0
 10
237.114040
 20
192.059309
 30
0.0
 10
236.836333
 20
192.069469
 30
0.0
  0
SPLINE
  5
162
100
AcDbEntity
  8
Layer_1
 62
7
100
AcDbSpline
 70
8
 71
3
 72
8
 73
4
 74
0
 40
0
 40
0
 40
0
 40
0
 40
1
 40
1
 40
1
 40
1
 10
236.836333
 20
192.069469
 30
0.0
 10
236.555243
 20
192.079629
 30
0.0
 10
236.331720
 20
192.167682
 30
0.0
 10
236.331720
 20
192.479255
 30
0.0
  0
SPLINE
  5
163
100
AcDbEntity
  8
Layer_1
 62
7
100
AcDbSpline
 70
8
 71
3
 72
8
 73
4
 74
0
 40
0
 40
0
 40
0
 40
0
 40
1
 40
1
 40
1
 40
1
 10
236.331720
 20
192.479255
 30
0.0
 10
236.331720
 20
192.794215
 30
0.0
 10
236.521376
 20
192.926295
 30
0.0
 10
236.880360
 20
192.960162
 30
0.0
  0
SPLINE
  5
164
100
AcDbEntity
  8
Layer_1
 62
7
100
AcDbSpline
 70
8
 71
3
 72
8
 73
4
 74
0
 40
0
 40
0
 40
0
 40
0
 40
1
 40
1
 40
1
 40
1
 10
236.880360
 20
192.960162
 30
0.0
 10
237.235960
 20
192.994029
 30
0.0
 10
237.395133
 20
193.048215
 30
0.0
 10
237.564467
 20
193.095629
 30
0.0
  0
SPLINE
  5
165
100
AcDbEntity
  8
Layer_1
 62
7
100
AcDbSpline
 70
8
 71
3
 72
8
 73
4
 74
0
 40
0
 40
0
 40
0
 40
0
 40
1
 40
1
 40
1
 40
1
 10
237.564467
 20
193.095629
 30
0.0
 10
237.395133
 20
193.048215
 30
0.0
 10
237.235960
 20
192.994029
 30
0.0
 10
236.880360
 20
192.960162
 30
0.0
  0
SPLINE
  5
166
100
AcDbEntity
  8
Layer_1
 62
7
100
AcDbSpline
 70
8
 71
3
 72
8
 73
4
 74
0
 40
0
 40
0
 40
0
 40
0
 40
1
 40
1
 40
1
 40
1
 10
236.880360
 20
192.960162
 30
0.0
 10
236.521376
 20
192.926295
 30
0.0
 10
236.331720
 20
192.794215
 30
0.0
 10
236.331720
 20
192.479255
 30
0.0
  0
SPLINE
  5
167
100
AcDbEntity
  8
Layer_1
 62
7
100
AcDbSpline
 70
8
 71
3
 72
8
 73
4
 74
0
 40
0
 40
0
 40
0
 40
0
 40
1
 40
1
 40
1
 40
1
 10
236.331720
 20
192.479255
 30
0.0
 10
236.331720
 20
192.167682
 30
0.0
 10
236.555243
 20
192.079629
 30
0.0
 10
236.836333
 20
192.069469
 30
0.0
  0
SPLINE
  5
168
100
AcDbEntity
  8
Layer_1
 62
7
100
AcDbSpline
 70
8
 71
3
 72
8
 73
4
 74
0
 40
0
 40
0
 40
0
 40
0
 40
1
 40
1
 40
1
 40
1
 10
236.836333
 20
192.069469
 30
0.0
 10
237.114040
 20
192.059309
 30
0.0
 10
237.462867
 20
192.387815
 30
0.0
 10
237.564467
 20
192.533442
 30
0.0
  0
SPLINE
  5
169
100
AcDbEntity
  8
Layer_1
 62
7
100
AcDbSpline
 70
8
 71
3
 72
8
 73
4
 74
0
 40
0
 40
0
 40
0
 40
0
 40
1
 40
1
 40
1
 40
1
 10
237.804920
 20
192.089789
 30
0.0
 10
237.804920
 20
192.089789
 30
0.0
 10
237.564467
 20
192.106722
 30
0.0
 10
237.564467
 20
192.309922
 30
0.0
  0
LINE
  5
16a
100
AcDbEntity
  8
Layer_1
 62
7
100
AcDbLine
 10
237.564467
 20
192.309922
 30
0.0
 11
237.564467
 21
193.424135
 31
0.0
  0
SPLINE
  5
16b
100
AcDbEntity
  8
Layer_1
 62
7
100
AcDbSpline
 70
8
 71
3
 72
8
 73
4
 74
0
 40
0
 40
0
 40
0
 40
0
 40
1
 40
1
 40
1
 40
1
 10
237.564467
 20
193.424135
 30
0.0
 10
237.564467
 20
193.566375
 30
0.0
 10
237.493347
 20
193.837309
 30
0.0
 10
237.036147
 20
193.837309
 30
0.0
  0
SPLINE
  5
16c
100
AcDbEntity
  8
Layer_1
 62
7
100
AcDbSpline
 70
8
 71
3
 72
8
 73
4
 74
0
 40
0
 40
0
 40
0
 40
0
 40
1
 40
1
 40
1
 40
1
 10
237.036147
 20
193.837309
 30
0.0
 10
236.578949
 20
193.837309
 30
0.0
 10
236.409613
 20
193.630722
 30
0.0
 10
236.409613
 20
193.417362
 30
0.0
  0
SPLINE
  5
16d
100
AcDbEntity
  8
Layer_1
 62
7
100
AcDbSpline
 70
8
 71
3
 72
8
 73
4
 74
0
 40
0
 40
0
 40
0
 40
0
 40
1
 40
1
 40
1
 40
1
 10
236.409613
 20
193.417362
 30
0.0
 10
236.409613
 20
193.630722
 30
0.0
 10
236.578949
 20
193.837309
 30
0.0
 10
237.036147
 20
193.837309
 30
0.0
  0
SPLINE
  5
16e
100
AcDbEntity
  8
Layer_1
 62
7
100
AcDbSpline
 70
8
 71
3
 72
8
 73
4
 74
0
 40
0
 40
0
 40
0
 40
0
 40
1
 40
1
 40
1
 40
1
 10
237.036147
 20
193.837309
 30
0.0
 10
237.493347
 20
193.837309
 30
0.0
 10
237.564467
 20
193.566375
 30
0.0
 10
237.564467
 20
193.424135
 30
0.0
  0
LINE
  5
16f
100
AcDbEntity
  8
Layer_1
 62
7
100
AcDbLine
 10
237.564467
 20
193.424135
 30
0.0
 11
237.564467
 21
192.309922
 31
0.0
  0
SPLINE
  5
170
100
AcDbEntity
  8
Layer_1
 62
7
100
AcDbSpline
 70
8
 71
3
 72
8
 73
4
 74
0
 40
0
 40
0
 40
0
 40
0
 40
1
 40
1
 40
1
 40
1
 10
237.564467
 20
192.309922
 30
0.0
 10
237.564467
 20
192.106722
 30
0.0
 10
237.804920
 20
192.089789
 30
0.0
 10
237.804920
 20
192.089789
 30
0.0
  0
SPLINE
  5
171
100
AcDbEntity
  8
Layer_1
 62
7
100
AcDbSpline
 70
8
 71
3
 72
8
 73
4
 74
0
 40
0
 40
0
 40
0
 40
0
 40
1
 40
1
 40
1
 40
1
 10
238.983057
 20
192.977095
 30
0.0
 10
238.972897
 20
193.366562
 30
0.0
 10
239.331886
 20
193.830535
 30
0.0
 10
239.646843
 20
193.827149
 30
0.0
  0
SPLINE
  5
172
100
AcDbEntity
  8
Layer_1
 62
7
100
AcDbSpline
 70
8
 71
3
 72
8
 73
4
 74
0
 40
0
 40
0
 40
0
 40
0
 40
1
 40
1
 40
1
 40
1
 10
239.646843
 20
193.827149
 30
0.0
 10
239.331886
 20
193.830535
 30
0.0
 10
238.972897
 20
193.366562
 30
0.0
 10
238.983057
 20
192.977095
 30
0.0
  0
LINE
  5
173
100
AcDbEntity
  8
Layer_1
 62
7
100
AcDbLine
 10
238.983057
 20
192.089789
 30
0.0
 11
238.983057
 21
193.827149
 31
0.0
  0
LINE
  5
174
100
AcDbEntity
  8
Layer_1
 62
7
100
AcDbLine
 10
238.983057
 20
193.827149
 30
0.0
 11
238.983057
 21
192.089789
 31
0.0
  0
SPLINE
  5
175
100
AcDbEntity
  8
Layer_1
 62
7
100
AcDbSpline
 70
8
 71
3
 72
8
 73
4
 74
0
 40
0
 40
0
 40
0
 40
0
 40
1
 40
1
 40
1
 40
1
 10
241.140736
 20
193.837309
 30
0.0
 10
241.533589
 20
193.837309
 30
0.0
 10
241.858709
 20
193.640882
 30
0.0
 10
241.858709
 20
192.963549
 30
0.0
  0
SPLINE
  5
176
100
AcDbEntity
  8
Layer_1
 62
7
100
AcDbSpline
 70
8
 71
3
 72
8
 73
4
 74
0
 40
0
 40
0
 40
0
 40
0
 40
1
 40
1
 40
1
 40
1
 10
241.858709
 20
192.963549
 30
0.0
 10
241.858709
 20
192.286215
 30
0.0
 10
241.533589
 20
192.089789
 30
0.0
 10
241.140736
 20
192.089789
 30
0.0
  0
SPLINE
  5
177
100
AcDbEntity
  8
Layer_1
 62
7
100
AcDbSpline
 70
8
 71
3
 72
8
 73
4
 74
0
 40
0
 40
0
 40
0
 40
0
 40
1
 40
1
 40
1
 40
1
 10
241.140736
 20
192.089789
 30
0.0
 10
240.747882
 20
192.089789
 30
0.0
 10
240.426149
 20
192.286215
 30
0.0
 10
240.426149
 20
192.963549
 30
0.0
  0
SPLINE
  5
178
100
AcDbEntity
  8
Layer_1
 62
7
100
AcDbSpline
 70
8
 71
3
 72
8
 73
4
 74
0
 40
0
 40
0
 40
0
 40
0
 40
1
 40
1
 40
1
 40
1
 10
240.426149
 20
192.963549
 30
0.0
 10
240.426149
 20
193.640882
 30
0.0
 10
240.747882
 20
193.837309
 30
0.0
 10
241.140736
 20
193.837309
 30
0.0
  0
SPLINE
  5
179
100
AcDbEntity
  8
Layer_1
 62
7
100
AcDbSpline
 70
8
 71
3
 72
8
 73
4
 74
0
 40
0
 40
0
 40
0
 40
0
 40
1
 40
1
 40
1
 40
1
 10
241.140736
 20
193.837309
 30
0.0
 10
241.533589
 20
193.837309
 30
0.0
 10
241.858709
 20
193.640882
 30
0.0
 10
241.858709
 20
192.963549
 30
0.0
  0
SPLINE
  5
17a
100
AcDbEntity
  8
Layer_1
 62
7
100
AcDbSpline
 70
8
 71
3
 72
8
 73
4
 74
0
 40
0
 40
0
 40
0
 40
0
 40
1
 40
1
 40
1
 40
1
 10
241.858709
 20
192.963549
 30
0.0
 10
241.858709
 20
192.286215
 30
0.0
 10
241.533589
 20
192.089789
 30
0.0
 10
241.140736
 20
192.089789
 30
0.0
  0
SPLINE
  5
17b
100
AcDbEntity
  8
Layer_1
 62
7
100
AcDbSpline
 70
8
 71
3
 72
8
 73
4
 74
0
 40
0
 40
0
 40
0
 40
0
 40
1
 40
1
 40
1
 40
1
 10
241.140736
 20
192.089789
 30
0.0
 10
240.747882
 20
192.089789
 30
0.0
 10
240.426149
 20
192.286215
 30
0.0
 10
240.426149
 20
192.963549
 30
0.0
  0
SPLINE
  5
17c
100
AcDbEntity
  8
Layer_1
 62
7
100
AcDbSpline
 70
8
 71
3
 72
8
 73
4
 74
0
 40
0
 40
0
 40
0
 40
0
 40
1
 40
1
 40
1
 40
1
 10
240.426149
 20
192.963549
 30
0.0
 10
240.426149
 20
193.640882
 30
0.0
 10
240.747882
 20
193.837309
 30
0.0
 10
241.140736
 20
193.837309
 30
0.0
  0
LINE
  5
17d
100
AcDbEntity
  8
Layer_1
 62
7
100
AcDbLine
 10
241.862096
 20
194.538349
 30
0.0
 11
241.862096
 21
192.089789
 31
0.0
  0
LINE
  5
17e
100
AcDbEntity
  8
Layer_1
 62
7
100
AcDbLine
 10
241.862096
 20
192.089789
 30
0.0
 11
241.862096
 21
194.538349
 31
0.0
  0
SPLINE
  5
17f
100
AcDbEntity
  8
Layer_1
 62
7
100
AcDbSpline
 70
8
 71
3
 72
8
 73
4
 74
0
 40
0
 40
0
 40
0
 40
0
 40
1
 40
1
 40
1
 40
1
 10
183.949919
 20
220.807859
 30
0.0
 10
182.841920
 20
220.807859
 30
0.0
 10
181.947905
 20
219.913843
 30
0.0
 10
181.947905
 20
218.805845
 30
0.0
  0
LINE
  5
180
100
AcDbEntity
  8
Layer_1
 62
7
100
AcDbLine
 10
181.947905
 20
218.805845
 30
0.0
 11
181.947905
 21
213.311331
 31
0.0
  0
LINE
  5
181
100
AcDbEntity
  8
Layer_1
 62
7
100
AcDbLine
 10
181.947905
 20
213.311331
 30
0.0
 11
187.782976
 21
213.311331
 31
0.0
  0
SPLINE
  5
182
100
AcDbEntity
  8
Layer_1
 62
7
100
AcDbSpline
 70
8
 71
3
 72
8
 73
4
 74
0
 40
0
 40
0
 40
0
 40
0
 40
1
 40
1
 40
1
 40
1
 10
187.782976
 20
213.311331
 30
0.0
 10
188.890981
 20
213.311331
 30
0.0
 10
189.784990
 20
212.417316
 30
0.0
 10
189.784990
 20
211.309317
 30
0.0
  0
LINE
  5
183
100
AcDbEntity
  8
Layer_1
 62
7
100
AcDbLine
 10
189.784990
 20
211.309317
 30
0.0
 11
189.784990
 21
175.308345
 31
0.0
  0
SPLINE
  5
184
100
AcDbEntity
  8
Layer_1
 62
7
100
AcDbSpline
 70
8
 71
3
 72
8
 73
4
 74
0
 40
0
 40
0
 40
0
 40
0
 40
1
 40
1
 40
1
 40
1
 10
189.784990
 20
175.308345
 30
0.0
 10
189.784990
 20
174.200343
 30
0.0
 10
188.890981
 20
173.306331
 30
0.0
 10
187.782976
 20
173.306331
 30
0.0
  0
LINE
  5
185
100
AcDbEntity
  8
Layer_1
 62
7
100
AcDbLine
 10
187.782976
 20
173.306331
 30
0.0
 11
181.947905
 21
173.306331
 31
0.0
  0
LINE
  5
186
100
AcDbEntity
  8
Layer_1
 62
7
100
AcDbLine
 10
181.947905
 20
173.306331
 30
0.0
 11
181.947905
 21
167.811817
 31
0.0
  0
SPLINE
  5
187
100
AcDbEntity
  8
Layer_1
 62
7
100
AcDbSpline
 70
8
 71
3
 72
8
 73
4
 74
0
 40
0
 40
0
 40
0
 40
0
 40
1
 40
1
 40
1
 40
1
 10
181.947905
 20
167.811817
 30
0.0
 10
181.947905
 20
166.703818
 30
0.0
 10
182.841920
 20
165.809803
 30
0.0
 10
183.949919
 20
165.809803
 30
0.0
  0
LINE
  5
188
100
AcDbEntity
  8
Layer_1
 62
7
100
AcDbLine
 10
183.949919
 20
165.809803
 30
0.0
 11
277.949575
 21
165.809803
 31
0.0
  0
SPLINE
  5
189
100
AcDbEntity
  8
Layer_1
 62
7
100
AcDbSpline
 70
8
 71
3
 72
8
 73
4
 74
0
 40
0
 40
0
 40
0
 40
0
 40
1
 40
1
 40
1
 40
1
 10
277.949575
 20
165.809803
 30
0.0
 10
279.057574
 20
165.809803
 30
0.0
 10
279.753193
 20
166.721725
 30
0.0
 10
279.951589
 20
167.811817
 30
0.0
  0
LINE
  5
18a
100
AcDbEntity
  8
Layer_1
 62
7
100
AcDbLine
 10
279.951589
 20
167.811817
 30
0.0
 11
279.951589
 21
173.306331
 31
0.0
  0
LINE
  5
18b
100
AcDbEntity
  8
Layer_1
 62
7
100
AcDbLine
 10
279.951589
 20
173.306331
 30
0.0
 11
274.116518
 21
173.306331
 31
0.0
  0
SPLINE
  5
18c
100
AcDbEntity
  8
Layer_1
 62
7
100
AcDbSpline
 70
8
 71
3
 72
8
 73
4
 74
0
 40
0
 40
0
 40
0
 40
0
 40
1
 40
1
 40
1
 40
1
 10
274.116518
 20
173.306331
 30
0.0
 10
273.008513
 20
173.306331
 30
0.0
 10
272.114504
 20
174.200343
 30
0.0
 10
272.114504
 20
175.308345
 30
0.0
  0
LINE
  5
18d
100
AcDbEntity
  8
Layer_1
 62
7
100
AcDbLine
 10
272.114504
 20
175.308345
 30
0.0
 11
272.114504
 21
211.309317
 31
0.0
  0
SPLINE
  5
18e
100
AcDbEntity
  8
Layer_1
 62
7
100
AcDbSpline
 70
8
 71
3
 72
8
 73
4
 74
0
 40
0
 40
0
 40
0
 40
0
 40
1
 40
1
 40
1
 40
1
 10
272.114504
 20
211.309317
 30
0.0
 10
272.114504
 20
212.417316
 30
0.0
 10
273.008513
 20
213.311331
 30
0.0
 10
274.116518
 20
213.311331
 30
0.0
  0
LINE
  5
18f
100
AcDbEntity
  8
Layer_1
 62
7
100
AcDbLine
 10
274.116518
 20
213.311331
 30
0.0
 11
279.951589
 21
213.311331
 31
0.0
  0
LINE
  5
190
100
AcDbEntity
  8
Layer_1
 62
7
100
AcDbLine
 10
279.951589
 20
213.311331
 30
0.0
 11
279.951589
 21
218.805845
 31
0.0
  0
SPLINE
  5
191
100
AcDbEntity
  8
Layer_1
 62
7
100
AcDbSpline
 70
8
 71
3
 72
8
 73
4
 74
0
 40
0
 40
0
 40
0
 40
0
 40
1
 40
1
 40
1
 40
1
 10
279.951589
 20
218.805845
 30
0.0
 10
279.951589
 20
219.913843
 30
0.0
 10
279.057574
 20
220.807859
 30
0.0
 10
277.949575
 20
220.807859
 30
0.0
  0
LINE
  5
192
100
AcDbEntity
  8
Layer_1
 62
7
100
AcDbLine
 10
277.949575
 20
220.807859
 30
0.0
 11
183.949919
 21
220.807859
 31
0.0
  0
SPLINE
  5
193
100
AcDbEntity
  8
Layer_1
 62
7
100
AcDbSpline
 70
8
 71
3
 72
8
 73
4
 74
0
 40
0
 40
0
 40
0
 40
0
 40
1
 40
1
 40
1
 40
1
 10
80.794931
 20
229.811171
 30
0.0
 10
78.024931
 20
229.811171
 30
0.0
 10
75.794306
 20
227.580546
 30
0.0
 10
75.794306
 20
224.810546
 30
0.0
  0
LINE
  5
194
100
AcDbEntity
  8
Layer_1
 62
7
100
AcDbLine
 10
75.794306
 20
224.810546
 30
0.0
 11
75.794306
 21
155.807212
 31
0.0
  0
SPLINE
  5
195
100
AcDbEntity
  8
Layer_1
 62
7
100
AcDbSpline
 70
8
 71
3
 72
8
 73
4
 74
0
 40
0
 40
0
 40
0
 40
0
 40
1
 40
1
 40
1
 40
1
 10
75.794306
 20
155.807212
 30
0.0
 10
75.794306
 20
153.037213
 30
0.0
 10
78.024931
 20
150.806587
 30
0.0
 10
80.794931
 20
150.806587
 30
0.0
  0
LINE
  5
196
100
AcDbEntity
  8
Layer_1
 62
7
100
AcDbLine
 10
80.794931
 20
150.806587
 30
0.0
 11
404.794861
 21
150.806587
 31
0.0
  0
SPLINE
  5
197
100
AcDbEntity
  8
Layer_1
 62
7
100
AcDbSpline
 70
8
 71
3
 72
8
 73
4
 74
0
 40
0
 40
0
 40
0
 40
0
 40
1
 40
1
 40
1
 40
1
 10
404.794861
 20
150.806587
 30
0.0
 10
407.564872
 20
150.806587
 30
0.0
 10
409.795472
 20
153.037213
 30
0.0
 10
409.795472
 20
155.807212
 30
0.0
  0
LINE
  5
198
100
AcDbEntity
  8
Layer_1
 62
7
100
AcDbLine
 10
409.795472
 20
155.807212
 30
0.0
 11
409.795472
 21
224.810546
 31
0.0
  0
SPLINE
  5
199
100
AcDbEntity
  8
Layer_1
 62
7
100
AcDbSpline
 70
8
 71
3
 72
8
 73
4
 74
0
 40
0
 40
0
 40
0
 40
0
 40
1
 40
1
 40
1
 40
1
 10
409.795472
 20
224.810546
 30
0.0
 10
409.795472
 20
227.580546
 30
0.0
 10
407.564872
 20
229.811171
 30
0.0
 10
404.794861
 20
229.811171
 30
0.0
  0
LINE
  5
19a
100
AcDbEntity
  8
Layer_1
 62
7
100
AcDbLine
 10
404.794861
 20
229.811171
 30
0.0
 11
125.615347
 21
229.811171
 31
0.0
  0
SPLINE
  5
19b
100
AcDbEntity
  8
Layer_1
 62
7
100
AcDbSpline
 70
8
 71
3
 72
8
 73
4
 74
0
 40
0
 40
0
 40
0
 40
0
 40
1
 40
1
 40
1
 40
1
 10
125.615347
 20
229.811171
 30
0.0
 10
125.109311
 20
229.530264
 30
0.0
 10
123.687092
 20
228.029166
 30
0.0
 10
122.655415
 20
227.976726
 30
0.0
  0
SPLINE
  5
19c
100
AcDbEntity
  8
Layer_1
 62
7
100
AcDbSpline
 70
8
 71
3
 72
8
 73
4
 74
0
 40
0
 40
0
 40
0
 40
0
 40
1
 40
1
 40
1
 40
1
 10
122.655415
 20
227.976726
 30
0.0
 10
120.755009
 20
227.880130
 30
0.0
 10
118.949351
 20
228.687232
 30
0.0
 10
117.695486
 20
229.811171
 30
0.0
  0
LINE
  5
19d
100
AcDbEntity
  8
Layer_1
 62
7
100
AcDbLine
 10
117.695486
 20
229.811171
 30
0.0
 11
80.794931
 21
229.811171
 31
0.0
  0
LINE
  5
19e
100
AcDbEntity
  8
Layer_1
 62
1
100
AcDbLine
 10
85.794302
 20
227.308878
 30
0.0
 11
390.794296
 21
227.308878
 31
0.0
  0
SPLINE
  5
19f
100
AcDbEntity
  8
Layer_1
 62
1
100
AcDbSpline
 70
8
 71
3
 72
8
 73
4
 74
0
 40
0
 40
0
 40
0
 40
0
 40
1
 40
1
 40
1
 40
1
 10
390.794296
 20
227.308878
 30
0.0
 10
393.564308
 20
227.308878
 30
0.0
 10
395.794286
 20
225.078880
 30
0.0
 10
395.794286
 20
222.308880
 30
0.0
  0
LINE
  5
1a0
100
AcDbEntity
  8
Layer_1
 62
1
100
AcDbLine
 10
395.794286
 20
222.308880
 30
0.0
 11
395.794286
 21
158.308884
 31
0.0
  0
SPLINE
  5
1a1
100
AcDbEntity
  8
Layer_1
 62
1
100
AcDbSpline
 70
8
 71
3
 72
8
 73
4
 74
0
 40
0
 40
0
 40
0
 40
0
 40
1
 40
1
 40
1
 40
1
 10
395.794286
 20
158.308884
 30
0.0
 10
395.794286
 20
155.538884
 30
0.0
 10
393.564308
 20
153.308883
 30
0.0
 10
390.794296
 20
153.308883
 30
0.0
  0
LINE
  5
1a2
100
AcDbEntity
  8
Layer_1
 62
1
100
AcDbLine
 10
390.794296
 20
153.308883
 30
0.0
 11
85.794302
 21
153.308883
 31
0.0
  0
SPLINE
  5
1a3
100
AcDbEntity
  8
Layer_1
 62
1
100
AcDbSpline
 70
8
 71
3
 72
8
 73
4
 74
0
 40
0
 40
0
 40
0
 40
0
 40
1
 40
1
 40
1
 40
1
 10
85.794302
 20
153.308883
 30
0.0
 10
83.024303
 20
153.308883
 30
0.0
 10
80.794301
 20
155.538884
 30
0.0
 10
80.794301
 20
158.308884
 30
0.0
  0
LINE
  5
1a4
100
AcDbEntity
  8
Layer_1
 62
1
100
AcDbLine
 10
80.794301
 20
158.308884
 30
0.0
 11
80.794301
 21
222.308880
 31
0.0
  0
SPLINE
  5
1a5
100
AcDbEntity
  8
Layer_1
 62
1
100
AcDbSpline
 70
8
 71
3
 72
8
 73
4
 74
0
 40
0
 40
0
 40
0
 40
0
 40
1
 40
1
 40
1
 40
1
 10
80.794301
 20
222.308880
 30
0.0
 10
80.794301
 20
225.078880
 30
0.0
 10
83.024303
 20
227.308878
 30
0.0
 10
85.794302
 20
227.308878
 30
0.0
  0
LINE
  5
1a6
100
AcDbEntity
  8
Layer_1
 62
1
100
AcDbLine
 10
85.794302
 20
227.308878
 30
0.0
 11
85.794302
 21
227.308878
 31
0.0
  0
LINE
  5
1a7
100
AcDbEntity
  8
Layer_1
 62
7
100
AcDbLine
 10
175.794089
 20
223.308878
 30
0.0
 11
276.110085
 21
223.308878
 31
0.0
  0
SPLINE
  5
1a8
100
AcDbEntity
  8
Layer_1
 62
7
100
AcDbSpline
 70
8
 71
3
 72
8
 73
4
 74
0
 40
0
 40
0
 40
0
 40
0
 40
1
 40
1
 40
1
 40
1
 10
276.110085
 20
223.308878
 30
0.0
 10
278.880085
 20
223.308878
 30
0.0
 10
281.110086
 20
221.078879
 30
0.0
 10
281.110086
 20
218.308877
 30
0.0
  0
LINE
  5
1a9
100
AcDbEntity
  8
Layer_1
 62
7
100
AcDbLine
 10
281.110086
 20
218.308877
 30
0.0
 11
281.110086
 21
168.308881
 31
0.0
  0
SPLINE
  5
1aa
100
AcDbEntity
  8
Layer_1
 62
7
100
AcDbSpline
 70
8
 71
3
 72
8
 73
4
 74
0
 40
0
 40
0
 40
0
 40
0
 40
1
 40
1
 40
1
 40
1
 10
281.110086
 20
168.308881
 30
0.0
 10
281.110086
 20
165.538881
 30
0.0
 10
278.880085
 20
163.308879
 30
0.0
 10
276.110085
 20
163.308879
 30
0.0
  0
LINE
  5
1ab
100
AcDbEntity
  8
Layer_1
 62
7
100
AcDbLine
 10
276.110085
 20
163.308879
 30
0.0
 11
175.794089
 21
163.308879
 31
0.0
  0
SPLINE
  5
1ac
100
AcDbEntity
  8
Layer_1
 62
7
100
AcDbSpline
 70
8
 71
3
 72
8
 73
4
 74
0
 40
0
 40
0
 40
0
 40
0
 40
1
 40
1
 40
1
 40
1
 10
175.794089
 20
163.308879
 30
0.0
 10
173.024089
 20
163.308879
 30
0.0
 10
170.794087
 20
165.538881
 30
0.0
 10
170.794087
 20
168.308881
 30
0.0
  0
LINE
  5
1ad
100
AcDbEntity
  8
Layer_1
 62
7
100
AcDbLine
 10
170.794087
 20
168.308881
 30
0.0
 11
170.794087
 21
218.308877
 31
0.0
  0
SPLINE
  5
1ae
100
AcDbEntity
  8
Layer_1
 62
7
100
AcDbSpline
 70
8
 71
3
 72
8
 73
4
 74
0
 40
0
 40
0
 40
0
 40
0
 40
1
 40
1
 40
1
 40
1
 10
170.794087
 20
218.308877
 30
0.0
 10
170.794087
 20
221.078879
 30
0.0
 10
173.024089
 20
223.308878
 30
0.0
 10
175.794089
 20
223.308878
 30
0.0
  0
LINE
  5
1af
100
AcDbEntity
  8
Layer_1
 62
7
100
AcDbLine
 10
175.794089
 20
223.308878
 30
0.0
 11
175.794089
 21
223.308878
 31
0.0
  0
SPLINE
  5
1b0
100
AcDbEntity
  8
Layer_1
 62
7
100
AcDbSpline
 70
8
 71
3
 72
8
 73
4
 74
0
 40
0
 40
0
 40
0
 40
0
 40
1
 40
1
 40
1
 40
1
 10
184.952101
 20
218.992585
 30
0.0
 10
185.605846
 20
218.992585
 30
0.0
 10
186.135811
 20
218.462620
 30
0.0
 10
186.135812
 20
217.808875
 30
0.0
  0
SPLINE
  5
1b1
100
AcDbEntity
  8
Layer_1
 62
7
100
AcDbSpline
 70
8
 71
3
 72
8
 73
4
 74
0
 40
0
 40
0
 40
0
 40
0
 40
1
 40
1
 40
1
 40
1
 10
186.135812
 20
217.808875
 30
0.0
 10
186.135812
 20
217.155129
 30
0.0
 10
185.605847
 20
216.625162
 30
0.0
 10
184.952101
 20
216.625162
 30
0.0
  0
SPLINE
  5
1b2
100
AcDbEntity
  8
Layer_1
 62
7
100
AcDbSpline
 70
8
 71
3
 72
8
 73
4
 74
0
 40
0
 40
0
 40
0
 40
0
 40
1
 40
1
 40
1
 40
1
 10
184.952101
 20
216.625162
 30
0.0
 10
184.638161
 20
216.625161
 30
0.0
 10
184.337078
 20
216.749873
 30
0.0
 10
184.115089
 20
216.971863
 30
0.0
  0
SPLINE
  5
1b3
100
AcDbEntity
  8
Layer_1
 62
7
100
AcDbSpline
 70
8
 71
3
 72
8
 73
4
 74
0
 40
0
 40
0
 40
0
 40
0
 40
1
 40
1
 40
1
 40
1
 10
184.115089
 20
216.971863
 30
0.0
 10
183.893099
 20
217.193852
 30
0.0
 10
183.768387
 20
217.494935
 30
0.0
 10
183.768388
 20
217.808875
 30
0.0
  0
SPLINE
  5
1b4
100
AcDbEntity
  8
Layer_1
 62
7
100
AcDbSpline
 70
8
 71
3
 72
8
 73
4
 74
0
 40
0
 40
0
 40
0
 40
0
 40
1
 40
1
 40
1
 40
1
 10
183.768388
 20
217.808875
 30
0.0
 10
183.768388
 20
218.462621
 30
0.0
 10
184.298355
 20
218.992586
 30
0.0
 10
184.952101
 20
218.992585
 30
0.0
  0
LINE
  5
1b5
100
AcDbEntity
  8
Layer_1
 62
7
100
AcDbLine
 10
184.952101
 20
218.992585
 30
0.0
 11
184.952101
 21
218.992585
 31
0.0
  0
SPLINE
  5
1b6
100
AcDbEntity
  8
Layer_1
 62
7
100
AcDbSpline
 70
8
 71
3
 72
8
 73
4
 74
0
 40
0
 40
0
 40
0
 40
0
 40
1
 40
1
 40
1
 40
1
 10
184.952101
 20
169.992579
 30
0.0
 10
185.605846
 20
169.992578
 30
0.0
 10
186.135811
 20
169.462613
 30
0.0
 10
186.135812
 20
168.808868
 30
0.0
  0
SPLINE
  5
1b7
100
AcDbEntity
  8
Layer_1
 62
7
100
AcDbSpline
 70
8
 71
3
 72
8
 73
4
 74
0
 40
0
 40
0
 40
0
 40
0
 40
1
 40
1
 40
1
 40
1
 10
186.135812
 20
168.808868
 30
0.0
 10
186.135812
 20
168.155123
 30
0.0
 10
185.605847
 20
167.625156
 30
0.0
 10
184.952101
 20
167.625155
 30
0.0
  0
SPLINE
  5
1b8
100
AcDbEntity
  8
Layer_1
 62
7
100
AcDbSpline
 70
8
 71
3
 72
8
 73
4
 74
0
 40
0
 40
0
 40
0
 40
0
 40
1
 40
1
 40
1
 40
1
 10
184.952101
 20
167.625155
 30
0.0
 10
184.638161
 20
167.625155
 30
0.0
 10
184.337078
 20
167.749867
 30
0.0
 10
184.115089
 20
167.971856
 30
0.0
  0
SPLINE
  5
1b9
100
AcDbEntity
  8
Layer_1
 62
7
100
AcDbSpline
 70
8
 71
3
 72
8
 73
4
 74
0
 40
0
 40
0
 40
0
 40
0
 40
1
 40
1
 40
1
 40
1
 10
184.115089
 20
167.971856
 30
0.0
 10
183.893099
 20
168.193846
 30
0.0
 10
183.768387
 20
168.494928
 30
0.0
 10
183.768388
 20
168.808868
 30
0.0
  0
SPLINE
  5
1ba
100
AcDbEntity
  8
Layer_1
 62
7
100
AcDbSpline
 70
8
 71
3
 72
8
 73
4
 74
0
 40
0
 40
0
 40
0
 40
0
 40
1
 40
1
 40
1
 40
1
 10
183.768388
 20
168.808868
 30
0.0
 10
183.768388
 20
169.462614
 30
0.0
 10
184.298355
 20
169.992580
 30
0.0
 10
184.952101
 20
169.992579
 30
0.0
  0
LINE
  5
1bb
100
AcDbEntity
  8
Layer_1
 62
7
100
AcDbLine
 10
184.952101
 20
169.992579
 30
0.0
 11
184.952101
 21
169.992579
 31
0.0
  0
SPLINE
  5
1bc
100
AcDbEntity
  8
Layer_1
 62
7
100
AcDbSpline
 70
8
 71
3
 72
8
 73
4
 74
0
 40
0
 40
0
 40
0
 40
0
 40
1
 40
1
 40
1
 40
1
 10
276.952044
 20
218.992585
 30
0.0
 10
277.605789
 20
218.992585
 30
0.0
 10
278.135754
 20
218.462620
 30
0.0
 10
278.135755
 20
217.808875
 30
0.0
  0
SPLINE
  5
1bd
100
AcDbEntity
  8
Layer_1
 62
7
100
AcDbSpline
 70
8
 71
3
 72
8
 73
4
 74
0
 40
0
 40
0
 40
0
 40
0
 40
1
 40
1
 40
1
 40
1
 10
278.135755
 20
217.808875
 30
0.0
 10
278.135755
 20
217.155129
 30
0.0
 10
277.605790
 20
216.625162
 30
0.0
 10
276.952044
 20
216.625162
 30
0.0
  0
SPLINE
  5
1be
100
AcDbEntity
  8
Layer_1
 62
7
100
AcDbSpline
 70
8
 71
3
 72
8
 73
4
 74
0
 40
0
 40
0
 40
0
 40
0
 40
1
 40
1
 40
1
 40
1
 10
276.952044
 20
216.625162
 30
0.0
 10
276.638104
 20
216.625161
 30
0.0
 10
276.337021
 20
216.749873
 30
0.0
 10
276.115032
 20
216.971863
 30
0.0
  0
SPLINE
  5
1bf
100
AcDbEntity
  8
Layer_1
 62
7
100
AcDbSpline
 70
8
 71
3
 72
8
 73
4
 74
0
 40
0
 40
0
 40
0
 40
0
 40
1
 40
1
 40
1
 40
1
 10
276.115032
 20
216.971863
 30
0.0
 10
275.893042
 20
217.193852
 30
0.0
 10
275.768330
 20
217.494935
 30
0.0
 10
275.768331
 20
217.808875
 30
0.0
  0
SPLINE
  5
1c0
100
AcDbEntity
  8
Layer_1
 62
7
100
AcDbSpline
 70
8
 71
3
 72
8
 73
4
 74
0
 40
0
 40
0
 40
0
 40
0
 40
1
 40
1
 40
1
 40
1
 10
275.768331
 20
217.808875
 30
0.0
 10
275.768331
 20
218.462621
 30
0.0
 10
276.298298
 20
218.992586
 30
0.0
 10
276.952044
 20
218.992585
 30
0.0
  0
LINE
  5
1c1
100
AcDbEntity
  8
Layer_1
 62
7
100
AcDbLine
 10
276.952044
 20
218.992585
 30
0.0
 11
276.952044
 21
218.992585
 31
0.0
  0
SPLINE
  5
1c2
100
AcDbEntity
  8
Layer_1
 62
7
100
AcDbSpline
 70
8
 71
3
 72
8
 73
4
 74
0
 40
0
 40
0
 40
0
 40
0
 40
1
 40
1
 40
1
 40
1
 10
276.952044
 20
169.992579
 30
0.0
 10
277.605789
 20
169.992578
 30
0.0
 10
278.135754
 20
169.462613
 30
0.0
 10
278.135755
 20
168.808868
 30
0.0
  0
SPLINE
  5
1c3
100
AcDbEntity
  8
Layer_1
 62
7
100
AcDbSpline
 70
8
 71
3
 72
8
 73
4
 74
0
 40
0
 40
0
 40
0
 40
0
 40
1
 40
1
 40
1
 40
1
 10
278.135755
 20
168.808868
 30
0.0
 10
278.135755
 20
168.155123
 30
0.0
 10
277.605790
 20
167.625156
 30
0.0
 10
276.952044
 20
167.625155
 30
0.0
  0
SPLINE
  5
1c4
100
AcDbEntity
  8
Layer_1
 62
7
100
AcDbSpline
 70
8
 71
3
 72
8
 73
4
 74
0
 40
0
 40
0
 40
0
 40
0
 40
1
 40
1
 40
1
 40
1
 10
276.952044
 20
167.625155
 30
0.0
 10
276.638104
 20
167.625155
 30
0.0
 10
276.337021
 20
167.749867
 30
0.0
 10
276.115032
 20
167.971856
 30
0.0
  0
SPLINE
  5
1c5
100
AcDbEntity
  8
Layer_1
 62
7
100
AcDbSpline
 70
8
 71
3
 72
8
 73
4
 74
0
 40
0
 40
0
 40
0
 40
0
 40
1
 40
1
 40
1
 40
1
 10
276.115032
 20
167.971856
 30
0.0
 10
275.893042
 20
168.193846
 30
0.0
 10
275.768330
 20
168.494928
 30
0.0
 10
275.768331
 20
168.808868
 30
0.0
  0
SPLINE
  5
1c6
100
AcDbEntity
  8
Layer_1
 62
7
100
AcDbSpline
 70
8
 71
3
 72
8
 73
4
 74
0
 40
0
 40
0
 40
0
 40
0
 40
1
 40
1
 40
1
 40
1
 10
275.768331
 20
168.808868
 30
0.0
 10
275.768331
 20
169.462614
 30
0.0
 10
276.298298
 20
169.992580
 30
0.0
 10
276.952044
 20
169.992579
 30
0.0
  0
LINE
  5
1c7
100
AcDbEntity
  8
Layer_1
 62
7
100
AcDbLine
 10
276.952044
 20
169.992579
 30
0.0
 11
276.952044
 21
169.992579
 31
0.0
  0
SPLINE
  5
1c8
100
AcDbEntity
  8
Layer_1
 62
7
100
AcDbSpline
 70
8
 71
3
 72
8
 73
4
 74
0
 40
0
 40
0
 40
0
 40
0
 40
1
 40
1
 40
1
 40
1
 10
176.540041
 20
218.992545
 30
0.0
 10
177.193786
 20
218.992544
 30
0.0
 10
177.723751
 20
218.462580
 30
0.0
 10
177.723752
 20
217.808835
 30
0.0
  0
SPLINE
  5
1c9
100
AcDbEntity
  8
Layer_1
 62
7
100
AcDbSpline
 70
8
 71
3
 72
8
 73
4
 74
0
 40
0
 40
0
 40
0
 40
0
 40
1
 40
1
 40
1
 40
1
 10
177.723752
 20
217.808835
 30
0.0
 10
177.723753
 20
217.155089
 30
0.0
 10
177.193788
 20
216.625122
 30
0.0
 10
176.540041
 20
216.625121
 30
0.0
  0
SPLINE
  5
1ca
100
AcDbEntity
  8
Layer_1
 62
7
100
AcDbSpline
 70
8
 71
3
 72
8
 73
4
 74
0
 40
0
 40
0
 40
0
 40
0
 40
1
 40
1
 40
1
 40
1
 10
176.540041
 20
216.625121
 30
0.0
 10
176.226101
 20
216.625121
 30
0.0
 10
175.925019
 20
216.749833
 30
0.0
 10
175.703029
 20
216.971823
 30
0.0
  0
SPLINE
  5
1cb
100
AcDbEntity
  8
Layer_1
 62
7
100
AcDbSpline
 70
8
 71
3
 72
8
 73
4
 74
0
 40
0
 40
0
 40
0
 40
0
 40
1
 40
1
 40
1
 40
1
 10
175.703029
 20
216.971823
 30
0.0
 10
175.481040
 20
217.193812
 30
0.0
 10
175.356328
 20
217.494894
 30
0.0
 10
175.356328
 20
217.808835
 30
0.0
  0
SPLINE
  5
1cc
100
AcDbEntity
  8
Layer_1
 62
7
100
AcDbSpline
 70
8
 71
3
 72
8
 73
4
 74
0
 40
0
 40
0
 40
0
 40
0
 40
1
 40
1
 40
1
 40
1
 10
175.356328
 20
217.808835
 30
0.0
 10
175.356329
 20
218.462581
 30
0.0
 10
175.886295
 20
218.992546
 30
0.0
 10
176.540041
 20
218.992545
 30
0.0
  0
LINE
  5
1cd
100
AcDbEntity
  8
Layer_1
 62
7
100
AcDbLine
 10
176.540041
 20
218.992545
 30
0.0
 11
176.540041
 21
218.992545
 31
0.0
  0
SPLINE
  5
1ce
100
AcDbEntity
  8
Layer_1
 62
7
100
AcDbSpline
 70
8
 71
3
 72
8
 73
4
 74
0
 40
0
 40
0
 40
0
 40
0
 40
1
 40
1
 40
1
 40
1
 10
176.540041
 20
169.992539
 30
0.0
 10
177.193786
 20
169.992538
 30
0.0
 10
177.723751
 20
169.462573
 30
0.0
 10
177.723752
 20
168.808828
 30
0.0
  0
SPLINE
  5
1cf
100
AcDbEntity
  8
Layer_1
 62
7
100
AcDbSpline
 70
8
 71
3
 72
8
 73
4
 74
0
 40
0
 40
0
 40
0
 40
0
 40
1
 40
1
 40
1
 40
1
 10
177.723752
 20
168.808828
 30
0.0
 10
177.723753
 20
168.155082
 30
0.0
 10
177.193788
 20
167.625116
 30
0.0
 10
176.540041
 20
167.625115
 30
0.0
  0
SPLINE
  5
1d0
100
AcDbEntity
  8
Layer_1
 62
7
100
AcDbSpline
 70
8
 71
3
 72
8
 73
4
 74
0
 40
0
 40
0
 40
0
 40
0
 40
1
 40
1
 40
1
 40
1
 10
176.540041
 20
167.625115
 30
0.0
 10
176.226101
 20
167.625115
 30
0.0
 10
175.925019
 20
167.749827
 30
0.0
 10
175.703029
 20
167.971816
 30
0.0
  0
SPLINE
  5
1d1
100
AcDbEntity
  8
Layer_1
 62
7
100
AcDbSpline
 70
8
 71
3
 72
8
 73
4
 74
0
 40
0
 40
0
 40
0
 40
0
 40
1
 40
1
 40
1
 40
1
 10
175.703029
 20
167.971816
 30
0.0
 10
175.481040
 20
168.193806
 30
0.0
 10
175.356328
 20
168.494888
 30
0.0
 10
175.356328
 20
168.808828
 30
0.0
  0
SPLINE
  5
1d2
100
AcDbEntity
  8
Layer_1
 62
7
100
AcDbSpline
 70
8
 71
3
 72
8
 73
4
 74
0
 40
0
 40
0
 40
0
 40
0
 40
1
 40
1
 40
1
 40
1
 10
175.356328
 20
168.808828
 30
0.0
 10
175.356329
 20
169.462574
 30
0.0
 10
175.886295
 20
169.992540
 30
0.0
 10
176.540041
 20
169.992539
 30
0.0
  0
LINE
  5
1d3
100
AcDbEntity
  8
Layer_1
 62
7
100
AcDbLine
 10
176.540041
 20
169.992539
 30
0.0
 11
176.540041
 21
169.992539
 31
0.0
  0
LINE
  5
1d4
100
AcDbEntity
  8
Layer_1
 62
7
100
AcDbLine
 10
174.540039
 20
220.808832
 30
0.0
 11
178.540039
 21
220.808832
 31
0.0
  0
SPLINE
  5
1d5
100
AcDbEntity
  8
Layer_1
 62
7
100
AcDbSpline
 70
8
 71
3
 72
8
 73
4
 74
0
 40
0
 40
0
 40
0
 40
0
 40
1
 40
1
 40
1
 40
1
 10
178.540039
 20
220.808832
 30
0.0
 10
179.648041
 20
220.808832
 30
0.0
 10
180.540041
 20
219.916832
 30
0.0
 10
180.540041
 20
218.808831
 30
0.0
  0
LINE
  5
1d6
100
AcDbEntity
  8
Layer_1
 62
7
100
AcDbLine
 10
180.540041
 20
218.808831
 30
0.0
 11
180.540041
 21
167.808828
 31
0.0
  0
SPLINE
  5
1d7
100
AcDbEntity
  8
Layer_1
 62
7
100
AcDbSpline
 70
8
 71
3
 72
8
 73
4
 74
0
 40
0
 40
0
 40
0
 40
0
 40
1
 40
1
 40
1
 40
1
 10
180.540041
 20
167.808828
 30
0.0
 10
180.540041
 20
166.700829
 30
0.0
 10
179.648041
 20
165.808829
 30
0.0
 10
178.540039
 20
165.808829
 30
0.0
  0
LINE
  5
1d8
100
AcDbEntity
  8
Layer_1
 62
7
100
AcDbLine
 10
178.540039
 20
165.808829
 30
0.0
 11
174.540039
 21
165.808829
 31
0.0
  0
SPLINE
  5
1d9
100
AcDbEntity
  8
Layer_1
 62
7
100
AcDbSpline
 70
8
 71
3
 72
8
 73
4
 74
0
 40
0
 40
0
 40
0
 40
0
 40
1
 40
1
 40
1
 40
1
 10
174.540039
 20
165.808829
 30
0.0
 10
173.432040
 20
165.808829
 30
0.0
 10
172.540040
 20
166.700829
 30
0.0
 10
172.540040
 20
167.808828
 30
0.0
  0
LINE
  5
1da
100
AcDbEntity
  8
Layer_1
 62
7
100
AcDbLine
 10
172.540040
 20
167.808828
 30
0.0
 11
172.540040
 21
218.808831
 31
0.0
  0
SPLINE
  5
1db
100
AcDbEntity
  8
Layer_1
 62
7
100
AcDbSpline
 70
8
 71
3
 72
8
 73
4
 74
0
 40
0
 40
0
 40
0
 40
0
 40
1
 40
1
 40
1
 40
1
 10
172.540040
 20
218.808831
 30
0.0
 10
172.540040
 20
219.916832
 30
0.0
 10
173.432040
 20
220.808832
 30
0.0
 10
174.540039
 20
220.808832
 30
0.0
  0
LINE
  5
1dc
100
AcDbEntity
  8
Layer_1
 62
7
100
AcDbLine
 10
174.540039
 20
220.808832
 30
0.0
 11
174.540039
 21
220.808832
 31
0.0
  0
LINE
  5
1dd
100
AcDbEntity
  8
Layer_1
 62
7
100
AcDbLine
 10
112.552545
 20
134.903424
 30
0.0
 11
122.552545
 21
134.903424
 31
0.0
  0
LINE
  5
1de
100
AcDbEntity
  8
Layer_1
 62
7
100
AcDbLine
 10
122.552545
 20
134.903424
 30
0.0
 11
122.552545
 21
124.903424
 31
0.0
  0
LINE
  5
1df
100
AcDbEntity
  8
Layer_1
 62
7
100
AcDbLine
 10
122.552545
 20
124.903424
 30
0.0
 11
112.552545
 21
124.903424
 31
0.0
  0
LINE
  5
1e0
100
AcDbEntity
  8
Layer_1
 62
7
100
AcDbLine
 10
112.552545
 20
124.903424
 30
0.0
 11
112.552545
 21
134.903424
 31
0.0
  0
ENDSEC
  0
SECTION
  2
OBJECTS
  0
DICTIONARY
  5
C
330
0
100
AcDbDictionary
  3
ACAD_GROUP
350
D
  3
ACAD_MLINESTYLE
350
17
  0
DICTIONARY
  5
D
330
C
100
AcDbDictionary
  0
DICTIONARY
  5
1A
330
C
100
AcDbDictionary
  0
DICTIONARY
  5
17
330
C
100
AcDbDictionary
  3
STANDARD
350
18
  0
DICTIONARY
  5
19
330
C
100
AcDbDictionary
  0
ENDSEC
  0
EOF
